<mxfile host="Electron" modified="2023-06-29T08:29:12.499Z" agent="Mozilla/5.0 (Windows NT 10.0; Win64; x64) AppleWebKit/537.36 (KHTML, like Gecko) draw.io/21.5.1 Chrome/112.0.5615.204 Electron/24.6.0 Safari/537.36" etag="TgnoIVju467UD6c2p8RI" version="21.5.1" type="device">
  <diagram name="第 1 页" id="iAom9j_u-9Td6D8ItvtC">
    <mxGraphModel dx="541" dy="795" grid="1" gridSize="5" guides="1" tooltips="1" connect="1" arrows="1" fold="1" page="1" pageScale="1" pageWidth="827" pageHeight="1169" math="0" shadow="0">
      <root>
        <mxCell id="0" />
        <mxCell id="1" parent="0" />
        <mxCell id="4vTzcYyNLAwcBRb3Amjt-118" style="edgeStyle=orthogonalEdgeStyle;rounded=0;orthogonalLoop=1;jettySize=auto;html=1;exitX=0.5;exitY=0;exitDx=0;exitDy=0;entryX=0.5;entryY=1;entryDx=0;entryDy=0;" edge="1" parent="1" source="4vTzcYyNLAwcBRb3Amjt-3" target="4vTzcYyNLAwcBRb3Amjt-15">
          <mxGeometry relative="1" as="geometry" />
        </mxCell>
        <mxCell id="4vTzcYyNLAwcBRb3Amjt-3" value="&lt;font face=&quot;Times New Roman&quot; style=&quot;font-size: 20px;&quot;&gt;Encoder&lt;/font&gt;" style="rounded=1;whiteSpace=wrap;html=1;strokeWidth=1.5;fillColor=#ffe6cc;strokeColor=#d79b00;" vertex="1" parent="1">
          <mxGeometry x="313" y="722" width="200" height="50" as="geometry" />
        </mxCell>
        <mxCell id="4vTzcYyNLAwcBRb3Amjt-111" style="edgeStyle=orthogonalEdgeStyle;rounded=0;orthogonalLoop=1;jettySize=auto;html=1;exitX=0.5;exitY=0;exitDx=0;exitDy=0;entryX=0.5;entryY=1;entryDx=0;entryDy=0;" edge="1" parent="1" source="4vTzcYyNLAwcBRb3Amjt-4" target="4vTzcYyNLAwcBRb3Amjt-107">
          <mxGeometry relative="1" as="geometry" />
        </mxCell>
        <mxCell id="4vTzcYyNLAwcBRb3Amjt-4" value="&lt;font face=&quot;Times New Roman&quot; style=&quot;font-size: 16px;&quot;&gt;Phoneme&lt;/font&gt;" style="text;html=1;strokeColor=none;fillColor=none;align=center;verticalAlign=middle;whiteSpace=wrap;rounded=0;" vertex="1" parent="1">
          <mxGeometry x="323" y="847" width="80" height="30" as="geometry" />
        </mxCell>
        <mxCell id="4vTzcYyNLAwcBRb3Amjt-112" style="edgeStyle=orthogonalEdgeStyle;rounded=0;orthogonalLoop=1;jettySize=auto;html=1;exitX=0.5;exitY=0;exitDx=0;exitDy=0;entryX=0.5;entryY=1;entryDx=0;entryDy=0;" edge="1" parent="1" source="4vTzcYyNLAwcBRb3Amjt-6" target="4vTzcYyNLAwcBRb3Amjt-108">
          <mxGeometry relative="1" as="geometry" />
        </mxCell>
        <mxCell id="4vTzcYyNLAwcBRb3Amjt-113" style="edgeStyle=orthogonalEdgeStyle;rounded=0;orthogonalLoop=1;jettySize=auto;html=1;exitX=1;exitY=0.5;exitDx=0;exitDy=0;entryX=1;entryY=0.5;entryDx=0;entryDy=0;" edge="1" parent="1" source="4vTzcYyNLAwcBRb3Amjt-6" target="4vTzcYyNLAwcBRb3Amjt-15">
          <mxGeometry relative="1" as="geometry">
            <Array as="points">
              <mxPoint x="533" y="862" />
              <mxPoint x="533" y="685" />
            </Array>
          </mxGeometry>
        </mxCell>
        <mxCell id="4vTzcYyNLAwcBRb3Amjt-6" value="&lt;font face=&quot;Times New Roman&quot; style=&quot;font-size: 16px;&quot;&gt;Duration&lt;/font&gt;" style="text;html=1;strokeColor=none;fillColor=none;align=center;verticalAlign=middle;whiteSpace=wrap;rounded=0;" vertex="1" parent="1">
          <mxGeometry x="423" y="847" width="80" height="30" as="geometry" />
        </mxCell>
        <mxCell id="4vTzcYyNLAwcBRb3Amjt-15" value="&lt;font style=&quot;font-size: 15px;&quot; face=&quot;Times New Roman&quot;&gt;LR&lt;/font&gt;" style="ellipse;whiteSpace=wrap;html=1;aspect=fixed;" vertex="1" parent="1">
          <mxGeometry x="400.5" y="672" width="25" height="25" as="geometry" />
        </mxCell>
        <mxCell id="4vTzcYyNLAwcBRb3Amjt-21" value="" style="endArrow=none;html=1;rounded=0;exitX=0.5;exitY=0;exitDx=0;exitDy=0;entryX=0.5;entryY=1;entryDx=0;entryDy=0;" edge="1" parent="1" source="4vTzcYyNLAwcBRb3Amjt-15" target="4vTzcYyNLAwcBRb3Amjt-22">
          <mxGeometry width="50" height="50" relative="1" as="geometry">
            <mxPoint x="523" y="662" as="sourcePoint" />
            <mxPoint x="583" y="572" as="targetPoint" />
          </mxGeometry>
        </mxCell>
        <mxCell id="4vTzcYyNLAwcBRb3Amjt-22" value="" style="shape=orEllipse;perimeter=ellipsePerimeter;whiteSpace=wrap;html=1;backgroundOutline=1;" vertex="1" parent="1">
          <mxGeometry x="400.5" y="617" width="25" height="25" as="geometry" />
        </mxCell>
        <mxCell id="4vTzcYyNLAwcBRb3Amjt-106" style="edgeStyle=orthogonalEdgeStyle;rounded=0;orthogonalLoop=1;jettySize=auto;html=1;exitX=0;exitY=0.5;exitDx=0;exitDy=0;entryX=1;entryY=0.5;entryDx=0;entryDy=0;" edge="1" parent="1" source="4vTzcYyNLAwcBRb3Amjt-23" target="4vTzcYyNLAwcBRb3Amjt-104">
          <mxGeometry relative="1" as="geometry" />
        </mxCell>
        <mxCell id="4vTzcYyNLAwcBRb3Amjt-23" value="&lt;font face=&quot;Times New Roman&quot; style=&quot;font-size: 16px;&quot;&gt;Pitch&lt;/font&gt;" style="text;html=1;strokeColor=none;fillColor=none;align=center;verticalAlign=middle;whiteSpace=wrap;rounded=0;" vertex="1" parent="1">
          <mxGeometry x="543" y="614.5" width="52" height="30" as="geometry" />
        </mxCell>
        <mxCell id="4vTzcYyNLAwcBRb3Amjt-69" style="edgeStyle=orthogonalEdgeStyle;rounded=0;orthogonalLoop=1;jettySize=auto;html=1;exitX=0.5;exitY=0;exitDx=0;exitDy=0;entryX=0.5;entryY=1;entryDx=0;entryDy=0;" edge="1" parent="1" source="4vTzcYyNLAwcBRb3Amjt-25" target="4vTzcYyNLAwcBRb3Amjt-68">
          <mxGeometry relative="1" as="geometry" />
        </mxCell>
        <mxCell id="4vTzcYyNLAwcBRb3Amjt-25" value="" style="shape=orEllipse;perimeter=ellipsePerimeter;whiteSpace=wrap;html=1;backgroundOutline=1;" vertex="1" parent="1">
          <mxGeometry x="400.5" y="559.5" width="25" height="25" as="geometry" />
        </mxCell>
        <mxCell id="4vTzcYyNLAwcBRb3Amjt-97" style="edgeStyle=orthogonalEdgeStyle;rounded=0;orthogonalLoop=1;jettySize=auto;html=1;exitX=1;exitY=0.5;exitDx=0;exitDy=0;entryX=0;entryY=0.5;entryDx=0;entryDy=0;" edge="1" parent="1" source="4vTzcYyNLAwcBRb3Amjt-27" target="4vTzcYyNLAwcBRb3Amjt-95">
          <mxGeometry relative="1" as="geometry">
            <Array as="points">
              <mxPoint x="298" y="542" />
              <mxPoint x="298" y="572" />
            </Array>
          </mxGeometry>
        </mxCell>
        <mxCell id="4vTzcYyNLAwcBRb3Amjt-27" value="&lt;font face=&quot;Times New Roman&quot; style=&quot;font-size: 14px;&quot;&gt;Energy&lt;/font&gt;" style="text;html=1;strokeColor=none;fillColor=none;align=center;verticalAlign=middle;whiteSpace=wrap;rounded=0;" vertex="1" parent="1">
          <mxGeometry x="213" y="527" width="76" height="30" as="geometry" />
        </mxCell>
        <mxCell id="4vTzcYyNLAwcBRb3Amjt-28" value="" style="endArrow=none;html=1;rounded=0;exitX=0.5;exitY=0;exitDx=0;exitDy=0;entryX=0.5;entryY=1;entryDx=0;entryDy=0;" edge="1" parent="1" source="4vTzcYyNLAwcBRb3Amjt-22" target="4vTzcYyNLAwcBRb3Amjt-25">
          <mxGeometry width="50" height="50" relative="1" as="geometry">
            <mxPoint x="463" y="637" as="sourcePoint" />
            <mxPoint x="513" y="587" as="targetPoint" />
          </mxGeometry>
        </mxCell>
        <mxCell id="4vTzcYyNLAwcBRb3Amjt-98" style="edgeStyle=orthogonalEdgeStyle;rounded=0;orthogonalLoop=1;jettySize=auto;html=1;exitX=1;exitY=0.5;exitDx=0;exitDy=0;" edge="1" parent="1" source="4vTzcYyNLAwcBRb3Amjt-31" target="4vTzcYyNLAwcBRb3Amjt-95">
          <mxGeometry relative="1" as="geometry" />
        </mxCell>
        <mxCell id="4vTzcYyNLAwcBRb3Amjt-31" value="&lt;font face=&quot;Times New Roman&quot; style=&quot;font-size: 14px;&quot;&gt;Breathiness&lt;/font&gt;" style="text;html=1;strokeColor=none;fillColor=none;align=center;verticalAlign=middle;whiteSpace=wrap;rounded=0;" vertex="1" parent="1">
          <mxGeometry x="213" y="557" width="76" height="30" as="geometry" />
        </mxCell>
        <mxCell id="4vTzcYyNLAwcBRb3Amjt-99" style="edgeStyle=orthogonalEdgeStyle;rounded=0;orthogonalLoop=1;jettySize=auto;html=1;exitX=1;exitY=0.5;exitDx=0;exitDy=0;entryX=0;entryY=0.5;entryDx=0;entryDy=0;" edge="1" parent="1" source="4vTzcYyNLAwcBRb3Amjt-32" target="4vTzcYyNLAwcBRb3Amjt-95">
          <mxGeometry relative="1" as="geometry">
            <Array as="points">
              <mxPoint x="298" y="602" />
              <mxPoint x="298" y="572" />
            </Array>
          </mxGeometry>
        </mxCell>
        <mxCell id="4vTzcYyNLAwcBRb3Amjt-32" value="&lt;font face=&quot;Times New Roman&quot; style=&quot;font-size: 14px;&quot;&gt;...&lt;/font&gt;" style="text;html=1;strokeColor=none;fillColor=none;align=center;verticalAlign=middle;whiteSpace=wrap;rounded=0;" vertex="1" parent="1">
          <mxGeometry x="213" y="587" width="76" height="30" as="geometry" />
        </mxCell>
        <mxCell id="4vTzcYyNLAwcBRb3Amjt-102" style="edgeStyle=orthogonalEdgeStyle;rounded=0;orthogonalLoop=1;jettySize=auto;html=1;exitX=0;exitY=0.5;exitDx=0;exitDy=0;entryX=1;entryY=0.5;entryDx=0;entryDy=0;" edge="1" parent="1" source="4vTzcYyNLAwcBRb3Amjt-46" target="4vTzcYyNLAwcBRb3Amjt-100">
          <mxGeometry relative="1" as="geometry">
            <Array as="points">
              <mxPoint x="543" y="557" />
              <mxPoint x="543" y="572" />
            </Array>
          </mxGeometry>
        </mxCell>
        <mxCell id="4vTzcYyNLAwcBRb3Amjt-46" value="&lt;font face=&quot;Times New Roman&quot; style=&quot;font-size: 14px;&quot;&gt;Gender&lt;/font&gt;" style="text;html=1;strokeColor=none;fillColor=none;align=center;verticalAlign=middle;whiteSpace=wrap;rounded=0;" vertex="1" parent="1">
          <mxGeometry x="553" y="542" width="62" height="30" as="geometry" />
        </mxCell>
        <mxCell id="4vTzcYyNLAwcBRb3Amjt-103" style="edgeStyle=orthogonalEdgeStyle;rounded=0;orthogonalLoop=1;jettySize=auto;html=1;exitX=0;exitY=0.5;exitDx=0;exitDy=0;entryX=1;entryY=0.5;entryDx=0;entryDy=0;" edge="1" parent="1" source="4vTzcYyNLAwcBRb3Amjt-60" target="4vTzcYyNLAwcBRb3Amjt-100">
          <mxGeometry relative="1" as="geometry">
            <Array as="points">
              <mxPoint x="543" y="587" />
              <mxPoint x="543" y="572" />
            </Array>
          </mxGeometry>
        </mxCell>
        <mxCell id="4vTzcYyNLAwcBRb3Amjt-60" value="&lt;font face=&quot;Times New Roman&quot; style=&quot;font-size: 14px;&quot;&gt;Velocity&lt;/font&gt;" style="text;html=1;strokeColor=none;fillColor=none;align=center;verticalAlign=middle;whiteSpace=wrap;rounded=0;" vertex="1" parent="1">
          <mxGeometry x="553" y="572" width="62" height="30" as="geometry" />
        </mxCell>
        <mxCell id="4vTzcYyNLAwcBRb3Amjt-71" style="edgeStyle=orthogonalEdgeStyle;rounded=0;orthogonalLoop=1;jettySize=auto;html=1;exitX=0.5;exitY=0;exitDx=0;exitDy=0;entryX=0.5;entryY=1;entryDx=0;entryDy=0;" edge="1" parent="1" source="4vTzcYyNLAwcBRb3Amjt-68" target="4vTzcYyNLAwcBRb3Amjt-70">
          <mxGeometry relative="1" as="geometry" />
        </mxCell>
        <mxCell id="4vTzcYyNLAwcBRb3Amjt-68" value="&lt;font face=&quot;Times New Roman&quot; style=&quot;font-size: 20px;&quot;&gt;Mel-spectrogram Diffusion&lt;/font&gt;" style="rounded=1;whiteSpace=wrap;html=1;strokeWidth=1.5;fillColor=#d5e8d4;strokeColor=#82b366;" vertex="1" parent="1">
          <mxGeometry x="313" y="462" width="200" height="60" as="geometry" />
        </mxCell>
        <mxCell id="4vTzcYyNLAwcBRb3Amjt-70" value="" style="shape=image;verticalLabelPosition=bottom;labelBackgroundColor=default;verticalAlign=top;aspect=fixed;imageAspect=0;image=data:image/png,iVBORw0KGgoAAAANSUhEUgAABJIAAAI6CAYAAAB8cmKmAAAAOXRFWHRTb2Z0d2FyZQBNYXRwbG90bGliIHZlcnNpb24zLjcuMSwgaHR0cHM6Ly9tYXRwbG90bGliLm9yZy/bCgiHAAAACXBIWXMAAA9hAAAPYQGoP6dpAAEAAElEQVR4nOz925bjyLJsCeJG+iUiMnPts8epqu4x6rU/s/+gf7O66uy1VmZGhF9IAugHqqiJuknQeWr0o8iLMwGDXdXUDMjQaeP/6//9/9mHYRguT0NqP+zXv8tOF8eh03b9M1Ky6f2a7vCjXRtX/KBHlz475LNPdHHv062P17+XL1zw/stqjiIPTnfrPtcl68fPog8u7eJ0Ec9Guvm1pVter3+Pf7d0h5/XQrh/tvn6zPLWKnr8vnV1Xh+u6bZDK2Oba/klb2oH6rweRAeSxi3qd2zp1ofrX9WnOfa/EOpSxm0S+Qlbg23wNZS3z1RG/Fbjwfa1Ha9/0Z5hGIbtIMq4fMiD8h77YSnX8Ox0btcOL9e/5+e+LqwyL5Df2tdP9stW/5Z8hR2w/aEv1fiWccNvdhuizhNsgvslnuF+2cW4oQwxZYdiuTd8ySTGrbQXY0m2C5/zma1BG11DnxaJ+aH6YHlDhpTfisbxtciD0q1hu/ALw0Dt5H7Zah6cDvY/DLVNH8tlO5hPfToMDrdN+YZmz61x+zTGX5EvSd1H/bnua6x1b/+9lbH9HhWb2SFEpd9bxvP3a0bLS2vwIfz3TG3b8IhaZ8S8LNeU7Yq5NShXjfzoWdSF64dxKH4S9kJjvocdjGTDx+/Xv1/+zzaA0+VasR//a5tI8GHcDpRR5m+0g+fWIcp4+mcr4/TbNaPT137tOf3enj1/26NOVOe/rs8c/6S2ibURv6X/U3OGysBc5XUa8+L0jeoM3y5sg+dHy6T9zDkq7IDHDfnNb3Qt1u7LE/kDjJHy4+xztj6dWntQh9M/2jX0ZUn3EPs16lPMqbI3jH3duLaCMUYT+Rn0W/EvGEvqF9n3aBvNBbSz2MZa/5ZrYl34v7PvzHWayoCNze+8sOKBdun85fofZf7CdqlP5/e+DLl2x7Ob8BG7WC+VD5P7TuX/qB1qD5/rPtVF+U7VDrVO5zW1J+TskA/PBbG/z/KEr1P2UvpZ7cfDtuV7kqhnWQtu7PVUPysbH8Ra+tl7Gfqq7H3EXi/HgeuMNU/ZlUg3ivzKWIrxzXVG7TvIj6fdH0Q6tc/+bDzEXM1b6hrvs27s5dVcVXtRVV5ph3i3knML93g/O374S2WUvXyMA+8x5SZe6Na+r/hssW9HebxO63ewa2Ue/2wPzy94uKW7PF8LfP+9FXyO9ZTfG/G+wPMX18qeS8z9m++1n+wJlT/Ndm79tfLtBteo/7CX57UW+5vltWX4ydbcsizLsizLsizLsizLsq7yhyTLsizLsizLsizLsizrLvlDkmVZlmVZlmVZlmVZlnWX/CHJsizLsizLsizLsizLukuLAjvlz60Rm/a5J2NNAUCcTgSaBtjpMygoiiCosAJPKTCagqBtAIMX6FxP5gW0sQDwBFhsEsDThHNSERK0Ju6hjwp4V0HTInMAtrnAlQDX779PpU4swGm5/gqsCEBqfVbXP++jXqVt/bOTAFMmwJzrrGBjoi4J4aNyEx77GcANYyn6qoDZhO1Ot6CMAi7JSjsVZXBzE1YuAK9cvwQvCwibAjoz/E2BCzEegMBdM/qQfvgF8FEA9DOLS5+OYW0J+/wETL6rPkW/cDsU2FjAcDO9goaTH0owoGhHrUz8ZTtV/azAlTdA4twHl+irCqnGBO7rB4A/51PgeTf6/EJ2kBB8BTqneXQ59tcAsx6Fj2DbXeLa4ZUdYMB1y9gH4H/u/VqFgY/iWdEOLBUM2Lwgwx62zaBfNUbImw+sSCitAGdK4Dj7HMAgFRRUQEY3bpv6X0MCxpzQ4b1LVpRzhXwA2ok1aBiG4fFf18qyDzt/URn2l+DH2UckbF3Mo2Jr4eN4H4HDQrbycKTjPiD/eKt+CiiPn/BlwzAM0/n68Cr2J/KgBAEiXvmQBQCz2V5iDShrxdinayDY1qAEcFOdAdPkflF7hqy/WAd5vqEOM/mhAX6lwIR7a5OgWEGjTZi1gKQrKZB4gbTGb+4X5e8lqPYGpFruS6guKyDk3A78EPXjfR3A23ywAcDqbGvSPyu7/1j3z9LdOPjjmuD6R+3Vhz7Z3VKHsnyWsdwjYx8hwMGqzuyzL7j/CXheHuhyqz8oP/UuJOegOshDHBQEH1YO8YH98bvQDVizOniotE3sfZL9y/tJsfaoPfqtw5c+25fIuYp7qh3cz+qdBGWo/Hh/LOqn2nGrfmW/jXLZd4p3ki3WPD70KV9iOTu8//I+It8H+7qofY56t1d76pUP8BKbC7VHz0NAxDyXhzmJwxXKtwwxF+BbeclQ+3G865Z+jmsXOsAG4892kG3jNRlbTAH9L3UWBwB9TM/PlLXv3mtDXwb2Huodou7N+jr7XyRZlmVZlmVZlmVZlmVZd8kfkizLsizLsizLsizLsqy75A9JlmVZlmVZlmVZlmVZ1l1aEMPHjIGUYol8xrJR8ciIU+R4vGQbtEC7rAMF343nPqYT6bYjQzhwU9SZYkVbHKUK2qSfl56lNIBvo3gpItZ1FDHAis3EcdPniIMvserHmv76u6/fLOJLs73ESkCM7Xyivo/Yz2ntYVnMXlDdlvXkuFHBs1AxtuAScLqM3S68q7im4qo57lsNK9rBcZ6Cs4BYXWZc7BzjimsiZldyNMAHojySwyA4TFw/xSdAPHyJyRasGPTl5bnPowQGgwnAfBHRf8hbxXOXuGowYKgdGEuOxb0V21tsQ8w3xZRJBgz3GeoiOEeFHQW+CPExJGNAsQiQnOcH+CJvdB+8CPaNIq4ffVTYOGibiDcvPAZhfyq2XLHL1DxSsf6wp8IxULHgyhdKrtj1P85PPYxg3Hufzco5OPUGK/kdok7rI5Vx2Lr67cKZ7MHiY193kwei/KXwa4Wdgksqzl3E0qv2qvGQXECuCmyX+yqurYKhc3llhmKMG8+3KOP8lZ6d+/rh2kJ1Qpx+WfMUG0fwIpT9JU9KcOgUT0Xth7ht8BfbqaQofzg/9sWfcWOgZA/SNXDM2B9sirWTvri3U8V2+YzVBt/Fcx9jqFheg8iP/S6YHp/Ojw/1vNYrbO21v/8Zb0P1PdrO9VO8xGTnKX4S/U4/P/YJpjvXss/sHn7vRHMr99RiL8Brz672+ijrBmvqV+lUO3bB97iZn1jzWLvyTXlT5PMJVyfzE9NDMrVu7Hs5P1mG8ImK51j2BzcYioW9JdLJtU7YZNoG2Ut7X6B0n/GwkE5wFXMv+MkcVLrFESrpBJtJrXnSrm4wD8veLPzVdO5BedJeBJ+oSP0TDmxBFMuVssuxFMylnd6n1TvxFB2j9p272uMyJ3lRC2vUT3Ak67oa5fJ7QO5Fx/6a2PtsDz38iN81VLkQv1stP+IvrxWXvlzsQXl/f/p27VTmysKeV+F31V5ZsmHZh0VdyjtJFka/BXPpXm1Y65g5/N6XO4n3X4j33v4XSZZlWZZlWZZlWZZlWdZd8ocky7Isy7Isy7Isy7Is6y75Q5JlWZZlWZZlWZZlWZZ1l/whybIsy7Isy7Isy7Isy7pLib4qUGQFrRo//KVnZgLLAn7FkDOAqTaGLQLwxSBYALE2Jsf1ddnnrd7j+1w/AB17Rld9VnxO2wNOXeHJAcIW4GDWqKBlABvTswmaVqBQ0febABgyvBHQLwUJnhlKG5BtALavz/RtS5Aag7oBfKYyUO4mgKwKPqgAzcUORP81eCiVC5DzJ5BbBZEFoKxcE7BAgNEKqHur6YehzQXOD8+o9nKd1VzYhE3OY39NgRA3AVFE3reg0cOgYZDZDu4D5CNA+1wuAKBlnrzVOg3DL4CigE9TuTkOCuypIJPkc1YxPxT0WgJgP4F8QpuApANYJwHqNH8T+KcAdwLoqOpS/PgNEKeCzO907RIwX/YHKh3GhgF9cwEQ13QSli/stMAbb8EEhX9R8/IzGGn2KQO2k9JPl16nUs9hGIbztx4crECSytcNwm/IcyAUkFWsFQoqLaGb5/p3GGgtYQAjllqRbnlrBZ+fr5UugH90H0GRAbEu6wLqyl0lQPGHlwCdH/tDHS5kf/sC8PdtQq5ap3cBrs668GEhwp9ifu9qjETbJDRczN/LQ3+Nxzch/QrqK+YbzxmMDc/ZXBvp0eVc73283+kzaHMCcj+B0q59KSuAss/tXtaf9qIJP1X+XkGHxWEwZb0EDJd9ooBy5yEvXGns4QRQuZSBsRQHOPC6miB2qsvptz6d2r8M4mAGpJNro/rfzcLnlNvwu8KdyrX0Xol+5jV0F3XGPJfzQ+Q9iYMoSrkKiixA2PfCttNPqgMwPgHpSjjxjblXfA7qpXyTglQzxxkg+wKk7vOTh9qo/Y3aS4l9fY4h+2cFNka5ApYvyxX+gG13eYk1RZUr9ma87me9RD9/JgkcF3X+mH4Y9FqmDi3KV0Oxl1L1lHupYvfiIAX1Hp+HL6kPDXQF9ee9WZSxHbnBcYvfidV7Ht4DxJrHewsc9DVRpU/frtfe/2jP5r6e+0W9z9zYr5UeUAdgIP2NvSFLAriFv5eHU/CcVtB6If+LJMuyLMuyLMuyLMuyLOsu+UOSZVmWZVmWZVmWZVmWdZf8IcmyLMuyLMuyLMuyLMu6S4uKM1YxwBl7XNhC4Ahx8N31z+Vru5TsgKkPhK2xnwgI7RN8yh2Y9y6/vHZu38v2RdQhYi+5fsnVYc6CiCtUMdm7iO3NmETB5Fk4TlHELa+Il2b2B/hAHLst4hhV7Pvlse/n5J+IOMrt0C5mfKliTH3CkZGxnMiPxlfVJWOPmd+hGESKRSDivjfB5UgOE/E2kPd07hvHdr+LPlBcE8URavnRf4j2Sq5Yxg93j5bYfNhkiZE/f3hgaO0tvIjH/togeF0qnh99Pgl2wK7GiOKW4TcKD+QoysAYCVbCJjgGKt68MKsOv04nGQOCF1YYYmLM09a4CNjLI6W7l3ew17/XjGrdWdwv2b/MMUCMNzFHsq8Eg4j5TxijwvmIvmeW0jD1Ad9ok2p3iRkXMfybYCVsik+QbBLyawm9YQcd1wTvgLldkkmx9UyF5F6I/33Dvqn00YdnR+Gfi9+41PTXyorswN+5sVYNQxvD4nffca8VAsYe25ViBiWDQ7GyRD2nlcqIxW4+07iBY8ActegkxZ3idhx+Xv+evt2us1xX4dcE74ORD/ARm1j3lT5jjiTbihkXYKvxHk5wFrLObF+KmSbqkna/imtiniuWyPZA+6tFOawPmQzDMKKhvA+Dbxe2u9L6IBkrK+5RXcDtmsnWkoFFdUHbue9P2DtyIb+GAI2K+cT3b/js4iPApntp15K3wf45/ha+EuyF9xaCw4Q+UnVW4yY5q/yI8u3bjTWAO0bsrxRHUjGIFGcm91Jlf/BrLurQJyvK8R/37toobFexnuTekW34Bt9Q8mxLBfu6K16sXFM+1nNoNqv8S5HYd3blD20c5P6FnxG8OsU4wzyfBK+RBaalZHmJun7GY73JxBP9o3isxQ4+lM/1U+8Ln44H+k/sHQexflSFrxPv4uWdWOzrMgdKp9Y3Zad5jed7+I1abqTj+aF8CfqK7AXvxOzvwcXiPQ04jeevLd35t722h/XZvFQSNqRsQzGHsR6pbxTqG08pVtkpyli54L3+HeQW07Isy7Isy7Isy7Isy7J6+UOSZVmWZVmWZVmWZVmWdZf8IcmyLMuyLMuyLMuyLMu6S/6QZFmWZVmWZVmWZVmWZd2lRcEREzC396QoDUwm6FLAqi5PTCREvn0ZDDjMfAgyNb+hLlzir2GGnJ+8tghyVwJFe6JZgSjGs6uACkt4HuUnIdoBepsZFPr+a6jzTlBLgAYLFPQGhI1huAnmVUAuAWFjiNiaYMr+2QLAuwFCVMA1LgP5lDwAv2QQNoDAAgBaBCAc9bMqQ8HaUNeROlUB/xQIMftFgMRZgATKcild3i+E5uufyxMnvP6ZCZS8vMaj5z7dhWwD+ayUX85Ltmf0uQI+3wuDVOBHAY8vsG3VV4AtqvyG/trGYGgFvlX1U/Nt7tONwiZxf6HxaDDXPl2xKwXoEy5xFP2MMZfuUvkIAtXmPFf9KEDdXGeMzfzark1inh+/RzryeW3O9PNturR0AMWvx5ZufY4yeHwFxDPtgA9emK+VHhmUC7/L5y2k72yTEGuZhGmKQwmqX4t1Zu3bq6Tg3WUs4WMFrLJmJNKpMkQe7QCHVjBgleffWrrLMx64PTHhl9lfqTJU/fIQC/btGHMajzxEgOzvJMD46qCR7F/R9wziFG4j5wXPrZy/CmirbIgB5mr9Fe29BTVnmPsSwPFd9NUuAKW8frSDFGgPF/NWHYpQDlvBnqzMDyxmXZVLp2JPyL4TIG+1Z+B+wd6tAuD38vf6TO9kc7x4z7D0gGZ5+EjCcMnXYS3jffGl32cnYF1AzVmH8Kfc9wkSF3sGBTsu81zUJdtx42CNYWj7JTVXVd0VnFhK7NcK4Hrv4ftyYiZouj9cobB/cWAP+WcFXcchCNvSv0NwEepZBblVhxwoKTD5LtaZ9k7S1/kzSLr0VwpIrfbe4p46hCbXRlU8z191yIuYb6grv/con6j26Ldg2+V9QdiGyiP3L+r945O5INf4zPf2OzYOCVEHKPHr7ybalofBiMMkbh0+wc9sYh/L/YL9aUkH6L+yDdqvtfEQ+wkFChe+royleg/A9w864WQ99MBxAK7re2i/Hm1HtdmK9Ar2XvyV+g7yaynfrg4QUYe3jDzmEsrdO1T/iyTLsizLsizLsizLsizrLvlDkmVZlmVZlmVZlmVZlnWX/CHJsizLsizLsizLsizLuksZGcixuIih5/jDHYwBivNr8b7ESgg20n7s4xlHym+K+DrEYQ/DMMxRBse+g/2xPrZrGSv5SEGJiOcu7I+oC18S8awZzzj3wbOTiHXldC2ekfIFY4BjOiM+cT5RrLWIFQYbZCTuwPLWB0aCRcCfAhEPrOLhWehfxcvh9Jfoc45hRTuYNZExrIK7UuKWEasp4pY5RpWZWx/FNrmJdoyCEZJ15nIzRv52XfbHeu/j74/lSlbW0F/jOFQVszsLlpLiEyC/w8++Lhwfjt/MUlLcHxXnPr2PpawixQdiThTapnggIlY9uSrDL+KW75Rifqn+U1ysjAsWYy75DRxnfKMPVLzxrfk5DM3/cX45z0VseYnJVnygm/wOUS/OTzBlWvw1+bqYoxPPI3A5VH7stFX9bojj0hFzX6YO/BRzjrCWCJ5eZRH0ceng6H3KKrrBWZAXVXpha2qMCoMDtwQbR/lJxQ4YxLOljOjg+dSvb5wh1j+5Z+Aiwk7OtBdYXuP3nyK9siFm7KEu3N+5f2mXFHvm4z3Oj9l+2Q6eC8LGs55UbuHZIZvITzLJBPencGEwB8U6PYhx4z0QntloXHK9Z9uI37OyYUqYexrBtSt+44CFWuSm9mg85si7rD3BrpiUTXJGXZXLHvRjftOJO+H6h20DfMtN8SFV28hvJB+y7BN7dlTy0wTPovi1yI/XfVUHpFNr3iTWZMmMEX2m/J9a4yexJitJ5lfhMCFfsucbTLzyjpPMUu7Uvg6S0XaDwVJ9iXrXwA++2NcvmTLMCxNtGwR3SnGVGnOO8ruxF7h7/eV9zv/ke0DxnWI/ns8ItkutxI1nWeDvqHEunKi9S6iYoLAdOT8Uk+wThmzLt1/QJUNH9F9hVcKXcN/fmJfKX7Jfu8XgZcn1MkFMfK1/FvkVfuXHPKguisEm38E+GSPFXFJr2d3lCp89ncfIr1+j1Lbzlm/k8gqzNPZaKOt6sdb9Wr+ok2C08v4k93qUH75NbAf+nmNZlmVZlmVZlmVZlmVZd8gfkizLsizLsizLsizLsqy75A9JlmVZlmVZlmVZlmVZ1l3yhyTLsizLsizLsizLsizrLi0KtJpwYgaQLT24axDgUUAlCxxMgAsBewKscBiGYX7r67IJWOp+vBY4EhkQIG+GjI4A9DFB8KxIyZEvQ56DCLiduGP6ugwJHWzPAnhVIY4B2iog6bhGIE6AvUamWgLyeGnPTgG8WhcCDYqxTDidgDIWYLZQlkbPzgCUChBiefbWtU9Av4B4jQLMVtqW8NB2LQGqAlatANwS4ilUAHOqbTfg3QpyNhOUcVIAQQF8XsV4rWE7G0GqJwGoT7tiWKWCMgp7kfBQBeEVUEFlYxKsiHsEQFbPJsyagbGY32pqMyQODEUB8ivPoG2ljL5+mZ7Be4C+fgbNDfHcV7BDBQrNPiAbVzaE8Vd2XyuBjOnZh5rHMGgIfoPHE3gP85LrF36e7T7vfwLSTRDxJHwdtSfngvKne39teGidujz2DiO7dO07rfSjgnMKgLMEmSrQ6tBfk3MGNnknIJeLSHsRzxa4KeY09x/W+AIojUffKB3Wpk/g3WofkTDI93bx/R/XAi9PvR0wpP/yHMBJBiVHNocf7VIeUMBtE8BiBfodbvQzdzRsjQGW20P/0Kr8yqXvFwnrFXbV/CQ9i3QCuFsA/woaHtdmZdeiD9hvrE/XBuw036Y4KGXidkfB20MreL9cf++0b8NBIyNVcAo4+0xzcFM2HuWpsRwY8p190INvt6FfUwrwFHBxWmfkugVAM+0Tc0/zyVhCxU4FjDkPXCAbUoet4DePOcZwJX86iPXo5mEDbH8Ksqwg2mLc8p6C9bKd3oBKy0MnPlunlb8S6fKQl098du5jFTyZzU/B8vFbQLl5r6TK+BTce0tq3YJrL4tK1EWtH6p8BuPfeF8oe/lYU3hetn0dZY1nqOBdwKczD5qXgDrXd5K9r6caN7UHFQcB5L7kE/B8O7xF7HeV+NCTKFeBnHcxlkViv7urzcWeTpGejb7ivW321SebFdRZQPWL7oTBZx7iHbH4CHXABOyPDr7KA0YUsV35DW5H+l1ao+QBNtF/vMdUfgjXxMEHxTfh7609KT/LgHA1t4SN+18kWZZlWZZlWZZlWZZlWXfJH5Isy7Isy7Isy7Isy7Ksu+QPSZZlWZZlWZZlWZZlWdZdWhR7JmO8RXx4iccTnIrpHfHrLd38joypDI67Dq2CvdDKoJjYiD2fDy3DDcGDKwcH9gG6ezwjGSscL6hiIOc+PjLj4AXjosTLRrpd5avCLc8cSxrFU4yj4iHlNcVTEXHzKqaz1Hnqr2XWIpaUYyt3xRvCfa5f8p/6OpfY8uSk9M8WVkeUuwobKowBlLt2yST3p8Sqi7G+BE9gE2yNMkYPfZ2TQfBZvKpgB7QY6v4ZVc8yLoojhVh/7isV+36Dr6TiyBVPpT4s7in2Am4JpohkG3AcPuaemDOlPasqUKSDaE7n/U/4XnlPcBtq7Pb+sYhhPoG3RunEWN4KaZ/EXOD81gfwSgS7hftH2B/E+SlmGZhvYKJd8+7TjxGjrtqxPlK8uWAkZZ9SubtgZM3LtQHzREyeKGQlPgs4ejszocAAZCaUGg/FQrsxV0UyaUO1kA8PDG3u7eJaeRTX2Pxfr39mag/qsNK4Le/RL0s/HnUuCB5S/GZmC/zU5UurKBhZap25PBF/Ipg8ZY8RjVte2qVcYwVEgsdvF5yZxrJhzkdfv2QuMTMoF2outr+m+CLSpyuGk7om8shn6drytvdl3fLF3N4Y/1u8wVoZwfQo7BQFp8E9Lvf6t8w7pKP53lgYdO0GP4b3sfmTWHG53aR0yZKT/J1+X1f2k2EvxZfEvJhfuV7xKPMI4euYhxTPyvlGfFLkU8ZN7M3u5WE2dk8/fsyESh4I8e9GxQFDPZkFdGN+lP2G6BfMC2mnYg9SmHeiforlemvOSMaZ2BfLPQ1fUnvbD3nwQ5LNxMnEHm4X3EK514NdqfpxIfuHm3yRro0beGb9/ortJd+PBP+z9ovwTbfYUcJHqPdf+W5Q+FRiDyX2iSq/xngU+13FaVxv16+xe/qGj6KehUuJgRV9L6XedXl8c2xEnUsd4tYmmFpj/0Dx99FH06Evg/0f8rs8kB8PVt90okYqnxhlgM3IKhy6U89/gk/fC1dMtClfTvty1TcANebl/Q32TEzLbBOv53iG/O4MRiGxo/wvkizLsizLsizLsizLsqy75A9JlmVZlmVZlmVZlmVZ1l3yhyTLsizLsizLsizLsizrLvlDkmVZlmVZlmVZlmVZlnWXFgnDFTDSBna6DZ4aFXj01JchoZEK9qkUEC/mjyWgkTJWcN0RMFWG+4kikgdHsMAxoX0CQk5A1uEGVLXAjgN0VWCVAQgdtx4OVkCD0QwFjhsFtI8BXzugtPRsji+NUULXBZCQy9gEuDX7nMf5FhiQ64dyVb6ibRKeJ6ClDFcDBG1j20XeXBcBOZMQO9G2BXbPMDQBSMNc+QyMKkGIsEnqA4BdFXCS65y8uk9AjWPA8mcBAfysbYOwv1H0X4MK9s/yeEwBOVY+qtQ/YYs9qHFjf4C/BFFMQB6D7RJcfRusnelV399mS7Y689zCQ9RegLC5bevyazAlg+cBN2UXpqDcN/8XA60B6A9lp3nIwtDmHsMHlW9CvwD4y9rFuCmAtLLJCh/EutCD2C80cFPcL1xKtJNBvwCTE9x5eY1+UaDaT4C1CRSVkHn9uz289+nU+Gblu0c/+JcAjtMhAkusW8sLwbZf4Yz52agLrVsb1l+2e8y9rZ+DCob72dzaA5w+EogT/oLhoQC187p6CzDMdYEv5PFNSDVBKC9RxsNfrdxL9N/61J5VYPK2ZyA7VSDO6OdxHvtrwh/wXM1lodiL6JcPedRrYj/E/iU6a1zaw9PcO8AR6ehhDOHK/bIuJd9haDY2nsgm0c9HGvPcJ1I/5mBSGTdgx8XnoI94MwqAdLHJKIL7D/tYai8OqykS1cMjCwG4Vxx8wIcwiDEE4LXs/8SeS80tdXAE5krpKwF3znkkAeoEy8dYfgZ7V5Dq9db+QEC+S9vGco8fKXsGASpOfj4fCgR4vIDby5cOtvsL6sKFdMnarbI5G/t0ov9yz6AOC+FHcVvsI+Saws8KmH+2jddQMY/aYTrcp6KQrR/z7Hu11iobYo3CNpA17xnEs+1wnrFLp+Dn5Vn5XtS3Ldcy0Y6RF5C97+cGA+/B1foAHeEUC9R8LLf4Wt2HYWHt66wOqtLvW3QRewsaj3x3Fv1Y1oq5X9/yUAIBNd9o/biIPcMo3t/Wx34fhvqzTWI7oqD1tf79Nbx3b0daP+CLhYEpf1D2IOJgLvUOhrqU/uurZ1mWZVmWZVmWZVmWZVm9/CHJsizLsizLsizLsizLukv+kGRZlmVZlmVZlmVZlmXdpUVxdTJGj2NEBZ9FxYNmHD6xA24xj0p+eEbEZG8LxZyiDBFrvRPrJGPtOR50u1UZDuhG+RxUjHz1I6lFlHuaPl6SXCL0x4VjFw/1Xqkfx6ZG/SYVz/hI+QlGkrqWeQvOUWEpSVZH/BFx7p/Fvu/i86aMjQ4xzyLrxG0LzhXbUJbLvJdLP5jJL1JxvJ/EoCe/SHBNuD23yihxxojXf+jvr8Rn2TP2ncoIdoQql7k14NqMok/VvGQl54jHaqz3+Br3S+sD4lmgTTzP1XyLjin8nRu8qYmZAAjdPvfplB3WWPA+nRpfxSaREjY0B+djOzD/pJY1DM22pR8X81PG/xf/J/gJF9SJWDawIeKP5T3Rp2xXeHZV9sxsD+FL8Pvw0se+s25ykz7Rlow9KuMYBZ+prEjH/YJxK4wkwRVTnK1kFghbL65Y8cfgwxQ76hPmElhPhdkHX0KVAa/m8qWlW977OTjHtZUat9M61Cod+T4SW+gZbCbq0/frfe5nxVBqhfF49PPj/BzJ2B6Sx9BnV7hJOc+pLmGzPBfAV+A1ElwCZmqBeybroqAFYgLvkq3QN6Ssl+BocP0wRoLpUbg6yf4gHwFbVMyM3r2UPdwcDKVNMGimQ2vceonfl1bpW766MDyDXbYeecIJDgnmIDEz5F7vXgEhxmueMLK0IfYvou/TjsV4zDQHd/xWrBhmKU31r6o7/x7VnpB9bPQlfErJh/fUao3aP/zlW4KxUiku/TxqPJ/be71NcH8UWw02W9ihqq4HcMpE/T9hJA2CGSl5nYO6JuZ8+L8y96OMwliBvQhGa6kM7KW8fwheTho+86lE9dW7H/hAUz8vSxmwg0tfZ7UPK2vt0l+ThqX2bmrOqDX5Tsch5yAeJX+QHDXxHqrWqI3ZUZuwA+zNxB6k1A/cKe4rvJ+r/RqPUdSfbS3rL95xinCN2rHl3Oq/PZQ6C3uBH515L4p3e8WJOvd2z+nwzjSR/V1OfXuTT0r73S3mG+9pcj/M3w9EnyYLTfgXZmVtgs83wp+JNeWz91C0l/fb/hdJlmVZlmVZlmVZlmVZ1l3yhyTLsizLsizLsizLsizrLvlDkmVZlmVZlmVZlmVZlnWXlowjL4yLX8MZSizk1McAL6/Xv2BEDAPFhdOzySt5769xPCNiOc9fKd3l+v1rfaMAP8TRirh+jsPP+OZNBJhyjO2MWGt69gSAB8VlIl2JQx26dBmDKWJ2OV4V41DiGcGnKkwU3KRmoHqCuaTiaRV/p1wTDCokLPwdyUWIexSvn/cufbr9k1jNrB/HpeN+qXNfXsZncx8g9p3jtcEDkTHUfSxuYZ2AT0VtwxgV9gKqUlgYPUcjY3EL/2TopLhYq+LCxG+e55ijMzM9Il3hMKEPOHZWxB6jf7kPkPcmbLLECgt+DJ5lPkFDhPSco3vFfaVi31WsuhrfjC3n6t1gAZU4bXDPBKfsM4ZOllXsJeyZ7DRj5JlTgTnNPkzUL2O2BSeA7QXzWzGpZDoq4/IIDk67lrax9GuQ6pfCQoMNMe/l2JfLzIBbWk/XjPbz7f/fohhnqEvBJyhmGuYl+UllL8lDEj5R8UrUfJOcKBGHD7bH9X7wn2gs1Vifv1zTXZ7bNdg4c7amtw/lD8zZ6m2SmQlr8IYkP5DXacV3mGv6a70iX7K/9Ltq/nJ+wv+B67Ueetvl/cv5a8xV4ifkeLFt5p6hz28sBYs1+dxfSzsQ2zvu0xHsJsHZkiwv3qtcPqQfhsYVo/yWw7VxE+0xtpv8Sioj2RrMn8i7ee3wo88m7ZM6IW2C7C/ZFuxzBO+l8YHI/sR45b1d+B6eHxg3wb1gptbNPSEJ6z37F7CRKkey/h0G7YcyDypX7WPBdOE5rbg1Kr+cy8IeCrNKuWUxfzEeZVwEjxD7gr2sD3Co7QrYb4oXq/bUinNU5kzys8SeRnFruEs/Y3d+UOFsrb2ttZt9GcwgSkac4OWUPYMA/Y2CR4M9nvJNhdN4g2WjbPIzLuUu3k+kX1Pc4Hi22D38wdhfu1ef8UlzD/zJex7mMuyVpfZSav+i8pPvFZf+miqP7+UzPL55U7wz8Z51EummDw8MA00uxfxqly7BBSz+Smg69WwmfNfgYnNPyOtM7k+pzrHO8BTENcne4m8UaDtNwmRacl8Jdll+3+DxOPd+bVI2HmKOqf9FkmVZlmVZlmVZlmVZlnWX/CHJsizLsizLsizLsizLukv+kGRZlmVZlmVZlmVZlmXdJX9IsizLsizLsizLsizLsu7SAojSpQBKBYhYMagC3jQLIPAkYJXMiQKgSgEEC+ArQJgbA0CfrgnHudHBANHeBBh1ZBhVkIj3S0unYFSAWiUocmgQvsI9wzUGaEWKiSBnkwCeZXrxOY/hl5cvUfdPgNSZn4CwlXQCDKgAZC39bVibBAgKIHWK2rGLuiQfjWBeEhSKdtKzgJYq+LlsLwPFI/ONwZkCNK3ySyjZa99XK8OiBeQs82UYGuDODMd+L9UsdWGznyOBhLgzDFwANhsgvK8fS4KDBVxyFJD5hHy/UP2iPPYHChCO3wWsiPLUXGBbA4z+sb+/iXZIyC7bQX+7wRY5vwTltWsJ9mRALsZIwDkrjDTSFTiigFqOH3+0DGc65CB/C1i+hL4yJB1AZbY/HLRQANc1D75ffAnKF7xT5XPYXtZcK/pnN+WHmFe8CgeThRC4MGCM01vLEHZSQM5ifmS2AlYp10FmpItryFuyVdUcZHvJ8lvb0g5orcruEPmxDW0Kvhr/USDAIj8JDY9+uTxx/fp9CfocoMhhGIYVvxVoldcKART9mO/H8jKbaLvyEerABYaVDz9jnXkju7oByP0MGJsgTnU4BftJ0fdYt3BICot9ItKtbKfiQA302/ogGlQWhq4quYc70L7ugr3jpXf4vDcb475aV7l+D/+6/j1/addyPWDbiD0h7zu3o9oHiXaqa1vvS9RcmG/Yldr7yIMZuFis8eSzlX/JwyToWbUGZF3EWlFcp9h3Sli0qAsSlPaqPs2Mu0eLElArwLzFJKPAvcB/95oH1XkX+04+yAN7C66ePHwGXHfVRAFZLntR8c6U6RSsdxfXhN9Q/VjqLvpAHkKT0OG+zso21Nqt9t6yHaIMtadRKjYu1iO5DuKv8PfFdMU8SnB1qYSomDrURh2egXLVfvKTtik1EDY9GvmU9RzjpvY54iAUhllPwoZyL0DzbVbwcfgIsb8vByREPgVSrd5/kV6toQ99Qt6v4V29vrv0kxmH3sg589D7puFAlcE3iuJjwzfxYQ04EIzT4V1Y7LPLoRMxgcqhJ6gC94t4//C/SLIsy7Isy7Isy7Isy7Lukj8kWZZlWZZlWZZlWZZlWXfJH5Isy7Isy7Isy7Isy7Ksu7Scv11/XJ5ajN76JYLfiPsDCEvl4PRx5JcvcY3iBREfyWyS7XHrnk3dCIcehmGYlmtw5fLQgj8XgJqYLRQ8pJV4SFME924qsFrF3fIlxDMeiaGDBMxrmseSfhiG4RIMk+QxDRwP3K4h3rLEH4q4asUMyvhhiikdRdztrdjQWpYKOBd5IASTy137aynBwpA8C5YaDxk//Gvj4b5vAdU9D0QgZWpPoC4ce4z4ekY5oE85bj7mDMdzZ5+LONQShw8eDfOG4tnt1Kdj28DcU9wpZhCNIn44n2HWWLKU+v4utjH1Azeee7tS+aRdvbcMZ8EaU/aM/Ni/ZDr2axm/zgyE62+BhijzA+kKy0HxwgQTIH8rTgUzodYuWWohxpTkDc31L5ebHCPOnNl04b+xPvC14rMxRsyoCVtjhs547uui5j76dxOuh6W4NYrzkSwMbht4AhSDfjz2juoccIN1boXth2uGF2WvXJeIVVc+p4zRw7WMfRb5MasjuT99x0wU/w/bYSYf+DzLT8oaLJvH/pri1RU7FcwvMKEuz+3a+ti3Kf2L4L1szEWA7fC4HYQzFhyN3KuwmYKPxqwYsV7meiW2B6PgnxQfEenO1Ac5B4nlABvnctOeuW2Cg6jq3OUxtPEYyZcI1KHk23y8Nww0ZwTXRD1bFCyj5aFVegKPYWoZzmA+0MAdYq93OTSjfHu5OqLtRPMy/T3VGb/ZNjAOzDeEj91FOp6DF2HPil2Re0Jae9T8RrJTP3/LmAvOjOKBJA+ObU2w+CRnBvwTZtSI/UveEkyess9RjCTMc8VfFPmV9oI7ypwZkQ/YZZoX1vNZ5BaXfZ3grd1qW/GdN/bAiguo5n55BqinT/bKimsi2ynmvhprPMvrefKfxJZa9YHaDxVOHr0vtov9s7k34vkGu2KmG9rGXNlbmC2xbyo+Vrz33NqD1MxRqXZJ7eVvMcSUPSueVNlzRf1XeidWe71sh1jjWcrfw17KXgB9L8a8cGUvNT3nw/2SzFwe37CX9UG8Tyu+l1jjeQ+8vPV1AT9y3Pi9J94NmM35HPs63hPifZC5bPhuQNc29b669++Ijb0qIF1sQ2DwHovzvP7h/La+bchwL+tW73fx3sH273+RZFmWZVmWZVmWZVmWZd0lf0iyLMuyLMuyLMuyLMuy7pI/JFmWZVmWZVmWZVmWZVl3yR+SLMuyLMuyLMuyLMuyrLu0MHwSGi89dAmSsCeibyG/yzMBpY49AGoP0OnIsCkFXgZkimG4kS4B278Q7s9Ep1vX68Mrg88uPZ0L9doZtohqEqQV97l+CbV6ZGJYlPXeCFVjQBbXrVXm8gwIFtUvIbftmgL+KSjjLRWYnAJXj+IaxKA5AcVTMGEFHlWAue4e3d8E4E6J4b8JlxRkVAUN3xcaSwVWFH2VUEsG0WE8+JoA1SJdgUeKflF1QX8UsHbMwQK7FWOUfUoPS9g2wPgFlCyMAnP1SOB5zCOGDgNGT3mM8CvckLi2PbeBY3D+TQHcyvUEAE9A9Utr9n4O4tpGfi3HQ80PdpMAL3N+AprcQIMEBQ0w7y0I5jBUQHfeVrBeARmFvRT/ApgwQQX3w6+hggwNBKSwgBUPfT0V3DlB3QISLG2XYZriwAD4HF7ntofeNibYKY+bggjj/gMTQAMcvPR2z+DgPRoyi7mznlsnbJeeaok+ZWHOMC9RcVgx90aeO4BkFlvrwbI4UKMAY+M+28uowJkCkplznqGlOfWp/2JNLEDMlz6/TQDlW8ECdF6cMTKmusi1IrKj9sLGyloGOxUQ4yK15gmgd7adxxdzRgGLOTsBQUXXb2L9LeBWBbkFjFmA+1kS8B/zYuH5gfHgtScyXOjgkvNl7tLNsf/a2J6X3jetR7WpiD8Kas5zXx0+cun9WmbLvk4c4JDpeC5EXQsYH9DXT/y9OuAEY1O2xblppUtirsq93v/kvo41CWjurkC6Yj1CO0ZVhgAvq31iqTN+3AIh82/Rz+WRGwD9cuCMOmhGQJvxTNlzCbh92qKAMatDd9ShCRKqr6qp2k3tVWOEsWF7UFDpUawft2DlI+d37NM1n0P7Sax5AlLNyqVCHcoitKvDoXgNFWO+CcB/2pUAXLMPG5XPEfDurIoAa8u+/wxCLuq3536t72c1T4o/jTrMr/xCE/fUYRfCN00C6F3KE/aXz5IfB5C/XAtfMr9T27a+UbuYl2qM8M5UvgFAbKfYo9BeZceGiL8phE2MJ3aUPZQ79yDnvp+LDQHKzX4j2iHXLd46xhwsh0R0T1iWZVmWZVmWZVmWZVmWkD8kWZZlWZZlWZZlWZZlWXfJH5Isy7Isy7Isy7Isy7Ksu7Rk7JuKp+UAOsRtqphTivlbnyL2jmNJnxDIS2WAIaE4TMwxQKyr4ErU+PrgRWz9t7GtBAJe/0wUh7/jGcYnxP2d8tuiLhybr+ol+UroVOIEDJc+uHwLlgdXGWPEfZpxoCqm/RNGUsZRivBNFW+pPjeqmOxNMGBkHL7IR7G3VKwrVzDrwH0l7HRUdQEHh/ogWQWClSA5M6UhfTrEgCsmBTNvtoj9ZR5I9gGHxAqmDK6dv9EcfOx5EYh/HYgHlnG3zLyJvuKY8ZzfYq4OS59uFAY4lhjvSFcSoHxh0OybFhEcreAkiuEU+U1Tb2slFeb3Owfi9+mzuLX3L1w+mFEqRl/No4F4OcnqII5GxlVzPHxUpjBvIu57eW3JFGMANlQ4QuDasc8BI+nQj0GJq8Z8ozht1H9+o3as9e+1bV3WdJN+K4YJ1i3yG5foo02xDegS2HmbHCT+3dtarj1n7lRFnoiymDFwgzVWLsl0CuqBelIyzNGJ1zxUpj27zn2MfPNJ7Voy+4ifhXFgH7Y+xjM8Z+FDmDGFcSPwHhgczEXIdZB9CZbuwl2Bvx+7a5PgMTC3K21S7HPUesScj+SBCK5JWVdhu7yOgPdCZYAXppgjhREi2HmKoaO4P2j7KLg6istR5tuHOg3DB84fHg1/yuvC18f3uNbSrdHRR8G+5GdXsV8Dt6Mwkh77dX8SHMnzl8iDGTBLP9/wjGLYSbch+FlSdO/ypb8GX8d+HOPFNoS2rcwuE5wU8Oc2xbIpPLP4y/0i5mBy6MgfZPmKd0r7iLYXFWsoD4FgH0n2h0h3i7HH/bIpBgzWMmY9hW0oPt9Oa97++KE9nE7sIxSTltcRxWXLskSffqbsc7W2sO+UnKiYb+qfIrCvE0yZW/t2WXeqwIQ1lus0ibrEHrP0Ke4LBkzpAzHP8xbbPdYw9k14r6B99hT7yOJTElg39tfYNsTWFs+wnabfU3uVB7HfFf6l7LPBv+ExEnuo5Bry3mfu64L+KOvD3PdB2rjirr33PmIU/g8MpGGg9zfeH4BJRmWcv0ZViI97/NGvH7vYb6DOvB9qjClmH8WzavKTck1k1my+D9K8TEYm5XcC9JAyVPxj2I7g46o9uNrnLK80L/tHLMuyLMuyLMuyLMuyLKuXPyRZlmVZlmVZlmVZlmVZd8kfkizLsizLsizLsizLsqy75A9JlmVZlmVZlmVZlmVZ1l1aAI1imJIGB/aUuIRWMYRLALmmo6ATK74b4NMFTBnAK4KmzYdrfgzNfThcK7MJuNWZoNZzPMPXADKdCHyFfNadgFIAwhGELYHaBdQNcBzB0FAvAQbk/j7/FmBeBd7jcRFAMwkdTogxEx0DPMrDAoAbl3ELAjiIdGv/cIGlCtBbgr0UYJbrhypMPXBtL7DoPr8EAx737lopT0DsEthK8DwJEs86C0AfgxATbt+DsNWzDDdNE2KI8fnDzet/lD/D8AmXl/sqAII8p7Od3GW4z9DhgPnONN9h9wye3wWIWM1p1HUluD1A9wwfht0xfJ9h+h/FvgT5lTqpvso5LTIUEEWGyAKuO94AMF8rcwPQ/ET9vIu5n49SuuiX8zdKJgClai7kXHlqYzlGnxZLQ/9xVdAO9uNgABJs8RBQxJGBwAIOe8tvcH6X5+vf8x8ElQYQk+GhMX+2tXXCJe2gXVsDXLifaP14CXDmI5UBqCq3VwE94Z7ZNm66VgEKLevM1rVDQh5RFwH2LIBSjDkB77dIwD5nebn+nRnifqh/h4FglmV/EDakDrvg5oZfO/71CTw5bGieqb3YRtC8xLX5vW8H90GeifEydCq2FmPOcOIE6TIwWx2KMfTpkLcCB5c6oC85nVqHcu1umczRVwxZnkWdFcQ41x7ue4DJueCwifMf5IfEAQlbPDVTx0zx+7S2yqxhs7xf28TcwmEO7J/XL9dy1yea+wn4b9cwl+W+l/sZh0nQXmB+jb0UQ5bF/55Nv1Z83fWZw/d2DXYA0PowNH/B9pf8VAF2PxA8Hs/ANw4DgWVpruZay8BYrGWivxkcvKnDPaI/Cks24c7tEvZaIzvCG+m4b9P+uO+Xmp6fkfs13pegLnRtm369j+B1E3200R7zFvj7V3XoC2GgMsrlZ3Gv30+WfTEKLsDxfnyz3/iQDVUtAUNG3hLOLcD98qCgQaQrm/n+UutU3iPFX4JAq/FtD9Bv9Id4hyiPnLBvpzIOfUMkuF+9J+S7JPV95Md5qHcmBZTPseQ9Ot5xVHu4zjh44yL6nvfosLUncUAC2xXendX7Ku83cODL3JexHW7vn/OQDbGfLOnwviX2G9x/l8ex3BuGdiAN+2fMheJf0M88zpPoA7xL8vguOOirH+CR91I5F+jaw3Ucdj4Q7NzbszrQAGtjOeDp2KebCWYO+V8kWZZlWZZlWZZlWZZlWXfJH5Isy7Isy7Isy7Isy7Ksu+QPSZZlWZZlWZZlWZZlWdZdWjJ2lWMSESO38qXgRXA6EU87Butk57hRxAGKgMW9BLWDddJXlJkKc8Qtf3k4ddcuVG7G4VNMJ2LuDxxvHs9yjOga+ZwIgpC8F+L0gFOh+EqFC4Nre+vUSwQebgPDF0R8OGLzue8lt0jEvSIuk+sS8ZOFNSDihjO2kk1D8E8QkzpRPG0yFQQeq7AwLjWPYWixmhvF6yvuAGLGOa5/X37NKJJIGZGuxKFm/C7HWoctijmzUUx249HcjpHOkHFmdSD2/dLXlOPw1y9hQw9iXp77uaXshqcl5l6J9xU2OYCPxpNGxl0r20VZNI8ynrt/lrlJ8C8T5we0y3Y7P8VmAses+CH8VOwjLjb9GmUog7Jj7gvGT6kR/oP5DhJqhTyI5YC6Fh5XzwSQTJ6xph+GIZl4BUVw6sEIaS9kz5KPgfnx2C6+g/tEHTO/hM8mzgd8A9vk+nT9eyIWyxZx+oVdMSs7iHa8tfZc0H1HWmfi94XmdPJlVjG3BN+r2Ab8C3E34J8L5wj5Kc4RaZuFU0R72ZdgIET9yjWUdxZ1Gfpk5drS30t7Yl+nYDZgFpCvW94+1HMYhuUVnJR28RJ2cPnKdfm1v2XOzPsfcY9dU5S7Ej8GLJliz2qaC8ZAsmce2iX46sIieBRrChKoOcvpxJrc2IjtElhBzPPZjoKfoNoW+Uw0L5MdIVgdQ2HiXcd8ZSZZ/J7mtkFYYwHkfeLDskb6fh9WOHmCoTP/BN+rXcvxV0wUYTcVpBFl0Pp7wX6D18ulr0v6Lppb4HUxvyh9e9lfgcVC18CX4/ENG7t8oWuxN+L9AerFnBvJyUsOJy9cqo/iL689MMlik+JZzBlmr2JNLu8a/aM5lsyrS5bc7XeN3F9J/0bPJi+HrmF/yDYuwUBZWruk+hnVn0R7CwML7x/tWlaB90hqc4v7vISnH2CGTvxQ+85DP99Y43Dj/U2gpj7jwUHTifpPsALz3WEX/Tz2dl9fXpAH2QbMXr1jsY0f+01c8jB5DV1EXW5wC4utK7MSzC/Fcs29j+BZje+ifnwffXCgvYqsc9wTe+BdtY2FvuI5mCbZLyqS66Q4TMwQy5er3r/MZFc5z5Sd0p5BsSDxPlb2HWM/5tlHpR3CxyrlgPA1UddYV0fBmCqKuc/v7GhTGapsR58H84/9L5Isy7Isy7Isy7Isy7Ksu+QPSZZlWZZlWZZlWZZlWdZd8ocky7Isy7Isy7Isy7Is6y75Q5JlWZZlWZZlWZZlWZZ1lxbATzcB5CqQLgWvS9CWAGkRsWkKcGuBb4EdJQC4rFFAug4BYDwQqPEcMMaNCFRTFLLStSXg2PPCkMfr/XUjEGKke1BtI+GZmQCqp3PQuRiAJ6hpW4DM1hPTPns48SjAcaMCmkEMnUO1mGcW48GM766sQQPh9lP0EUMjE5ba8kluHIEuUS0F3mN42R4A1ZWgloDJMWg6IdoFitzn/TH9MHyAkeEa+pfrp0BvAm66S3Dc3l+DGIq39TDmFAM7BcwV8xZwZM6PEyqY670wzbzLdiBAztlXG1dawSUFyHHswdVztGlaemI7A7gB2R4JwguwZoHgAzJK5S8PkfeR/MFljnR9nQuwUwEE2932E7bBdoU6KKCjmtOFviruhy8pNo7DC2hetklI+S29HSiworLPzIYAvgmH5f5D3xdA7vUvQ/swly8z+XHyIR81v1K6gIGvj72NF+A42ksgSaxRZV0IOxgJwI3xUmuZghpyOvTLNvZOqkDcb/Vz4TT2gE0p5ROxfkz9NT48Y4tB3C4EHD/AJ7ZHAfW9fKG+h88h/yxriuWNwZlTvTcMw3D4kVTaVpewEznmwu+eP4FyD79HXS69/cmDIxiGK6DwODDi8pWAwA9irmJ+FMhyXGN4qAKejmL+qoMy8tm+GQXkDBDx2N8vbRPg0XyW2gb/vQg/vpIBqn0k9ma8v8LejG0y28n+PuyP4eytnu3a4UfMy0XYH68zD/2ckWs2+kpAfctBCljzuF4rIKjtWtpf8eNRFEHcYdvrY7uW+yVuR9hT8TnqsAYsFTxsyg/12412mITyiexzch9Bz0YfKJ9Y5ozY59z0hHxTLd3K70a9NlqPBkB6JWCbNzCwF9479mUpju4g1lBJMB8//KXfnx3ykunoPQDQ8K30c5dNe5btZe/9bnNN/d6xKOevuCWg8Oy7J3GYiYSujx/ucRkCFq2g12XNuPUOKw49qQfJfMjkV3VB+oUXmvirwNAH3nf28yjXDfZhmIPsT9OHiWfFPComKXzdqEwXv9W3B5GuHDyDgw/Efrecj/D+a49Q/dCHv8Mw7DHn+XWmrXm9n1SHbIynqbs2PKixpPmR86fv6Pp+Hg/zfLv0lZGHjyBd2Z92yeReXq0f/hdJlmVZlmVZlmVZlmVZ1l3yhyTLsizLsizLsizLsizrLvlDkmVZlmVZlmVZlmVZlnWXFhmviuA3jo2OONrxyBfBJmkBdIfHa6Ad+BLD0GL+Skx7BqyK4jmON2IMN4r9BJeImUZgobxTuVvc59h78JVOa0t3BhNFxHkq9hFi9FmXleoSzzDKBByX85nqF5yhEsMqYtXHGflRfKTkqCBjcVHFWlPc7bT0bdpVPG3Ub6QMV8QoH6lOItY/Y3YFO4XDQVHG+lCAIFFn6oNgnBRWjYiNRr8ptEzRjTjtEq+PsaaLYPbsxF1RzIcp6r8RO2CHTfC1+LtOZFeXfs5MJ8Tx0iDBdp4ZfHGLxXOL9TM0e2GOwan/Br0H6KN4CDFXdsGYyvQ0lpjfbOuYo4qRxPyijDMW8dwbzVXJGov7uzC/UXE5OJ1ga6Q/E/ysavhxRcW+MydAxKCDWTZubBzKDkSdkSHHk6OdZM9pV/xs2MH03vpl+Sn4DiH248lI4uoJDk1eU3HzhWPQx30nI0TF9T/3ZZ3fGzBiRx+wbWAO8vjCJ6l0596ZFD+kWG24xPn1eKA6/llp/BXPstBMWt9y7jHvKn4rngCzcfK3YLCVHpiEDY39XEV+62O7uPyfwUwjGzl9DTYiMQtyjVj7uXX8TmUEE4fbAdbSTvldgnM0CYYA9/PyGumI6bW8RD3/oGeCuTUfe2Mv7D5w3pQPFUO/nmjPpdYU2FNx0NfBfPhXS4f6F58DHAPxd3Cf2zu/R7bMuwI7T8A/VrLxOcqYyXG8na+Dw/sr7L9W2rOg7Vzu9AafSHWGqYk9CPue+YR7NBci78LjOvSMn5y33PfJKqJyl34u5LVXWqPAyhKsjsJdAQbxvV3L/QH5XfgrHt+sA8/97oeWZJJhif96ew+yi7WxcF4+PivmtOS8cRY3eDml79XeEfscwcYp/jnXRmbjiGYkY6/Prsz9qd4r6chn575z7/ulLHliDspdn9qWSBaUeFbtS8BcUnuuUmdlZJFO8CZ5ndlgE4yjmdSid6POXOradz7slFlF8xHsX6pe7B/4WvLvlB/iMjCP5LrO7wu/rrvcI/G0FOtvssYK9EbtWXGvX+NLFSRDNvqP95PI71X4DV7PcZvXLcFQzPu8/6O1PbOLdIW9qd5FoqorMwDxLPn2Ve3hLmrfFPYsmEaF9ST2sUOsbzvzOmGL5d05LrEfF2zE5KcKnzPwPie3DLROv6Cw/lHLsizLsizLsizLsizLuil/SLIsy7Isy7Isy7Isy7Lukj8kWZZlWZZlWZZlWZZlWXfJH5Isy7Isy7Isy7Isy7Ksu7QAtMWQYACdRgF8nhh2vOFvT/1iGOQW4EeGTA3imWR9MaAU4KljnzeDsA9B4GR44xZ1nhlSHT8PSyNKIR+GvwHAfS7w7uv9mSCFeJbB37MAve07wMFMWxRQrbf4Tf28zYKqJgBpCX0V4L0iAL4IOF5B6PGo4NUlmE2B8hh0Gd07v41dMgWIVFC0SYB3C6APffkJvHabALET6QSU+yZIkJ8Z+/sKsM3KOcP9DXu/cMd01RsUGH+KZyeaMxi2AnBDX1EZOZYCJDleehsqdVGgvzQNQbrkhwUIW9rfqgqJe+ITOPuc9EmFOPnh79Dmo/JNZSgFQDXNQEIUKb9V5DcAdte3QxE2x02Mh+RJivn2dvv/F2SdRds28lfj6dd1VWa//KRaRV0vX9q19SHKoD4YJaC01pPz031P6cSYoy8v3F6sLwQrv8H/HKYXAhs/xPrBvge/eQ4iv1kAJxkon0BvUT4p12cGUwqY5i24vQSEc10SRCzWeBq3KWxjIlvDuO6PzZFPAJQSfHUQeSfwufh2tIP9Wl8/eRCFqDOeLetMwImlrQkovAIWlyUKdlX8UA++nQDhpXZg37RuBICHL1FwZzYrcbDFeOr9EMD4CjrMMNLmI6hcNVcFyPSCulDBx/ma8Lj0i/zGHQg7oGvHQxzoQr4JubCfzDESZ7yoPQgLz/C+JPvldN/aWNbktZ98c0BmGd6t/Jo6lyHXWgaiCz8JMSh+S0dUiPddGdhvKKBu0SzSiSLGU7/YpU2Uwy7QgaJ+vH0+inqh37gPbvlTtpdFdLR6Rux3s65qn1jsua9LJqN0EpSMgw/m9nCBEuOa6r9b71tirzcoELtqGwsAX35UQJF3dWhH5iuuKYg7r6uivdskMorOLGuZgHer/Wk+QxuUVe3d0C9sp7GnKHu4G+NR1igBRU475SxuvIsX/4b+oz0/3EGBQO8iXUKbx+4aQ6AB9Oa6JOT7JNZ99R7FY5SHrVB+DMq+Jbz78V4v9zktGQ4owIEZwzAM0+n6LPPBp3M/HmpNSdue+nTl3Uo8Ooh+zmx5jAbx7qKk1jd843kX48F76rTFHsRe9n+3a2BZlmVZlmVZlmVZlmVZV/lDkmVZlmVZlmVZlmVZlnWX/CHJsizLsizLsizLsizLuktLi+nkGEzF+In4UgYKRHDlRryDS8RBI75/GIZheLv+LuwKxBqKGN9RxcSqcGiKmbxEMO7TsQVPgps0iXjeMwW4HqMQzm8/XH+/XRqfYIo4wY0iGsFf4jLOEbvPbKbTFH1AoJH36Zr3heIUp/eo15nifdFHHJe59/Glu4oBxrhyvOq5f3YQccsqNn9UjAbBgJGMgRuhnFvhfPTpMyaVGV2zYB+NN+JzSXvyC2jMVVz/3M+PZpSUn+A5qQbnIxQrPMbvkZgKo+JDwWRF3Pz0Tu341jO/Wux7z3HZlV2xRJy25P4oFtUq+hkh3iXGO/5j6fkxPH5TliEcAiMB5p5DorhJbdz6+PAiXGzuoPGuuL34zWOJ9Mr+VVlsf6hf4Z+IchWrKOeRYHr0blzzhpg9k1wxSpfznNaP4zXB5SuVcUG6/tn51Kcry8ylpv9YBwg8mvMj+4iaxzVd7+u2iFufjytdiwLPfRz5Lmx8OvX/X4YZA/g9fvL/b5rPkRAsTnnNl33Jrfh7tg3FTUJCwQSoz+JeuwTeFXPcFPsj2UjM7Up75jXv+szyxj4n/NWR2ptcCernYz9B0PfrY6vLFFyEiewPOCLel4D1xHMG/rbYKYplhmKUwb4da88+Uf0ic/adU9himb5gCq7ChgQXa2OmQvQbc6ySgcVjzhykD+kK+yPaiX7kZwv3JwZpITbYLPz3Jhzk4+FqZDM9u6LtnEXcZxvaZ+yH+jpze+GT2IaShcHtjbw3atv2GKwJrgvGmtmWglm1Pv16Davl1ntc51H4SV6jJN9GsFjQ9uLX4LvU/on3ILFml9HLfHhdWLu6SJ5ZPiL2L5xe8GjSl7DdP2PPQBxYsGHJt2Pu8bvGKNhHySnb+3nEGlXbFCcFexpOJ7hi2c7ClBHvT7O4B26NYFGW/sMzx76vRtEcxfUse0zks/XtVXy+wgJCOubjXvAeStcUsxR5FFuD4ZMvBiuGOaGCP5vjNot3Y3rXzb0t+yHFsMF7ytK3t7CJI92o5m+ZC2P3bGGfQmCwncQawGto/+QwBOtwOjSnk+MgIHGbsI3puber9ZU31X2xY/KuyO+KPSsu8lzM+1SVGdXnLUhUQb13FcHlECdvV1ys/rWn7f94n636Hj+F32Wfgr1AcQEBdNqpMqN471GsLMWnwj5npjV+fuuq5X+RZFmWZVmWZVmWZVmWZd0nf0iyLMuyLMuyLMuyLMuy7pI/JFmWZVmWZVmWZVmWZVl3admWPjZ6HPqYRMRqfhabv70v/e1DHyeb8YKFhwQGAj2MmFhiFjwer8Hgj0uDNCgOUtaJYmKR7jC3YMhLMo3aM2t0yJdjAyjMEdy4UmeBm1Rimc/XBjwd2rPf4v6fb08tGWJrKR55i5jtEvupPvchfpJjwWV8Z9wX90pYK/LhuExVrojhH4eeSwStn+UHu6J4/UGwWIYbcdCDiCPnWOYJ3B1uL2xCYQo2BZ+hSxl3KwAjfEnFMiPenOKH8buMh+JyKM5MzAsuosV9UzyyjI1XvKEYSwrKHtEfKta7PCoCl8EduPR9sFODx1nUBSZ+asax7jV9qYOKI2d/pdLhEpeb8c193PcuYW3UV4hRbtO88RiUi+JikY+wjVpZkY/KD78Vq4tsSHHFUMbGMdTw45wd+F7s26Mv1wfyu4LzAcZO4W0ITs/HOl3LiGS0VlyCOVLahvSKxTf3Y355o/ULtnMQtsEcGUx9zg/9IdiDsJFhGIYJbBJ+FHO1VFmwj4L5MT61/EaxDqb9ifHl9Hn/pV/DmQWEcWNGEvgsZT3fxRqPqtKaNwSvsPhEwQHbl2Av0EKtWF4tEyo2bGJ9pL4PXtL80pc7MdMI3C7BDuI+yDyYyaNcJtao0lXRNmIvpP2d+ZrgHQheXbpgGnPUdfnZri0vcY/a1p5t1ybVvWv/7Ps/oj3kN2bB6jguojNjnTnO7d5pDFuk5NjD8b7uPC9duWvMi8J8iD5gG0L9K7cm/gpOSuGACbvbg8FWtnBYuwW/qHBhwHUqTLy4xvvi0OW5/d4e+r38/Ia1looV45HX2IfB77GPuIj9KTJf2K/1nMbcY8pJQb+zf8X+QPjxUgZYMXwN8+fQ74FGxQjhtqFcAR/cyY9nPoJhwu0d1bqGZGIPUtYozAG2ufCJA7N7cu8zdteKUGfia+beTNm12qsIni3vX/apH/N8uxTLai0Qdemv1QkSY67W30/26NkOqkxyjmjfmYwpflFR75yCqZrtFfvTylnFJkTsWYV2xQkljYJtmn301DpVvTuPYg8FFf6xeOfL/it2UO8Nw5D7Sd4PJYNS8cX4XRfDxkxVfFNgPx77U/Z58JmKr3T+0i4dv6PuYv6Wfez1/srvsPBTbKaoF0+Z4HbtzGjF+xsz3bAXGIVd8T4s82jjuwfIamS7Qv+WF0fU6T5/JV7zLMuyLMuyLMuyLMuyLOu2/CHJsizLsizLsizLsizLukv+kGRZlmVZlmVZlmVZlmXdJX9IsizLsizLsizLsizLsu7SMgUAiiGUABVPDLIC+IzhUfEZitMli0qAnQpUC4BXSjeexXctwKUEV4yh12+XK+mKAdyA8F0o3enSg0QB3uZnl6AjHokyegrQGoPo5qmnUQGyvYh7EzXkcLjmfSEwVnIuuV8ASCswueuffe5hWUW4Tc1GvzAocgzIZxkDkR8AmwVoe6vccg0gZ7qUYC9B3mMgK8ByBczbA5pHBZAGyLSAEAW8NvMjyNneQ8n2BMB3WWiQ86GHUG5LI7Ml21sBNhl8FlA3YVbD/ti3t/SVAt7DhriMS18u4KEAww0DwfOoDgn3ZhB7VHZ6VMYk2kE2mWB/rgvub8JePrNDlU7Z6QWAUuqXnjva+rlA+wSYHM8q2CK7PDln4g/Df3FAAoNHUQaVm3cnHrf4zc8C7jcLu1fAZ27buQcczu/wL/RkAurpGmC9BAsEZJ6vwQVXOGJU5ZHSRR+dvzFwF7bLdYnxfaM5uIn2SsDwWMoaBs2OzXQvrYx9vv7eqO8Vtz9BkgIGXuCcwzW/SQDZC6R6FhMDy6oAwY6fHuBQ0w/DMMyn+ncYhmEL4PxeDqII+CX77Nh78JTeDte2MbD98tQ7nfRDoo0M2MT90s8XjCVd6xmZudatD+3a/B7XGIAs7KCBycmvAahNhzrsyJsrOANG2gPRy74JIFgqdxNgY5Q7ESx1/DvuESg013bln8muAJAGsPuaNwpjPx57TGrv2/laCB96wpDtW7rEulDW87g2negglABNY6yGQfNxs+3ssuP3RCDiXAMudPjDc0Cly+EjqIAqQ81FUQbbpICfZzqG4Mf4Fv8Sa/fOIFjMcwaYAyBN82jHyRbctly3GAId9T+1TWbOZeV72F/htgCAD7QX3YWNZ0eLA3tKsoRA90X8sl4QDkPgdgBuX6DXAq4r4LUKkAwIbikdySSFmpLhJYz3KpgDBzFGXO4tVrN8F/vkYbEHGV/ncm8Y2lyZxJq88Z4fc1CNC024XBrZhkT/yfamn6T8xF4A70XFDjCnyh49xvKFJ1xIHdohDnT5VHhPYftDH/FcxV5eZLGXPWH8UHOVbVfdV8DvBJ33dal7xz5dwu25L+Dj1BlI/J0h312oXHUIx8c6DTQMlBx7mbJXwbszuwP4WF6n4a+OPObYdFEhqv8AHFfGy7aG9y0+RADvdDR/852e2xE+gte3Nt/o0lb/fvydzegvWZZlWZZlWZZlWZZlWVYvf0iyLMuyLMuyLMuyLMuy7pI/JFmWZVmWZVmWZVmWZVl3qQcGDcQhIf7OHDyfjWIOL+/xuOBKFB4IYvlEPCjHKd6Kcdy+9gHO57XFoZ7iN8fcQxOV+3i4Bp8zqwicozOBAmYVCPgh/TAMw9slYv0n5hxd6/x26iE6XMYpYsqZhzS8B/dCMThUfPVnYbW4v4lr6+0Y0Rbz3C4hXnkTTCPusm35kO9AbCauCsLwKW40OVzEcsjbHAcd/bEVRtLHBlH5zEVC25gJMN3oTA4lRRkq/lbYOHN/VsRQM8vhNeKvBfOG2QYZWy5iWLenngdSxhfzjObbhFjco4jTVW3aOI681rNU8KEZzB7PbMyagL3zs6gz8aTAdZoobn5XvKE7tYF9tH4S/x82VqYCXFh5NOKg2Q7A6OKHM2Zccaz2Ll1l1PQx2dIfALvCjAFRRvY9+RfMs31kY4u/HOqPvImlNHy5JixTITpp+dnzdybilSAGndkz8FPMNZnP9R7r8oUehbuleT6/Xv8W/ACwEtwHszAowR1AQ7cnqsxDcFKYE/Xj2nElhl/YEHgmuxrgUum4z+OR/q9PVoE5woZgO8wRSnYKtSPm7fKDioX/YfNDbD6zmWB+5OuySY/kI9LGe/+sumB9JP5OMIq255bf/Hit4Hai9WMKH0vt3YJNuC/ki8EKZB8rGF3KnlUfYF4WvgQaVbY0YEcNvQRTprDzRLnJ+6N0aNv8RqVG23hpHJUNiemRPCR+NnkW7WEwNB8OrcHYh5V9U/QL79fWre8QXDsRkweV3mj9wHrOHEnsq8oaiuI+4UCgfwsbLNbu7djPozIesGfqLIXMaLwSKjj9PaWDHZR53te55cv7JvylefQAx9tzPgrDKefH7f8HnfYu2DjFlHJ/KgxMMG92sf8bxFwoCxI4R/Rs4ybRvvNRdKDaZ2CNV2sGPYA+2KkTmq1RukUZGxZ0UQK1bXrr2T2jYjgJxgraIX3ODbZMZFjzHYa02YKAAYfujW0NxkvZ4T3g1E+aXTRDjS9fy7WHt0OzKBdiXo5oe+OjtfrlnOE1NPxPYQ+eRYGKRbrcsOdam19e4n2E6oNRzLO0T94Xq3dN9AtnIfhyae7M6VHr+Ye6D8MwjO9TLWugeTT2/kCNVZkL6GfmdYo9dUpsn7cD2S4+eYj3suKb0FXsX8Q7cTIj2QdgXjIHEe9qPC7npbs24t1FvOsWG1d+5dzvfbDGz2Kfc/pGfqjPzrIsy7Isy7Isy7Isy7J6+UOSZVmWZVmWZVmWZVmWdZf8IcmyLMuyLMuyLMuyLMu6S/6QZFmWZVmWZVmWZVmWZd2lJYFcDLeK70vMsQLcr4BlARMmQBoAuXsBfAm4roDJgbsogVw/G1jxr4enYRiG4eHhnNcejz2MG0Dt97U9C5DjRsSrS0DGGOy4BhH1jQBVAHkz5BvaiBgGgCQDu/96u9Z5VaBfFsCeBGgDnLUAvhQ4TkEy1TXkK0CIO4N0Bbh6TXiZgEayDS0ADfYqcD8BdZMSdZF2AqAy9VWCFZmFFiCzncZolLW9VRgJYEAG5QVIbRKwPR5fQFB3MR4sAH43rouASya8m7mFgnffYOACrMewtpgXE4PjRHdk/anzC4AuKyhAnAm/JDAvAHMM9uxZ+lTpG/eGX4CrRT8n/5XHchXphV0l+LHQa/FX2C5RuRMqyHMCPzk7jPk79VX8nNlvwCWyywYQk6GqGKO5H6vS3oQxt/EdA/YJ6OwwDMN0qn+HgYDFAuDL4FsAsxnADaBygeEO/bXlZ+TXloXh8twDItEvKwGz0ecjASKnd7FuIbt3svGXgJXP/fiujwQdjnILrDdg1gwZRf12Bdwlpb3wugC/y+kTxEmXYJ98kAJgzO9sMJHsiZ6Nfi62Iez0Yz1Z3M8JWi1AzOvfwwv1qYC5ZrE033B4RfHFgDALCOpMIFi0iccNhxEUiCyeZZCz8BGwxXJ4RgJK6drWw8/TT3KfJhS5GdGGdealX/TY1hIkTv2Msz94zuzqDJXeZbd2qPkhIKiv7+3wEcDAnw6tYABqeX1bYwx/vh+Hj1oOrSHryzXvAiGP9Wo+CT/O1bu1JeM9A2ySwPPwP+sT1fkBYFTKJsaVodyjgODfgnwX+0PT6dr5W5TxQHsawI5pTk+5R2IoLaCvXHBfFxzmwM+mn2ToK/a56oAdtjX0hzoIZe3T7by+bb09t4Mo2rVcezjdXP+W+1xl9Ic4FOPedX8Ufu0z+5P7DSzTZM84rIGBwFg/6l4PezhqRviuAiGHm+xfcWq/5PD2e9FRHD4iD/EpUN+xtIcfKkuZgoBjfqh+LLBtwITZ3/96DS35XPo5jTV7fO3LZaWt3QJY029lp9Umo87UV/k+wf5P7R2lXalF+9f3Sv3U4UbCrynbRbqEr/9CWYZYZ+RBQby+xX1+d0mYNWeHcaB+uYRPL/uStPG+2LGs8Whw/2wx6PCnI3dWHkpA1xScXb07v0WB4sCycrBZ5kHpci7QWob9EB+IE+J10P8iybIsy7Isy7Isy7Isy7pL/pBkWZZlWZZlWZZlWZZl3SV/SLIsy7Isy7Isy7Isy7Lu0oLY6Y2/KUXsJTNb1ojDH0/9tycK9R92xOZzLCt+cxhgxFWPhaWEPPqKThPFfkY8IXORjvOv4Snz1Aq5BN9oE4VwOqW38zUOf6J4RuSzc35LvcdaKcZxAudAsCtKyCliFwvnQ8ShCqn40mRrlDhtEcss4jJleegDii3OcjmOc/zwl+ul4qoVX0fyBHrGhYy552vJeiI2CZg8n8Ra3xLPhVHYfbvZft6MEVZjLmKUC3vhBherslP2Wk/6PRbkWG8HiLXfKAZ4C67IRo5jflPl9vXKS2yniAFnG5pFnyYX4f9+rDXHFOdcLvAKUWml6KNJcTkmHkxRF6FJ8R0EB2I99vMX48X8E9zfFuIsgD9RmBnxLNlB46jRNfgSnqvJ2qFiIx/OD927EZcDLnF5oTqDz0LpkmVzoGtzvTcMZH9cZyA9iDGV4etrP0aFH4MQdOIToO38LMaf7QD5cF3A4lnZBzyhnr3vVD671Fn4upzLZQ2odR+G5oe4fuAHKSZAsTXBNUmujvrfVYXNFPyOdzVnKN35muGFeDQzGETEB0J3FL8Gm3zjfunbBs4Wpzv/Bn4HtU3My/zNdhrV4vHdvlwTVmbVcJ/AYWBOGVgd7EturT0kydFAXZjxg7nAdqDWF/gImh/zcs3wsLSH5yiY91LfjtfJ+nJpHf3X5ToZFmJCwT9f2O7j/r4Q4wxjyL4d3VJ8GOouGCaFkXR9+EzPJgdOzIXKYIu/7DfEoCd7hjku4avZZ4NjBv82DMPw8K/ol+dWwQ3zm8dS7P/QB7zuZ/WYK7ZNHy+1PqI6g0myEdpKrVu5dxQctYHXS8VducHG4bHM+z1mq/YzfvJalixX7oM+n0HtzQRnKPtD8GMKy1D0FdrE+8Wyp0U6MM741raXe+U+lzv1124yHrl8jIdiDAkOp9oDKyZUZe30LCq1lt1EmtJeGXZXGMHCDyQWi++p9xPBRQUTbBz7Ote+7+fqIDhgyThT3L2hbxsL46/2B3Xc+g5U73475o8at7KXAsurt91SbvYz5Qd/dST2m9rr41ma01gby/uReK+FeI3nfSnUmNJU7F7vDcPQ5oLiQ7J7QV8pe6UMc49Z5nQ8y7xJ7AmZNYufc9/P7IeS88wMz1OfDv5vfm8X/S+SLMuyLMuyLMuyLMuyrLvkD0mWZVmWZVmWZVmWZVnWXfKHJMuyLMuyLMuyLMuyLOsu+UOSZVmWZVmWZVmWZVmWdZcSJ6Ugo4V4BaAUQatuwm0ZCgXIE0OwBGAOcKmRyE4AXm0ELjwEvPFCoOS30xL3GiHr+ciU2atOArYNyPbp3Ehbh6BKbgI6ttKzh3h2Idj36XKtw8up5fd+vl7bGRIniHAJ8mPg1UsA3ARwt0DJAAL7DGAuwF6AgjFsTEoxzlCvmcZXQC0bBLoH2ylQ6Hab/SaBYQ0QSekEqLH1S2+TEmysimd7Rn40Hrg2CtinBNdxXwnYrIIJJ8T4vZ+/hR0Pu+M5K64lVJXbBrAs22SAlFcCWCY87yvP318DvQsQE8DnAwH1lt54dwXKw+9VDBZfuojOnz78HYZhF0a+BxVvFBB3Vd7K4GoF47tTm7KTnOdijGjcABi8fOWBQyacIfLo5wL7AwD/FJR7fmEQbF/n9F3F38cfBSX9BGysnsUzZb6pOZNA71aZCwygzA/xbNRhZsAhfJ2ARgKmPQwNtMr1mwSYPH/v/ZzmS2gvA1TzmoC0KqDyyIDrJIr26RiSDsBwBYBeH2JI9fo4dnXOPtqF7bK/SpBub5PLW6vgerjeX35y4wKwKYDol2euc9yjOud+g/za8mPolGPJ/QLwN6+/cZ/n1vmsKJ7xh+ssINDZH8XW+s2UWo9giwq0eqQ24ln27YCaD8L+WFO/5crDUUq6uDbToL+t1345raJ/SOoQE7UXyDXl0vumvZ/m1Q/B/1FVRgWElhuTq6ZXAp7Gs2sB6MdaxmstnmVYLw4+oL7Nwy5ojC7PPbBYwfITrM3zcr9vXmL/WiCyONRBgLorxHjo0qF/1TwvQvUENJyVz577cqXUXli8CxXfJOoiD88Q7zg5DiqdEo3bHABddfCBst0C9VXtSGC2uFYyR379TQldZxOPuvK7S65R4ln1nvLpvhg2eREZCqAytzF9tjhQg+sylcNnrlofIh1DvtX+Sr2niPywp5DvBqIZDNrPQ3cOt9cAZF76Hgfs0DqogOnwSXzAzog94dRXcKa9ResXvhZl8DqCYnluJ0CaygBMmu1epFOHUuU19rG5f6aqTPBrbYJMeDfldSHyGRVwnP2QONQm21s2dsKvqcOwYPdHdtCRjNPN/eRCvXidgY2XPQ3eL2l+YA3lOe1/kWRZlmVZlmVZlmVZlmXdJX9IsizLsizLsizLsizLsu6SPyRZlmVZlmVZlmVZlmVZd2lB3N629AG1o2KOcAxhxAmWuNsPeVwzv/5h7krepnhBFQeasZoUB7hGfOSpIZ6GKcAEHBv4HqwiZikhXn8WfKcDBf29nK7B5xxLj2c4v+MhOoS4B5fgMM0ES1jm6+834jBtERO7M29j7ft+EnHBigWU3CTuU8SuipjdvcTr988q5Xh8xntRcb4Zr9zzHRRfpEjZ4q1y+RNp9P0u2ExDYVbFjxIPL7g6uEZ1zpjTk+LMCO4FhwDns3QNHBIVb848lYhdvTy2a4hBL5yZrEs/B5mzgH7huHTEOkt2VGFm9DHK6A/muGQZPEZg7bzPlG6OZ6mfMTaCT8B8pbzFdiNYPC1GmZ659Lam+F6Kd5BMmcKeiWSM/hDloh0l/vrGdFRx9uyLkxszMUiof2YN22GW0voY/pS5SWB1MI9L1A8x1DPZ82ccpHz2rX92FDHjsOPC7wibuDz9uk7D0OK918f+GjPTYGMbcQExVwsXYentHvwlxasrPnuuf4ehcnxuSaJi4CPOfUKuC/p+fWCG096lS9aIsNNxF+NCtou5z/2CvtoehE+c+Nnr3+P3VhnVXsVm2qfI6Lk9C64Dc7EwPwp7RvCfkt9RuFPxl3xn2osY39MfxHX6EuuR4KiVflZrnkqX93rfrtbzyxf6j1j/ltd2CawHtsnY0hRu0irm2fIz8qB18PRyNbb9idYFsf9S7KM16ne+zHTtWkHsA4eh7aF4jwlGEc99jCvqOQzEOhE+W7Fxyjoo+gqa2U1O/fr2saxhaD6d+RONs9U/wzYJn3j+vSVcf+s5g+iXwsfAXOUysO+kKmd5zBiNOcPMlmRMPbRLyaOh8eD7H58trD3kx/MNe7fSz0N3DX3F+W3i3UUyZQRvCOk2xUji/VD0G/N1FEMnyxUsIKXP2EzZpsJTibpwe6OMwrmEr1MFcz+rdqDO7CfVGiW4RIqH1DIR9fvkn0BgHS/7JzzLTEHYASO/BGdGsWZh74UnirFWfVUqGMl4nEUfJPeRfU5yxfr68TuE2jsyt6gVUvMdhmHYll+zpRYat/Wh3x8o1uyg3gPAVju3Bqs9bc55alDuGfi9Md7L9feI9nMWvg6+4UDrwvIeXLuH1hfYW5Yxwv5QvE+z4HeZ95zpxPgOhYHaMzxHxb29iPEAw6mwAvu9j/K76bMVC5KvDZZlWZZlWZZlWZZlWZZ1h/whybIsy7Isy7Isy7Isy7pL/pBkWZZlWZZlWZZlWZZl3SV/SLIsy7Isy7Isy7Isy7Lu0gIA1EBA0QKwwjV8cmL4avdjSNiTgpwVeGRAIBlelswo8ewmwJOcrAGuGTR9hVodFoIPBiGPwY75NY1hXvHzTBDtPfIBOJvLnehZQLbfz0zXRSYExIy6MNB2C8gtQwhxf1QALe6Xse/THaBn7j6wwQi8BrgjQ0sTTlfgbwCy0rOXrmktC/GpcvoE2pz3CBSqoHiKgw1wXIEEK6Ay4HQCNqZgbQU4OffpALkroLLol21iI+/rMt2AaTLQTI1Hwj4pGeCXBV4LiCcDkMFvo766BBB1ozISRMzQwAS2t0uH79eLDGEFzHekfp4BmSc/k+DlApOLSz9bIVPa/dBr7KHSElatYMeir5Q9KxVQI0CIPPVFXT+DRXbpREP2qZ+rk4AVlrmlGIoJamRgcQ8yVTBIPFOAonhGMQUJsI22sa87f633flVpjD93C+yU5yDyqb6zv3ZBpRUolP0B8qMxXQD1JdjsrboUmLoAwR5+9D57PY4lj+u1yFfAObkdmMtl3NIf9NBcCXvf+msMRMe4sh1son6TOJQg4d3Up4fv17/LaysY5V6eWuPOX3qQePb9v+mQDcxpHt9o58p9tfRtSwA3lYHxKvsXAVrFI4e/aT069/RVPKsAw6ptxTcJm0y753VQ+UQBE1ZrCsaQ18vlra9Lro0E9txe49AT8u2v49Vg3t6bQ5jnfuHFvorh3GskW9+aoY4ngFb7fUmxXQXN5T7/KGa5Pta/w9Bso9g91gDhOyW8mw8MiGcvfBAB7FO0Q80ZBnpfngNM/ijWD7ZT7OuIMJzDwaDa6KuybwqtDM4W6wzuczrVjoRZ82Ehav4e6r1h0DBmjMdn5cq6C+i6BKyL8UU6BaUvk+vGXuDTfYLa3ygAt0gn988f7v1KEmis6iTqgmvcLznm4pVJgdNLcRiPO/drqr+lHSifWOD28azYgyg7UHkXYLYYB1WvnHvCb7DUYSbqIJLcS31ywETe5zUP7xoKKF4K6S/tyieKtQxl8EFBeQAVpUvbKfXr9wfK72LvVg83ioM8eF2NExT4AKVm47zWxrs42wsODGM4Nn7SgVt5uIx4t68A7v7lGe/0pb2AmjNcHO0VhzoU337ne4r/RZJlWZZlWZZlWZZlWZZ1l/whybIsy7Isy7Isy7Isy7pL/pBkWZZlWZZlWZZlWZZl3aVlFDHAiM0rrCT85pi6c89tkEwSSPAnuAxwiUbiJ+Rvig3cAmowEUMHXKLzpQVrHiJm8kyxi7g/FqbR9fd56AM9OR3YSIWvFPc5vv8UDITLqQWubmAGiPhrjoWcwdt47dkGHPOaVZj6DmdOwHAJxsClz49jyxEzWeJqMUYlNr9nomSc5yex5ZmfiHkunJn5wwODtisVsyvjpEW5EMeNyjqrcmGn3H83mCjTJ59rVTwy4vnPX6h6wRzhOPJJxDcnI+StT6fYTOUaeCA0FTJv6heM0eEHXQNfhMqFvRS2AfKe+gFhbleGBav4a+FLClNBMaZUXL9gdGFcJXvrE55AsmcEq0gxahRfRDJqSsK4J+aW4oBxfqoMXFt+ivkm2DiSyaP6hVlekfXla/8sx2TPL7Xuw0BsoSNlLplqH+o0NNbN8tKnL9g9lEGx7+D5FG7ch7K4fivVbwo/oJg3F2Ks7ILfsS39WoE2qXkk4/85Hh79yya01HyHofETCpPnrW/HktdobXy9/n3/B63Tx1/XjxlE8BfMb3v65/Uhnm+nb9cG176KbAUDsNhuMgCHTjyW4HacfuvTcR8gP+blQNyObDvVL21RMHTYhhR3Iv0Gz0HwA+9ctz5j9yguh2QdRl0Of7VrsAOeM9tzrAG0L8HeaD60wrbYm63EkNpFO7ZT3H9r6bAXXb63MrIur+3Zg+h78L3YvyQTRfHMyIbSdpnVIZ7NNYrKQD8r3pDi7yjxXIAt8vg9/X9jv3bufXuxIcEKVDya5J4JVgwrWUrMjLzBoSlraDL7+nKlr7v1zkF1vcXXKde478XeVjIjP6Yf2viXdKIOivf3saxhoLmv6qzYfpxOMBQx5sUd4P4nZYyKxfihnkXCP2+Cl/jZXl7tBSTjR+zX8p1T7MP4WazPo9hLyfWX+ZBiXW03qdwYV7WXV2N5a45x3iUdxpxsSO83rn+l/fFaJuxUcYmUsv/4veLGO53iJnE72rpK787x9/yNeHpP8X7+0r//8njAnlYay7aXbwmPf8aj9O6ibBe++PIsWErMOQLzlfwz2lTZb7GGKl8i3qcV65htA+O2kA3Ngu+FtbPMd8wj5soOlmVZlmVZlmVZlmVZlnWH/CHJsizLsizLsizLsizLukv+kGRZlmVZlmVZlmVZlmXdJX9IsizLsizLsizLsizLsu7Scvh5/XEh8miDBPYErY0B3IDYXfhZkJ1uFzwCkkVg7enUg5wBBSvwVdSVOVZB7poIPv0eQMeRrjVQ90bPXn+va/uuhidWgne/bn1/JPCbgWYADHOdk8DYt4NBiADeMuQsoc0ClDyuPVSLtR0FpCukYL0MNANUdRDAuklADxmKLNi/sg4JQuSEN4B1DMVTkLOE7DF4TwD1EjJK5c4JyO07MgG4wzBMZ1Ae+/uXZ7qGIWcwLwCMn0Ae8/feX1Ow1IH6KkF6PD8EIDzrydBDzH0BBixQ0BsQQAWEY0ApIKgFrAhgsYCHSji7AssKcPXKQDgBDR8FhPxjnTg/lqpLjm8x/L4MAF4VkFpK2EuZvgKmmWBKAjrmeHF+GCOGCQu45CZsA+BgZc/cLyvmBV3Ds+w3El4s4JwFAg0woIDM8zUJqI8+0kBMAgIHqJF9BGDwxU9GO4rPjjadyR8oEDvshOHTh58BiDwR+Dt+b4dWv9PXKerZnt2UXamxifovAoa7CUjwLucqgS7DZ5YxOiEdlSvAqBKaG/uDy0Or/Lj2E30ScE7YcTkMIeqC/c71mT3aQ2Me9lfA7uIwhISq8twf6z16VIN5SQpkOgp7LoDVj3mLMSp+Tfjsm/USPkzNwQIZjX5jf3+O/eEuiOjnt9ZZuU9T+5gLk35RAQbjT139Dt/jnvCJ3O5ZgPH3GwBztS6UNSqhqqLKBP1XQOC8xwdliDU74fG0V7k8xZwhf7CLfU76dqrzjDLoGnzXRvMXfcDzaP53pPvksAu55xn7dAr2vrz1/kXlm+NLEN5RENvVgQa5ryuZR3ryuyiD/XOzDXEwgwCTTwXq2/shNW6t7n3enF/6YgU353rlwRt92xR8H/7y2o7+EJX2QF+/AllWcGxR13zHEQdvqAOe1Joi94QKqk/55eEUCj59Yy4OA42b2hNSGdgzyIMj1J6QfexD/6zao8t+xkEZ4tAJlnq3Ugd54L2j9MGt9zzer536awranWBy9R4lIPgHOnABY13WUJRLY7mEPzu8tEHPdqh9xPd2LUHddPAGvmUc1ttzq5XVl1sOSBAHM9xc90m572Rw/w17Ke956cdp7i/93Pe/SLIsy7Isy7Isy7Isy7Lukj8kWZZlWZZlWZZlWZZlWXfJH5Isy7Isy7Isy7Isy7Ksu7RIPsGNGNbxoY/5K7F3EZ/4WWwvfitGzcgxenH/QsGQiLU/v4v4etLlfA0irDykmscwDMMlQCobM5IQ80zxjNs6Rx4Umx+QBmYzjUswl84cvI1MKO7x7Zrf8rOlmwTLAfGsMhacY48Fi2V//XDvw/0sN+IoOX44uSunPr1iBxR8VsSbV1ZHxFZyTKeIH1axpCpmPOOVOZ47uTUUc4pyP+GGwI45vj55FyKuVcXNl7rgmoj/3kWctmJRKb7SdqB4VfAnqPMRn3v8sz0785zCs4jFpRjgwga5UZecy8yJQrw0czSi7Zev7VqG/vIYgBVDnIrlR82D68zPtlj/dk3FIWedOM79xlz4LHZbck1Qrphv00pjBP4Jj3nyHfqy5hLL/GsGAtt9Y970MePrsV1L3oGYH4WjAf8s2GqFNyT4GPks1fny5b4yFMcgyxP8J8XLYbtKH8fcgcfeX6Gu1V9hQaI+fax/+dnCCEF+NMfO6INiu+hU5nyouvTXIJ4zyYgTtlZ4EcIf5NrOfb/2z6LOatwGUWdml2HeToVxEcxDis3HWszsgIz1Zz6VyO/wo69LV8+B2s7+Raw9K/qKylV8PgULBHuw8I7AYiE7yDopBgf7nBucN+WfN7FnkHwb8jmrWBcU8wvstzIXYLvEOZoerw89PLaHL9GpK6cT+7rkJQn+BK9f59+uf5lnobgr7R6VdUG+zEyLYpkZpNYFwSDK8RI8C8V5Y2U69iViTQbf4/ijXUt//9CvAYU5AtaT4KMVjgbqQF11+v36F75sGMgXf7Y2frz3y3RijRI8GslmGgUnVDC/0u9+whxp7z3Md+3TQWVuCc7MPvfM12QuCR5SaYdg2OHirT0Q5/eZz+4KG6j+3FeC56NYRd29gXyE+qcNyl4+YVBKliaWVfaxav8H/hhzhCIf9ms3OaZiL8VjnnNQ2EaRYJsev9d8Sz5izDlf8M547iuGjtpz5fiKNaqUp9hWYo+OuhT/JxhUqp/zGX4nQX6UB96j59d2Lfl3vM8Ra+gcXDbeP6d/4fmr2KuKn6re82bUhXiTYXdsG2pvm2s3r+diD4IyuA+SEyXmh1Lx4zuYbu2a/0WSZVmWZVmWZVmWZVmWdZf8IcmyLMuyLMuyLMuyLMu6S/6QZFmWZVmWZVmWZVmWZd2lJWM6OT4OocLMWRCxmomSEdyaheLxEDvI8b7rrfhIFUN4onj4iPeeDi3AD3H1G8XXg4O0j3QtGjKK+GtmJCWzgPLLfpnbw+A07RSvPz/08JIxOE07BxbOKig2ihcMGO4r8BW4TzcRn5usDsG7YibAFnHahARo8ZYcH5m8DWJXIAadx3f6dby5tDVmUS31b8lHxN0W+wMzg+LXZdy1sHHwFRSHhMsFb6DEqiNbjmEVfCDYPddJ8k8ErwTsMI6nzXn5KuL1mQHDDJtQxkvTPdUmxbzJsRTx5iq2t3DU0Ofc95HP5Zmu/SbmquAY3GJSqGtqjJTuza/E2Qt7xnjM7wwsiWuFfVTzYK0czy3iyFHeeiRfh7EUfcVSsdtdHkMby8I0ivoz7wV8NPgUzpvt/vhXPEssguQJCAZC6dMzGDp9nS9PPQ9E2XWxe+FfRvgQ4o8pBgLG9/GffRnFr6E8atvx7/6a4glkfp+w7pRPVH5tSgZMu5bcBmLAJEuJr0U+bM9rcNvYz2S57H/H/howONze83MPnVPr0cd8h6HNI9X3Zb5PguuE8RXMPu6DVfhOtaYo3tqa7LK+GYXzJtbuRI4oLofqA9FXYP1cM++fVVyn7CNOJ3gM6WO5fpg/xDu6vPc8pOTk0b4O7MuyN0NySrdfMJa9z+ExSg4iFwuu0nTbX6Gv2GfDdykulmKXKc0nwbUT/oq5dnmNOI3qGcVXwrZzZztAV7LtgulG+a7xzJn6VPGzFGcreXXC36t9RNk7wifyXk/whrJ8YZOFtSj2Q4oLk3kIJmhhVoG7ovYTnJ+4L20yfayo3yf7EpQ3MYNNKPeYgsGm5vkuGJSf8eBybybYVlyu7AOMObOAxHqe+yvB1i1SjCQhxd7K+ilGl2I4cZ8q7pTie136dPks94HgmWE9KnzDU61n+c3rfnCfeO+NOkxlX9fXWTFuMwu2AzB5uF/ASyT/kcuMWntIihu8CfZlrt2P/bXx0F870sN4z+M+vUQ+Z+oryZeD7bKdinX/FseM5z6e4T2I2g/l+Co75XXwIuqCdtI1LIlbefeL918zkizLsizLsizLsizLsqz/WflDkmVZlmVZlmVZlmVZlnWX/CHJsizLsizLsizLsizLukv+kGRZlmVZlmVZlmVZlmXdpSWhc/xJCZBChugFdGk9Ehjw3MMqkd/GkDiALgUUucBNAeg7DZ3ml1bByzFAjYUeGmDemQCMAWhcGQgnQH64OC3t2YQ7vhO1KqCRG5ULyCPD3VY8S3DJhAS/Td217dD3qYKmHV5buvk94KYPBFsE+Iy7BcDOc3tWgdMx1gwHUxA5ALp3BlNG4+e31n8olwGRCgR7eewBksfvfTqIwWyo37aIMgToclMwtKc+HUPOErop4GUFaq7AZzADAQFUzxbdAHUWqKYACKp+VvBVjP9C9VOQOAWgVUDR9akHIMOeL0+9/RXgOOY+AXwPb6IT0F5RP4bXK9biHvNNdq04MKBALbf6t1RJgDg5Pxw8oGDlkwCOq/nL4zYDLnnqW3l46cHQFeR8zfxMQGr45wK6VHUBMFHZqwKYk03O4llAf88Eo087ZYg2IKNs9xhLYePcz8vPSM5wVYALH6mvwrczyH6/cRhCgf5H/V7+1z6ZhJsr2xXroARrM68dzwowdJ2rPZF1x9rE6RKgSuD+6NOZDs9QoMZZAP7R59zPbd3nyRXpCCS5iT2DmrhYB89fCJL52Kcbo64Lr3mov4BzlkNFMFdpX4I5zdVbn2se/LtA63HQiILmC9ixAgdznRUEVUHNMfx8EMp2A5Y6iX3TpGDCnExAWhNOTHuz+XjNaKI90hY2Qed41MNOBuQTCWh9wLzdxT62AFkVdF0AizdxGAzmANuXsrWskwDulmsz8qCDWmBjn4DOkc9M+zrspco8UiBYzDfa+9w6jED5wYkOv7m1XyvXBPhW+TV1eAbsaeTxvQGKL3su3BLvHwyez3nEcx91YbCs8ulIL0D7k/A5xdYAkFYQXm6HAC9jrpQ9F2DmVMYF9izWrZXhuuK9TIGhFbRZHj6DtUIcSlDmJQ7Y+WxfrN5dkPcnh4qoQzvk/j7qdWEY85frX+5nzFX1zsRrhYIxpz9Ve28eD5Qn3rH3Tw5rSGA7we0PP3/9zGcQ6KyfAtXz2CsAvHgm95O8LxaHDMmDBx5q+mHQ4PmE4Iv3N5aa5/LQBFzjg0HCNranfoKw71zT/vpDd/jdZcNapg7AmHonO9LBUrfg9ju9J6fdCRA7Q+vbQSO3n/W/SLIsy7Isy7Isy7Isy7Lukj8kWZZlWZZlWZZlWZZlWXfJH5Isy7Isy7Isy7Isy7Ksu7QgBq4wRw7g4LRryfFhDgnipImpAAaHijktcd8inhHxfRzT2W7SzzPi4ancEfAUurblzfbsrNpxrez2k4NT4y/HigZHg9s7vVyf3YlzhLjI6Sd3QpRP9UNs6PxK+YmYWMRjriXOFCwliq2cwVxiFsbQKTkGVL0pAjjHkTsa+dIlcAw4ZjzqsBEPCV1UWEoi1lopyxMcCM4PvCTmJmW8L8c3K8aPsPvhBseg8HzArqB2KE5F1qEwaurfYWh2UFgYYAYJvtJy6tNx/S4Rs8ushI/ph2GQrCfYrmI4sZ1mHPTSGpfslAfiNjzvXbnJKqC5kByV33sIx3hqjUt+i2DjSPiRmL+riC0vz95A49y8NwyS29Ds5Qb4itMJOyismMhnotjoJXwm871yfpAdqLj6xsaha5gfNI8aM6PPgpkohx+oHyWIql6e+2ePf7Xf4Lcw/yk5H1Pv1xR7gcco+RMihn9+6/NjRhL6fiMuoGJDoJ2HP/t2KA4E29qtMVL9XFheUa7i6ZX5Bp5U8WvByvpGdRHcgYyRZ64J/DiXG/NSsxWIExB5l7qIdXAULB6MP6+Dl+dY87j/wHKgdQHz4vRbuwbbYU6KahvGUjEFWZgDkns29+kUT4+Vdk9lKQbg/NKXm/YsOFszrx/xTGHoqP0afATzY4QvzPWX1x7B2JmDRzkTcOZ8vj68lzpfGwqm0jAQN4mZX+Hbd96/3OhT3paotTv7hedqzIHLJ4wkubcVLBb4XR43II+K/b319YNNwP5ZdW8W15hLCZYXc7vg2wWXg31izgXRVzyPwEuU/rlU9sPfofWVYn8onpnS+JX/I9LfXn6bH71zjVcMrPKeIhhoqg+yXuLe+sncTxvieSn2p6p+mKvcDrVnbHu9/praMyj25ab2Hep9UK15/IjijoZW4a84Ha5xn6o632KgrsJvFB6c4E7d0ibsufhirJeKw8nFYu/Na3eyIKk8MW6K3zYJtpW0IcE+UtyzNTlgxEoVXFS8O9T3I7xz8uYHD1C5ah4J7mNh4KLK2E8yJyr64EI8UbWeY39YGUlId9uZ5Ps0pxOPZP0PYtK8tcqkz2S7imd4TV6frg2eX/p+mcT7xyD8eNn/9VW2LMuyLMuyLMuyLMuyrF7+kGRZlmVZlmVZlmVZlmXdJX9IsizLsizLsizLsizLsu6SPyRZlmVZlmVZlmVZlmVZd2lJOCIDRQEuJDAWqGAM3ktIF9GhADucCOgICB8DKhPeKGBZK0H7FHh7e7rSoEYGdwnQauMu9vSqnQG+7/F7UcQ/olYB8s3pHqIBBdLaA7S439rFD3+HBrvjds/vff0TlLeJ8aDkCa39BPy453gQKBmQsc/gg8iXAW4B/Oa6z2eR0Zf+WybqwHBdAC4Z7nYOaCTbleqD/M3XAFwTMEMG9KFfboEd+b4EOjIjLuYFA/Uw1jzm6EsGo0pwq4AOLgFfZXAiflcIb+RLfbo+jr9uB2kUELv1uSftAqA7E1AvQaYMOASkf2oXt0dFnQtwHEPxFITyls0KwP+gQNgC3ijFcMmY57OAPBYwZeTN46cggAq0KtuGaX4DxFjqIqDr3KeYUwzUg32eBch0KGMZPxhOLCDL+M0A5Lf/hpt8kEJfZwVGzTlD8+gQcNiB+nkLv1Hb1h8i0DLuL/H8wLgx6BLtKFBGBdEWAOTlx/Uvj5sCiWNOs/8DaH8TwE5l9wXq+zPyICB6QnjJRyi4vZrTG/YR3Kdzf22KsWYo6DnasZDfaADL/sAFrvMawE72OQCiln5+rX+53OIT4UfJn27ioIcsS9g4a8TckmDy/lkFRS5AeQF2hV/he7Anbi/SraoMYS8MVFZ+LeH2PGxhBxPBUvfwtxs5jmW5ZrTRw+9xAMo48rP9Ip/rKQNZh35Oz2I9z3nLYx6/V9Fe3tuiTxUcm8uADbGNT2LOKMHGCkxdAYEv4lr85rXl8D2ukZ+8dTCIWnsutAbgQA0FY5aHA5zFXoDtD+UqGP0kFjhau9FHat6VeZKHwfT3xzK3fr2RKAfnqHX1xmEJo9pbfAYDP6mL8UestcVOo7ziDz6WP9BaK5q9i2vqYBAF257YxgW8O/Phvlfgb9VXeEYdiCPqh/0xS/ndesBJX+e2HlEyscarwwvmWwcuiD1NPRAn8uD3BfSLgvmTbcD/7Hw4hTqQKa7xepl7VVE/dchQWePRDn5fjbquz3SwCmDSvPaoeYS2sb1EudvD1qd758qgAgTRRjuor06/9QeIYO97/tZ/Lxn6pWcYywFPfdtQwYkP/7qIAcFeimnv+CbDz+LQE3HIRjmcYuoB3Hjf5vZiL1ok5pv/RZJlWZZlWZZlWZZlWZZ1l/whybIsy7Isy7Isy7Isy7pL/pBkWZZlWZZlWZZlWZZl3aUFcXslpm7tg3WTqyNYOwqowhyNy1cEENOzKIPjRoOnUuJaM+6RAzPj74nBHB/usTguc7nWZbz08c07x4Ir7gpiEk+fBDNvfazhdOoZUyquWsXEXh5F3COKErGzzMa5PAvOEeI3qZ+nqJdia4wixlbF+3I8Leo6rRS/eYMjtBKfYFuuCZnHgHoxswB1YU4F7CRjbYchuRyVVRSV4TGK2H3mY6iYcRkXDNYY2WnGSy99H9Q41OtFxm2gT3fq+4x1FgyOEkMN1phgepRY+qgLx/smb4XbG8/MJ46xjTKIYwTb5vauv68fqzyMb1PUmfol4pqZOwA/VOaMYBCpuZ+x+cRjSNse+zpXLsLQqfBqkE7Mj6w62YHyk2h74SiEL1bzg/sAvoTbuys/vvestl30gSwP/nnq0zEX6/B3MPGYQSR4G7DnC82ty7dfpyv8rORjUBlijBD3X3g5wUN4+LNPX5gjitWx9L4k0Xlkp8kfY96BYvaJMuDDLl8o4R99GZqn82teiGKhlWcxf4lPcP69z1et0zC8jVgTySdgllLUhdcAzIsS1x+V2Yof79ejW8wgyZn5hPeSdaVruZYRUyZ5NIL9wXNfMW9yzSvzvObLdf2U6SH4BB/reX04ktGanGPO+4PHX5dbxlysW/CJm+CB8FyYXq4J9mMrZF3RgJZh2gEzb2K/tjE3Yu393wg/z+vHLYYJjxHZbF7DMzx/w8eVMRe8F3C2pK1R9S6C1QZ+VWH8qCmYfqivO3Mvcm8kbI19NsaL59sqGDXKNpaXfg1I/qKw++mTtfvWXB55DRXsPMW5TL6NGGfeO8Keec5sh56zlfNczDcWmHOlPYq3N/f5KW4SbEjOVdKcLKq+3MKUGeu9YRgkT/QW16lwUcV+aBLcrkzHzCfhY8Fn2cS4lf2YmOeKP5u28d6nk5wgfhbst6W/z3VB3sXWBIsUvwuPVbCAsjyx1DNvTfpsla9YZ7o86D7XbxV9kO/O1FeYP8V/iLma9nRmI6/pWWX9VWOOe8xxxj6b3km2ZO/yPieuvLZnwQh++Kulw9yfiL+YTGnFWVX1Vx9RXqlxqL/YUE7F18X9YvdRF37/Pf/63wspO+Bxw1gqrhjL/yLJsizLsizLsizLsizLukv+kGRZlmVZlmVZlmVZlmXdJX9IsizLsizLsizLsizLsu6SPyRZlmVZlmVZlmVZlmVZd2kB96nAiUMFSAiI00NPdxsJhLgtAcMlGNX8AspeD26dGCIbYC+GNgNIuB1auSMAaQwFfb+WwSDYBGwx4OvGt7MC6VIAXwHmTRAnwbzQzumtlQXorwL0MfAKkE8FQpzfCRg2CyC6AKQpeJ4C9OU9HnNAALnLbuQ3XdpF1FUBwnkIsk0CjFo6X0GqX+rfYRiGPYxjferB0AqWquB0Ej4oYJUFLCuAy+0e2XiMEc+PQ0AFj3+3ZwC9vDBQT5SFrjoThBwwPAbGKqgapmMBBws4Z0LcCayd0NxiSwHIZfjbGSBOmgtvAhb9CuAu2fjTNfOd5/7Wz6Osw4UvojCqy/rhHt9Xc4Jhx+KwAVwcBWSv9AtggjsbeaSjsUyQaKE89vklGJV8NuCOG9M0hXHDP07vrWMUYLiByXtYOY8RgI8MYMR8rDD/+ncYhmEKez+83qyynL8SsngDKs0QWUCdC7BbAcfV3N9624UNLd9FXcQhBwrGzOtgAoFFGZXT2M8FCQkW/gp9sE/t4VxPCxx27+rcgPy9nQ5ifgziUgGFfwkgPw0qDok4f+33B+UwBAHXzbYJCPTrf6drkXXxk2peCt/Z5kefbmZ7HtGePg/AeLl+ZU1R4NsbIOL5xoEAXL/yKPqPD2HIQyL69JwuYeB0DT/5sJVdTJl5vj48CX+1k7FNsa86PrRCLrHfvLxQZ731e0zYENdZQdcVTD2hqtynkY4ht8qXJBRZ7JGqz4l9Is0jgE7LHg6+c+il7HQUcHY+uAQZrQpazweDYI9OMFz0hwI+fwaf/ljWNe/+fs7bsm8XZShwMPyL8lekbIda99VawOn2Ptkm/G7zsXRt6fNT/hltUmvUqPbjvLcVhxLcgkpz/0iItlp/b/wTBLXnl7ZROrB/VkG2VXs3BaS+UUaZv3lIBNm9gJ/f8rsTHUKj4MSA35f23IBFqwOPyvs56lI6K967CRatbEjtw7ClYfC8gu+nDfFBUHFIiBxf9u3i1CK8H5c1BeXO/TX2Q9l//N6d/kCAsHl8sU6/UV/h3Z7frfAuTu+1j//VpzvHqUX8fpR9xVWOOuxHOmBi6vtlOGLPRd838N7DfYCf7JvQXvYHY++wUJcLgbXHOIBq58PE8mNLu3QI217ZrgbLsizLsizLsizLsizLukP+kGRZlmVZlmVZlmVZlmXdJX9IsizLsizLsizLsizLsu7S0vgeHCOqWAm4SXGFkW5fiGGSwf4924B5G7hWYtURu02xmhkbyvG5EQM5EjtleFo/tILq+sJBnfGXGA0ot8S0owzOMNo0ipjEQcVlipjiEvd46fNDOmYqZP2ee2ZLYWEIBgxiTQsvQnACMr2Izy1x7CK29/0fEb85caDsh3pyXVWcO9VFMRpgExzrithQ5g2pNiFuWcW+qxjlEmrdI5waR4NYXjlGxDqZJZMiYlOf2f76ioGV8BmDI/lFzEBQLBbBHVAMjGyHYEiwMhZb2Pjyky/Gn8LzEUH04GxRfO78eq1g4VRIbo24Juw0Y61p3PLe1v+W/Ak2P8EXyeKpXMljELHgyalglg3ui7ZNZPcog2PkJ2F/p99rWcPQ5hbbpOK3obzlJ43Re58u7YXM4Pylr8v52/XvG3Fr0EfzGyUU3AvJfEimR7sE/hhL+kn0R/FXfTw85i9YgMPQfPX7H2TjiHNXMfJLb//sN/K34ByV/FAG84ZifRmX/uGR156pv4b1bT81o9xfr7+X762jl5feIah1K9cS3gvEWrw9k8EsfTvg/wpfBL6O9ge5rvL6liwHZnnFWHKxwnbBz7j8xtdizJUPozk9BWOgMDMutU6c3+v/wlwEAIeY5RCMH2YtxhwsDMq3+ncYms1yvyTjjLkI0faL8OOFBXmjnwvPR8yttF2ygx1zi5wieEnncytkjT4dqM7tgfZz+4KC27MYh+m9f6bYFfwu+4NjvTcMw7A99JuBMvdwTTFMIMV2I3tJhh31KVgeq9gnFq5TrGsHYrUdgsPFe4bcv4i1bDsI7hlLMOdyroq1tgicKGbFgFdTOG99P+d7SuGFCT6L+F/jkucjWDtqL5q3lD1/xtD5WNYwaHbUKNqh1L+q3U7+STpV3mfP3PWsYEbWhDfyne6swP+fVTiXgte0wyb4vTHs/cL72djnXL6wfxbvRclr6plkypaYD5QsXMEXLv5K7O/BtdnKuhX5Cn9Q/JWYb+p9If3Z2E8a3jeBtVkYZqKMLfqc2UeKpZRMJmabnrHuj1264q+wx1ProOACljoLHlfuFbivxJ51xLcT9U5MXNn8vsD1i+8fzKgeotxRLd7MgEafUhnYd5a9Cta838iexbcb/4sky7Isy7Isy7Isy7Is6y75Q5JlWZZlWZZlWZZlWZZ1l/whybIsy7Isy7Isy7Isy7pL/pBkWZZlWZZlWZZlWZZl3aUlIbIMo0qunYCCFigUYKQ9KLTAywSgL4HPDIRVANUogwGlh9+u9MSZIN9rAKc2Ak8B7rgfqS7I58JEqR7ItUW67YFB4jV9EXcVIOQEYdsSIEjPChDn+WtkwUBgAX9LcCaDyQWYN8HC3KfIj/oe4KydoJYJcmY4mIB8f8xjGH4BU78F2SPbSODuS7sGgOROBpjPCJihgvAWaC5s8tCnK5Bqxf5T4Fs8I+C1BUQXdscgbvQVQ6CXgGPynEFdCyg5INsMM8YYMWh4+VHvsVYa8wSPUh/MGA+CguIZBtCifxNKygWWzoq/1FeZz5fWMYena8eMc+tAzOmN/MsWBroLyOPOxisgmulfGOSH3zxuq/B1uC/yVeD+Uix8BLtd+CvqF4C3N4Yn4zeXEVDB+aW1Fz6kgN1hT1TBm5BPtjVAh5/IJ4YPLn0fv+cfjWZ4+H69dv7Wg6GXHwQTPtW/w9D8VJmXAPKLQwR4frz9R+RHc3956dOhfwvUEs3k8QAgcuudDs+P/SLGHP6F5sz6uJV8r78Dojh9MkYJROc1JX6felBj4YijjKfWMcvDtaN5XT3D1ARAfyYgMNYt9gfbMwj65CMCHD3/TUBvtRfAMv3YLgEczIIdnP6DHg6Q9/beG8zxb7qE27xuvde/w9Bsgg9FgF8ukHlxsMXlCZ1F/YL5c6R5FD5up4EeY9GuPgKF9eUy6Dz3ddQ2BTDHz2JfcH8C1K0OJShrKPzVY0uI37x3XJZrBY+HZn8zIKjUtvfIkK/B39cNUfQV21/MqTONG/aRZe6jrmWCoFJDp5F8RIJReV0QIOyco7w3CwhvORQhqsLAbAVZxrrAazd86+m/9XsQBuQ//DPyKHDY+CsAvSwFIUc7GRAuDzjBVOBDShKMT8+KwwZyn1v2LwJijANJeP8MBi9D+rFWKEC44NTeAkRzOnWgxiDmb4V39+1FOl4HPzvU42O57JtyvBQoWdi9Ao6XfY6A7ycEmg/n+ZAvSx2wwxWUfY+u4v6LchUAufhnNUYon56dxCEMea8Ai69/eQ6m7+T3GbEFzj0/5ZfPFL9R636ta/hJPrxAlJvvzJQO84LTXZ7QHjZAlN/TohcC9xffn9fEdwMcInChPY0Y33y/I6PMPhKwbfad6vCgrL/YK/M15MPviMvb3uWLNfZChxuhvSvti+WBQtgHqbmw9EbJ7zh5sBjbPfITB6vUeRTX6L0M3czfVTbsCXnM4/cmDr7i/Zj/RZJlWZZlWZZlWZZlWZZ1l/whybIsy7Isy7Isy7Isy7pL/pBkWZZlWZZlWZZlWZZl3aXl8jVi8/mTkoq9exABo4jDW1ugLEL0mJOC+FMVrzpRLB8YHByrmWwSiktHjPzx2AIa9/l6//LG0Iz4SyyCdo3aFvdLlGLkU+IF0S9UP9SV4/93xEE/c5ByxIi+to6+fEFsJTOmrn/PfWhq4XckS0T0KWsDF0HEGa8U56niNue3SM48n6gfx1Xnz8/ir0UsfdoLXcv4dYo9zpjUUaRTceIiNp9jzDMGnblJPcZAxn0nC4NjZ8Hy2Hp7WSn+Gu2d32gsI+/zt5ZujfxW5g3NYpBQrGDonP/Rs1MqxwpsMKrf2l9Lxg6VP7330ID1dwR0U5WDhTIKfhH39Bgwlp24Jucv19/jcxukUUCewKRQccY7s4DAQ+K6ZDv7azz3wcAonIKtv5Z8r7d2TTEDkPcu4uFLv6BKxHmD3W2CD1TGEqysv8nWwJB4Vcyqdgk2WxhEcf/9P+na48caD8nnWX62q+B3cPw85gDzQJLRRXMrfQ67U+FLVPw/2D2rYL8VPyQ4VrD74junfo3CPOIxz3x56UmuBPFK/utamZmYPBi3VTA9RsUEKDyuvlzJP5mCKXjowQI8RouYt8hvFaw2rOHDMAxD8JdG5gPNc9S9GZviKiaz4DPGRbJshG88EKcn/OjlSdg9KdkqgpPCcwFjXcZN8E8w1jzmaHthfuE2szAw5jyW4GMwm+QN9/o688TE+M+F/zR02kW5ycRjc8m1jMoQ+40x9lcTse7W2MONzDVBHlvrhK9frpkzO+oSz57PrTLn2K/NxFtLhgnxmsCEYIZFct7Y38c6xPlJ7kqyJrgB1z/MTMPY8LoJH7LR5hH7uuI3BI9rFCy5OfJ+/0e7tn65ZvT+tbX39AfWrZ6xwso9CrNYov9mageYc4W9Bbv6xJ7zt+BE8bqqWCzJ4RTzWM3VssTH7+Xcpyv8J+z1BJOnjBHKE/vdIvgInr/An/BeVPWVYgFhb6u4RFRntG0S6xFz6LIuqm1qfMW6pfYMnF/yP7kPejROPqP2z+VlDe9Hl/6a8vE8vniGfWKrfF8Xrt9l6a8lY0/szcq+ONJhf1Lq3+MXa10u/d4RbSrvatjfCwZWQeZGO6a1XxsVT4qvFRYZykX9+L0MtkG8ukHYBvYe49Cnq0y3SFf2PsHzoff9XfLvol+YaQn/Tb7u/bfwk9QvYG6ef6NKH/ENhdaU2HvM9N1kV5y8GWsj7ZEi3Xxoz4JbeTm1hWaMyay40Nwxyey79GtZtTXxAiz8i/J//hdJlmVZlmVZlmVZlmVZ1l3yhyTLsizLsizLsizLsizrLvlDkmVZlmVZlmVZlmVZlnWX/CHJsizLsizLsizLsizLuksL4HkFVvmgCFvi6YS0EtA2gE0MAVQwvAR2MiQ4YYY93G/40oOnTgSeAnBqeTx317YTU91EO1AWlTt96el1uwCPjgD4nhlkFSAw7lNAWhem9sUfBi+fenBrAv+4Gci6QNhqvsNAsDuGGY71HouhkQCoFhjapb8mgWwoT4DeuB2XG1BfVgHpIR2gX+JZhlRn/wlgY4FMzj1cNwGwAoBXANcYEM5v6Q0fEM8CqxYQT8wfhnIrGnjCTwW49fJt666xFER2A+BNANfmt35gNoLWo20F0voMciY/1NdlULDKgDZP3xspGf3GkD/AGLkumS0B9RISJ/xRhZBHfjQXsq/6aV5AdKjL+z/2Lt0oYIYSulng5339lD9IID+PW8wZhkuefwsb/+8MQI4f5McBHVRzm213/nvp0yEbqgvA2wxUxmEDP/93bvCHPD7k0wqOdnCdoxMmstPjv+Jghr9bsgRTsp2mDVF2GHO2K6yNT+SQ/rfr74fHZpQHPgUB5d5YfE4EDn6L3yvBERmoCE2xDs7z/+R6PTR48YXWxh2/X9q1HDdx4EKBaSZEtl/Ped2cjpERQyh/LpEFAbjPPcg+5yU3Keowf2uTEOPw/t4Mfw87vTzTw2KdWXG4Atl41kEAkHlKA6Ba9j7x+/QHPSvGJn0ST4WoH8PP1dq9CWC13DMImCvqzD5CgVvx7PyZb4p+2WkPOQIoSochLEs/PwDRnogIjHmxkI2DCbqxXcV+rewnw44LkBVgdwZrB9x7/tk6FWPOvj0PAhB+d6B0eGYXa15ZZwC7FuvR+TdKh72AOO+mHBYS5R3/Ish39EEZXwDHef6qvQqgrwwiFsab0OtyQEetE6crfggHphz6dLzdHkXbFURbHcoyinET7rmt92pPzes+fB2PL9b4fgmtc1Ac3oKDVXYBvS57kJzTtLe4KGfSX1JrsvRDAgaea6zYExYbUuWmv/r1QTElOfc9YNEX4YvF1lsdKFTA6aId7fACdoq4+UldL3hX69/f1B6Obe70exTRn3VRJN97lr7BbY/Z0uUeWQDby+EA2F6L98ZyyJA6EAL9K/bP9T2q/h2GtucqfYUNLNnLFP1bxzfA2uS3cp/G62WAsPkgHhzYs52b8W7x/r7PrXFzvH8cfrTs8gAWXt+iDIZjjxPKoL3oc/9NAU3iQ4S2OLzs4YEOE8OQ07q5XsK3C4g257fj8AruPzgndrLim8Kk9mHi3d7/IsmyLMuyLMuyLMuyLMu6S/6QZFmWZVmWZVmWZVmWZd0lf0iyLMuyLMuyLMuyLMuy7tIyPF7j+3YOET0IvgPiCTm+GRwNZgud+0DZ9Ql8IHr4Mcp4b3GKiIktZUS840SxgWBCrGv7DrYc+zqvEVTJ8ZHTIdpLdcazlxIzGfH1kwiU5WBNcFyImbFHvbiMZI4IJg/HLh5+Ij0li2scp6hixhFvy/cUDyTjKAXXROVbYsHj2RI3L7gNKv4aMbvjxgN8/bM+EDsl4twvX1qytWFyunJVXZmNg1h6blvGpZf4dRHfLGPG+wooLgKenbivcF/xNu5sY4kPj3xW4mRswYfi2PLlVbRNxLnvAE5RuZi/61d6OGKEdypjjPk9PTZDHRF7/HcLVgcnp8TNo5+PFHv85fp7o3jfNeJ9zyrkXlzjKdhYHcQYiPk9lqkqmACijGRRUZxxxjJT3DJimXfyjekzmdVxAV+ObBfjxl0FvtwTxVWj32ZRwVFcKzH8UQbFc4MNwbH0W4z5+q2N7xrllRjv8OmHf7YxX8KHXb5SuvDt8yv58Z/oAyoX7SWGRPKwmM+XHKt27fxH2OlEZbxEOjGnR/Kxc/Yfs4qifv/ZIHaHWJt4PXp5u07IC61vWC/Z/sDzOdKa+3Vhh3HVijmzs61df58vrYxzrFsrs49iXNkfZHtpbRzw+7d27TJfDWB+YccW7aBqTsnLoTIwB6gM1JntZXi6PlyYCj/E/+O6xRwhhs6M8d/LpL5W5aVdO/5V8xiGtoZu5Ithf4W3kZwKujZH28gXwz8nu2UYhkv4tcpZuFZiZHsW+wjlNy5r7yOUL1Tr/uUL2BD9PCq8kugj5oEo3gvEnLLx92uBB7Jx2PuRwT8xrqeJ7DlseyW7whpQDQYFE1sj/O3h+6/ZZJyN4uTxmpwsKuZPCBe7jYrpEemZ6YH0S5+OlcygwmKJa4ItVOal2JdsB7HPntEQqkoMjdqXbMSgfMO+gNmquM3sUDBvCp/qBjCM02G6cXa/oZ7s1/CuQfkJPlDemvuJMp17Gy8csnhkeybOG9ZBwbIr5S3ifQJl8RzE+4JgzvE7SeOf8J5GtAlMwU/2TdI/fyi/XGLECsaI1wC0QzGSuGkT3vNug4lW9WKhBHatel9VICu2Q/X+Jhmosf6Sb4f/KWstbIPnPvYRL7yYlapf72NdJZvEOzHvVcBf3J5bGac/ok9PPEi1OVxXxaYt3FH0Kdspqi/8RikX+3vu5lgHV/72EHtBntPwj7yv2wVbCvvJwhDDXH0TYLtPbBz9i/3iMDTfUHin+E11go3he8MwtLm10Jp3WXvO0RTtZAY0mIKKLcjtwL5vV+wjvgZWIHcBuoiKSH869+MxUnv9L5Isy7Isy7Isy7Isy7Ksu+QPSZZlWZZlWZZlWZZlWdZd8ocky7Isy7Isy7Isy7Is6y4tGSvHbBLEGJZgzeBZHPoY1nVp36Muh2ugHTMVEBde+CfI+rEF5G2LiAvOB9rPb09XPsWXYwNpIEb0z5cWsIq42xKqHkGBm4i1nRcR4y3r0MfIM/dii2D7kcNfEaPMsZ/Bz9ioX06/Xa8xDwlh5opjUOKMI29mFiCWdGM+lfh8iFhXFTNe4kGz/DtjqAuH6dfx8CX+FbGuNB6JKVHlcnYz+r6lQ1dyHGrG+176WNIS547yOL50FNf2D3+HYZhOfUejPzj2OOeFYI3xPMK4cmx05kHt3TBHn1r/bf+hYs8Rv97H8c7EHFuiTy/EXdl+XuEMI/mDw/O1ghuxYvYfkU6xgKj/mp3Qs1Ec91WGqhdmEHg51DRhJztYO4XRFTHFl942i92L+HVUoqTbwY8hzhF8LMUeY3w3Dt2e+3bkvNz7dDPxXh7/B2WUCdEOblNtzzA0BgZzIE5/9Pay/B3+ivgn4CYxuwc8rsN3qkr4IY6bB7vk8KOlU7yV9HVc5+B8zGeeM9e/F2IpnX6v5Q9D44owayf5ExwfvtR7XP/9/2jrzNv6FM/2PmJippHwrad49qS4DSTMgUnM/ZI+yjhSP6NNii3EyvnG6cRWAHw8HiswhXiNH0R71f5hj0LWud8zTMx5e4m1+0B9Go+c39oAb9Efl5/tWq7PBPW4PMc97lPlx8/177XcmNPM1SGuV2tH/KDxBfdiY5+zRkK2Z6znzMbBs+w3wMxgjgb2XLyUhU0sDe+V/EA28rQTatt4y5cw4wJ8DPIRuL0Qx2rC/KB+OQUvYqb16PgQ/CwqA+l+MNPylIClVj8sq8T4mXv8WPpbttaYlh/4Rf26P8M2eD6BjcgME7CMyP5gL4qryEKdJcuLGEnv/7j+vXylfROWlPfep/CcxphPwobWZ6rUl2ujjs9tMixRCDNG19fenj/mOwzDMILhxK4T/ct7Gqy/3FcYGzIOxXkZ4HN4v3HueS+5J6T6pe0wgwh+vmwGxMZE8QgnBWqKv7TvxFhX/tPQ1Q/vb0N5N+id9nobPdQEv8HXkqH463WpaO9/q2fLWEUZvDXLfV15dxHlibwlBwdt4+RbbwdTcHp47UGfM/sIfoPf33L/R35oA4eYJneOK89BtO1AY/kevCZ+X4C/53YcRL/A/B7Jdjf8pffQmN+ViRfjsfSDyT4qbZHHMrmyZM/gvD30dlrq8ihgSqMYN/wWrCe1gRm5fmBWFW5SNIP8JPz3LvZDE72XbXAvBEnaTrEP+9Y2BWAjMfvoEvuW+aE5iVX4l7f4VrA89Bs3/qag9lfYZ+zUL40LKPanvObBT4o1aqb9jv9FkmVZlmVZlmVZlmVZlnWX/CHJsizLsizLsizLsizLukv+kGRZlmVZlmVZlmVZlmXdJX9IsizLsizLsizLsizLsu7SoqBLl58CkPt8JU8xmBeaCPgH6PXKcLpNQLTBkyJ4WQKxmKoF2BhBpADZfjo04N/f71fC6uncSFGANm5b+162xu9ZtKNwoQFNozqPQZliaPO0XOFXK4OVo/qHxws9e83nvDLJCoW1nwAwPv2Pdg1QUMDIh4Eg2tz3CcymqiQYa+zSFQXlbhfw313B7hQ8+cQ0tEguII8MmEP9NwbCBeBreqW+Uky/pa/fGOO/MXxOgMkTTijgyYU6h0eL7faAuQTQKYC0gJYe/iabPALcStC0AGwy7HMX44b7DBMG6G/6rgaang2A30ZQ7iHgyRtBDdf3yPx7K2SPdCOlO4ffGN5bueO36xzleQQ2ZgFIo040t/YAqM4/W34ATDPIFCA4nguKEgy4314AqvFHwYfZNjAXPvv0Dh4r9aniPqbKIQcgIbbbgE/u5MMw9xiyd/6tB0SiTSsBDgFLnemQg8Pxeu3x2Pzp16jLSuX++Hklj24/G5V7+a9rZy4v/TxfCXoNUPHjP7tkpU8Bx96EmyxgRYB0H/trDD1++Hc8yn0aAFWG8MImiv+DXbH/EwBp+J+ZALSAHo5i0HnOAEx/Zl8XkGgGe8I3MDgTNjbyIRHps/uDLcp8A2SUDxaA36D5luNaAKVxScB/pxcC7gJqyaBQgCkv1NGAudIairVkJjB0zlWa+3n/BwEsH675jO8tvzkA8Kc/mHgf+Z37tYwFX8M2nuBbthewPskP5ZJC+SoXkutVAZ5e/zLsWJx7kWvTeBA3OR2KoHU6D3BggKpYL9HO0vcxzxg0/f7b9S+vvzhU5H2mvdncz4+H5RL1bPX7+/U6SR+PF0p3LfD9QIDS995htLGhNeqhuyR9vzq4pG1a6Ur8Pn/p97ul/wQQHTWeCACeyxYZySXA38sL5RcPY284DMOwPsXcf6BDNsI2tt/7PdxE8HP4gzOv3TjUgdYKPHOhdDh4Y7jcnkcABhcovLJnAeGFfZZDWWLtZL8h19h3MePUtlRwfvMeA20DtHuhd4gxZnVpG+rK2zBVP9gatQNzmuHnCbYWcOmx7O/jN/UVxmN+7fuiHPxyEesVYL1Lf29S+fHeWx2chHzLISXxh6HXaBO3N9qkDoQo0P84oIAPzlm/bH39sJU/kw1hPeJ5HnVQvkJ5dG5Hvs+c+v14aQfsnQ5XUAd0qPcejIOEJ5eGAJ7863Hh+4odz0rbELBvdXBJyQ9wewHRrocO9BvofEa9v5VDwuKvssOyn4S/7/fPyyuNJWyWh1xxzmP/daK98ikSTrQ3m2KfOM+lwdf0r7SRiHJXPoAgbJv9+Hrur2G/yWOerHL+ToO5Qt2Hdwf2a9jfrHQ4j/9FkmVZlmVZlmVZlmVZlnWX/CHJsizLsizLsizLsizLukv+kGRZlmVZlmVZlmVZlmXdpQWxlRzjiDhBFRPLrI6MuedYV8SXLiUA8ZqO4lDnp2vM+0bfsvI+ZTdGvPdM8fDnCCzdKG7vvF6vPT82QMY5OAwjBVwiFvJCjIbD4VL+Xp/pGTqIIx+YSRHxmPMDxZEjvpTiD9dgYewc9x19vhNE5/Llmu77VyoCMbEc+omYXcE24BjgPeLbR7o2injMHfXjGNEYj/knx27jR18XFuqwPvfxyFxnxKGCYTEMw7BFXOb2hYJs0QcqHpV5Pg8AVRAHQsQPj8E+2I99hqNgPc1vfdwtjwf6heNQc4yoiEv0x4W4F0PEyXI89AW/SyxzRrZ2l+YDd2r0H83L9S24K2quMtsAcdwEqdmDxbI/tfEAP4EZK7i2/IPBJtGeN4r3fes7EAy06djKmL9eB2kn9sz5or5932CDcAww5uXUX1OaFN/mNoZE5odxKJwjBXNAzDjPaREfDuYCs3HG4LEVm0TywsuBb2rp4Jte3yjoWQj1n4j9dvlfwp5fmz/FfOM5vfyMupBpXIJvxHWeXyOPwmq7/t0E26qwj6L64CwNQ/M1x7/oWpgYc0jymsCKjb27H4avrQ+OT+AHMgsoYtrX3l5nyvAY7JcnWrfW3wVzQfk9uDrya1tUcKNy15gzvE6jrjyWU/im9Ut79vTntVPnN5rnUR6zgJJLVbgSWJDID029Lx5yLeuZKNz3YBUxH60ybKrY112CjzF87SEXI+0tjg+X7v75fDWKtxdqcHBXmAu4fBfjhr9sV+AxMBsnfDDzSpKNRMybxnro4RXs73N+8x5kRL6tMntMNMzPYWh8voLWQLcIPhBfu3y5/t2on5ewsa/PrcHgIbGPfbtcJzgzksBGWhTTktLNMW4rAfCSbcb7E9gY7zHFep+NIx+WazztbRWrY1ccUayxZS8Q9wTbivkimAPnb5ygVnMYaC4Q4wx7Fea8YU+YLB3Oj/cHb9d8VvLtG5goZOpTXqMywO1imzz18zzT85oMpqpiV3HXxhzkMnLvSx2T/BtmrORNym/tkkn+Ccaf9717P+TZpxP5zmQoHnlOx7WHrUsH7tUw0D6Nuw/NZe4ZuKPMaUS5gl9UuI9qOyT4MrkGcJ3h16guu2QdxrNL70yK/cF2H/rOZWZL7gWonusT6qkgP/3+mfcRo0iWc5+m1oY9t4IHcV2VbeAZ9hUKgKc4sFkuZXcAv7d/fxtU+Vw/vMfz3jUeLWOZHD+xyZz6fma2H+rALKrkwB768eBryb4k3i7eESvDqZ8fsLHCZ4a/Yh5X2NPhe0sGBmBprrCNLI/fqzG8S3Ni4EIyHxLv4pczrcmwA36Hjfei8v4BbhJxoUfxzeZjHqUMfp869HsfcGpXatp7GMfySnn/slTLsizLsizLsizLsizLIvlDkmVZlmVZlmVZlmVZlnWX/CHJsizLsizLsizLsizLukv+kGRZlmVZlmVZlmVZlmXdpQUwrf3SQ852Inxu71foUgFPAfTG8GlAtxiCFSApBmNtca0AQAVkKu8RfHoN6Ou69d/BCpQxGFSbgKExCBvgbYY8AlBaQLXRNoaGj/jJ4Me5pwSugEo/MHwLMDSCWQtY1vYYIOInAqMGIHRiuHP8Pix9+aoPGOC6RR043QWgLYJzJhCOys0e+oQL3d0bBjnWgPuNUw8vK6lhalTnKaBzBXocUEsG0CZ0uICXIz9mHgIMyMWizpJrRjYEyDIz7GL8uR2oC4PYs00M4Is5yGBFABgL2C6g2BNBZJfnsB0GTiYEmiB2ACay3aMuLw3qNn2//i4gxCjjQlDa6d/X3weClQOkx2DFGf5lOXTpdob6ousZ7HkQA4H7grNaANy4eBE+guqXYD415mR/CQYs0Prr75lYdgBcMlAUsGg2e8CnGfIIgCWDhvF7Y6ivYkCC4c7lCpBkA1hSXeLvSkDgCb+prw4/rr8f/kXZRZvWx3ZtIdhwVk/8rw1AnQvcL0CIBbYYz77/0a4BaHv+QuUC6M3jofoq7IqBkxij8U+y0/9xvTgKG1JjzmP0jrnPPNYF6cnGl97+YLsTzS3Y7HyidAIIjP7j8QDYtYA9BV8z/a4Aot9gyF/vo518OAA2HHygAfKhS4ef14vvf/Qw19L3M2C9PC/D1/3Vri1xiESCuIdheP+P6/3l2B+esfI+BwcaPLdLpwfhn6MODL4dYh2fqA+W8NUHXo+ijIUgnrlW8Jon4M4Yc7XGvz032z09Xn+v/2zXMH/LuMFvkM9Jmy2LWdwjkCnqeqH1d5lAc211fwwA95EmDZ59X9va8x5Q7qeHZuSX5dr3Zxqj978erkWcaH+FfQRvWQPiyuvMFmvo5aFdS4A0jRsOuVjP/d6irD1oO6/ngMxz/QRYeIj7BawdNja/0Boa82fkdoR/nhhk/3rtv5nhtZGOAfpZJ3EAQb0fNkkA6fQhvJ/tGcEfDhOJ+3kwTbs2ij1XrqEM0lV9f4KPpbmF8RIQXt7ToB0jje8qDmjJ/QPbPQDI3AcJx6Yxn/r+w2Zl5D5Nx9uDpsuOX/jOzJYPG0DWApRc3sswp2j+5hPcXuxFaU1RUge1tOKF/at3F9VXXJd8VNkXte3YG2VOlfJesXbpBgCST7x4i+pj7eFr0acjA5AHtIP8C9Lxvj0PZaH5G3WZ6P1yfO7hydBKe3m2xY/Cu+cwDO3QB6rfBNum+uG9luuXpsvvjbj/1hzM8lcAqR8oHQ5u4kOkRLljlMsgdqy/Ze5j/NlHRN7bQ7u4v1z/Xp7Ft5Hic+IWrQvTjHGjR5fetndl29jX0fvbIQ6smGm9XI+xfzkR0R77A353yfzasxsOVSK/lmB3nh84VIT6NPeWvIZ2rbAsy7Isy7Isy7Isy7IsIX9IsizLsizLsizLsizLsu6SPyRZlmVZlmVZlmVZlmVZd2mRPAbE/zErIeJfCz8BMXerCMbdRYwtxwO+BE+An1Gcinj0/K8WePvP+Hs8thjQ//W3v6/XiE/0f/28gpU4VvP9dA0C3wpj4NqmM8UL4hnm6hyXAAQcW/XO79cO3EsfXK8tVL+MGxV9xbHCM3gqxIu44JmfLZZ0jTG68LhF7DahRFoIKcXBTojnZpzUC+Kb+/xKHDnypXaAMcB1Rqjz/MYPRbHUf4hzX+ma4jGM0ZWKy8FCjP8muDncjBYTy0CkG+wjjr8Wdqr4KIjVnYRtcNsyxptjTi+oZ189ZruAbbATl2OImNn5Z+tUlFf6GflSX60Rm7wxewuMBqry+vVaCeZFgKE0vRNP4Pdruu0/Rew7zctz9NFIz6JPD9/7GPRt6W2t2EbUf6Jxga2xr0PsL48H+rww3cARWvrY6IIsQF24yjGnSg8gG44ZP/Tz7Rz153akLx57m5uIO5RcIuJ8gBnEzJaMR2fuwCziuSOuen4hn/jPqZQ1DK3fTr/TNTDiyB9sX/r6KUZHcqfI7tFONWceic20/rj+ZUYS1ryNQsvV2iPj66PvC68kbIjj5pH3RryI9DUcNx++k+P6l+/Ir2eYKN80MlstbOjCnBSwxsgm0+7f2a7yV8sPPAuy++0Ydf4+ULpa1jAMjXVHdsVx/5kfxvevNoEPkfe4tvzef8d4UDtO+NvqvB778Tj+2cf6N9YT9fM/rw6S3TnGnNGHitnCXKosIpp0mah+h+ARUroT9h7sTF7RqZyhMFRwXE69HSgGDK9Vy+u13ONfLRn6dKf5gWJLGwUrS2kOX8JMy/fgUj6RvaCZYCUNwzAcA+b296k5iddz7ySS16mYKNxlac/t0goOCHOEvlzrcHhodZmFT0SbCosKvD9mwMCHcBlgnbBJjnmzpQO7grEw2Of8TumwjyA7xZ6MuWzpI77SngbrJe8jsF97EE6H2Clgd87E5gT7Y6U+SCbjyotjzyvBGE3Hvr8LKwbsmcLZzF1NuxKsmImeXccl8qOqPJy7uiwHsW8Jbcwhyd80vlEHZqPke4BoW+GF5pqjHD5fE+2FjW/9WNZ8RN+DHSrKYBtv/danGxUbp7CUYs+g3hsVI6yAAT/8LfepD8Cd4smF+cFjikfYJrFGUDvWpd/nZBb8zzHQpcQqmoUNpb9SfCpKvsKXnNoEzjpwH+SesKUDm4vZumDtPD4RX27tHfgk7ADvzMzkWfFeufVzoezlMVdpfEfUi1hOl8cb489jibXs3L8v7KJfRrFXLry18Ikn8qeH4CkyOy/fIR5FOzjrWBd4vzODX0TpUCvmHIL3x74TbCS2Z3ybYJYw7o/sYvEe8E7jjPHgvS2+ydCYg6XK68LDvyNfys7/IsmyLMuyLMuyLMuyLMu6S/6QZFmWZVmWZVmWZVmWZd0lf0iyLMuyLMuyLMuyLMuy7pI/JFmWZVmWZVmWZVmWZVl3aVm/BTR37aFkw2MDRSW8jKBfO+BNUw+EY4hYQgenHghXSYMonzICKJQ5W1Hu02MDhp2DJsiw7W/HK5H1fW1wsIRRMUQMYCyCVp2npZQ1DMPwHtStiaCLx6croI8BZIDwAcQ9DK0/JoLOref+O976nwB6t3YsAexieN7pryt8cv5OEDZQthkiduz7bxA8s8tzD1t8/KuHQAPyWGDRqDuBnEERW5/oUs9ZTcArcRqHNQC17/9BBQecsICN0ZfC/hhqDugbg1Zh7+Nr67+EjHIZCf4m8B7gk8wAFKBLPHv+RjC0gM2tcz8XRoIy5jWeM6OANocOlB9AeRtD5l9j4BgQCeghjfkc8NWdYNYJCSYoHth1OwPcAH39R8O9P4XtrgQzPL+C8N8eBQBxeqQyok3n/+iBnUUK2BkqJqcAggqyjPvyXp/fzPDu8A0M9twFIBd3R3GN5/kaUNqNALkAdq6U7zmfFXUugPBft608A39FNglo4/aN7CrGZnsjXwdA+Fsbt8f/GiN9K+P8H+HXGEapBmTCuLVLCXSkeQko/ETQ/+P1DIZheWnPAu5dgOjif6kke5/AvBsgi0+0Nj5ee/+BwLyHcGgzrSmH+H0kmPAUo34mGu4pxnylSq2iX2B3Mzlo9NEkoMOcB/LmQycwR19eGtgY4ODhjSCeYWQj1e8SMPM8oGEggC/DIOEn2a/F+K9P7dopwNqHnwwnjjy4TbG+bFwufCdDw6OqF1qPEhDOMOHoj7K+YQ2gOQhofIG9n2qdhoEg8z/JwHCQhwCTs3/GARhYmzkd2/1w6iHaOTQMhY/5sVCfLj/jHh82cPyQx0B9RWs85hRDNzG3ZvLj375cO+vp0AqBTzzOLd3PAGr/PNMhEQc6PSCEOXWhNQV7uLLnQjPZ/8W8HWeeMzGPyA/hIJfzpTXu9XtsTBhGmgfJtCIS5ktzK0HFbPevAPiSbw8o+0T77MPf/T4MdszXcFDK+kzg1j9E/QBa5X0OgKwEnsfee2BwcOzDGPC6nsNfvbVxS//MEN5JrD3wB2zPgIvTnhr9tisYL/s6ZENg9w0MbQGfLuBbrGHsJ5/7TWtrG13D3kfsT7Yf9P5x7P2yUjbpTH2APTA3V7xD7FibuC7v/TtYe4DGSByMhLEpLQN0mOwl+4NB4li7af3Ivuc9K/adAxN89y5dZsHtiLzLgTdYK2j8pge8R1GfoY8YBg4z5aHPAaG+moU9Ixm1d8Vv8kNqHzsqADtsjfZhg3p3xiFJnC/A7nyoTey9T/Syhrx5r3fBGsUHUOE9nocD79P8PoP5yxME+fAa9TdOtaH8xD4M7yd8KFA+wkt3vKfUw1EiQ4J85/zlcqP+DNA/xz6X9465Zov9GI9p7h1pcVzwTk91XtThI5EPH+6AQx348C+8a/D4br27H9BbPL7Lc3y3ONO+Dn3F23H4Kzr0RB7y012xLMuyLMuyLMuyLMuyLCF/SLIsy7Isy7Isy7Isy7Lukj8kWZZlWZZlWZZlWZZlWXdpGU8ixhbxvhwnG/F4HPu+RTw6cznGjM0XMaAcv4mYSY5/nfrYT/Bt9qee18SaBhFHG3GtB+YmPV5j7n+eWowo2BEc+ocyDtzeSIf4+WEYhkvE0HPcMjhIM8U/Ph6vMYlvp0PLD/GiFBuL2HPFOlkIJDT+48oduHyhWNyMYaWGRJ+XuGqMA8eXRp1LiO0fEcPPbKE+hFpL3cfwsslhLJnHEIyBwnYZwNug+FfEX9Oz6D9mUQnTSEYD94viZ+HahWP9t77/RhX/H1qYM4O41r3Pbxf1XCmGNWOU31uDMX/PFAuOOboQZ+v43EOtUC7H3YLbxRwwsAU24iFNwZbieTkHQ2mldOu/r9yL5XsrA2H1zCwAo2MlXskKthTPd9hE4a1FOsU0kkwA+gk74PFVxn3DnjfmwW09ZyHj5XlOg8VCMeMZk8/h8O8Rp63AWJwdiiCkAmLFGSExBz9obhir1jZKpzgp528RR/6V4rpFXP8U9nn8q7Xt7T/Dv/zWc7ZGYikd/xW8A+ZPRNvYNrq6D9R/NB6XZ7UORbKG2EsuG/NeYJPMSAJ0ayzcn2AL/WhsoVs8gfmp9cGX4Mc8Htq1Jez5YWrXYJPb3tvpK3E0TvH7TH4DPmRf2fHG+kZ1wbr2/Ny4NG/zdb06vzAI51ou+mwYPvB+QmBS8Bp6ybqI+Ua2tD6GL+Z0aCajMNRUBdOD5uDlS9guM0+Ct8K8nB3+76+2To/JWKFy0R3sS6J7FQtwp7UMXMCJNhzpQ9h2fwvWBE9+PMJsEuyRFjE/BKPm8txug/3HfkP970X080J+I10dcZPAVOA1BSyj09gKAd/txzuxOsRYHqZrZzJD7CVYPAuN2+PDdZCYx7UFs+xIcwusCWaXfaznMAzDe+xtkxsxDBLStQXLaKK1Nu/zuJ36vRn2XOASDsMwzDHPeD6hn8HlGobmu7Zmps2v0f4gmRnEFpq+XvuK9wfY8zDrEz6OxwV7zPUv8nW4X/ZmaFDPvyssL9jsk7BxYjMlz1HxkFg5P5iBBeOl+ilWYHAhC18z0immDc83jP/O9oKfrasyv8JpjP0S847yHay0Dc/StYe+3BEGSC5bMdjAwC3tFTzbtGfOD+ug6hf2TTB77nv1DBg2gmUjxfULn74T77QBJ8nWwOakdabxkKjOYJxxO/CD3ytgkxdRT36nA+O2vJfFmFO6KdLxPjvbSX4c75W8R7+EHyrML/FCAX9V5iCKoHS7YAAVH/chv/J+GXY68ViiT78TL+wB669Yt+i7xI4lgl0E3mupDNhz2TPgId5nH/DeSGsF/Lh6B+N9DphBgh/N76FtraA9yDv6iplG/TsY5vdKnQoO5krzHO9qPFZTzDO2Dfg95qye35buWcxpxXFjt4s1h/cC/hdJlmVZlmVZlmVZlmVZ1l3yhyTLsizLsizLsizLsizrLvlDkmVZlmVZlmVZlmVZlnWX/CHJsizLsizLsizLsizLuktJvppOBGz6+wqFuhBUFegmBm4dvl6JfwXWG5Cs/Sy+UTHYaRKEL1CmBASaQVYARP34QRQs1ImA1IeAaX05vtO1631AF4ehgcJOBC1FPgwtzeoxNC1+zgRWBECLwVivQaTkawlV4/wC3j39oD6Nn9u5B6CNBGUEs4xBaoBkTT1rueYTPEoGywLyyADaQeQ3v/+6DAbaoq8KEFgAO0H1Gy90CQAySod6FbipKCPTM8AyfhdYG8ZBgQa56xW/WQCLATYsJh7XpvfehjghIMzMTx17PmgDETOY8O9r41fqP4BnV4JaJoyW843+KEWJft5/vw7205c2wLD7058EUI12XL4wQbpvRwJyyXanN8AMKSEYdpxHwrspGSCPBPLLvBnuh0s0twDUK/0NKN5jPwg85OlHaTwAtJ24HbjXXFNC7ApAFbBU9n84p4CePXyP9FzGJICJcX9jdvJTXOM5kxBKKuNHAA5fW0IFWQbQ+/QP8ol/XO2FazQG0Pj4b/KJ0Xbu+02AjbNP2Q/BFMuEu/65PNE18ETZNyE5lxt12dVSRkDM/QWFUOtwm/oPENz9r9Z/P4brGvaTQZIXwKLbNdgxLxU7+orKQN+zC1t/AzyU1oqXa10uD83YzvCFDChdeuAu8lkfyMbD7jfaR+xP0V7KD4DfApuNBe780voF/o/B0ApinfbCLhvFjcLfMzs5wcb9PNkYpBsZnhkeCiAl+yv47J8ERg1A8vq498+yPw3o6qig5QQFTbAnj2WANfkwjkUc6pDQ6/c25q9fD1EuG+CvF7g32tdNAYnmvSP847ffG4nzGIedrFSXGUDWmYHPURTbbuzTLuvcXXt+FBOYFheA6Xmvd4791dv5OHxUYdNinSkgUxzkQVB4wGt5OY+x2Ti/3JwxtfRar7Km4MAPto2wRQDoh6H5hmL3uEfPjlgDCF67RdtPXL8H2As9i7nPh0lgM8rw5Eg3KxgvvwdgL31QleaHYp0pzi6SkZ3Ch2wXPpAk+o8GJIHK6sQKfifBPoI3XQCEz71xMOB6/xFz6lE4Kd6bifNwsk18cAXG60nUmQddAZ8v4UfpYIF8j6J9Dmy7QIIBOOeun7Ae0UWMEY1l8svfaDzUqUGoK9vBw6/HhoHUaS9cF3FYA4odGX6O7qCpnzbBax7g52JNKVBu9BW/z6A8HnN0cNn8JA2cHh56oVw6uAk+Z+V/B4J0fFDQvHXXct6yvcR4bdw2ZM1zX7zT43sAzw9MPc4vx4vtGV3P5WIM2TZifdnZDlAXPiwMts2+KebjRH5jib6cyY+/hVGUQ0CWmFu0zIziYCSsC3yoknRreIcQIPPDAx1CE38v/K1gxVxtBS8H4W/DPxd4Nw5NmCg/+EyeWoCf02EN2NNgX3lN+OHv4H+RZFmWZVmWZVmWZVmWZd0pf0iyLMuyLMuyLMuyLMuy7pI/JFmWZVmWZVmWZVmWZVl3aTn+sweWJIPjjTg9Tz0r4XC4xvXNDy1Y7n25Boyevj+0hODBCG7IxrGxyU2iQhDvSDGYiO1dHlqM4M+XKI9iXR+frsGNZ4qRR7z+cWkxiWAovVDc/Gnt++V0urbtQjHZiHc8ULzi0+M17wvFKb78yZCOqzJ+l7sAjCnmlSR/h+Ijg8sxf2/tXanLU4J1gpBZZrGgPDAdhmEYFhHujboUvojID8wjZtmAZ1IQDMB3ULngYpz+g8YcMbMcUgzb6ENOKycKvzlUPexvp7Gcw06Zq4M2MQcCDSjci0Mfgz4HQ6LkF3yMjeZMcpqYwRGdP1HcLeKQJ8GweDo0e55iHr2fmhG9vUQMMMfdRpwxx32r+NfhKebMcxt08DhOVMYaDITDf7bB/PJ8nVtHYmHMUx8PDx7C26Xld4r8Xn80w1ZcsWTJlBh+3KQyou8LNynSMUMnGRccu636Bf1X7HnsrqG8VXCdzt96O9gpxvuCulJsNBgdF2rvK+L6iU+QNsu+U7Cjks9CMejgXXAc9vjh7zAMw/klJsi/m+/EnGcO05D1a/aHuOvLl75+BXsmfFiy0I79NR4j+BXmScG/7L2LL8L8LmuU8DWoc+H4gS9CUB7F1wI3qfgNTDNmxYR9Fk7FOfwB+ToUx4yfjOtnP/TYz4XkJlC/JPuA/MsWUAjJ8vrW0j19u3b+RLb7/n59lhkmF3BmzmJOk2AHhXME22D/LDhDD7HPYcZePktrANaomda389fr35WQjFm9whIBO4rKuPQskenbqXsW7IPCWgz/s9P+BQzKkfYCyYrhdMJOMQ7LkUBq4X+YF8G/s23hb0/v5O+HqwHsc18YcznWGLA3WiuO4VeYF4H90pF8zvdTv6nB+vHvf3+hAuMP2doaPufEAwL+w1MrY4rymIcEux/FvnOisTwEI/BI8wNr3UYD/PP1WgfmXqwLGF084Xr+zvwjuJllTYnkW39tY1YMeH+f8F6SDSIS7oJtOs79voTtBuPK3CQwZdg2MF7MQ8I+YmO/hvuMLwp7GWk/MT32c7+lY9ZTn19yV5jFAjYdsViSHVXW1b0rA3u3jRZCxZkZBVtqehT7v7HvqyHYL9uR+kqVgXy+cn5DV+dmB1yX2Jfw/Jj6vWjOD97TCO5Pspm4fqhDj6eqF9U/fRD7P8Wdwr6J1+niC/Fs/GV7Rjsu4r1wJY7udom+omtgEBV/n++u7eIWvpWxUsm3mdmuwr+IffuuOFZ7P88Liw/vZWKeF1uKseZ9It7BD+T/wKQrfCDhS85vsR4wxwr3mWeG38SlHL5cy+P5ke+6wmcr/tS6ctv6+3mLXSLslOpyAYuP1q0p9l/4BjEMw/Dl6drRbyfiUsbeo7CTUS9GW0U/PxwaFBTvdzx/j2HPPO/OwX5eyM/kaLEJgeHE137G3oxdFPa7ZiRZlmVZlmVZlmVZlmVZ/7PyhyTLsizLsizLsizLsizrLvlDkmVZlmVZlmVZlmVZlnWX/CHJsizLsizLsizLsizLuksLIEoMzgSACTDUYRiGNcDB69wgU+/j9SGGkiX4iUlMyIagUIAN78ce2reP4vsWgfee/riSUw9Eg357v9ZlJWDnOYBn7wSIXALO9fjQoFUAU50vPUiNQWWA3RWgXjzy/tI6cP52LYOhke9PV7zVemL6dLSXwKjrQw+6THgYQbBWgNaoX/I307IEmLlVlH4L2F3mI8CnBU6GceNhU/ntAkSc8Ebq0wCLMRxMAaYnAW2ekR9DAAFDo34BmHTbe2AdA+Ul2y/6/oFAb4BtMmD9/e1Kdj0Q0A92p4DTrCkqw9D3BLNtPZhtXwgyv1zL+OPxNa+NvwcIlgYJ+XB+rwFmY6jg8/EKjGN46F/fr/Tfy1ubW7//x89hGIbh22MjG79Hfn/+bDTrU8yV+dD6AH3E0NLfnq75/P5MJHYh9Pm696O1UD/fgnyzYCfvBfx9/c2AvksA93a6llBOhnMCRMzVU/MSEMozz9/rwzMdLLAkUI/8c/Tl/kRQ5IT5U36A9b5T/eD3Xgkg+Ag4cSv3EHkv5HcBATz/RrDFyPvwz9Z/U9SFAfWX/4zDGp6bL15iLVHjwgDBnLeU7gI4MfnY6a9rHR7/q6Vb2rRoeQNUywDpaCaD+/cAjz783mwcc/qRbPcA4C6PEeZbqfP12jsBGN9fA2JMdgXo5kRrBezgSOOBtfgz//Kx/GFoPpH96o8f13m7Elwy1yte4qPpDNNcM79Wv2ccgEFrLXz16TeqSxwOUGCQ4Owz1Hyq94ahAcynZlYJ2cZhB8PQ5uXMa6g4TAL2wjDSHQcz9FP1A0UW+VG/hM+caE7j4ION4KYbIORcv4BEM4z5HGNzEZDdnXzs9FPkJ7cRAe9mICvg0+Q38ItdGZ7BfmwYhuGPr9cO/PLQOhVr7DsNHPZzvz02f491cBM0VIa4v731e9FtjrWRQaGAbPNYbiLvyAeHRQzDMDwfY54v5y79aW2+7hxrJ68V8BE7wd6xplyO/Vy4kA/bcPgD+yEwkRmWD995Yd/eg/YbTZjmQuxldgbavkxdOuQzPrZOBVD2ifbUj0sPMd5yH3bf/7/mPd8m1gO1J1TpbuVX1pTomIkcG+xUQaPZJtPX3dpv/6J+eEbd43KxJrLPvlU/FurH68L46676NL9bYuj/veO2i3vjeLWreerTr2LOKt1qI2sT69ZGwOw11isGu+NgBAYqLzOA8n3ePG4AIJ9f+cU76syw9+i/7QefZBSZCwAyv0smTJ/m6iTA7tvWv/fmK/tjm8d5AAG3Ldr0SocibK/hC2nc8jAJ2p8+x2EcC/ls9Y4Dn7g+CCC1qDSvC3O8g0/C7tk/Hx6u9Xp/bX68HeJDRcCf8sEpwj5RLs83QLbZDmD4T4/Nd6K9r298kkzUmex0EuW2dH3/beW7wPUP7zfy0AQa8+0VB0JQldF/VD3/iyTLsizLsizLsizLsizrLvlDkmVZlmVZlmVZlmVZlnWX/CHJsizLsizLsizLsizLukvJSJqYRRCfl5glsS0Rh888n/UaOLcRC2hCTD7HX3+9xv9tFH+Y9xYOUu4DWkfkx3wlkQ4x6CMxOBBTzHHziIs8ELcBsc7MbUBc7lZilPeSB9eFY9XBZrqIOM4DxR+uEWPL8a/Ln9dn51eKh49uWx84Vj1+cBxqMpJaeWPUYepDY5MBMgzDsKGMZ+pn9D2xEjI2n+L1x+CuTHwt8p7fewYR8yzATNko5hRxm6etBWFOwehiVELWT30OZdZU9PMoYnan+TZLZMq4YGKTLP01sIA4dhcspTPFWl/AiqFr+xksB+6rsN0XalzcH7nK8cgPGqPv0ZfMRcj4ZsEzYxbVKOJu/359HIahsY2GYRi2YCl8/c+XvPY1GBiv55buX//6eq0LcRvQ3vWNYtBjrF+pzn9jfLlKwDaUOsf4irj0scTcd01LFsXOfJFo20S2m7HRlGw+9eMBtgrPrRkh9JwuQqILSk6EPO8BYbs8tz5dH/r084L07RowFZzu8L3mwb838i8j7HMiVsd/XcfoTPMcTBSeRsvLGH/btbf/Fr7z99Yxezyz/qtVZg8+VM73ocX9M99mP/R8uUHw1tZv105429vac/wz5hahty5fhk7JGBjEwAhb+kEx7eCjrSeOh4fzpBj+4OTMxFtDvD6XAXZEtefgqTCXDSwv5jugDsz7iwE7MLPg8Wqox7mN0SnW1VdmB2CMyMZ53YDAEOPuW6drXR6OjQlwCRs7M8cg8mY7nQJXs9G1tg62a9tz8Kmo72egbpjFF7yfMu/i90ZblZxTPN/CdpgdgN+8Tk/RVyMxkkb4e7JdsNVKL8IXF2ZG/GUGW8zH6dQvhDuVC04T7y3azfbzEji7hfwf2rH1W7hS6X3qGWc/369zgfkn2JM9HwVviNh0t1gozHE5HPoNTrKPyJcMzwCf0T4n7HR+bnMBLE1mBf479mnMfcEafyEO5/ASv3mdFkAp8KZGWvexZjNT6/jerz2YH+ffWiH778FRI/bWANQYr43vPRMFbCTeb+R6QIyVp69XH/HlqbGjwBRipuD3l37PMMR6P71Q+VjieS4o+NYXvKiwseEvNQ59eurXj7JWQDwex36/MR+xd6T9aexl2MbL3u2GsL+qXK74/cZObCy3fpnfuZ/TW49WaSxSZoOJa22PTv0SP6c3sSbTvpNttsuP1+5+Gcy8Lzy+QDzys4LPB980CN4pt2MX/FmI2W/5DA0H1grmEqHYd3p3AfN3VEwyahv2m2PZH8RfZhbhGRqjHGs2F4xDefcLv0E+bF/CdhViiPsqn1XMIDHOZP/YlzAPDuvu5SftY4MVuDy1NQDcn60w7GKPzp8Kzv2eBvkwwxNzlHnKYNPxexnyYz4puI8H2see4v7O9oL0X1oZeK/4Se89s3rXjOJOzIzE3wITjnxpLHOPR+nOp9j/0btVcrF4DUB7C++5fyfevl47YSPm4fYg3nv6llmWZVmWZVmWZVmWZVlWL39IsizLsizLsizLsizLsu6SPyRZlmVZlmVZlmVZlmVZd2lBnNt4aheBk0Cs/DBQvDSzRI7X+Dnmn8iY9nh0+drHw7MQh7xvFH8YzyY3YhiGeepjDcGJ4LjCp4e+vC/HU3ftx3sfVPz6do0JPB5bucibYx3By+F4aaR7fyP2UcQpMidgBSuBugzMIL6GRziWvvFHOOYZP/pnmUuEeNpRQGOYCzO99bH04L3MxM9KG6L4YZR7+NmuLa/BSTkyYyUYA48Uryo4DKj/+RvVFfG+om07fyMNRgJzmMCp2MY+lpn7PrkrHAOPOG2Kp8W84DhxmOn6lWKowSq68KBHzKmIDy+ViWfXLyLWljgaiG8eXylOFsyRZw6ijnjkcz/Ow6vgKBzas4//uEJCeC7+j7+uPKTTvx/bQ2gnf7KOduzMrNr6uNv9MpZ7wzAMI2Lpv9A15EPshYwPP/TjW5ge0SaOkT/+O3gRxNABd4BtLePwOcwdDCdyM+AhsV2D8zKRi8oQeUqHOcVzC88Uu+9DxoehR9QM7/+B9pAfgm8nGxrBC+Hu+7+ulZ4bHiMZaMxDAsvm5f/ZHr780XN/5r+vDX34J3Nchk7rY9gBMylgVtQvqMOFzA/+ovBF4E/Z1sBj4PEFl4jtL3zJ+f94zmsXYAF/ErcmfMRRcCNGUef1qb/P44u1mJ9V/AzYxqEtW8N8KM25/sbwkq39/S38AcX6D5jzND+SxcNuKI1XtJfneXKdWuPegy+zv7Dho6x2Ca6mzKOY3xvxL9Kv8DXsDy6i00gT+o1ZaOEHJuYIfRF1wZwSLBvu5/l7rFvMv5t7DliCbWjgYKfcjuR38KPABzKj4b3LrtWPqnKIvHmeJzuKtkqwz7J/gU9knkXYBKe7BHuD92OPy9V4v7+3CbzEXqvwlcIQwLoYhmF4f+s3DeDo7f+g/VqwlNgmwauZ6BpYhm/fCcj11jMpcjx4LmD6sC8Ra9n81tti1oX8xuGv+CH+t+9M3Jrzy7Wul3/QnvXL9TdzEDcwI8te9FrZ8VtryJfH63gwXwR80L9/NId1/vNa7igYOoWliT4QPozXKDBvmPm1Yj0nzlHuyfhhXGL2R/TlzvwTPMv7bNSLxhLvParcwiWC+Ym9Ixv+hn7hPUjcZp5o+n62NeG6Wh/wzZ4FlX3P27/wLzxG2J+yXan9/RB15b185sFMVUwZ3itn26guW03P4neSIcZyfeLFO+zlrW/HLubgxO+wgqWUdaI6g8c60TtT8qlo3d+FL06fTmWAr1nWS7E/zTVAsI82tkn8ZN5a+iZaK76LdXDq+wr2zn0PBuCu+E+kLJdt/CLsNBmyzcdOwWxk37SdhFHc0IV5Q5HPK/Erz7FW8HcG1GU69/338Gery+t/j75nH4GmCWZaWWfgw8SYT9Sn4O7NivtHZeD7QWEaXfq+WhWbOurAVUEu49K/S5Z3jciOS/K/SLIsy7Isy7Isy7Isy7Lukj8kWZZlWZZlWZZlWZZlWXfJH5Isy7Isy7Isy7Isy7Ksu+QPSZZlWZZlWZZlWZZlWdZdWgCBnAisuAb7qkBfwUqlT09bAqUoR8C+GFr1eIVGHR8aWBEQxXcCJp5+XoFYI8GjAKZ6f29ArjHAZwwQXAOO+PDY6LVvpysdjMGP6tpjALVnAmsDasU8agAYC2w7fm8EwQIYcnwikGTkze1N0NYjlRvwuo3gWwCGMWjrAmCcAscRhG0C5JtAychvI9gYwF0DAbbn79ffyw9qGyCtDN8SIGL8fvvPdi2hbz3vuejy1EOl9wCnjtwv0fcz2cFhQtsIErf230u3SQDccsx7EiID5iSwNfp3JTYn6joRKH55WLsyMK4Mrgb4k6/hGcFIlwB6hpECHs89gXJXhtmh355bn85R/2eyZ9Tl5bVB7C4xf4fH9uzDl+szRwJ2HoMEfKA6Y/68EyzuNSD4px+tjATVFZBfAAQZrI10CpJO18aA/jLoEn5vY7D7GemHTmPPfRze/+iBkwxbzKlM1ct5O4lJwVLUTaWAZx+/Nef+7cuVHPzt2K49Ha6NO059436cW9//8x9XwvD3Hw2GuwZodfsXAQ4BmX+kORMQysPfLd3x35GOQNNrMKx5PUoAsuIQc99/TD80mDXDjhOs3c5CaD5s6cdoV+PBXPwAcHO52wB4I9V57euH38u/2zWAtS9Uv495DMOvDlKIe2QiOPCA13M8w/VLeOw4U7oAQ4s+KOYSz17I7qeANq4EfD7HbwZOJpCSDkMAoJRBoSvaxqDLaNPOoHjAQ8lPr1/D7xLAd19irSWw8fl3Ab3OBtE1HOrAaxnayetDjCXDwHPOs28S/bsDilzW7vhB0Ovti/B1aZO0D1t64C7goiPZZKbnrQUOYCGQ/Yb5Lc5+OP9NC+Fv18n88MCFBIx+bteeA7a9bv16/f3U8sPBKo+HZrxzQKLfT83I1XqJdZL3Ui8BqT6duNxY9xkWPfbrB2C0O9uLWmcAPz/36wxfU2DtPJiBwPMAoU9sQtGVD/8mCPl/u85l7KmGofk4PjxjjPmz0Vx9CdA4w24B1J4Ivr9g/jCs/KuAF4tDBJZXALgZctvPwYRFc7bigI5W1tilK3s4AIt53PZ6bxiGYfkZeyRey1Ae2RCA/GpfrKDSXAa2QQxfz0Nj2HgV0PtD+mFo/VcOfonfvPZcvsQ+m8DV6N+tAPnHUs9haP6A14DsDgZrH4Qd4F1SuFjul2wT2zhA7AQDx33OD2vZxnVRe4Z8lt6tngGKb+kwB+Xen+v33ttpzjdOiHdndXgG7wlRP0q3Ybz4gCe0k10YyuWuSj9EVQmfrtY8xXAfy/4ZefRztZY71npyfnwJ7+fCnnntzrbxNIfv4vxQrjhUqQh5U9uwb1oP1N6wiQI6X4QDyrYRRBv1471PPMvAbAwi+2L1DpsHYPykjSLqRX2V+yFlV+TH038XWHmkL4B1sY/oa2dZlmVZlmVZlmVZlmVZvfwhybIsy7Isy7Isy7Isy7pL/pBkWZZlWZZlWZZlWZZl3aUleREUc78LfAw0EUsE/IQSAxwxhvu3FmB6fL4GZDJH6PufAQ94b4WBNbF+YRCEqETEDl44DjXyPlGM/HK45qN4DI9HChINcf3APlrp2ceH6zOvb62zEM//cLjQNXCdWuziIRgxnG4IHsjPvxt4IOMZKSZyjHYcif80Bz+oxJeqmFPEUQruwE5wgynGcqV4zzV4Pus/iCsh4sMzDHTjgNUshApU8cWRgG1OxHRmm0RgNfMOxgjkfiLe1TT1fZUcK8pvGn7NIGJdoi/PFEuKMT8emu0+LpeujLTTtT2LfC405vj9RgyiNeJed2IWIFZ8Y6ZRMLeYIbaoON7Qw0OzK9RPzQXmTyS3iOfvb1eIw5cvDXCDfvnxvdk4mEYT9RXquhBLCXN0+b1dG//o64++4jhi2D23G+NwoXHL+UHPgq+1F3se699hGPaMc79h15+Jy8AjhZ0St0qMctgzhzcHfwQMrmFo/fdMvu4YNnmhAPZ/v14dEdsk+pRtEvPikfzQ6T+Cs/CNeGtvVztZ/iRf/CP4csQ+ev3f4tmvNL5hB8xC20XfZww4xdxPcY3ZEChvfm2PYq07EwMr2UjMPkKsPzN5jj13ACw35gOBT3ViNM7W2wmYI4U7EK5rFu1gBltyNJjrBLYAccpOYAxMvR/aaf5KOwaOgZgFW0yaZCoNw3D+z97ek5lG8f9g9R2eiAsY/bJdGDBy/VOYc6hLWSv6uicXgdsTv5fvbeAe/hXlEjtqfbheu3yj9j7FPoLZg+G7JrLTWfAOcm1ihE74uCfyu3NyEFu69wtV7EN+vC+5xLxlFtV27H2i4leCO8HsD/SzYmagL4ZhGKbwNbz+Dq/95hF14PUSOm/tGnhsfA1MI35W7aWwNvK69f5XrDnMkUQ72Z+GbY+0Xu75U6wBpPTLvGVdez/UAG7tUnJraCuq2GWT4FdtglEDTk99Nvai/xBsEppI6DZ+D8D486ihvaPwiYPgSDL/qdWTfXb9OwzDsD7GvGRuGGySpgSYPdzP6ZcV1o6n0yg4Qsk/oWSX+ncYiIfFa8UJHKZ27fA95ir5sPWp5+/AxMAsGgZ6z5pFQ/jRyIf7GesMr1HJNmVuTdjOOPJ4xLMLNw7MKt6Q9wy7zI+5SWLPjzowd28T/ZJtor0U8p7FvonnCYotTKgnrJdUGRTBcwa/qQxwYjHHhqFxk4q9iOGCvZf3GcXoUnlg+SAMTjKIuAuwPhd+EX63DMEyKsMS41H2Ta+w3b5+7F823Oc9CHyD4InuvQmVtQdza2QGVrATeQ+SrDFmzs1wipQODGN+N4j3J8no4nU69oybYFVOxCDKV90D1fnQs/iYU5zPxv7rfOGJKSoz9GPZjKNdyXcSvob9Xym/3wso5lyOR+Eq9lXxv0iyLMuyLMuyLMuyLMuy7pI/JFmWZVmWZVmWZVmWZVl3yR+SLMuyLMuyLMuyLMuyrLvkD0mWZVmWZVmWZVmWZVnWXVoAh1uP/U0GNgH+dnlm4BWgbgTaCsjoTNBXAKfOL41KlsBggsmtzwGRJagW4GHjoc9vOzGcs4dQbgFZfHgmmHD8/fHjqbUjqH3zDSDxMDRI7+NDD+peBYjx92+N8ArQ7ysBuFcFwP5+vQ847TAMwz5dr50IzMbgsU7M6gW0T4BUGUQH4NnMMLQAqDHoLcF2DGYLAB2DdPMeXwMwkeCDySLj6gHCxoCvqGuFzfblwZ5fH6mvAPdjYCza9sgw5kjHXGPY9iT6e+9BZS+cDkxGBuAFpG35TqBLkTdAgwuNEVhpXCzAZxPB2tbHa8dsTMmM6cPXAB08PfX9wnP/vPZQtwlwzn80Sibg9j9/tEHa/3n9Pb/0MDkGOqL6Z4Ys4z5Pk4D0FnAwQHpiiJhhl+BgMR4VdhxzgWw8QZJsG3BJfA1VZnjje/9s2gbVb3nrr2G8pq2/xjp/vY752tza8DP676XUWQBep/r3mk/ASOlwBYBdz98IJoz5s7E/CBv/Qf0XdXj534nA+Hwdy4lhmoC5sj+ATXAHPg6ddrEGnN+unXX4Z3MW8EkFzgnHJwiMDIOE3a//SXYfNlkgy6gLQx4BM6S2zf+49sfMQGrATXkti0nPQ38QBwYoqYMWcADB8kcr9yGcDUPX//4rToT4s20Qlp8BNmb/K/6X1PSIwwaoLmF/pxd6GOBv6uflJexUAFQLXBJ+YO1tjdMd/r62iaHr7YH2M+HsDPAdr46SIa3rsV98trDTM/nTAYcg0N7iNFyf5YMU0EcbtWML253/bgXP7zwxrgKoeCbjiCpXfwXgrvAfDMjFMxexHTr8SfuXR8BN233AWcevPHCR3ztX8Prn//qzEe+fn64NORBBeol5+e2xbSQA4P6v71/y2vl8rUuBi4fBMLh1F3aa1xjKHX1fehu21g9BPQwhFmpmzQJqP763MuBLCoQfdsAgXTzCS2h0L/PY4dMZHKzWI5RR9vyoC8O7AdOnumD/pcDVPAfldilMZ6W+unwNexGHDRRos4Lqo68UhJcPxZjqvWsZWOP7ehbYLOYRr29Y16iNCcpm88P0oDl7/FPs+fEORhvPbBPbVTa4f3ajyigfAdB0WSqiTWrfXrYqqDIfGnOj7zfxblIOPhDzB3nv9AKC94ptadfWxz7vhKQPn8wj2CxDvvFOxT5b9v31z0nsEydxwACP0RLziO0Zc6/A3uM+7+8Tjk175QRcF2B2pGPQdPgwBbzfHnjcers6/xbv4rx+nAEIp3zQdHZ2cW0nuHPuoeja/gLotaJe00/4b7arWFfHifdcccjB0n8r4PeF+dt10vN7QB70QYdxYIwWBqxj+WMHh/0zdzO+W5CfxPcIPkgGNsb1w7o/inm00xqFd5eyLrwLYLZ4T873j4etuzaUMsbydxjamPM+wv8iybIsy7Isy7Isy7Isy7pL/pBkWZZlWZZlWZZlWZZl3SV/SLIsy7Isy7Isy7Isy7Lu0pKxchzrihBDYhYgxnajmDrwkDg4cIxrO8dbBgtgemhx89MTxdAjP8Rqcjxt1GFfOHAUcXtTd42jCsfgTpzPLZgP/AnmWYBPwZwKxOFfOOZ+Grp076eIzac++MeX15LHMAzDv35cWRNfKdb/HMGGC+X3ulz76nxQgY3UNhH3ijjkwtyJa4jTvaaLH4rtQvHS6PMSC4k4fI5fB8eF4s3BQWImQeKQaOiXyI/j9ZPZwjwfdBHzgRBLz7yXeIZj2hHXunHccsTC7lPPbeA6oy8n5qREeReKq94j1rrwixCvKvgdtf/QzzwgQ5ff+jj06dBXFEONwHDmIsA+OV3GLVO/IL6+sHHAp6Ixuvz3a+Yc73v6Hjykf7fA4MPPYMUQ2yrj4TkOGq6Ew83j/kSMi20Dr4Tae+q/hyO/+a1nJTBDQPET0B8cG426lrkQ9s5cohXTVrBJGFXT2FZU7FLrxPlcqP+m3nVmfsx8WI/9/E2OAcVuJ/+J49yHXzMkDhRHPv1z4uTX8nKit2uv/49rpWfi1W0BsBr/3Qzr+K+p1PNjXW8JsfvMcBoer426/EZx88GfYw5OchaI0YA1UTEfBuL9nSKmfP7ZOvrhfwQnikPQBYvq9I9r3qcnSoh1dRblMrYBjIYXWt9O4F70LJHCOkEz/tH6ZQp2wEJ8wykasBLbYIr2sl2pPtqTb8iTq2cWbMGNGc/9YqFs/VT8M37Qo+SrM93cMzjgT9lPFj+F/AQrSPEssEYwk2I9gStBfhd7Lu6yeJZrju4tzBPBVhvE+OY6Q/2HdnK5ObeYywY/KRhxvAZgjZ2YIRHtPHxtjgP7oPe3tqfB/msUMB1mnYAj+eNEjLN4dqfOX8OXbG9tXo4/Yn9FvMnL13iWTQ3rMzM3Yz4uX1o7HmL/eiAGB/huvP/bktXWr0vMPcO+9PxOdUZ/qKm/KyfLe73wQ/9q+T3889drQPHZwG2Qv09WVuGiRjto/cXeZ3ik/f0RDJOWbkqmW9e0Itjnzv2HZyndeCO/T7Ar2ZfCvXyAnaAu7TeGsJQrysNYF++XE1M8q/qF/X1uQkRZPBeSEScyLNAbUZ7SDQRf8eM36ierIurC1y4f7pX8tr69u5hvqjLFJhXM685yB6wV39oCkpxVGvRT8Hd2WrjS54i1hdevNBdaU8Au431R7od5Xxy/ea5Ogp+FtZHfcfDeuD3ySxPYUe0S8uO9D3xshW7i/aP5zjH6jf09+mincRtjDzLRvgQ81sKRXPuxxDpT7CV4dYU3hPYSO+r8Nd6dX1p+6GfwnLl+hdOIvR4ZPrjRXJfGd+X2xl6FAK9o+8SsrGPsm5hdBn40tw3jeiZGdX67aW3LYeBvPGvP2VLvLv4XSZZlWZZlWZZlWZZlWdZd8ocky7Isy7Isy7Isy7Is6y75Q5JlWZZlWZZlWZZlWZZ1l/whybIsy7Isy7Isy7Isy7pLC4BJu4Rw0X8EkOv/x96fNEuSI2vaGGzw8UwRkVlZd2j2lU8owu///xQuyA25ILvvUFWZGXFmH2ziwvQFHgSQkadbhDt9N8fT3AyDQqGAeYY+yECWsyjLBP6t1+Ztuk/gxc0m0Zku55XaOL4miGIEihEYpvpeQBazajPgrgE9mwrIaiII0dq6PSRA2mhQq3Esf1cjLGu3W58ZxmQYASQJ0HoRvBuwbZVDQF/blHCw//bLtxBCCDebRD0UxO75so/XHt9Wwu/5LdEv1d8F0K/5uEK6rl9QSfyaJD+7eAHgywBqm9cSTkwoaYQE3+GaoGUVmF0GkxNkFKDfaW+QuBtcFByMQFGzMwFkEeRMG2hcSfwT+I7+XIEeRggbYWg12OG2nB+TwbiXQwmhbDclZY8QdwEBM/hqpeLkV2iffSbsczAI6TxVfjumGxhwtKm4Bi+qn8t78j+Bfhk3Lv+2+vEW0NL9dijaPFtbBa8PIYTR2jK/gPBaAcXHNpVM3zACvKw2t4DIqm9N6UIR0v6HEpQWsFkBGDNQvADw9HEDdJNvrbaw3hqcfa6wDGUPgoMjJB1tGW5LWKDAss0GlYjPx5j4uo7N5hkgP01LgPcGiwMRuoiOzIj3/eNa3u73dJvsUoMJEwRbA2Gqv7uv6eHrw/p5uOchEWasih/k0Pqs6esls2X3DhsYNHf7UraJdlkUM9H2/W8lxX3pDAZZgUrXIOQZ9PCqfqRrI2DwqUCr/79Q7z/WG6+fYKs7Kxww7dF8qH9joLQ/uG9j8N39jjDS9fvTOc3p61SuPWpf7RAGjod8MRtfa0MG6Te341yNTNoMvFxe0wEUhOpHuPhcOiJ9SLGGsEo9SwD3Itg6Y5hiO8dchzrQTw0m3b+nOjTmC2IJQaLxmvkJ44vWvIwHrPFFWyKgntBXW6cJpNY+aOiSr20s1uy2yXmvNo/GMQ26YKoE6QqgOiE2xX0V6faNlXdbrrXZ+qE9yjG1+XC7DvoWe9bRAun5kow62Ho1nbno2RrKA1EEBMaYR8A61x41FfuXeBDOln2zv/Q1g4HPf039eL9b20cgf2/7uYzdLRtggzpqHwa/WWxPxkMTNKdnjIf2X/MFdjnZZ86ZtjKPdI1Ab71/cD+p6ng4j2zOazq0oNLfhutM7XCDCPSu7L34We2vxIPsmQojPR5KwDbrRszLdqjs3eKX5f70z/wvxlPWW4M/qw21rSPjpJ6lP2s/XIGLt+ibyiEYWn63VMYo65v2B5W2Z1Is4TiLH/0G39X7ZcUf2qm0KePLcigh8/KNplJvGCt7KfhQE8HG5TtY6MoO8/2jth+P9cLO6ntt/8zDKZaK7bUfCvvy3YCS37WAcis+xz1GCPGwruzZUQDp9OxVcYUHfdmasgH0f7RnskMYtM/lGmrxm/s6KXsP0Jpcg1Sz2315mMR0/eP4R99obe2cMN8jeBvrW7cpDzaLBxDg/XI6Wd/5fik/RnmqIyvPbEQfb6bSX/xfJLlcLpfL5XK5XC6Xy+VyuT4k/yHJ5XK5XC6Xy+VyuVwul8v1IfkPSS6Xy+VyuVwul8vlcrlcrg+pV75lxlmwvMzhDnmeSnUl38by+maiDSw3TyyYEBL7ZRhSnqLy/5jLF/R1lips9zEn1opumOSt9Enep9/JkHcZU1MHQkyUh48ne+UfpvIulhvfgyWi78WWCSGE82nN8Z+RT6tcyeeQOEfST3dv8fOhX41/HpOtxMHZ9wOeWdt3PVzitavl8E/g4IziRGWDVDQh6SZ9nMQXIW9IZVfLqPCGajnjGRSgfFQPZ3nGyk3Ftdb8rwOPobXv2x1yOq1sMqtqOe/f35+1iJyUWTZNN3ZWLzlH7Q/y60eMkZhbM8ZIbIgBfqoc4QU+3hjraQGbpDUmU4852O/0mVQetT21WTyuGktpOAGG8bLOBebJTg9rvbc/vcdr94dzUYfGktd23frsFonzst95SvUO5uMjEuevNleugAGJtTQjRoipMX0p+1bjo2VOGfP/K+yFqiqQKfLbajiGCouq1pRqFSqbU8vymxmLN8bR2MNP+27K60f7Rth0uLX48hNy1e0vGSGNeHYob/ObxU7ypMRtQCiO3BVc6yzEkeMSOQYVThRtsHle//YnxMQaM0jrIOZWZLWRJ2DcnRZMwU5GqDAGOJTiF01YAsQAIrundp/y9DnfElOhrJd5/bU1XvYb7pfiWsbfEUsO8UX2mHvY4GTx6kgfL/ltsZmM7Tb3yIFQW9nmqWKD2NbM0Ev+N6T9w3goWSJzpd7M18QArLDzyMCKYw72ltpK1lOcF+S9VOJLW+E1JT5GyTrJeVI298mrUJu5z5HvMpaov+SfTN/dH1LfMwaH1aE90HqjsU6wj7haP0fwJuUTM+Kk1vPQcUDWP3PGjCkn3HI7Zl/x2Sw2Ge/nsE+dk+++vKRgMT+tfeJeNHJDuNdT+7gm2zxqzuibfe5g0xpPT6yTBgMSx5p4oHtb88gcMWbLvE+Dfrmv8HzMzhP8qjPWyG5T7hm4Lxmed9YfMD3E/mAdmqq0VWQLoSk2rtOxnB/Z1tGaRUZXYrtUWFSVeU4baBzo99OhErts/Mk4i0s3X2eMWSYuYQgpXmUsV2tr/9oW19i3zvyFdpENMmaf3o8YJzVcf8IFrPFttDbNjGEKsWAyag2tsiUrbckYXeIcDRyPkuUV12TYXs/kjDjNy7LeDnOwymjVmHN6aI5W4KFZecaAzLhiNpbLnpvlCkcoMqvStabCdZJ9a8w7rj2R21rhhdX8b7ytlJftN6wteLeK84cMT43vIV3U3nLhGhVfxvmeXDQh7UvpQxXuVHzHacr7WnCTOnu3HxF3573FSfSj+83YyUc0RtVd0VDVcZMmw96YsNz7XK8VTq2WN7CKtP512Ldr7ZzIerI+8TeKKo/L2tAijnfGZOR7iNY81tG+lDwkdYne4v8iyeVyuVwul8vlcrlcLpfL9SH5D0kul8vlcrlcLpfL5XK5XK4PyX9IcrlcLpfL5XK5XC6Xy+VyfUj+Q5LL5XK5XC6Xy+VyuVwul+tD6iMsklxZwdIIfjTgKcGK03ElMDU7QLUEYQM86mrwpjkDXJd1CPyUwY4jbBHXagBnQdoIODTA6kwqlIBnqFewzeUlUeIiYBUwcIHBLxc0ptYWiaxAAwgOTQJZCcb9OwjXfxvuQwghTI+7VO+1BK4Fta8Cx+NYdmaD/g397b9/AOBCANxmA9tl8FUToXiyM0G68ivC+Gog3clAZgSFtrVna1BQK2cCPDey0AgGFMSTfTM/WQBib2rw5PhTawUQTgpgJEmWlzIft/HqXtIg9K+CaaZHO+t7C1tFiGLJvsw092vZLQF4AqjSdc3dL3vYRSA99kOXCO0TPA/gvf2n1QF6gFG/va4DfH5J/hxOGjiUZ4DQ/W2Cx3++XaHdt9t07WazOsK2K6HcBGsLvE1Q93lcO/wG57haTCKMXjA8QvEE4ifYrgbATvB9wC8FhUV/xRnPAKA2zzOApVikgEtGGGgWs+XPBNQbQBX1TgZMbwCqFTiaEFmNNeudb1abt7epgRHoDufVQQr9Y3K23vjrhPYJYpgd6qBHCCIWtBlgY9mNPq7vs3l0smuw6ebF2gmXVFsIFFV5HfygBiPV3GJcld3yeFqZW+YnBHYqVmdcTwGuaz53i8/mBzNBl7Zu1Q4vyCTgPGHCAoDyPsGTCbOuwN5rdV3twI3xCmiktY/9uJiduW5pXVhSOAjNVnMG/0/MxnrmQR53BpTfltDmbE7HCYfbxhI4uVSgpe376rz0NYGrNXdCCCHsNB4AbHJPYdIT7Z4Hl5Rw8eXWoL4ZxNPAmYyx8l2Mb/+61kvYe2NrbRU4TsaozR/6vebHxP4I/A3Af1M5iOL6bgsSDj7Y3K6N4cEl6tvmAICqlb3py8WRh2L0nSCj6ZoOZnh5BljbDg9oKhOO+6G4D6rAcwmO1VzpAP3vT8UjCYDMdT9CqtO1zatdQ0zcPlnM7tI+9vyLrQE3cF7FA+x3WjuEobYHOr8hKL6ttupfMEaVWDIZzJX207zgPiLuCbdlvZxHUra+tSI0/8n+1Na3DB6vGIH4rDWgzebH+pkgYsXY7TMXYCsDh9WMBsXOAOFxjScU2b7jfs2u0ddmrFexLfb9QmBxBUyudyuCsJvyVSju+TevsJ+WeMQIHQSR983KY4yw2IBQV903xdiK8gQVz8DzslvHtScU92ndICxd32+/lbbPoOZ2cARtL8h3Fu+vJfi7ESyfhzDoMCfu9YYSJN5WfEO2zPYltXNztP9j2LU1canM6YaGbkto+I/2mIx12jNyX6RDDrJY8roaeNlzUSn3nXrfWrh2x7ra4r6aL7Vwys1+LL6PQGrEjc7Wkmz1sABO3xhtH9F9SaTuNq4p6T6tM1Nt/SDg3wDYm01qZ4Re451kY3Yb8FuL1sSW8c+K5ro69vaOc0FHaq+6fRk4tGfNYP6KGyjO/0WSy+VyuVwul8vlcrlcLpfrQ/Ifklwul8vlcrlcLpfL5XK5XB+S/5DkcrlcLpfL5XK5XC6Xy+X6kHrlxjMHU/lz5LNMlZzdmEqHfLvtcU0+3mxSLt9gHBJmK86WB98yp72S7zhfrRF9mTO5jBV2BXIwIyMBuZXiEkxgmASxBfizmr5Hfxe7L8tHFl8J+aCRuTSWv9Ox3s74PFfkLs6vlsTMtEfxQK5lDmt3qeTT7ufi2Sx/uJLLrL53yPve/1pyLzTmfLar8ItiriYGvTO2hfKrQ0i56j2ZAMrB5DUrhzwkPdu8pmvDXf7d+h+l/SJzqUmVqF6yU5RTPm8qeahkZii3l9yBSv6wbEQ+wlL5OTfyWZCXrnxqcaVYXlaG7qvwlciiSu1Mn3vjfLTgkAz3Zf71fDTmyDEN8PW0GuvyDAOKqfCWGqg8Y/LHgjGjzq+pkv/qjlYvYs6mzONVrnO3Zf6w5TdfaYT1D+fv5vcSGCaGQ5Z6bNW25PRYdbXxa6/4D6uOYx6ZZOSLVJgFkZVF353Whg23YB9tjI8BBkLMN8/y8K0u8tv6/H6W07yAJ/BsrLst4lWFobNVmyt8tPNf05gvlmfOcVOMnRnbbSCytG6l6/OSNWZBzn33to7/9iuYUJHVkZ6NnCPMc8XW8Qax3WI22WDi7jVgwLTmsz3WN62JNY7LjLx55sbHZ23AOtQhTlgHAIU+kxPQhpJH01fuE1fs+ZICtPL1Hx9T0Fne1vlN1slsTBTyfI6HNYj0FTYO+yv+mLg0IaTYWZ0fzM0XNwnzLc4BYodUL+ron4zbQBbGUf0Af8f4CWQRaBzok8vnCivG/PnTbQrkf7lZF6x9l+rQeNz2CLymEQHmaga5Irjr+xojbsKzg107DWDoXNbP2XhYObwWOR9we8XYhfurszG/yM1sy73bJDYdrqkcMjKHs+BM6ZpYDoy72kNlPB/Z41yyoxjcI+srC5QlD6S9tPn9bDv3xVo/ELMjMw08FfEzqsxDxmcb6o5bZftM08bhQnd3vxtv4y35y7yxNR5r2bRVwEd54gf1ZUzMsEhanyvcDe7/2rF8tsZjrc1zjUcDm8b4A4eJbYZdaowp9Z1Mo7i3xX5D3KSMPfOD/XO2T+xKv/oR5zJjl9qjZJN011Bo7kv+k+xXi50b7JW1z8UWuDaEsWzu22M/OVll+gqDda5MS/INJ5sX7VCzVe0aO5yXuxZk12iDyIFFu8Q0KpGM3/Er7TuOeYXdGOc840ulvPgs623zvyGkdya2WbGmJZdoKv0gvgdyLsiW3G/sxH9CHZtyHtW4RIvVMSPoNPaOm/Fn+yX7LgTYI4s5xuHc1vZI4CrGskuP5Tqo/cbyI5ZxSGseOUybt/Xv+Uu6T4wsMvu21uYJPjmMXdGW7XZ1lBG+sd+VIDhxJLlPFHeW+7XXs03ITcVW2B9o/8zfWsTv43o+6V2JTFC9w5LpVpnf/i+SXC6Xy+VyuVwul8vlcrlcH5L/kORyuVwul8vlcrlcLpfL5fqQ/Ickl8vlcrlcLpfL5XK5XC7Xh9TPkX2ULsa8UeR+9pYTeN0hF1w548ihHi33nSwHsQU24A7ovumEimu51sptRB3B+BkNcpnj93zWvm+3KQ9xttzFcEm/oSnnvWHuu3JEkRsYrE8NcwStDmZgisuS5cTqI/JGFzWZ+ZuWb9nhvulodgbvpTOWzHiDPFQbo+6NfVv/jhWuDvN4Y14/U4+Vpw22S2TywAaT5bl3Jd4hy9lVTnYtt5w546p3uMez8lM8GxkszNk1E2X50jX2lpgFNd4G2RrihcEPlEM/Yy5Eu9An7RmyYlQ2uSuRP4Fnh09lHYuxIRraT8aqcRvAmemMQdQwJbfCeorsGeTDR/YW8/+NEZNxwJRfTH+2dkUuUghpnpMzo8/vyO2VzZkCLJ4YbKV5NLYABMkenG+Wn92emEi+1tGTRVVhC3WVHPnMT757lj/Ry+YsT2gBcgI0f8aK7TNul+yb5b5bGRgizZmm8r8LMhyIeBHgj2kNoFstFY5Q5LfBr6JLgulw+cn8GX6gJgwvCaAgbs3urcKbIWehL7ldcQ2AX023a31ncj6MmdKjDtmgWcp6s/lhA8f8f02a5QX+Z2wLLgGjDc4b19BbYwpibVQ+fI0tVGMaDZdkmNHy28drCmwx953+YrFkf5MG6c6YRvc7TAbT6y454PVubeuUASisiksakNN5bddum/r28+0K6VgOaVH529Ma6C9fCYKwtld4ehwizYtpX2HYkadicWPzlCbD/nf7DryDaWv2uwEHTJgezKPLg8W/rqw3HODjxnR7e099E8fqy+E9Xru3yU8e0uuwPvPr+2289vS+GkTcyRDABuNcVYzgNRmOBlxCcV/8imwSlYd1sFW8z2LE+h8T/KDp1mfEz2SbqcZYVKw37qV4zcqeyqmaMWXUzxlzX+t4C7akuFjifIUQQnMSR4hsCNvrccjNx1q2z+JjxqV8KWFy+j7jJWqIKvsc7selcVdeY73CcJGxEvc5Fa5OjfvYkmGyLR0lMnnIERJbYyp9jVwn8Vlol3Gb3x9CGq+M+7OUXJ3IXGJ5h7KOBnElXhtLh9K+YCLPx/bc5BF2J9t7n8s5Q5tF5mZfPpuxYuIGAe9WN5V2NpWJawWRgfUjv1owwOKncq2dKj6WGorPcnFci3sa7C0UM6ee1+wDfVzcGq5bkWOKNXTJ7+c1zvPIcCITqsu+yv4jY2oN5R491oX79D39YNZ+JHsnWb5vcuJsZW5YctSWTv5SxjW+i6f3+PLdpbLN+Y7/ZH8RE7W+NGDORfvdYM1Tfdm6UHLyguYgfLwVe5Drg/Y+hxH31fzeboddJns/mcH96Y2/RLyX1hly7cZKjNBcHe/ALRRnsLIgsZ3a1/F3hqmydg+2d+sOaW92sj0efyuI/SCPq7LuT7b3yViFlbgRWaSVPU3GADQbMS74v0hyuVwul8vlcrlcLpfL5XJ9SP5DksvlcrlcLpfL5XK5XC6X60PyH5JcLpfL5XK5XC6Xy+VyuVwfkv+Q5HK5XC6Xy+VyuVwul8vl+pD6CEgGKFkQJQJUL5/LhwU+WwBumgW3As3rsFsLOl8SnW66Vki17315zeDTLWBdqiNc8TuYAc14Xw0AGgVYag0kKRGq2oQSZBXe1rIXAF4FAc9YpCoaz3bW1uMhGf92twK2NqTwmgZQ4q4GDb+MqRKBVqcKyHKp0NUI7hKUjBBP9a29Vsoj4EtfV8F/FRGKFyGPAMJZ2Rn8Mo4DoF+CpHclrK2twadRbwIWo1772PUAx1XKqXDqQmsgM9ahcSD8rfbL7Vwj31Wk8ZrZZgO80Qabzdr+DfoRfi7rUjkTQHRqP2H5wb5fMI8W+QnBj5sYEOKl3cNKq7zZg7ysYtEPwWgHlmd+R1ig4J0LmidAHqGWjeYCgfLyNUJkBUnHwGwf178EYkYQIiHzipMVYDah5hGmSrifmY8w4QjHzsCKVkcGoVz/ZADLPv8uhBwGGrXJ6woB8NAa2D0Dtltsp52t3gxGr/D8CW2xZ7pvyYDtdW0MYf4Rej2V1zowoKetQQ9vcV+EAAKE+LmMJQJ1ZmDUCmh/qcTsCBB/Tv0QfHD7XAF7YgwmG6/sMISntcIZdVwM1juey7hAyKhsSn/evFg8IAhR40XAupV93aQb/3G7nsiw+zkNyN4OqsgOhChZn2HWoRObZGfFIcaS58vq8B33DDL05xQjBM7vAd/X3OKhDrJpduCCgT8JbdbhFATAa5nMoJvyZ9ShZzo8u/Q2FwCeF7y9O5M6vP4Z4KeP29XOXzdfUnlyCYIu9ZEHjVRibGuAeoJCf7gWE9ipoWa1AqgiJuq+zVu6Jhgp+yYg8JwBgS1ms81dCV/VejRjDxLjPeO4YNZ8+K084ETVEdY7ax+BEwjUz4YHM+gD9qna43G/K2NlMFmtFYQO64AHDkuv9sFPzc5ZvFc5BEjz8BQ9ey7vkw3oz/GAHbppBeTdCyzL8iyWLPD7uAepQJEJaY2HWDDGbsoYJkAyoa/ToQYnLgN0DSQeD2bANcX+/p1B0eoCuH8wW/FdSO1jf+Mz2WkXBr3G2rh5Wf+OR/Stsk5HSHRDf1Ych00FVK6sv9lBMtb+met+DZxeGUvZj2sZ7RHL25V2Fqw+O7AilGBorb9ZvU1eLh7Nn7W5xXojYJ9hyPYU2UEyWkNr736EgbdleSIkZ6F2Vt/KftQOAMrnvu1fjskIox3qEPaV04jouhZPCZWW/819utbUINV6v2PstFjHd5cYMu8AvRYIe1MOHOHOcuPhzA20zcFD6UzLUu4jBhwg0tm1CWvFaLH6cJPat92X79HSme+/vQ5cSNcuX8qYHffIOKxrkv12HCP7DuNxCdrglzBw7kF6O5yE73nqJ9dNfU//028KI9cttY8+KX+nP6hovO/H2JnFdotrWDP8XyS5XC6Xy+VyuVwul8vlcrk+JP8hyeVyuVwul8vlcrlcLpfL9SH5D0kul8vlcrlcLpfL5XK5XK4PqVce7XQov2QuaWjLXOaYw0wmgHIhkTOuJ5jzF1lGeFRfN8gDXAxkMA9MvFW+NBgXlrPIVNzW8ihDW+bYZrmfMe8bfVPuInPza9wdy6lsskRFsxVzy2U35ExO1qdhk4zwzcAn44gcR8s53WxSUqL4N+QOsD5ptNxK2m9RG8jaqeThN3vLG92XPIMsZ3Isc2wjj2asNIo/XzbKqy5t270jt/fZWATMrxdLCXmekVmBfFX5GvODxe3ocV9f4St1lue7yfJ9y7YqV5gMIjGrrhPYVsM64a7khdn8IdOjsfFi7rby5ttKPjf5NmKsnG+Rs9vXcp5LxpTykVv0dxT3DHm3ah85Birvl1+e4rV/vn0OIYRwv0mAm9mc7Aw4wPv9+vntp5TE/3ZdP7+8p0B0fbNnsvxh5chX5jn5WYd1/izIoZ7MHgNzma2/y58hv/Q9k98rNk0gppKhk/+UX8vDr9RRuRY5FVPZlgB+W79f89G322SDGzG1Kly2CeAB+Q5jzsn8+PScxmhRrIGvdS+r3+9+hz8bc4ZzWn1j/rW+JxNKvAMyb2Q38hsOfzfuwD5VojUvYyqIHbUrB51zK9qXcbfCQ9LntkSDVce3B/9JfBm2TwwO2qXGsxhv5GtltZwf07Hia1be5Tlxky5h/dwfk1FbW3uaIXW4s5g0gk81V5hurS1SY8Wfs7gqNk4Fb5hxxcTlYHEqJmPZWDvBioksoLKKjHumsoEoRDklO2oGn0osMjFeQki+y/VNvKsW67T8bgbrjmtEurj+Ge8Ia7Pyzpi/Nkbsm2xJ/ljsWy0OVdRl/B0bc65l+/LhWmztxb0gR6Ov+LP4O/Ar7X3Ib9O4kYMz2x4v4y/emG9nbCG7j7Hzbp3MjJ3Hf7FrXTJq15b7pdH2AO/XNGfO9vmK/sY+MbYbs6I9pbGMDB2o29s+8ZX90AO4sUQLpblAG1RsX1vK0jzD3ufe9hF78FSMo9IhDtXYLvrMPWao2CVy5cBn0R6EeziVXGNLXsmUiTCbUCh7VvGK70Ja9yv/a35GHBorto97how7WpYn5kyN/8n2ld4Xgrwzf18o31O+/259aL2hq31PtovKq9xHJl6tvtr+WXyZbOpP5d5sqUKIrK7KXOzxbrqzdyryRLXXr+3zaT/t6y9Dmr9X4/hkLKCT8dvInhFHF/FqfrA5s01tORg/iO1TG6ZK/GszOy92X6pXDFy2b4kcq3It47uz5u9un/YCR2OfHjbpWt+UNq/tHd8NQHZCTBzsvZfvH3uLt90hLVJx3LCYnce1nOdT2iDIn3Z4dz7bGHF8t2bnK37LUExkPFU0mRF/tU6Tx9odjXPE9TxO/tJPWzC/RmPRMh7I7yeUp/daxs7xUvatkb8ztmvMGUtUDOvQfcRYaeo7I8nlcrlcLpfL5XK5XC6Xy/W/Kv8hyeVyuVwul8vlcrlcLpfL9SH5D0kul8vlcrlcLpfL5XK5XK4PyX9IcrlcLpfL5XK5XC6Xy+VyfUj90v/xl2Rm9a8GyTymaxHYSRn7an5M0NzLuNInlwq0OVTgsAsh3xW6n2BkDUDJk0DAFajb8T5BusappHcKTDVeASAzeCKBjhEyRUCVASIJ143PEDZrQK7xFZDl01rf+1DCyknME/h7ek+02bPZI4MuRnB1uhRBkwQmVoYhwmsB1VI59BENA8sQqLMDWLYG7GyvgocCynhsivv6U17X+oz9BdC2sRvGDAqvtrPRZT9U3vkOYPcax1TwbsLFbXwXANIENyXQVkDqDHgq7hmA2ZsKvEy2zNqkYiqQTNqlf7V6vxGalt/PZ2baxe67Ag6rfnYEOm4NSIg5ffOwOgKBf7+f14Dxny/38drreY0HEyBxAkjutskBBTB9OJ7itekAsqvaIhgkAH0CJh42ySnvt+uzWwL6prXz3y5pbp0MIjwSAGrAwimDbjZZ/SGkuZ/BOecSHhoBeVN5XwbMLjmmyScY6xR/tqkSQZH57Gyx5Dym+KzoSGif1AH8eDwYWBFjdLtfbUqgo0C74yk5peJKU4Fo0yc1PzIgcMnuTs+QFWhDzSkjQDfjmuLVlEwQAckd4um0Lde3+WgNwyEC7aWkNqsfE8DLCZZfFJv1TSFkRvsUhwh8jgcZsJm6lM1zgZzhaxH2Sae073l4hsGG5TchJD9pYB/5bIs1OYI9sb7d3qz+Qkim5j7r2LxpLqB5lb2K4hpt1dTMYv+RjYf8BSZQebyvBnGPewGuC1P+N4S4LIQJ+yaNzfYxXZsGrSmVOrB+RN/g2qMldCzjENcPfSRYW21lvbU5s3lXHema1ukLbBVh13uMr3yN64d8KFtzbU3puflRo8rYlMXJCm83bh0r+6ERFONZgHg8++gDgwABAABJREFU3NnBDNvPqcP3x9VwR6wpNSCvDigYsNfU2nSzS88KoHvqUpzU/jSz1c7guttUng7oCFh/J/s4PqXy9n+v7P+sS20tnnJ7LH/ioQTao2OMWjvUY7PDYTC2L+4BIY91fRD4zPW8/RHt/YOq1fFnEtR5xqqitrC8tuIHc21D+YM6amK9XGN/pFpb/gwc/SP9r/bjz8qtjXkbodxpzAVlZ9tre67v6w8ht5sk+/E+tYF7PUHwa/fVbEsQ9nG7zu/hyAN21s9XvF/G+Mf3hYpddOjS+T0tcLO9N2YHGcV5mcrrDfi8weEAO/vco80XwervUnm93bfFfVsAqyXZ9B9Pd+ma9Zf200EKh32Kf58PJ/v7XpRLbSuHwGjfLmB3CCle3APKrXcNjq/8aoO2XAT8Brhf77DZnlXvodw76qcHrFHxUAzu2yuHXEnTWNkAQtqH87CNWftO3q/3DxzWFddT+rM2JmyLYPD0ycrhHrXfD/xfJLlcLpfL5XK5XC6Xy+VyuT4k/yHJ5XK5XC6Xy+VyuVwul8v1IfkPSS6Xy+VyuVwul8vlcrlcrg+p78SjQW60csrJJFBK+bxD/px9bF/JgClz6sRo4FeRb1TJwaMWywNstmXe/FTJm9f9IYQwKY8WDB3lbDPnVGqz3Pz1WeZ9K6+V+aXS6YWggPXZ/pggA4f9+vmEvG+V13bg9FTyeGv9jBwG3nco82Qby7nffSuKqI55i3zQyJ+o3NdVeBFsi/g75EUoX3TCeNQYDeJT9JXU2RrTi8wH1THelNeYVi0+RvdW2na4T+OhPOQFDKz5YFws8m2Uzw2+SOStMDfVnqmkWmdza96Y/72m7yezaZYyXCtH8w3cpO5cYXDUytCchh9o/Ocd7HK3OsDdfeIXKcf7b3/7FK+13yzfHPbrTub3YGqJrfYG33jZlv4cmVUoL+h7chvs8+GYKplu13p3Xerc03kFgvz29Tbd9762OcsPNj9omZcuhgnGQ/7SAeUUWSOMf+KpkDlCP/7u2Yx5Y2NIHxLvh3OL4y/FvG+0ebgp758Pq/0WgITel9VWL0fEK7GyyGw5rY3d/p4a3b/Z3+Qu4fKlbLP85MS1R3YG40cMMfqQcrezdWvMywghxbAmm5f5dyGkeEpfa09lvNC8JTMw+jtvr+S+y6/IO2ivFciPUto3uLip1GHjIcZLCCFsK7wSMb+uZ3AbjGvINXyxhX8+Jz8Q860/pfsUM+drGvNWPgFDv5+sHE4j8XzIGLDvd0/pvsjCI/NLPst4oFh8ARdBba1sN6aMyWj3Yy5q7mXso1N5La55GU9PH+iA4hviPjHsMkaS1h5wEcTEwZhHrhj6G+NkxYdqcYjzUvMn4yZZjKjxzLI2y37YrzW25+m4z9EeDv4yd2v7uecSQ+Tyhv2a4vJcxueM36BphDkz2JoSWWcopwUPbrNf20DzfX1eQVffmgS8GmytCLC9xq25Yh6JHYVqs7XE1L2L14T75LoZL9FizrUc8xncpNO/WFvI1rB1fAEPJDLO3jEeVt5C3pV93mGMxDq8vqcF5DIQMmbPnkqWXIzFtXHDfkNxbanwA8km0RrB/Ub0kw0nZijui7wa2jl+/jGjSc9mfCB9rs1Buot8d2iL+7guxPWP81csvgp/toVvRIZO9qzZCutSG+1XFPfdPra8FuPkn+GsKny5FHOwhv7gnznUOC0ZszTuzWC/qYwR8b0H7zNNJZbU9lLxPZT7IY0DfVcfOR5qSyUGZCzhyvu09s/0XcVgrt2TrdnznObiSe8uZAFpD1d5N315JXzQ/vJ9VDGd7dQ7ONYA7TOueE9+v10/8336aNwizqOzsaUyxpS4wdi/1JhQUtuWDnMd06AOVk7GILKiW8wFjfV8T6CtzS2Mb2e+2GLPFdcK7ifFWOaextqwZGNpXCysodrj0QaKKy32f9pXkT0YOVvXcn5QGoa29rsOXMP/RZLL5XK5XC6Xy+VyuVwul+tD8h+SXC6Xy+VyuVwul8vlcrlcH5L/kORyuVwul8vlcrlcLpfL5fqQ/Ickl8vlcrlcLpfL5XK5XC7Xh9RH2B0BvsZkygBQBlZqCRAUhIrgR2M8RVBpAJy4J4BxKa7F+wHMjsBMgBAjiOtECpZdA+BLELsLQKGL2GAjqZEGy8po4OufCwCCEVh3SJc2BstqAS+bh7XsloBmATYJ9zOaG2Fjg+C6BAiajQRgXp+1v38CxYv1oxsRkkkWn9U7V2DMGYhOYE+wxjQcfFa+wXqnfQViJ0Af22rtunxK14bbvFy2awLXUaC/DNRXAdUKLJbB4+X3GUCwArRVYwGEE4RXvh5CCNPW+ptBUOWAZfsyAKPB2oaf0T5rf1MBx7V9OegzQH6T4GrnH/92LNBbBnE3wNz2IdFhP9+tJPQNYHKP7zYxCAA1+0WIaPgOFm5S/Nk+86JgkBVCbgXymEGWzUTn20TS/R8Hc6IbOK9BBZs3gKENTN5lILqyCQI9Z7Bt+0wYvfyTPimQfA0CTVD39tWgqphHgu9eEx882oOQ4Dg/yKlVWwjQVyzJ4JdWIOZMb4cqEOrb2DVCHmOMIEzddPpr+nz92daFm2SszuJ8XwFTE8A4ChRK4L1dy4DPNq49DoSowc8Vp+a+jAc1W4XPqXPHu3XA7vZp4Ai2jteswK4yfwecaDDYAQnTXM5VPnvcrG049sl+ewPJbwGU7ytk0rM51H+938Vrvx1vyvsMjr38noJsDbQqmPXSpTZPvR2UgTa3Nq6bPrXvYtBLwmbnvfn9Ng2SYPRcFzSGLeLarOowltfPa6MJ8NUBImFgHDdQ/DdcM/PyAAfFmmxdFeAV83e0kJhBbs1wM/qmuMe1LD5LqKoeyfZmti5kh2IsxbNa80bMmQgS5UEU2oMQSqv5wQMcruW1WB/BvKG4FP2AwGftg+j3mtMd4bC2xnYP6dqtzb3DNs2FTWWhOZuvPZ/SunAZ1sHcbZJPjrYuXM6pc1pDc3iyDs/ggBTVJqgplzIbh+1zuc5kwHaNBw9DsL3g9glwWPt+uEsNnG7N7xHHN7frwO13PDHFnsW+OJ6hgr7p4JcrD6t5LzehVXCr9vxTuVbkN6oxuM+AsptXvmyUj2ouLE1T3jfgvcLszP2f3m3aS3o2HjzE+0qzxe+5DuqAk2lXmQxkcptdOhzkoL1qBvi39mWHxshlMWfUlmzfPpWA5gjzx75Jcbw2pzNItUzJNeBStk/jUXtfyG40iDDh0xtry7RF/NMU5OEt79qDpOL0/qkxCAH7Edq+0g+1mcuvIOQz2iI/4bgF+zzeoDFtGRNbrXXYAEZzVIDyBDTPN1P+XQjxsIHsPUXrH/w5rrHcw9mBQ8Pn5GzxvRzv4kHQfQKfBcGnixvoucUeTnGD79jDaXWyISQHPL2scZngatkog9ELVo465t16bcA876wfjM/Xy1ov34/0vt3iNwXNgfxdUj8MIE5qbUIdWjsbxN2txd0GYy6oOaU1WfZZC7T+4HeQrvLbSaof64Lsxj21PuPdSv3ggQv1A6Os3JLx7XK5XC6Xy+VyuVwul8vlcv1Y/kOSy+VyuVwul8vlcrlcLpfrQ/Ifklwul8vlcrlcLpfL5XK5XB9SP1kefo2hw7xWMZKyPFn7GYr51+ITzGARxBzbM/IPleO4YYGWY0vextE4GsyFtPxE5h8G5dK/psQ91TuyvEpeYWttncElijmBhJioKtx3tUTa7Fl995aMel1kQOTYWt/Zt/vbFQSxrTA2rlOy37txn2ZyQ5S3if5OD4Nd+jFzRKwRspnEF2GecSyb42FdW3BtqfxEGRlEZFFFngpyOi3Hez7AhzRuTH03+5GfsLW8/01f2o+5qZ21lfarScwAsgMmy8FlXrD85fPDCXWs7RqRB/v5sH5/2KQE9rYCtZqtoxxzsSPIU9E1MllujJ1CNsp56otn1Xf6wXnsi/7ujGdyu0vwD5Xz63MC9VzeVkcgE0q55YwbkcFRYatlnKgmv5/XxmMoxHilfPgO+eHD7drmscJoIBchskRuyBep3Zf/DSGEydAb5OqIeTSBrRZZKBj63lxnBn7i9Z9L/xQrpq1wNAZwk9SWrH0WkpjDr/7yvkUsAM5pYxGIoxBCsh85EJFjAE7F/GW9UbytEMAzO6WYPSJmRomngrZEvg2vWe5+f4Qj2OfhNtXRvFpcA7eri7yrMg6R2yB22eEmMZL2xmU5DamO4bQO8AzQguLPbpvad79fB/MAztHdZnWYnmyhSvyO7WT+v83L5yHBdi5jOfcjhwnP3uwsbpCBYPZ9+ZacsrU1IuN32BoxHsEI2a397FCe+r5H/JONJubhm4kyZl/NBNEu5ErYZ/J3Pq02JbdhMO7K0pZsklNCR8U1ryFfRD4J32hG8TEQxLQfOpTzjXP18sXWI8yPsDP+IrgIu/1qGK5vsi+ZQM0PlrUz/PRk+4j3EwGHFZ5PTZorl5JdsYBTNgeLu/RhMc7mshKu01vNFdym+fbl+B6v3W1tfPms2UNrXwhprpCldLmu33OdrvHJtnfr/JiwR5ptXrTwA/nQfMR4KMbSVsJP0ARi8iAMxtDAeK8QwvXjdf3L+Hy1vjHuDtd1YRi2aU43m8o+W/YAN0TtzxBE4k2S01hhNkoLGt0aC2UG2zTaEr6hd4zxFvNI32PMxaKquS7dT22esA5Oeg/YtMV9854bGHvXeMNYVpatyNPJ+Jpa9JryEtcyXQOTR1uyBbaN+6uBPS5tJTtndVT2L+Ndhbuiucp+KBZy/sY9XDn22f4+8tYI4hSvCfFZrK9KaM/ePyy29i9Yz8Wn2oPToyUxYyRV1vhNud/Q3o3vLnF/yvfkXcXv9Qw5uqF8nxF7MuNY9WpLutTYurDZg+lm8XZmHFf7NxXAJ/xFNuqOKSZqrZvxvtxbvYx/clSuq3qfaLvSl/jOFFGLtKnm71QbdKgSXxZjAbHWyd6Jd7dpv9bbmjKT56j+dpxvqy17xL/oEzvEdrvWwlb7YwkIHW0CZ/sh4/JxvRGXssUaL5uSqaQYTFbSFPnMeHfel2to9MUKj6vGiOvTa216xyFDLLhcLpfL5XK5XC6Xy+VyuVwfkP+Q5HK5XC6Xy+VyuVwul8vl+pD8hySXy+VyuVwul8vlcrlcLteH5D8kuVwul8vlcrlcLpfL5XK5PqS+N15hBq8VBBDA2AhmI8nKoGlkYS0G7iI0TRDKDAjXlUC9IBg3wHvdYQVF7fYJXiU45/WSwGKTUTmXoYRHdS+AZfXrswRKTff2e9qhBGiR0LdMAmvDMILiDYBgCdyG8qJNAaEUVG0P8ONk9ni+Jljq1mBpBDTfPhhcEuBCwVQFTA4hhNNlY+Wm9gluNhNyJvAYIGLhZijui/0lqFvf0xEEz6vAvGoYRt5WA5wLvpaB6CKcHZfsGoGxstseQNujfd53CVgnwDXtJ+BtBjU3ytgImwpeK+gn62gxaQTAJhRU378O+3jt76eVxPp8TtcEWB/hQ5PB9QgY3h/WufLpmAhpW+tnh7ZszMePsIsg7+zv+7j60Nf3FCReTmu7rqcKZZKybhL8KB9vRt5ogD6AtTtrfodrl89lFYJPj8lUMXZNW14zsCJihOIaoYxqNMGKgjcSMKc66K4CTY8wi+CSCziIjT1bg9h14PT15k5jCgcRQEwgay1mDwYLb8opk8EvY98f0tzf3FRggeYvEw5NECAyA60K5AeY5sZgh7Tp9Lh2avePVN7mORRtVn/bzF9WDTfltcvPAA3aYQMNgMXzoRzL5lnQ1/LAgCwcmQ+dnpOznR5XEqcg3iEkkDfj1XRYP58Rrx4N8Mr7dIgA4c6drQGELc625nDtiWXw2qS5Vfqz2hRCAsq292nsmwo4NYHVU3mC23N/INAloZYCTV5bOKqp/3JObbmKblqCH5fy0RzW+6niu3YQACGj21/7os0CvBKuG/cyWFNkl4ZbgQhZTo4q6GXP4bD4PbLNBsTcbso9CNcyQbb3PeK9xe8drmmdIbBd8OkZ4/Z4Wf2Y64zE+7R/mOB/glRfW4DYv61BaXnBoSc6eAUHsMSiGZsENsbEvMzlJJzMmNl6ZPul11MKlILC8iCU+cXaSiC/fc99RLsr4dOCsxMGHuHYiBvBINsdYKmz1uwr9mE6DAZ7b8XHLm0jghjq5H9rPQBfPT4Dpn7YCMB9BlhWhzCM3BfbPpGHJjysNmrgpxEuz9gpkDjfDa7lfk3g6KZyMA3XBe3NxyNsqjiJdXqRLbnvVJcqY0QKb2wL1gXF0YVgfPUX/YgHAADUHWMTfVyaGCfNx3kYkcX7FjExrs9Z3wzqixgmYDXbHPcCWJPn2YDKBOnaR4LYQ4yxJfi7feW6r/FFNw/lWqH5zfkhmzbYD013U9amEPDeRttbW7mHE2z7Ct9tT+X6G/d/2XvPUtyX/Bn32RwgfFoHN2V1KD7CVsu+PARk0vrM/ZD5RAaa3upAIcQSvYciFvfmxw0B3BcdCoT9rg4Zwprc3Nl7SgWO3QIQru/3O7wvGCz6fE2b0cGAz1y3Fh08hJijA6CWGk09O1jAfI0xVnG5p+31Pli+nw/4rUC2ysDVFWC2PrE4NbXFe/LNzRp4CdHWOzMPcDjYbxgcD31PW/3TT08hhPw99OnlUDyrgyh48Ma5WceB72+9QdRHxN1FiwnGd/rdDojhXLWvxz32jra96tNZF/4vklwul8vlcrlcLpfL5XK5XB+T/5DkcrlcLpfL5XK5XC6Xy+X6kPyHJJfL5XK5XC6Xy+VyuVwu14cUk/BaYAVmy7+uMpKQpijOAnN2lZq3eQYXwTggly9lPmMGqrAcUfI5lBN4PqU8/M3OeC/MZ9yUua6tcqiRgqn2z7tKPu87knYH5WVW8vqZM658WthA3JCAvPTIYrkDA8Ea8/aW+ATT49rP/gWcAPv4hNxF5QU3zNndVHJc/7YOJpkoynHkr4gahhkmUK5klpuqci8sz7hEb+l79Xf3lK5Fhg3GQ4wT+lqXUBkocP2TM2/sGvgxypM+b+ioSvJG7ufN6kM9cuSVAzwxl9T8j1wE5qmmi01WRvZVxdXGczL0xjhgvG98sk4hX7p7bb/vRuSUMa36zXgMb/9+F6+1yjPGw7NYDgcwPcyf2oxFtf65viXjiyeQ+Zyxc5ovCfDQW8521zJ/uORtXK3N8yU5QmPzp38r+WMZiwXj/73ICRCjiDyVIBZKBSQ0w6jzTvEKhVuzLuBUfP/d2kDzDd6nuMZYIp+tMcIqnLIcTmd/UN7h0zqR7o9pQm26srEbaxi/E09li2vnaTXgt1OCenx9XT8vczkn7m7AvLG2Pv6eoEbb39axJhdrMJfl+Nb4fLqWrVH2/eFvYJe9rc4xfIGPG6tg2YAbYlCrjNtlvsM5kxg78EkL0IyxWl8amrvVGoVrii8j7Ce2S2UOLuSLXMX7S9c2tm5MZD1V4rfa1b9i7X43dg/4fJPYG2AGBZv7HDd97k6pLeOdxRwE/NPLugicESf3x3VBYswZd7I96tD04BhpjqKP2heQ7Sd+1eYpFbj/uv4lA2H7KD4LWYZ23ybF7OG+jPO9+k6+1670of7M4GD37c32uBY5H7hoyMPwRI5LZX2JfUI82Hxa47LYCiGEcDXO0fBICFtlfRvLvZ58aHsG80FcG7RJcTzjJZo9uls4kcR18G1tX7tHHDobz+fCyW9/nhKrQ6yRLN6rCrCKIg+J4VTcpLeStzFjzWvEwaTNbEDmAT4kfgfmUYxnF7Jx1r/cA4l9xPkW90EVvEjGfrPmZXw5249Ph/LZDC1k8WDBXqoVR4j7CLNvxu7R/hq2F/NtYSXGlpzBE11uKw4d+1Rj2OF+7Vk5HEPFn9UG3qc6TiVzqcbQybiAEn1c/SWrKK4B5bO083RnaxRYd4oH87HyTpKVY+8GWFM66xP5O9O9cYnIdarNfTEtsZbFec79n8a6wucLLXyj8mwcr+wF84/HMvNJiy/k2s03JXNJrK/c/5o/bDNtFWMY55txY2buD7Secw5aP3rE3aYtOUcxRrwBfqlYArZQZ++/bYVfyH12sJA+Ir5s7dkJ0D7xgQa8k0hck/vKuw2ZdN+Xx/V3GLrKffZ3Rj/0Pov+arj6r+W14Q7xRTGM7mzxYOK7vaY+GZRiN563xX0Zh87Yl+MtuJ4P5V753ZhRe4y5+LRkD+q9MuMgWoXn9PNM2Nm4DeTaWfvEQQ4hhIPxq9iWiz2zwZiLU8t32fOD+TNspb1tj/d92XcCVtH/RZLL5XK5XC6Xy+VyuVwul+tD8h+SXC6Xy+VyuVwul8vlcrlcH5L/kORyuVwul8vlcrlcLpfL5fqQ/Ickl8vlcrlcLpfL5XK5XC7XhxSpSjP4XoLYLRUQ3UQYs4B6gFv17wZePqVrEYZbgYfmlawFEUQc4W8Ai41Nb20CrM0gbBkqTtCvCpA1k6BqaF8ElFZghg3gpp1gjHzWPmfcOIN0zbv07Pyygr0WALMFRc7g2AZeXACsW/oS/nb9VxFPAZ2zfnSAZY0GWSQ8T3Vs39O1/iSYHAB9xtklnL0GdBQMkiDkyDcENLIz83FcBAO/3qdrs5WXgSStPkIoBVTuAHpTGzKg7WUtcCJ8UOOFOgSjZX+/b1MICT44AgIoMCAhlPL7DgDGqd9m34UQMkhlrM/mG30jCmMu2N1ynwwj2HF4wdwSwBzzTcDdiVN1U86FOF6A1t/802sIIYS7fYJtXw2m+fScAM2CpC4Yj8bsQXh3YxDU6SGUqnAu2T5Bw/tNcnIB7XpCpe3zYZtstetWx5oJojMY8xWwu8ECC6HhgtiNuO/6bnDYK2CBcXzhL6quAtHO6bX2B/GvNbsRpCvw3s02jYf6q3FhPwhEHAz4N4dkl9bacLdLJNh9b3Vs0gRpbaJfEXj//rpStAnDVT8I+I8+ibihuML5Fv2PphIUGcVp3vZPqS3jVM6f/s3gg/hq0pqTHWJgY01Iuvy4AuGfAEUOtwb436UxEmxzAmAzAg4BmY/zsdL2mlrMrVlQS8R7xUzGbK0L/SvWKItdWT9sfJtKjM3m5Q/8lOBl+d0E/4sAVYx5bBNdSH0CjFkHHsxTGesY2+WeGYjYxP1L9E8yfR9LsLbWLa5vy0Zg3tTf/r2sd7ENFtfBpfK/+QSj3+IwE621tJUs2TA22Rw4Eb5uY7h7qcWcJB2kwTrkQ4Q2y74ZTNh8h0xkgZy1B1o7ZZ3nISUqD5D0GLq4ftij2mexDR1BunoEc2v8bF9xngtkTzC6wLdwosWiTYM64gEsXMsqB35oz5qtW9rCpZAdJvj7d03Jg10FNitlh6jYZ8aD6cb6xv2LysF9s4GZF9pKh1NU4NMLbmttfAkiFric4OCNHdBBWO/4297aDGPpgB0CvWV77vVUTlNZQ3Gtsbg8A0or2HWLQ1mCfSaoNsYcQoUrUN8IruZeyp5tcIqAnpk7xOK2AixWOYSBx30s9pjaQ3Ff2eo9hfti+8yxtDGaeHCE1gMetDQqhrFz1naWV3Yjt5FJ8Oxsz2+2Zx2L+S7fy7QeNG1lQeKBFfQTlXdr48vDeWyMlhm+YTGi6XlfWe9s9RGE3e/KSfr+ui6i/ee0v5KPdYQx256W+84azFrrae0glL5PgzlZnzgXtC8hB/tysfduxitr18iDBaw+HoY12gEJzVMKRDrspxnLha72jjMSrF05/CHu/46cq4J34z6zKW0QDzNBHO/fyzVe+yDa9M0A3QPKuwxrPwk6v7tfNxUEYeudZIJffTutCyrB2rUxGidBtMsDdEb6qfX3/VTZTEGt+TFDbDzQgADzeAABnv1hyS6Xy+VyuVwul8vlcrlcLpfJf0hyuVwul8vlcrlcLpfL5XJ9SP5DksvlcrlcLpfL5XK5XC6X60PqlQOX5WQLGYQcfjEDLl/KQrpzmatOvk3MK2Qer+UsMm05WB4lc1Nn5eIy33eJibepvKs6koprrF0d+DZiR4w3TPorc9VlhKZMKc7yyONPcRnryXK38TPdJL4NWEWycwt2imzJnPZW3B9wGxbLpR9v0eaYc1/mKIvhwzZkdinTLGNu/rRHcXbf5jVdE1sjy/VXeUylt25uzuRJGZsEtqqxISIHicMm9lElDXraE7pkfwf6qXJsUcel9EmxIdg3cSoo8aQm+gvZSN/1g3wg+UY2j8xYwz3mguWwzjvar5JbLn9ibrQ5b5Yyfi0Nrbz07Ebl+rM8u+/LT8kR7o2d83ZNubhff1sdtP09Xds/2piTjaMcZaavW+77ghz0+LnGJCN3yibXjPzr0XK2uy7Nt2tX5qrPxjUZwRF6el8nAXPRYx45GRxylPeS98K5H8cD1+Qb22eUZs0jM0jzMbt2WMu7wAYn+/z1kIKx+B1kiYjllc07fcZkmI5rY3bI4b89rAvH+5DGV/nZyh0PIYTL2/q5R72hNH3i8zH/+lTeN9zYd1ijFJNqzCXOrV58lq68j3GwfTXGAJgZ8816QwdmhroxI7lc61ZTTs8wviFX3bgOeQwTrwTXxGypsAPIv1NjeFditaVrsnPGGyqxXWBHJRtEmzMW2/oy7UseyHJNAzKa6/R3afER1+vCvH4ZZOG42SWMb9yrgJEkFsVQ8a8eDED1o7bedMnFq4w2rYNcG+WzDVEEFQ6Y6s2YVVOl3gr7SOtRxnWyftbiaT7mNh4z18FQSHtBxhettWwf94yxH4bCm7HfCJWxFHevIeNCQYc8Fft++xX8tk/Go+Eab/fNYHk1Fd6k1lCuZd3rarilLSdrtmeVszWVa0SIaW3HeCyV++J3GTNo/Xulz2nJw35Nvhb3J7iWcSmtvozneCi5mTUu1lLhuHQPayPINBpOa6M7st/Ey8Gz4nv05JnZtQExQuyXzE8fVkeez+AMqg7uDyp7FfWDMVaMLo7voofpupPmDLlJ67UNYpi23DO4JuLqcK2I94FvI85Mi73IZH3rd2DZiPnK94XDanMy58REyTg9shv3fLIbWDZhVy4CnViV6a7IkmnI1JKBGf+0D+KcFr+Ittd40Q8jPzUDF67XYNPWypnIthK/iO9lJwFf0A/FITK/9D0cJo0h1n2rr0dbBuMIZVwi+/z+khYLjfXNbQqi9w/r4nQd0lw4GTepQ1zTHvT6mgwthhcZOp34oE25wJHvJZYSx6PryhdCMT55n/w0YzxaW+incVzL7UvGCBZrbt6WAakFA0vvAXMlZrfYey96Bm3W0Fyn0i5kq+mdjmuo4kGLeamxJj9VHNZmz/hifoD3I4Wc92eABmWO7LXC3oUwf8VZbW9KG/A9pRZP43sRH62wtDRvh/s0RuJDttgL+L9IcrlcLpfL5XK5XC6Xy+VyfUj+Q5LL5XK5XC6Xy+VyuVwul+tD8h+SXC6Xy+VyuVwul8vlcrlcH1KvPH3myk+Wrjci9+762T4wp04pxch/HS39j4wL5aEG5PEq7zXLS1ceIPNulePIHFY9Q76JcvKRRxnzLFHF9GAdRo6j8m75rPg2tEvsU5Yjb9/hJ7nOcnHHe+Q3Kzef3JwIXUJ+s1I6kZcZ+0OehUyAPEXZdwEXJuIJMpZOmY88Kn2XKdTGk8hyRM0eI1I6Y9ub8j5yFMQ1GY5lf/msWA+06XCr75Cfe7fat71NDVS+cg+/Ep9leU25x9tvljcKP50jk4JcIvMDuot4V2AvyEZtC/bCKe8P6yOfpZnK3FQxrbJxs5zYZZucUrnRW/IJlLP7nnJxm6e1ERmLZRT/JF3qzrILcnuNT7A5pDp+fliBNLfbNMAvl9WJvj4lcFf7uDrt5pV+b3XBN8QQoa/pGdpHtpyQhy92xHhEFeBJSNfPlu+L+HK1z6fmBg8r1z/ZOTIBGK7MVhmSzGy6/VZySOhrYs9k+fpdeZ/skbFMhDYAO0i+SGZa5NC9pgLFEWrAWBHnhdyV5Kfoh8Wu8T0Z+nFZ7cb5ETk9dF17lowaxRDyO2K7iNqxuMd4oLKbjE1i/UBThLnis7JpV+kv+yH/u35CvLd1aLdPjir21nApG5i1eVSuerrWKYZkPl7mvMc4ju80voxXjfUj461VUt9l84zTI1/DfcOtYDt8uFKgvroBu8Ji09IjJoobAi7CxVhaC9dpKyfjij2ZD4ELIxYjW9RbHeSLjGLFIBaP4mwhDmm8Mi6g1jLEFH1P22sOMobJzpxbTYXNNGt8K+sqY5nmAtffuPZUGDo0jOJtxmuq7F8iy/ClUh5lbd49pkuXn+xDzYdrfngAP0Z7pOfUQLHcMr6N+cTC2DSVa5l4mFnMsb3HtGOAsTLwcIynd2BhdJU1Way7I6FVVh75SuLbYG+2GENkPqa5cBX3kXNMsW4q15QBy5aeYX/juFbYjdORi4oJ++zG+kSeihgs+91QXMu4K2JQYp6L43N9TxvZ7XEtp2nTfaOYS/tkU8WLZQNGjdlyvoCVqvbDVv1tWcdgfJkedYj7NJxRnhhEYCSJTTKBQxJ5ROS47FQuJ799x/XX9hYTfEP7WHL3IuqG7CN7ZnfAeiS7oLxwYxXS/+RXvM98ttuWvtH05b6TfKC5so8Ntk6SqdVUuDax7WBlqX3zwE26+Rr4NlNk9sFWYh/hHVEsHrKo1P4O17abtcC+ws8cUa9YRhN8Q/5O29NusQ7zu5lzxhg7tJUYpD8d06L383793FcAd+/YGD/afvztmqBp397WheN62oRS2IOYLTvEA83vFvPoeFgXncPnxEoVo7Bry2dfL6l9r29r+ybM33DWGoq2VOJu3AfBVvo+YxjbGtB9SYt8bzFkQL3z49qulgyiyl5087KWd/kJ8aU3H6r4dQfo5vmqjSy+134I72/Tk9kIc7ATDxDjobhxwVhurJwN4mR1vplLZLFOrLG2XOwXAP+0prBY/xdJLpfL5XK5XC6Xy+VyuVyuD8l/SHK5XC6Xy+VyuVwul8vlcn1I/kOSy+VyuVwul8vlcrlcLpfrQ/Ifklwul8vlcrlcLpfL5XK5XB9SX4OW1iSg41IDJgKWGsFYBGZfy4fmvgQWR3BljeWJiruvK1xqOpBaavUC8tgKRI1nlxrnTWDtoYQZ1iTIKZ9Z9gDgCfQ2lB0hPDTC5GCrycDGM8FigsgRyGqfmwzutzaacLfGYIaEHvYV+JvgdeMlgbaur6ud21OqgxBXSe3PgJwaj8pYZsBnQRnpBwbCnO8BQjQ4HSG3X25XquQvxwR6O/Yr/O08JQDZ/3z+FEII4ekmEVSv9+v3BJOHs8i8aF6EpRJ+uX4ejiDVWj/Yt+HBbLADpHBXQgoF/yOcbm/XNn26b9utnzddurYzYvC2Je3Y+gii9/uwdmSY0rXJ+kGA4MnAt4QP3h1WUN3DPtGdW+vo0zlRX//+20q+XV6S7QUT3n1N7RIolnNs/7T+JVBevpPBpw0oS9C0hpqw2QjIBYx+3gq0ink0lEB+Ab1nXKuBYiPIFIPeVkDEEU4HwObWXHYE1Pd6/K7cUO9vvP+BlZTPKp72iDkCFWdz1eogeFlD0wMcLGhygxigPmXAditvSozH2C6O73hn0FIAmgVLZbyqsZ0jgPOcOjw8rJ8ZY3dfm6Le673Z5VSC8QlZjgB4xiYjDB52hG2v7T/+SwI6yl8ugIfqmQ6Of7X5KHBnCCGcdTgAIaNaZwjbNlsRptjGdRDxpa3AcAX6RbyPawqhqZPiM6nh658M6mvgY4ZJgR8nxBfVQTCrPrMfnUFu5x3i1V7zN9Wh/xWm/oQQwrnfFPVGJ0L75BPZwQfVebT+He4AD9WBAYSal7zlOKcIrtZ9WayrHDYQ6yCE3PwzOyTiu7rWdqkQNKYt79P8zQDc2uvx4A0rj7aSXc4/h1J0BJWdHY5i87wp9zltZb+Y9U2w7b78/6AZnD0C78t9HevQnOKedfhisHccMHG8Xef3zS4tNDd22MQRgVLrNGG4bbbpyUXg7nlajfU+JufQIRYvp+T4o4F5uU7L38+P6b7uxe6rxOzmDbHT+psdMCGIMPdDtl+6jskRFF+2m2SDf/6yLugH2EX22GL/omsjnG20emkXfT8SbCzwN05N6Ntyb6v7rtj7qGzWG6+hjsEcvgYc5/jqWvtPeA8QnJj7g4oftJXydK1mq76y16uJ9lN5c21DXtGP/JXl1Nrc4lr3g3KmP2nLaLa/IjhxT/t9W2p9oz/oe/rL3k412rS0s839phzLGf5ysXbxXePV9tmPl7Qvfjmv8/GCNf6zvbvsMT8UQ243Kb7cbdbAu8XmsbMJOWS+u36+6dMe5K/75xBCbr9vd+sm8z9f7+O159MaX2rvxltAmz/Z/v9hlzbVet+iH8zhj8djvEnj93q/2uofb+mEmG/9enrAgk1fa/ucPd799luNG+KfPfMGoPfpbVeUJ9C4DtAJIYRge9Asehh0esZ+Y7izd3v4hmJx9opo9W02Y3GNz+62Jdj9rAMcCIq3ZyfE3d72V+Nb6u/UlYch7KwNE2wwW4zb3QHybdcG7L31e8AMw+i9godd+L9IcrlcLpfL5XK5XC6Xy+VyfUj+Q5LL5XK5XC6Xy+VyuVwul+tD8h+SXC6Xy+VyuVwul8vlcrlcH1KvnHvyRYYbcRZw45vl9zFXzlJDRzBg5sOaa9iAqbB9XD8zr388lEwjlb0wBVj5hLim1FCyihbVi0eVTtsQdqJn3lPn+pc2Kzcrm3mPYjhkDB3LmSQfQc8Q7hGZLcj7VmrtDfLIjQVUy8luuz/JtbZ8UeZb7npjCyFXU1wd5rCeLLeXeeSXu9VGA/IyR2NRLDVwCTkzEXBTuY0YA+sHsRxiZWwyrtM6vmSTKK+ZOe1XYwy0qPivNyug4g65vcOD5V+PyL+2vtMu81xyhEa7j7mu4huRpdOLlYDx2FRy+JW7OsPZlgq/SJ+XJeXExnx91HGzXSfzDXKtP+1KyI7q45i/mJ1pK+Xpn4aUC/71fc21fn48prY8rd/3YC+ItzGm2+I8ZyxRmjljhD53iE2TdZ18EZUj/k8Iid9B9oc4JYx14iVlzJEISsF4tBVHFpMMLDTFsyGloCdGElk76ltKaY/9YJsHSx8nX0m8EM6jeV9yyqo8Oyu7Z73iHBE/YPeRMRV5TlmQrVzq83by2vmv4CHdrc5BZlv0Z1wTJ4zzTfMji02jOG/JgONxY/0oWXzMGWc/Y73GsSJT62LP3O6SAT/b3CKnTOwNMU9CSDGJ3As982c8ELEhatwLqsolsHKuaItYaTUuwhnz/MXmN5fQ7rQ+S57UYNypdkdHXf9st+maeAKHPSah4STe3lKBYh714POJE5azt8zvMQeHsxwQnbK1c96UY851P5qPmCjNLTD7gtU7IxC11gbgbSJHinMrzjfcp3lEm8b6d+W1bF7eqPG4QdwzxliLidzXRXRUxkCw+xhfduV9sR/kSalPG9y4lAws8Xe4jxDbcboBd8XG/0oOZ689FxpY4T9pMc5sr9gJpuVkvKaAfezN53XgxGEMIfF+avOO7BbNec7zyD9B4P20WcveIbg/W5D9n2+fU/tsHSdT5tV4SUfMo3tbsy8PaYCf3tfy3n7nAmx/aD/tnzlG2pRVYsrtIfXj5+O68N5v0rVtVwLDxLwhlyhyjggHM1PW+Du1+Ecmj1gxtTh4JGuxyir6YzDqnLXZmJa1MjAJ5yrs9X9NNY4Q2/J9mz7SrlhOpX1/xi36iEbMhQo2LtZbsxXHXO8pO/jSR9tX8wPVwfa9j9vsu/X7cv2ttU8ih0nzPJv72IcX91V4V5wffz/dWTvTYvFoXNLTJV0T3+YG8eDzYY0vn7CXFxPqv989xmvvh7Uc2mpv7421/rJ9Xy9rXHm9pkXq1RhFl2tqn/Zw9wfwlcwuXw4pxurdpTZ/p7l8FzqBO6V3oH1lvzGCoTgbCzdjQe7Lfs41bqGtPf0ujZs4dQOYlgfjObUZw6mct2cbQ+5t72/XjQ65mVKD918xt8ZsX7z+Fes2hLT/umBfLK5di3iv9i+wy/Ru7SOzWe8u2IP4v0hyuVwul8vlcrlcLpfL5XJ9SP5DksvlcrlcLpfL5XK5XC6X60PyH5JcLpfL5XK5XC6Xy+VyuVwfkv+Q5HK5XC6Xy+VyuVwul8vl+pB6AUXJgWoNwteAESawkuCvIYSwGICpJWzWQFaEm1Yljh9g28vGIIoAOwWDLTaAMs6HEowlQBQh3wJ1Cw4aQgjjg0GyAJmKYF4AImWDFrBPgRrZlsna0p5xnxXdZJCuvK7s+xdA054NDgtgsew8ABC5bGcrF7ByNYv2M6BdBzhYv1k/E+h9fTOoVg0qTOC44M/or0jZhDd21/JaHPOOti+h6wKGZdAvK+e0Tff9LkBkX7a5A/S16wXCLmG9VRh4BbZNKGgVNG5iHRFqSZta2dOA8b0Y/O0CoKP8D3NQtqwxIccb2OVoY70H2FhQWsJNbRz6bbqvNXDcCaC8CLZ7AQn23dqMua84QDC0QNmEY+t7QqVbK4bzQ0w/wlIjIJdgaNP1U/ocedmVn8oJuNZP6fMO8FV9hu/GgwA2mG/yzwxKazExI8rbNR4OYH0HSz31l+XJHnAh8RknAmPvbU4TyG9xr6k8S9tH0O8Bl2y8hjKchvFIW61/uwuDRF5GCCGMn9dBb29TUJQvTl8TqLF/Nbgu2nex+b1g7sd+cm5Zedn6cbfWOx4Qm17WwgnmjZBjPDpVAMP6/g30X0EUzwD3n23+EAau/urggBBCuDNo7c02OaXgnQTCCj5JAOhg0FBC8AVoZL2DGZMxR/3gurAzkOMG7TvcrRPuFNLcX17XshmbNAfmEYDSGHeT7TebEr+qmNnwIAKDUHKuqj7CL7UWd8dUrta36zuCic3b62cMuqYvYphMzvV3+mmt8PiQDiyYBTD/hjhpkGiuef3vtn5geoy2h2IMa9XPCvS6drAAodzRjzG8w4Ndgq1URw2O3SfeaWwrYeARyk3ouu4nvFvAasbduVx7wh9zjePehvW2iC+L1bEQTB5jMe5TP7aMEXYbQau2Xj58eY2Xbners404iOI/Xlew7BXBaTQYabik++Q740PyydbW4t0hDcgvD+vpD59xEIZA3f/v//oldc1Ase0m+e5cOfREsO3/dvsUr/3fPv26PvuvP4YxvwyrMf/r/S7Vaz5OWHCMTRVQ8q+nm3hN8fH1nGJ7DXyrA2RmjIf2I4yT2015CE3tQJIapFfiN2p9h5gjWC8BtF2lvzXVANLShAmnAx54KItiNQ8+UHzJYNGT9qLlpoaxU/tdrh8ayxpkPHtbWMr9bqyjsn+eYftFh4VkmxqzC8Zyqeyp274MCFrHWW8cG26van36QT+yvbfuw7oV3yX5Pmjt4zvJYgc2NVh7NnZYUscDjwx2zDV5mipQeOvG9Q2H6cgn0ZbZ2s9rqu8Rh9/oM8HQWtuP2zSnb7YlDPxlWOctDyMS2PrMdwMDNI8vWGtbredpXC6v67MvbYov4dZg6rep/njWBcZUEOgJcWN500lfGA+LsfvPAHof7KCCbRrfd/s4PfFlw/5i7zjerp+P/5HqONs+YkS8F8y6gw+/n7ZZ/SGkuUcod5zL6K/8hb5xPq/93QG2rXh1gZ239t6726b7FEt4WNdk/j6VrPdMce8Lv9d+ifti/xdJLpfL5XK5XC6Xy+VyuVyuD8l/SHK5XC6Xy+VyuVwul8vlcn1I/kOSy+VyuVwul8vlcrlcLpfrQ+onSzUkmySyD5C+2Vsa9/Uz8mTt+/4d/AljI01gjgwPazLdDCZA82mtpGNOouWcMl9w2a/Pdo8pV3NSDia5Nd0fM2/Ge3IRBPBA7rHl5Ldg1IjBMSO/vqmwScRMmZdK0j/sJ35MzntRriHyD4W3+S3dN/dmU3A+5r7NuhNCCNNWdaEO4yKQfzIcKnnGxiEh32H7ZHnQYCAoL7JPOIH4cySZGTEtnHVYKnGD3E99rjFb+Oxoqb/Xz7jNjEluTcyZ/Q3cKeVuwyfbayUHXAwiMmXEzGAasb5HEeKpMOVZz0wJExC1BSpEz2xey/vIx4h14OffyLYgG+IsYyajxnxWmspYNwva0thcfvuMnGz5BvNkleuPqaV+XD+lZxdxrDaV+cG5ajnjzSv4CcbFIG8tsoowj2JcqUAQmMc7GlNjPJRBgn7firlFPoH4bYgRyqfOOGUWS2bkpSv/PmO76RHm8BurI2PF6PaMO7D+2dykiX53XCf6hPte/r7CWOYuXTsZemM6YnzjGKEf1gYyKYLx7xrw0TYvyvFOtylmjp/A6DKOABk6zdPq3Pvf07Wt4T36hA0J095iJ7FsSpFPWI4Y97iWXX62vh1TW6Y7OTyCzqnM+5ZfMR4sxif4/beU6y/GWfeOvll8IT9G8W9Aeb/u1zH6NV3KmS7xov3FeilfZCzTnOG87L77yz4xNp0tPr4/JL+K85aua0FxOnI9Mg4YOAHyncsLKtH82aPAqYzFusb2iQvE9U0d2YKJd9yvgfcN7IDF2vrpNjmW2C8znFdsuOdTAvD8clyZCz8d3+K1l+vasH+/Tw0Uj6MBk3G4+2NmS8ZCs/WN8V7rGv2+tm5FN2Z/rQnaO4QQwiKOHv/3oda3C2Pd+jfzIa3dWCs0Nlz3++e14oGxRHGS/Moai9FiQxZjy1AcuntjeWERvTusY7QDg6uvwAQvxiB6u4BDUmGs/Pq8zkuxI0MIIYiJQi6g1g3yJ2weicUWQgiN7V9PD+na//ebcYnuS0aJWJkhhNB/662u4rYw3qXy/oexN94/p7792/23EEII/3J4jNc+b9ZNwwYDPO1Xm//bMfnzyTaUJzjl75c14P7tLcW/v/92H0IIYSb7Q4zHfbkONrCLpr72CSGEMNg8GttU3qVZ25Dxd7SWkGV40Vpbwj8yv9J6gHFTbG/IkpPaMu6SRyiuF/l8jbg671gEor+g7Mp+UmVnjFFNXzLd9F6B2y7GagtgjQXdh71KayyqGeyZpsIeXGr20G3vGPPKuqV1kGtFZB9xflj7+L4l5yA7arid8nYGMI2GWmzEw7LHG9q8L7l28RmsS7OxghpwymJcfk3zY/i2zpkr+nG5s/nNdyGzL/dDkdPEIRcfCH4vruFM1pNswDhk+xJ27fpqc3qbYsSvel+4/NjvtWaTd6X2N2RcKd6DI6QQ23IN+Lq2QTZbC1S9uKQx4vhqLPl+bvvTy2sqbzSe3fGYYIudjWEWIa5l37WnGW7LOUhO2bXCoIx7H/D0hsv6mZytOHFx6XleX9bJXBIfasGap3Vrc0jXZI33U4rjU2X+Ko7ub9Lao2fjbykhhOve9ra/Yj0yBBVZqf4vklwul8vlcrlcLpfL5XK5XB+S/5DkcrlcLpfL5XK5XC6Xy+X6kPyHJJfL5XK5XC6Xy+VyuVwu14fkPyS5XC6Xy+VyuVwul8vlcrk+pF4wZkIea5DgyyfdVwLVeJ/AuAREzp9WGFS3K2mBE4Bc7VtXfK+fughhE7CL4DiBTgn0jiBENFn8xemOAG49AHCXAf8IOBTENYOvfl9G+A7cJhlgK4NlirOFpmxerNyMjLr+6c7pUh/B32VVTYUtzmvqE6F9o2DcgLUNxlNkf2S/8basl7w1tZ8A6e2rAeYA8+qudg3+NxpU/PqQrg1WHyHBalcL+G//ZtA++OlcMtzjsxFWHULytYobZqB42RS+IeAoAWRLK1g07rNnCEdsbWxogzhGhHJ3+d+1PnuW82OogIN7fYd+TPl3IQCgCvhqe/pjCB8B5vPntfC7hwS0vd1fwve6TgZkHQE9NIOMn1JdAgwO59TAq8H9FgLqa/NNU78Cv+wAoRR4bwOAoD5vu3StM/h0BxD2xgaux7VjP9jfBLHb2n0zBn20ADnCsQT9ze4zqN+4lGOgckMIoTWnfB0SaFDlTD+lZ1tra9+lNutzB4fpKjBcjdv7OdWhMSIEdVasw4SbTusYbr6msRTMn3Ow5pNaozLoMIHLelb8xRc+awBG+NWswxIwP1Qe5/RoB0tkPiQgZgUev3kCbNE+EmQ/96VNd1/b7P61PqsLMXusHJCgZzhXtX5kc79yoEb/VtaxWDnjkAKRAKoL4NiKwS3guqpvfkEl6u4OAG5BuTvCOe07gufbtuiH2rrwYBCLTZwz8uMt5vTDcY1Juy4NyHlc+8k5/emw3vfLTVq4bg3KvUUw1tx7/yU15s3mxbBPzns52mfEKMHKG8YhA99uAdPc2WfGoY197ipA/ppol8liyQnj+/a+Bvz3LzSqfI0LZqVwlY31tzPYdsavrqzT8cyTT2kitzanZoBPe4sX420ZswVVDyHFq02bIVRDCCEMiLGyAePfq9ng8pg2UxEeu5TrTDxgIIQw3BlQmeE5bhAw5jqsgWD8q9ZBxI2+PPhlY3N1whCpis0j1svL2v5/vACO/bDCsf8/9+mUEgHJD32y/bEvA+q7zY/HUzqp5el9/XwF0Fbw4hY+Pt2s47BkMGH7HvGgfzQgcAsDau2Gv+hAnIZ2tu9pqxQvCIG2i3x3EYAWnHMdJsL9xHJb+lPQlgbFdc+9tRP7P8Fwn+B/OuBkxrvLSaBptsXK4KEimh/sh/ZfnKo66GEu9wzZAUVmgw77u1kQcr6m1CDWWt+4NtYOArBLGZTbxp+HjxhfOIv3rcUSHraydOW7X4T5I56qn2yfxrzhOrzk361NtnKwvsm35z3uk5+gPK2TrHeuQJZbAyTzcIpJ4GrE9nZbxuLJyiP0WnaesFdWfYQta81hWyLMfFuuKZmtNM++pfiipWniQTI6nAflaLx4MJLW7myMKn4VylAcmspvAPHdlYfkWD/fXtOPFDGGcG9xLQ+virD1ylzgGrXYstFhT9jZ+jJzvskneeCMxp8Hbzxt7Vm0xb5/J8Bcz/J3i7h2p0d1UE+DNU/7L0Lcpb4vf0Co7sO4XStKcblcLpfL5XK5XC6Xy+VyuSryH5JcLpfL5XK5XC6Xy+VyuVwfkv+Q5HK5XC6Xy+VyuVwul8vl+pB6sWfIYhEbJ8vP1WfmC05lTuxkLIf5BvwOy7mbrsg5/brmAXZkwCg/knmPyulEHa3lCbJ9MV8PeYqz8pHRzkZ5ntcyr5q8l5g4WskzzjhHFXaJcnoztpCKrvCasrzMmCOKa3Zfh3xusXF4X3cq7xNrhMWJoUO21fZ5vXb+C5IhLe+1QQ56KwYW8v+Vw98nNE5kGjHve9rYs+CfXO9KH9L3I/hPYiQ0tymXP+Z+PqacXbFENq/ITRVfBH4gLksHhE9kYGFIawyxVswWcpPMbP2p5Em1tfGo1UvGlPwgY29ZNyqshA71Rj8m30Gp76hDYy5fyh7Bs4oNG7Bnzn+x235KnfvLl/WGm2269m7MnsfXxFmIfAXmGVt+c7tLcaO3z9tjGvMaqiN+h4kkBkaLfHNdqzFHyE7ZVthH+tzDgGKm8NneDL1p+GzJSHqzyfftmoz/fF2vncbkbJeht76lfoo9NM2lNWZYKN6H76/XtbwzcqMVHxfmS9uz5EltjNmy36Xx2Pdj0bfTdW3/63OawP2j9QNzUHOB/qe5xViiomvssix324Zf/J8Q0pzp3lO918+l3eTb5LKJm8T1I5qIjC7lzSOuqS3bb+navFvvG+7Aobsxvx/K+ZaVJ+4UUCbjTckpG0LJR6vxpBRzMgabOUrXInaOJfNQbeE6sxjvYCJ4QN+Ra2eDOWe5/pX4bOyU3VfWW/ZDfSNH7bI1Xgl88vWyzq3fLgnud/5ViyjKe1g7dXOTAvR+s1ZCbphiTV+JL2EPo9pnetzWGDUZp6zCYPsRB4l9U0xqso2ElYGKGbukxcLyFVyEZfnjKMsaxEUb2zSWYyemAsqQD4E3I/5DAz+YK/FsqTA5r29rfPn6OzYIQ4VxoWUQvtu/Wps/wZm0TmesPfF3yDmy7hzgB+I/ERFivE6acbyx78ijMVZbD4bOeFPa4PJlvW/7WO4tOKSbF1vP39NcOJtN/wF2WWRrcA4OmucwoO3hm77ih9wCGxdm5n5XDJNKPKDGGxkfF8U6IQdHvsH22TPTfZpvcZ2EnbV/5X68u4hLVPJyuEYJZ5LHUxtz7F/ELeouHD/bZ9+kh7WGZXzS27m4pme5r1PnJsyjODZcz4/lnFms7O41+YaYfWQVRVYQ7CymUQO2S6iwdoK4nmRWWXye7hFfNL7s2skMU+HlTOiP5vdymIr7yKHT5+wdTNeI35GPsV6ttRX2JjlQcY9OTpTe1V7LzQrHrbVn+E6cbAnu2VDxe92FeTlXODjxRYZtUZvpa6oOhhHTaqnwDadbbhrMVpxviiWVGBGwv5821uYzfhfQ15XfFqjIq3tO9V4V08klMvtm/dWelu3TOoMxrzE8xei6wi5zhds6NsaNwxiJoTRl3DhbZ2CXaHNwxWL8ycBTJa+ztb6RPR1sbi03mNPaJ8J3j4d179PBh86t8Zrw/hvZnNyzBpfL5XK5XC6Xy+VyuVwul+sD8h+SXC6Xy+VyuVwul8vlcrlcH5L/kORyuVwul8vlcrlcLpfL5fqQ/Ickl8vlcrlcLpfL5XK5XC7Xh9TvHsuLgm0TbiooZ/tIwJy+TMCmCCIEjGoyEGYEqoUQ9v8Q7A51GJjt8iVdm/ofQNMAI42QwAG/jc0GfiS4qy1BbxEKBthYhAUC+CeoWg842PZN7UvlCR5LQJ8g5A0BVWKDVexMUJnAs4SNdudQ1KvmE16r7wmc1LhlMHWrrweYTSBCwloFEmd5EfyNa/vf7TvwMAVoJnxaZY+JxRx/3rz+JXV4/5eVeHZzSBDU02XtyOk5OUInsCJstftqkNv7sg5CxAQfJ+RWNto845o9qzEIAcB22CpCxZfy2sxrVgfHXCDbDIar8toSDJiD4ksYbgR1A7Be64fswXp17fxLqmP6y1r4l8+JbLw1YOvXdwCkf18poy2A6Puncs5E+23SfWrrCCCmoHj0tQg7BDhuqQAEI9Q34/jZvCQw0exLwHWETwNE17blNYngWEFwCbEVLHe8Jmebfl87nEHX+zKGtRVQqL7vAZlXPzNQqF3bYswjPA8AeIFlORc0Rx8Jqj1gEPWsxeDuJT3cW5zcvKJ5gkpjDmreMjYpThJQr75NiC+KK+0EuyhOwvaD+KRYe7TmMNYRbiu9/3d7eCnXI84Z9YPXpoPqgB+IMYq+6TPjuNrKea5DH2ow7ZYsYY0l55E59xZxLa4VGPPB1i1Ch/v3EqYpWPm8Rd+2JQi2psbid3aIhWnCuhDXS/jLaODyBQDL0eqbcFDG26MVhD2IIMeEry7P631v2+RYb2oW5tEseCjBozbnu99SAzVehJaeDY5JOGdcI+hXtpbRLgKAZuu5+cZSjX/pvkm+w/XD2kB/iW2ogKtrMGuGvwj6vUt2WSzoNISVa5+GuLYYHLapQIyz2D6W8OT9PwyijTmjfmrPEkKaK81SgeFyblnzmwpMmHZR+7I5c1+CcQUdztZVHYYAeLcM3CxlHK+dNMGDBeK84HKkNYDrm4DLZTNzaQ+M/W6iHcNP5Ts4YEfPcg2Y5BOAwwZb/xrum6ZyQ6RqZzqqgWwzGPgJA/GdmiwmrgWO9yXBn0BljT+hvsO9zV8eCqRDBDDP9Q604FL3tvYtxo9QhxPP8YACgHk1lmdMfjvAhteireji1pYJYxT7CdBvsPjdYk+tvSrh05N8ranYAOPbmx/wwB7B6AWbpxbOrW2594lrGOJ4OoiiBEizLTE+8vCludyLCsCd2UrtQh2d9UPvqOvD37UzhGj7HnulWW1APyJcnibVfdzD2Xj19Hv7fH5Lm5puu9437su9CoHUio8TDsVQ3OieAQO3j/Ox3O/W3pMDDkrQHODhCq35rOwYQnpn4YEkNZC95oJA9SEkyDvX1UV7EM7La7l+aH2unTPRVPZ1hKlPcf8HP90ptpdgcq6/jeJBJRZzvazZNDol13iL1dkBY+o647imAvZNYorf3qSXg+1hDczXPvnVZP7EPav/iySXy+VyuVwul8vlcrlcLteH5D8kuVwul8vlcrlcLpfL5XK5PiT/IcnlcrlcLpfL5XK5XC6Xy/Uh9cqvJ7dGzBSyF5RnN9yma5HfwZRJ5fIhJ3bzVMlH3+svuQ3r3xl5gMqjZI688ppb1BHzLJnSfrfeRz5ByhFN97XK14cNVM7SlsmLzH+djeNCjoHsAkRDys+u8G1o58gvYtrt9rsyQmJS9GCdXMUAQhViBpArkeXvqn1Kt0QdcVyZc1oOZcphPaX7Lp/KemtSeWSdXH5aKz7+NQFV/u3LtxBCCFvkyP/PZa3k/SEZcNyvBY63zAGu5MTa2CzgpEhtiX3JWB3ft30tfP1DpoxySJcKc2mA30fGBXNi5bNbJtibnckYaI0TQKSCDeYwIo9X+bEZQ0yJxpV8Wmgxf+k+paTYT7fn4r6/f1vhauNjAjH1j2vnyWLpTmUdmgNkpsnHs0ltHSXfZmPJvbwmPyYTSuw3jm/k0WB8x1vjXrB9YoPh4mB2uTAXXGGI3JDaz/WV/Gbl+DMnuzcm3XCLvGq5xjcGGFWWLqlv5OCp7OEG7ZObsC02RhsiJMRo+Eo+wfr58BvKE/4Ett8+WVueEcft++t9yQOZa6iLjE1S3qcxn8EsaKYy1vUWVhrEHNVLP5htrcvWQfEsENzFGOjf0316hnEtMgYqMZR16DP9RvyCBrG4f6m0r8Y9sfrENloLX/+wv3FeMOSIhwQ7y34duSZW9HBL2xuzgMyb4zpIDeKaOAZTi2c3simetX6QgyPWyPY2Ld63+/Xz6ZoWn6sxP7gGiD2YMSmEZ4HtO1vbGbeGW1tnOAXtvt03shzE5yOnorf70rOy/YT1Um3hGh/xRV15rSVLpM/LZVvok3GN+rP/pah64ULaJ14/l22esE8Un2epsEnCTWqg1rUJ8EuxWjL+yZv5FeKuuET08cjSrDCDqmMOzod8jewecd5oe/lGU1nTsv2arX+0Vf8irhO5F9YWhkQxasCkGC1+Z3w5M+X5r2TeWNx4A+tEcbyC28jYHwfjhsA3tFfmHj1ik6rML9Sh8cceJG7nyACcxRsq2Yhk7USmzJD8RWNOXlgqOH2s8XeayJwr94k5x8q+43qpsSEv5321ZUfmkoohU0b78bG0X83OGUPMnJtzQVygJotNbVGH5gXZjfF7OIfGnPt72XkC62ljPJ3hLl3Tfo4cHO0F0Y20b8J4qGzO3/3f1zq4t4i8F75Lai/dlff14F1F36a77BWvyjHqTmBRiYn3gvEQEw920bvw1KIxth8nezCWceD+vmSSzcYZOl2xDxPXE+8Gk/HCMtan7Mu9lLW5xiFe+N64l68RFiiYUrpU40nFsissJXKO4mrA9+T4kYtPaZcYI8i1E+eNsUl7zAMYWGM5P2KcRDjVO0bG0xvEMkz3kYEWpTEHz2yp/F4SbXRExfoeXKym8g4R+YEoT76Y8/7sM2ww27Nv72lytda+rD+vZlOuC8HlcrlcLpfL5XK5XC6Xy+X6gPyHJJfL5XK5XC6Xy+VyuVwu14fkPyS5XC6Xy+VyuVwul8vlcrk+JP8hyeVyuVwul8vlcrlcLpfL9SH1g2DMgAAKttkB7idQbQZ/q4DtWoORZUBbg7QRDCgwGuG6NVKoINbTsfyOEpCNYKwEiSZZTJcALzMgIYFwAkm1GbhLMNwSnke7CL4aKrwtdlGQRULiIlwZULJQAQeea+awwhuOh8G5OkC6OruvRWME7iJ4bzJYqv6GkCB2fZ8MvWn1bGrKNJeQM5UzwKb6nm2+Oa7Usl/uIm053G8u1ubUj7/ert8fNomIORj8dwQMd7R6x4nXDNo3AEKpogmnq4Ako42qY4CPZpeWtrfPm7YCTYM6PdtWnKiivkv37fuxKFdtnjm+ZqPrlGzw8rqSWI+HRI7rrOwObRHI++Ut0XrnX1dI2+4RME3ASmNbDUzKuS+g7IVwYs3Ba3mNimBUzH3FGoIa1RaaOwK6ca0GQBQUtAP4dh4U1wijt7gGGJ8gnhmAW7GQsE/GLl2b1faSvkroq+7rCX0Vi/RY3rf/lton2DUh3zU7CxhrjPv1c6My0rU4XmQymp0vDyXMkJB09akrWe7V/+3RwTe05hDGvBjAmTzRBNflfevfpgIXJ5xYsO0MXGiFs17ZMhsj+VDFn1kHP8dnFYcAoRTsM+uHvqa7yIdQb4SV8j77nj50rRxGoPZxbqsf3DOM8nEyMg3mO+0B1xXAF0DHxeLktAfcVDbAWht2q1H7rpw8G6xR7S+rQ02/McCU8OTYVoLOBebFuq8xnAHObCqxLjbzawnCzkDE5i9tZTwIlJ8r8SrCfxnDxvI++Uk2bhW4uPyE8VnXCG6NMftHhwmEEBrbyywXGLqtOKqucG5VtnCCXtOH5HcZeF7Dz3hvw08fl30XgJLjgSQ8+EXw7gr0mvBfzdEM2vwpryuEtKflnI570Mreggd+xMMpCGdXGyqk7gVw++5Fg47CBWzHGjBPinW4JhAwYbhn7fVQnEC1XH9Pa72cJzpEIBAwrHq5z67svcNYGkn78BYk5xj3YBd9O1dg4PIvPnL9zM6VUF/t4bP+XkpgcVDfKxDobJ8vEDaB2WM5HmoDD/vRQ9G2IcR3obb2fgTAut5dMtC5oMg3BAyX62CsD76hebQgsF1FAeee2g6XqR4EdC1jBOe55l7mu/FkkHStBneW7bknXMrq0nsA1x7NGewXI7ga60KcM7CVDgCaeRCUbIpng9bEXRq4ZawE3MqhUIJdZwD9m7Itca+Cd87a+3SMNV05LymNJQ8GkZ+wlW1l4ZhvrcIMCq99DmHq+oBrWgf57qy4BzsvVnaLAwjigQaAqS99/jeEdKDKhMNqNIY85CXWO3FhtXeDeziqxuilMkZ0yr3Z5Zzuk3kbrjMCjjNu6Guuq3YfD0LRtRm+NGqMcE0HD3Df5P8iyeVyuVwul8vlcrlcLpfL9SH5D0kul8vlcrlcLpfL5XK5XK4PyX9IcrlcLpfL5XK5XC6Xy+VyfUi98uCZa13jmqRc13RNGXcb5hSLlUCWiJVdzWHNWEB2H3NOmTut9p1LDpPyzTNOgXKZkce5eV4rGR6Qc2r5jBPaovzJLI28wiFRzn3GqVAbyrTlGgYqv6h8x6HMH27IpzKGRMu8avW3UgkZP5H9AeCBGBO7bTLq1q7twSA69OvnHsngV4PUPJ1TEv/pug76dUyJlK3ls3JExUbqN+BZWPtZ3utlZ31Dn8SAmZE3KuYSbNBafucWCeLiZyzbSo5vNUk6SZyhpTaWFTWV4maMh3hNc8aOKrkDs/JtmSOtXOI9+rZfx/CwT1AUMpS+F1lZd7frxN3AVrLvy3vii1we1/EQ9yCElF9PToDmfv+WrvWntb4r2ELDbSierfFjyJeJddTYH0JNII93+1SWp/vIA4m8DTJlDnl/Qki5+VmbO7WJ/LH17+ZbGrfhk82FChtCTLkQkK9P/oniWeV/AyzlNM+/lwuRUVNhsYzW34wdUGFW6TPjn+Jy5gf2PXlI4irx2ciaq3DKMv7EVWyIdC2ygLAuKMdfjD8qY+N8V9falvVvxv0xvsIClsNsMWQ6lOtgZsDKWEbGRFNeIzul9uxwLxZL2Q1y95YKY0/cATJHxHvJ/E9jjjriXGnLa9wfaCxpK+bzp4vKua+0s8IRyvhd2m/AVorLXAPEfHvepwm8dMapwJwe72x80czd1/U++l/kXcFW+h7LUfQd+lqN0TVXsAhzhdFQU+RZwO8VvtkWlcN5vjEMIW0wK65VmG1TiZjK7lPfGvru8t3fEEJjbIYFXCw9k49vhd1YYTQskVdXPPqn3CTZnHOhv4qfBTaE2YV72068v1vWUa6DkSvGMRKP5lBhJCKuRT9oy2tkc86a87X9H/qhdtHHa2wa+TaZI5EHWJvG4HfEOjLGjz7wIRXMCWdzkA9rLMlkmctGRHQK44EtwBnz9VCuvzLbAICR2tzUfJfvC9GvKvtJtkUcK7KeIk8FcVdcNuzbJg0v9lyRw8XtXQRAlbGpe0s21RpR8yv2o3sr/UDjkI1vZACW/aitC5wLqq97hV20h8OcPv8yWV2VPRIHSfOCHCbNAe7NxIBhuNJ95BsOZX815pFpE0L0Z7YvPgvu1PzJghI4QWIFZnFNe0IwzsRLmt5hGOPPLXgPUD9qzKAFnKPW+DycW2p/xkSWLWssQO5fxN2hnc3fySHWcNVYXh1ZRTX2UYztJaOrxnoKmDO1dUZztAF3TfE5Y4fa/Mj3SE3ZD9lg/HE8kI3IJEt7PdShNYW31XidzXd/Q3qHpK3ibyJkRYvdVNtvZO8fVgb65v8iyeVyuVwul8vlcrlcLpfL9SH5D0kul8vlcrlcLpfL5XK5XK4PyX9IcrlcLpfL5XK5XC6Xy+VyfUh9/75+uOzSxdHyucdjmTe9/w05ieIDZfmv9pfMIHFDkIc93Vqu64b5pfY984wth1RcpBBCmHdK+sM1lYMc/pg3jG6IcZHnb5Z5ssqrZ15h5IskdE/icoDrpGczRojZYLxBDqalJG4fyZmxZ8EdmDfr9xPGSHmgWT6t0h6Zt6x8VrIXKnmUV8sVfz+mijvLt725SVCAab8WTobO23UFZPz2NYFIlpeN1U+71PJF178X5OJe5QZkZogxhTzemNOb5TdbH/dMGs/LWD+X+dKR1cH85va7+1kfc1gjlwO3VfJaQyWvVXbZvDBHef3LMVduasZEsfad/5IcYQrreLxNx9QWcTmYr68c6gqnIsD2i+X7tu+pjs37H/8GTU5F5GiQF1HhUsVywVK63KtR5X0ZX8RstICBIMYEGSFim10fUE60S7oWc7cRS2KuOPoWx5CYt3cxC0qYHOfq5mn9frgtc6PpG+LgUMpVJ0cjMqHIKjpXrlWYLTHWVIaU+eGdfSZPSjH2CkaIvt88p2ujueLlMzkBa4H9TerIRuy3NjmM+CgTbDpZzB5hKzHElgvi6ZugLWRmrH/7t7LDGYdpUNvJuFhv2NylNm+NK3ezK5lk41TWsdsko4pPdh6SY12NmTbh2bnC3ujMRuSfddYBMoPECiJnZjBbDmDYXYbVUYZLcpjZbNm8pGuy23CDxsjt4RsxfpOhc2NsOo6b2sU2K/+e42FmI8thPpf9+OVuBf9cptRmjUMLhsRwt34/35ZcCbI1htsyPmvfVGUf4ZpiIeOLeHEd47j1k3uLucJgi/OxsuYxTsZ1g9gQ4yEx/g0WY7mmdNa3HiwgMezohmKXkBkp9tuCuar1o8Y1aXuwETX+mKtiusR9WwhBw8o917QTL6zch2U2MNtndtaeFftTMTD691Se4oCYGKwD26E4RlncEPMGMUe+xn5ofda48Fq2F61wQ5bK+rHYms3oEfuLPZfan+3R7CN5a63Ny2w/bntHMjO0R88ZZ8Zd4Xokfgz9Sry1Df2gBNpNVm//kr6LLFLeWFl/I8cKjBrteTgX1L6JHKtePBXUor0UYthsPiZ2ZAghTPdm6GvpBw3fSSpMnnj/ITmb9iib3ze4ZnOF71biOnFboq/pQ5G3Bh+ycaC/aE/B/UFktcH/JvP7LfiQo9mSczrufcDuiXaZyrZkA1xh60XmTfnVdzeqodh7qy2YC/O29HGtETPWFJXDZ5dt+S6yDOLuIb7IN9BofT9d6bw1FpqVQxaQzcH5Du2zvUJzTZMwvkty6ouxBx+KrF5yomzukQmq9wnaavOq9x40WUyyT/QrcY7KWEdbRTZmFjj0JewiO9OfzR6cq+K7kX0U37fQZl0bsfeJ843Dofpu8LDV0XDuiwdHH6nwvWK8wrOqj3GyFjca8XY3tIvdV4kR01xCksjCjTwzslKLJ1wul8vlcrlcLpfL5XK5XK6K/Ickl8vlcrlcLpfL5XK5XC7Xh+Q/JLlcLpfL5XK5XC6Xy+VyuT4k/yHJ5XK5XC6Xy+VyuVwul8v1IfXiKmVg6E0JKhN0jpDCyWCCAh2GkGB8Gdz5YSWybe8SDfd2R9LkqqvBPi/vINoa+LN/Tb95XT+tACsCvlKj8FlwKbalK8Fn4pR1AAhHUCLuj4BBQLp0LYMJC/5bASESvBefYftsPDpA7NoKYLOdSkhhBzhmLE+mJKNLEEVCww1W2n5NUC2BU1+3iTr8LHgY+yZTAci6fTYgFwDIAn+PAPMKCjYDriZ44wK/EryMfiA/7U8VMBsAjE0ESaLeXvVW2kKYsCnrh9hq5LypHLqXwI+EzdaAxhFwiGvW9RbXIuAQ4xz5cvAr9ZOw1FQvQYi6D2Nu/sJ5rsbQd2O5uDTeG9wPkDgBamnT809FMbHNA+u1NtOvYzmEzVbsrO8JytMhAoxrgkHWIK0cK/V9BHRzqcSfRTD9haA8azt8LfIS6S96FOXKxwkBlC/SJxVzWMdG/aD/Cfpf8vRymH88ICFdEySYAPPa/4nQ94wvVwMqzj8lQt/dp5XSu9+kiTmHEqwd6/oTcqag0gRcn6+rQxMgvRi4snlKndPc4pgL9kkIrw6H+PkhUeF/Oqyft10ytADSI/qh9u8R3I/9ag8eXlDTZOXNlQBCELfsdwVo+moDcsXAqV3DBNi2PfO2SXYZD+t9p01yjuW8fp43FQp+bYwIaZ3L++LHAbaytXip+Gk2z8eyDbeb1aa/HF7jtcft6oyXa9pbnAy23QDW2r6u9sjAlJV69XmTqgiXT/aBXNTK4RlS7ZCSDPauqVKBaNNd4tzH/NU6xPs0lzMQp/iulbVxuC3v42EIAo4znkfYZ+VgjUx2qMc8psYI4srxGO8EXy0B3Au2iVr/aqBz2nQ0G/EghQjRzuq1a5W9Rc32bF9rMO55V1kf+tLv2ea4rqHNAnUTUB8B0ohNsf305xcBXgkxtu+45l0Ewq4BlVGvDpz5BCMIFMu5b3N5AnB87sq9cjzog3DiqbLPsD33fFfu30fAhLtTGTe0hk43fMmxchnbh9KHRtkegOtF+xvCeocyLgscPDFOCsy8S+U1kZyOh+W7BEkLeEswr10bH1CeDnQh1NfGNQKdQz3GhcreN4LTASaPh9kQRGw2mHu8M5nv8NCQeFjSDv2w96iF1wSBpp/afTxMJ/oT4cR6pgIwrx3ewn32aPM2a4vEQyI0vyvlZe2bKvXqGupo9K75Thq97f+2GDexmLGJ09gshDu3ZdxoKgdbzDYvePDVXDlgJ9oXbZkPBt8HDH8SQBq+e/1UXovrJPy5sfoICNeeYftrCvijtZmwaL2/zxVQ/HKPA042WnsA6TdHHtN5UeHwnzoQJ12Lay3ihtaybDMcxxyxGAe0SLP2pZzTKodxUtc4ZxVD+B6qPd5SxuzM9mpfdjCXQPGwy/2Q1x9CGONBX9ivBZfL5XK5XC6Xy+VyuVwul+sD8h+SXC6Xy+VyuVwul8vlcrlcH5L/kORyuVwul8vlcrlcLpfL5fqQ+u3z+mH7ki4ON8apIK9EOcXkfFguYoO8PXFeJuQ47h5WUMB+mxLxxUM6v4FTYbl57WMJRiCbJHGYkK9qj2RMAOXHMgfTcoqZH65yWqQw1nKx22uZ6xp5OW3lGp7tLAc9Q0gopR31Kj+bXBiNzfUhXVOOf8YEsPzN7oQ2iz1zX3QntGCshAp7obHvW+TXz9fV0AtybGOeOTq3NBWGk7WlxprI7Kf6mINp15hfL5vSVvp+Yq633AW2miq54DGXFH1THT3YEBqv8ZiuzXN5Tf40g+WgPNWMlVWxQW9jzpkw3Nj95ANVuA36/op831q96gdtIX8hT0pxgHNQ5ZCBwBz12Obbxf7iYiUHWOrfkA8/Ve6rxiF9SNfUtwHjsZAh8l19GRdhX94n+zXMkd9brjDngjgfC66p7E15H3PVxf+a9oin6i/bZ+NBv/r+/hBCuHy2axU+C8d3MD+pMd34vxrGo8VJcruEjcO1yNEgT89y2vt9unGwHPX39zQw08vaKebmy74ZD8Ry48mQ6CxnvN+mOrp2va/dpw5f7BFxUEIIYfNccio4l6PMxwewj76e1xvfLmkiic00jeX/q9mBD/hwXIPX7TYF4605ft9WeCCodzTjn8bkCOdhY3/TBFFbxgtsupRztRGHBLyP4/3avm7DhbXMrw8x/pXrAseoOQl8lh6NrA6yvMwXu6dyjedcaKwt5Cqep3L/cDaeBPltWmcWzjf724IH0lRizuWL3Ye1W3spxnF932G+KS7TvyInDzbYGIOI80hrPDEyWv+ydUGMM6ISxrydISTOGrlno60zGVPQvhcXaa3QnkUcUjydbgkbsz/Yh4lTsaCBk7HLAtku4nVmDDv7DNur7+R1irtIVxcnivEq9hN1jLdrWxkjmgr3SZwU8ieWCjtM3483GKTKGhDXD5YX+4Z9rO2B27s0SJ2xaYZTGhCNa8e52pU2lf3I4otcG26Vu7K/mvsN1yPt0cmZuTOjI661ijnglcQ1FqwTcTObGjcEdUzH0q80CTLekGzAgG/jRsZK3Hdmrwty6FAq29+b/5HTU+M/qX3gvTTW0SxOG18pY97clQDVZVdh8sTPaMsPMGbLvtLOfbkGtGT3yOZY82KPGA703sjCb7mBsEeMGTR3WLcUD1oGu0oH2sp9qpCP2no67rn5thvAeoprYw8/7VVHui+OF7ijjfhPXaUtqKPfmQ2wR1J5tzfpJedo79FkQdZ0sTXv/YR3bPW3xvTC/qA7rnXM8MnFxrUjZ1jcsZsUh3bbyobT3l0zVqW1P+Pp2Vwmc0l8suEz4XTWTjBzIwMti03lvm6W3U4Yo1gZ+EpqamVdzfiotl5l77Dbkl8kBmDXp35cxSPCfqP2bqBnMyakNSaLL9pL4Z1dtmox5rPZNFtnrBKy0DpbsxssmKMF+vYx2c//RZLL5XK5XC6Xy+VyuVwul+tD8h+SXC6Xy+VyuVwul8vlcrlcH5L/kORyuVwul8vlcrlcLpfL5fqQ/Ickl8vlcrlcLpfL5XK5XC7Xh9QL+EhQVAbZNgk8NQFYK/7ScgGgSoDNY4IztQanez+lh4dXA4CdUsUCZxKWJWB2Q3heZACW8Lx5UwGaURG+RWjuCpSaCNi2+/pnAKUiPBmAyKPBwdAPtSGD1w4C75VN6gC9jgBssrLMbBl008xHOKfGkPDLCOWugIgzKOhQPquyZ4Kp1aWSVZ5JEOalB7hQsM+ndJ8A4hGUFkIC+Q3lswStEnQqCQYqMHUICYjZXkg+U+PTJUFLCRevQVDjMwQ/ViBscyjhxBHeSG6h2ZzA7GsFlBzrILgwzksC7wWQLsGeNVA3AZYCrdIuNRj4dKjMNz36kDq8OayOtdmka31XgiSvBtu8EhR6WjvXvaZB37yU8Lyu5DTG8SdkXhBrtlnxaiHoUiDOroQtLhk8z+7DxY2Bnrfor4CiHSGjQdcAi7bvG0LrrewrYKSCKF4BVB4Mgh+BtSGERdBaQvsM7tiiv4K0bgAB1BjNjJMCTQ+pjlHjBbik5lnmGwb3Y/u0BnRPqR+71wpAfyqB6M20/scAoLx0vU99mw2+2u5KKGiP+KH4l82tLu9PCCGMdhDFy1sisk82NtPvaX1T7OLckk7b9OzbviToR4hnxf9mwrsFjQQcMcauCvg+Bzmv3xOOHfVTAmfK/zpAQS8PBgPH2hjH+gZ+35fzvJWtMB4R+AjAutb7GsQ9m7+ag2UvMuj21T5nsM+dQJJLca1FzInxlP/bTVzZW8bY9eL+t3Qpxmz4biyCj2pNxvorrjpjTu0AB82VmYcJiDta8fE/2zPENsP2NT/WfoR7GkGqGU/jfg2g0KU1QCnBwTFelf3gsxEQzr2U+O9cu2XfbL20wx9qB0fsuaiUe7jGDpDpdskwNwbOv9klQ286izlYpATGnwjLt/k7w3s7a3QL5zhZnH99TRvALw+v698j6eer/v3xU/z83q5OMb3RsYK1L2nYV+KA5mVbxvHs0Bhr/uE2bWQ3BsbdYx08blYbyT4hpH5ynRkstp9xiMC7HRiggwNCSOsVD/HZWtms4/tyQwjhap+zNVSx6ZjKi3B+xI0Yrwg7PgiuW4L7uVfRurvdcX9g13Cggfqx3wBibBsd+kbNfrHtXLvtM6+1FV/7/rs/Unw2lG2pHRLxZ+XV2qf4fcW4TTaPav3lOqM91Kat2BQbRh1sse8qdq5QvDlXL9a+d5xW83hZ1/bf39MLyPPTOm97xMTjYZ0rO+y5buzAjXscvPFpu56c9GmT5vmtBUD2TZqwSL3ai+PXa2rLb+f189/e0sYpHsYBf47r/iHZRfvYv9y+xmt/OaynEB2xmdq15YZ8sHa9Dmnv8/Wy2uXX13QSz+uLfY+DKDT6XcV+NWD86ZJixOXVFsWXyrqPwx+0h5pxbdqtNXMvGoef71YGoW8RJzc2vyfs2xcrmu842uMtPOBHe0fWITA42hcPAOL+xfaHzQ1fOtc/Mw6xqO0xNX04jyZ7psNvANo/c730f5HkcrlcLpfL5XK5XC6Xy+X6kPyHJJfL5XK5XC6Xy+VyuVwu14fkPyS5XC6Xy+VyuVwul8vlcrk+pMhIyiADlvo23iBHby65K8pTZV7/dGN55Ljv/LYm2C3I027PlsuHVD6xbMh3EJ+iPyFvT6yTLdqnXHum5ovXhK7F3Ebk0isHnLmGibmEvMKt5QYekFcYeQ3gn4ipQSaA7qNJxWcBR2j3e8ljGCyFNOMrVVKOI8eA/CJhB1Kqa9j/buWCIyQOU4/7lCpJLlasA33bvgm2g/JsjMSQCiGEwfgALE8+Jk4VKyabpL0qhxU56DFXMz0aWQ/kP13L9sV+VJhBWU67pSuTKyE2BNlWkaeCsUyMlXSfmBXb53Tt/a/ftR1tqf3SyxTkiFyo+EP/TrbLkv1dH7b7MLfifCSKRX6HOd1YHu+MubB9WDt6d5OSind9mS+9VPLhxRQawTsYboxjcA/Wifg8HDczwjLS8a2dYFxsb1bj3+5TPvetsS32cPyjfd6Cs9Cbw7SAhdTy/nUf89eVa9/WQCMVjQCqDLPZYE7X3sc1npIBczKexHVM16YKJ0dibrn60VTYCzWu04C2vB7XtpDfIU5Ej/JGY0w0X1Oy9fFXy7/G/NA8y9L/rZj+lC6NYr+RmxT9Gby6bv18/YQceYs1ZL9pTm/e0rXO4k/GlzN2zvWc+qs4tPuGtULtx7NiunScb/YM431kpg3ltQA+kNguu6/pvuun9W/GklM5XN5iXANHw+yxPCdbnTfrxR1ZCQ/rnJmvKZAvlUC1GHOh26cYsPy82n63BbNKHDD4a2Tn4JrGV/1e/8NiyVw24MsucSXkz7+CTXJ9Xo1KG5DFE5+1rm8SGiKuOeQW6vMAvoP8GFOmysSrBXqNB31Sbpfx6iqcy/iZ91l59KtefCXsLeS7rFfzjXNGfWpKVEd13Ng+xZ+GLCX5NsajfbS4wWWrL8sTy4hzSz5++bwU9y3Yb4xiXoIrcXO/GubTMQWdL/vVn8QtCSGEg7FVyAXpbWA7NHqqgSQr2pgxNzBqjYWys0HkfU+2mb/fpID6/1jWzcVyk9a899/X+2qr0YL4IkZHB2bQra3tZDP9YpyUn3ZpgtybYx0BstyYjbraZgWagvYHaYAHC2hTJdDQBl1lnZZYXmTtIEDX+DtT+GMmDxXXy6pVy/uo2GbYpdaP7oP7iLkWjD+oj+5Ravqzcf1fVc0PPnL/H7VFfesyrpOu/e/3ewqln16wmT/bZ/qQ4kWX7Sdt70h/rvTjbC+CA4K2yuF8+9Kv8/K/Y4Nwvl2f+faQXv7+fllBoo/XtJjdb9b5e9OnWHJrHKQD53Ql+MsGQwUM+NfdS/z8b7a/f7xL9f7+ZW0X97aJY1XGWM6Zq9lD7KUQQvh1t748P4bEYYrrEdcoxf5T2Wa+X4oNG8AbCjsViHgv3toF5eknAHIuxQG+TX3rjOtJfuAiUtQe9lbZ2LM04j+Baal9WHvAu5h+akH7IpOJ5T2tvjvdVUC0+L3E/0WSy+VyuVwul8vlcrlcLpfrQ/Ifklwul8vlcrlcLpfL5XK5XB+S/5DkcrlcLpfL5XK5XC6Xy+X6kPyHJJfL5XK5XC6Xy+VyuVwu14fUC7yYAZUjP5rgYNFrQ3FtAXRJ4NF5AGTqTVTGdKkzEPB4ByiUAadmwKgE9R3b8jevKv8OcF11pAU8VM8svM/qaE/pvvnB2nJTwsSaCkSbbenfBCZP1wQ5JsxQwMcJfRuP1hbCLwWbBfxS4NnLZzTMTMmxFNyZTLTLJ7sd4MzUABRX+V59InR9MnIm6xBsm/0dbw0geAb0UPAygoH1CGFjegT3CYIG9lu0cwbdPOf3Z32ju1QApeovGYS6xvJi+yo+yftU9nlT3kf7acxr7MMM/iY7E0J+Kv2v1g9pPJYAX0LwxREdd/Bdg6gff0rQzU83oCGbXs+rM57Q4em6NmbBpBHovgUkrrPPLSHfZiRw7cKy2DOMYYJforzDbg12N9vkMMfN+vkI2Lagfj0gp9sIR6xAHCtAxIFgTzkFrgkgOeLaaPRaggb1eQRMWLDr85BsupRNiCDRCc9OBt4bxuQcs6D1Uxlj+02ywc6A6H2HmG1jOAE+uDGo30So4Nvaj+4d9xmbtU9s9hjDrg/pkuZFd0EsOTR2Ld0nP81AxGai3dfka8O93UDYorrJeGDlbRF3T/sy1sW6KocSEGwc+4H+Tof8/hBSnyqsytAOZVy7fCnrzeKVwMY8m2JftlkxnfF5OK+NGOEHglSyLfNeJElS3A1kijnY2nowYH+g8jJAZGsxohLDeNiAluJ+nwx9nQSox3oejZCeDYKuZ2uAxVP4bmxLX65HPCRiMWjz8oQ5vcvvZz8a+K7Woyw+W3XZoRhat7DnWobygA6tiSxPY81rAmZzrZfPEiSusum7mh9X7EG0X2twmEk7GLD4HtD1UesMBnhXQkZlgwnr22h7swbzt380wOt9uu9iY8P92mwg03YHmLUB2H+6TxP9v90+hRBC+LxN6xuB2pLi/AW+9mqDxLWijxDtEq5bAzATsP3Qrevqkad2mAjrvWvXwdk/pLnwl/0Kt/2P90/x2r/v1+D69JIGWHGcc/X2sNb319sEyP3X42qXf949pfb1q432Tao3QaorwOzKJolQYQF8u6a0N2HQNQhzreyoCsT4o3Bpwpin/z/9//c/68+8lDb9qH7Uz7myL/nf0fADODYh6d0P2sJ21sDzf/bM95or+7AhO8xkW1wTHHusLMA92iKw9R6LvCD4x/4afiStR/QltfWMU5WeLGg/4gSHv51XOPZv53Stt7X20zYFaMHv/7JNEHzN1X/dfYvX/nm7zmXaoGZTff+OTcM3A/w/DimWfL2sC9b7mPan2lPzAIwvtrH6glMd7mwzOOJ0ilqMfbeFlXtlxdFsL2+H/XQ43KPr18/c7+o3B76TjPZuun2qxBQcEtHYfrhHHcPZ2oXYHmHW2Y8FVs4rDskxYHaL8sKx8jvE1vZXv+Jl0g6DmT7zBc72NFf4s7WlwbuVri0H1KV9xsBDx+aiG/4vklwul8vlcrlcLpfL5XK5XB+S/5DkcrlcLpfL5XK5XC6Xy+X6kPyHJJfL5XK5XC6Xy+VyuVwu14fUKwWX6d9KReyQ5immwkL2guWtt8iHn7b2+R35eBWmQmTtbMr8cKZnNpN4L4SiqPXpmrgOYsZkQs59q7JZ3La8LxgbotaWLA27ds00I3WxvRgT4JxuvCrvH/1QfXw2plmizeIXkFkw3H13fwgh2Bgy3ZdcjKLe7Y/vU+EZZ0HsHLImKuMWeQy34G2YDZoLcjDFF4FPimmVja/QM8zVlC9mHKGyG5EHQs7HJv8uhBAa42JkeARxSFhgrS2WqovU3nD9ZP0FO0VcogmsolnzgugoXWO6rMx2TA2c92Zo8juMYUNGzWw2beD307GSb27Vdl9SQLi7W7kNnw8p51n5xX97uo/Xzn9fc6jJXdEc3D5iLjzIr5CjvC9zcWuK41X5WXzYpv5cd+sAP7cpn1tMiA7cH33uu2ToptKGzjrCvGrlvl+uadDHscy1ny0/m2yhYNfICJHdtt/SfdfPlkNNDonFF3HIQkhcE85V3def6Kj2hxyXVk1KPvkmXskNChRDDtPy+rQGjvaUCtwaNwbp8HFOtQP4J8Yg4toTuXZonxhxAViuGDMrnCPimjYvxkq4LZ8dKkyekWuF8s13YJ3YGPVpKsQ5T99VbK2x58h5i0w3MGrkfzVWG2N7ZKshXsmWXFNCbR0U7w+2aiw3fnxLjW7EPOQ6oznYccFc/1zfUsXb4xr4yGIRI2lGDv/mpc36w/qyeGCfRzDYFH8y3oF16v/85R+pLf+8+i75Y0+XdbH4+/NdvHbarNdmcAxifxF3F83pHfhK4joh3otzJAYD+1nl2nHtUZcqfpDxkMx3qra6LfdSmhMsZ6xwk64ptCd/xh5O6zPXlFk8CcSDdqoEVMVM8JBm8Riwlm3vVoeesVa0FhMbdPiwXQ233ybji2d3u0u8ofvt+vnLLgWnQ7c+c5qSX/1+XtlCX89pYj7Z5+fXtMkYXlfDNNjXbQ5reZtNGsytccdqjKSHfQps/+1mZZjcbdJmT/wv8vn+unte+wGY5v95/FsIIYT/y/5rvPZ6v7b1FRu8ocKDuTVY22cEbXFhyAx6n9dy/n1IsLbfrmtwfbqSnbJ+HsA/0XrZw3l3xjUh62Tb/jEn54ryxEcje1D2ZR1iyrDcGrOqj9d+zGZSP2Zs2DQ2c+XlYM72DG1xTX1ibBJzZqrUX+M0NuxHOxffS6yjJtXHOubIQ0KMNdufBjBpxQKay/HI2m/tO2Kuil+5xT6sjWwrvPtVylO7cgalsXbA1TldV5uK5ck2k+OnPWGL/dDGWDs/3aT58ZPth4/YwIi1SWaa2vA+pSAr3326pljyelnbNSHWvZ/s2lCO22aP+GLtO8Cm/8fDGgd+2SXu2U2/znPO6ctidsEi8GQcpH+c0sbp19f18wjekPxgGsqYsj8ku3w6rjHuyz5tnDTWNb9/uSS7fH1d3yuu2Jcc79fyxEINIfnLl4fEiVL8eQEjLjUA+5K+3INEHjTWPHFduR7p9wOylMRhIp8vlovPKoWcRvEjc66sMZbvUZ7agLW2uV/tsTTwl9PavvYujUdnbR24UVTD2GYba67x/i+SXC6Xy+VyuVwul8vlcrlcH5L/kORyuVwul8vlcrlcLpfL5fqQ/Ickl8vlcrlcLpfL5XK5XC7Xh+Q/JLlcLpfL5XK5XC6Xy+VyuT6kXlBQgkIXY1AR9klgcLpmYEXCOQ0ASxBsBHrjWoUXF4LgYSNAdAZZJNgpMsEAPov3EcptwKsM6G3lEGDZWH2ERgpKS/jwLPAewND9W5vVHwJgqqhWcFgCXoOArQCUDv9XgxkC0qViBsDV5grAN0KgATJtzEa0i4BxhPEJ5kaY12Tw0wX1ylYNIKPd1qCRqGNnUElCjCP0sC2vESYn6FyPZzc/gAVSguypjBBCmAwORiCc7psANJsrsGNpJEhNNuI1+WIGN12vcSx7A2wS5CztKiA/2kpwZ8IFNYYbQCP3Pemsq87jOoEzWJs9y2sRAnhNwLXZwHc/3yZg3afdCv4kFO8/X1cS6/klgQv7F4PWo7viVvYAJS+d4OzpmuYWr2luESwrODHv6yyejbfwA4Ntc66KBzgDPi3++gzo61IBk6e2475NCY+XajGR83L7uD4zAIZbgydv7L4M5m98wcPfOVftO0Lr1TfC/CtTK32f2qzxOv0VfXvusnaGkMaDgGF9ph8IMH15gE9aOeCnBrn2vCnXDx4IoH6ybzqAgNDhCPMnANkgwRnbuVe5ZfsyiLGAsVhDZYPzX9K1WSDizC5N1iY+m8G2Bah/QnkCevfltS3aIpB9Bit/K9s82MECLE/rJQ/ZUKxbOB4W43rCKjXPt5z865/bQ4Idnw2yPLSpYq27HaCRG4Uf2P6qQxP6VMfW1p5/vU3G+nm7PvzLNkFGd+YAFzjMt/EmhBDCf90mqvTXn1aw57fTMbXZ4inj7tP7OmCX/4PUa9kPPqQ5j0nTmd022zRZtQZsAWgWsLWrrIfZ2m31EcyrawP2DufTGlDPD8n2ArsvlXNL/uxADQGm56nsL/cRS1PZ1+lwBRxAoLb02G/88mkdw22Xrt0amHePa3sDZu9wrW/+GHA9Iuj8el4Dx3++JT/49WndvE2w3/i22q1hm3W4DOL9cFifGbDGv2vPhTkjWz3t0+T/x8td0eaLAY0PuwRL/e8PjyGEEP71+Biv/ZMBuB+6tNjebdP334t1CL474f83v9rJJf8Ykl3+5/vnEEII/wFbPZ/W+97eEiC3s73PeAFs2/ZcLfasre37Fuwtpmtlv1vZX+naTFCtDojhkqy9D+blrHa1dPK8jBDSPGseU9yI7xg4hEHzp8FBI+F29UX2V23dHJKfqr5pKvvBvuk9oPmT/XFsM/pWs4vmLe/TnJ+nck+TnyZhf3mbiqntlXnN9EjT27gSIB2BxhXo8LKU5RGOrb3+hMMf+lsDEfPwIM1vjPk4rM/w0JWzff/6nHz8f24+F22IkGW+g3XlIS+j3ZeN76NteO+wiavsQWUrjtHZPjPe/9/f/yWEkNaWEEJ4MOg1gej6/HZJMGv58+Wcro3vFv96zsG8jyGkefb6O9ZQOyDjv+aH9KzmDA9psnWDc1Ug6mw83stTTD7frH3jejnZ3pywcvnY9YR1sHyNiuvVzO6aH2S+ZuPRMDbpUJFzGg/Nve1d2g9pzk/nyo8uGPu4tFdA2IHvJLrGOb1fn8nin+6jnfXIWM79bC9fttTlcrlcLpfL5XK5XC6Xy+Uq5T8kuVwul8vlcrlcLpfL5XK5PiT/IcnlcrlcLpfL5XK5XC6Xy/Uh9f3b+oFcBGEE3o/lA+RtdJZTTLbQUuE2KIc+YzS8Wx45GAjzwfIJjyn5rjlX8paVYsg0d3EsmPBbySWdLR+9RWO234wncEj3jzeW4zigjJu1XTPyDzvLEe3ekP+vVEPYZbTEUXJXguWV3tyf46X9ds3Z7ZCfW8vnj/2p5AV3f8LV6ZryWk2DMQOGqcxPJ3dgY7wf8gm28VoCgvRWL7kSrQ3iBRCusQrQWlXrb/59+ayemQHXENvnCi4CeT/Fs+RP/KB9lOxMzpE+94Ci1Po0h8o1u6/WTtr+frv6002f+Ak/YkNQVxuHp2tiNLyPay7zsR9w32q3X98T9Ov3X42R8JrGUnOgIb/obDbNeEjrX7JixL9p0vQIwe7jT+Biylw/4VlrPocqtgXMm85MRLNoOHifRO6FYhjZTMPdXJQnsW+KA2SEaAq0iDmdpU4z7kZuEsrT95vn8j4yg3orb0xp/VVenblQxsaLfDf4q2I742TH8fqufTtAECIbCWbujYMzYu2JXCe0Rb4xIS0+sZRQsTg9KQU9GOYjs5/Gkhoe5uz+EBIDMGwJXTJWxxmssS/WjxusjVo3kIPeWX9pM8P0ZOMiHyMTStfaNM2zz1K0G9ataV+ymWSD4a7C6HrvimsBz2qQZsyZ1ng5PXgMo60l5DaIx0Auh+ZHto8wezA3X+vu9p9SbDraGsoY+3kDGJTp27AamgwYxclfdomldNevg/Pz7i1eU5zk+nG7W51seEjXrpFNl+oVP7DGtasxfra4T8/0TcnY49qn9WNA+9TW1yE50bfLIWvnH2laKgxF8+PrgLXbxnV4I4TNYgQZcdpfge+g8Z/AG2qNL7OALSk2kjh9IWBthA00RudpUzzLNffrpWRgvRoH5PSabLW8WjnciwpJgX2shmb7iP3GQdyV9Oj1s63Jb+X+ajph3B7XdmlPutaxFvT0JfXt//m6juX/a5vAbP/0sC4IPx2S/99vVm7IDovKwXxtA7/Snuzr9SZe+8d5HYinMxhOX1eGE1lol8fVbmSdTKc/9rEJ3CSV0r3DD+wvfWi6tfhc29IwdlqBXGtjLO6xLzaeY8acM8YJ1/hg7xAZe1Ufr6UfBN4nTsor58f6B+i8OBcWsknkd1x/FW+HTXkflzRr14L+Lk3lPn2HfsSAf8u5ajZ4B1PG9gBkUOrZze+pfeOn1e9q+44sRtgYDWTF1JhL4nmCeaNxHTN+21zUoViTcWDtI/kx3cvahhk8M815+stkfW/hu8uXdWSnDHNk/CLa/lzGgcjoast+zEO6f7nqXY3MKlsDyMuxfp7hB2I8LS/wIXsH78inEsOpNo/fOGlsrXjA+4fF+YkcIY0rfU2fu8rcgsTiCxiP+WJrMnhN/zBIJnlN8ieytyLPjKxK4yRnfE3F9l+TrYb4jsMNeTl/N8fVD2bsHWWD4YJ5pGfJGXxZ16PlSB6S7eEujDklt1CMz2xe7sr5q5L7b1jP/2pjSAaWxWq+H/m/SHK5XC6Xy+VyuVwul8vlcn1I/kOSy+VyuVwul8vlcrlcLpfrQ/Ifklwul8vlcrlcLpfL5XK5XB+S/5DkcrlcLpfL5XK5XC6Xy+X6kHpB5IbE0wvXh/XvvAew6VLCoo2nnMFhW2P6jQeAM/eCbadrAg0SULUYxOn+SwIDbgzUSTinPp9fQB41iBjBhYJ3LxVwF0HYg/U3Yx7rM39qE3Rul9o8GQCRsO1JdkO1EeJFaJogrYAxj5PB0AC41vebntBNu9YBgFch/AqOORGSaZ3i/QKT7nrCPtfPLca8BmvWNX4niHYGkm7y7yiCH0MFking85+BqVV2DXDNetU3wk1rUO7vv/uza3+mKhTUxvoyAXwmGPhU+j3hprOB7W6PiSb8vl9tRRjp0cDbtEFv4NYNCHP6/ghQt8b18Zqow7+9rwHj5Q0kYgMSClIXAgCM8KEI0u1qMHz8h33dg5MrzjjvEwyZ8O44bzkHa5DgCsi5GfPv1mt2OABAjRHqnM3zCuzuXEK5VTbvkz04FQQhJ2RZzxLQLGg479M1uun1Pi83hASLpA1kywx+XoFUy43ZtzgeYDdORhJdYFRx+Mn51TrUkilo5V1R3u7Jnj3gPmtDB+B0tBEZlKqv4hssL0K+dzzowXyXkEermLB3AauzwxoEZURxw73FyQ3uq0DSBXmkb1hIzGCfsU2VedReyvlG/xvtmQwKv1mK+yKj9dwW17LQaRdnHA4wGhSUIFPBuLkeCXLbYFKrXUPlEJDtJhlG8Yrrxz+uK3TzbUwT5G+n9RrjuA4U4LrQWsUjD2Ywx+ezOmCC6+DByuM11UGIdls5AKOP17DfiPWVYNbauspn+6bJ2hlCCDeba1YXxXVQ/Zw4lrZX6bGH09o0ZEBWBTtAggUFxb6u2ZYHFfTPBqX9kp49m+O/Yo1/va7jeiJ02MS9Yzx8BPuwdwNrE+ob4buVvWMLELYAplzfBDwlpH+y/fB0YPBc7yOoW51fMFdj2YxhKmfCeBjgl1Dr/2F9+tv+Pj2rsQSsd7Nd/b3DWMZ9Hez88rIGyJkQaHUdsO3+Zi2P4PQU2Lggtd93LUGTCcc2uO58h/cFwZMBKd68mL/8hECpNYp19GVbtJfPDunpK/Gv8h4Q9/Xsrz4CbJwBoSW1AbDjuL7ssRBq/uAwk/g9/Fm2alivoOEYtwidzvZN5cER063KqVGPYReVXXlHyEC/2kvB9otsybbYuBKOPRtsmOD0CDMfuecyvwLBfPxidrlFbBe4Gj60WD8JMU4PoE/bSrzVe/KujKe1dz8qjjmh2+pmxfTtBr6hvQBtOgkkjv245gz9RXHglu9g1g/4a2fzO3v2tzXuEpweD9P5lK5pPcieNT/IxtLmWQvb969WHkJ7jLsBMh8fz7jRymlvkyPMBq6ej6m/sV0ESNsjHCrF7/EzoOt6L0c3Wu0TGSIstrYYXtl3AXx/OZQHaYTKFJR/0n5NxaZx74j9S/z9gwel2TPjP6d3Sc2PCWtjfBfC3PJ/keRyuVwul8vlcrlcLpfL5fqQ/Ickl8vlcrlcLpfL5XK5XC7Xh+Q/JLlcLpfL5XK5XC6Xy+VyuT6kfjImBDkQyndkfqnybhfk3Q73lvOHvODF8vCnI5IDD2su4uEu5d49HFd4xc0W+XgV1o5EVsxpWHMcf0d++PRtzTFkbu+sHHXkiCofnUiA8dbyRpEfGXMRma5ouas5c8ly/WEX5Q6Sp6IceTIzlKv+fkpAi/FkuZLvSKRUjnefGt2It9FWcnEh5UQzd1Z9a9gP+7zZp7zRreXN77dwBLWTufk2NmQRxKZjLMWxIJ9A35NpNBqH4QIW0PW6fp6Q460+Md+4sa9b5Por/5VtEW+K3CmJ3IuaL9Y00b7flweuxNVsNIJPEPNkYdMs115teV2fIZNMfvz1n5MPPW5WiMh/bMu+ZbY3m2+Ra13jfAzW/rdT4otEPhnz9eVPsIV4NW0lZzcDI7TffRcSD2YEa0LslzaFjRivejCDIvMNdex+t9gEjpC6OYEpo/krfs3aEXHeMH8tZjKWiK/EnHHxgzav6dnxqP6QC2Nz8CXdN9xZm8D9EeOnO1WuwS5qF9lH0bWZz11hKcn2qp/fZ/EvsqjIwFKeNtpinycwiKSMaSTWE/lAs+pN12q8ppgLTluRFWTqK9wkiYykyC7BXBg/2VpB/oSxDS6fSx/nOii7LVw+YmwHG+fV8vqJLLC+Xz6la/LTCSxDldedwCB6N78n687Kpk+e/2rcAfIsxK0hy2uocE3GMhaL1bJg7s8W98hKGC0mzm8YdPue8zJ+y2lpayw5PRtjD/12TjClv7/fhhBC+HZKA3wyNs71HXwC69vmDoy4VuMG/oS1oceaPFjfGGPFf2L7bnZwUFNk51UYRFTtmtT9CYOjprOBx+apnAxLjQvI9dfa0pLdaPuHzSE5b+Qlwccjw6HCEiGbRL69wDd+f1mD+9cmje9wWeuYr2AuGbOvGq/InrG1tgWraL61dRDjK+4JW8xnooTLAUcj7i3BpAhxrUDsjGsK1tD3krEnFsu0x15l/q6uEMK8M+bmkha9ZV9yZiYB0sg6sTg0g5mhebtgf6K9aMZnsS4tGI9WPsHxqI5RDbimhuKzudWy497RPqB9rdljAgNGPJ+MeXi/fr9kzJHSNzQtFFdDCGG0dyFycKqS35H/JLuR02hzhfvYWfvrO/RD8xz7sEb2II5Le+UNLtqcaRCOGvGzsKakTRLmh9mtAydPfW/oG2M5hvK7hetMhQEjTo64SCyb5S72nhLAH5sVa3YVH6rENe7X4jsdWbj7Mk61Zj/OX7GZOM/1bL9L/dD8mBDX4j4HYxRt9VYydGrvfrxPvsa1NvUd18STumf7ynpH86H9bXKY5V9X2898HzTWcYs5rZbO4LfFd2EOh2xAnvInwekqc4v+ZZuk9j61r79ZP3M91J52+R0xUWMN3xDnknukxfZQW+wPxJU7v6byIr8Kzbvoe+5f5BMPqbzx3eYl9002B8jni8g5zg89Qx+PxkdcM5b0cp/e7RsxWuF/c4U9rTrIrPJ/keRyuVwul8vlcrlcLpfL5fqQ/Ickl8vlcrlcLpfL5XK5XC7Xh+Q/JLlcLpfL5XK5XC6Xy+VyuT6kXuwFsoXEd2BO9lLib1KOHNPxLE+V+a+fvryFEEL4+eYtXjv2a24eWSznac0NfL2mXMPXy5q7Tc6MeAJkTdQ4GsqjbSr8GnGR1ofCH963fUS+vqWRk2ui5itnfb1o18C4CMasIL9juln7OyCnuH9crzH/WiyMpemKa7S9uCstkEbioxCZ0JTonGi3pUu2Px3Xh84wlTguma30PX6WjD6EHPTXgxLnUbHyXit5yy15V8pNfUZe+l5trowH/dnad31A3m0lDT8yTJj2LVtV2pfloMsuU2mXjNslBgLGYGvfZ1VUfKg7l01J7JmUsDrvjVkF2/dva6cG5G7Lpmfmm4uFtqXDaIKkS60xvNpK37I5OOd/Qwhh+2RtBv+E3KLUFiu3L7+j4vzgz+K14eor3ymVGd0VG2lGzr3uA7IgsozYDzF+RpQnuwz3aJ61uSNjwxoRc8JDADsA8WBSuWjLqzUT19SujCNUYRHU7Kw8cl6TL84woOIZ45rGnwyn78tY/8P+gOtUiyWR2Yc5E22OsRQfquV9XdmPUdwpMog2lWuKieSGvKwXsxAqW+K+Sb6DvP7NV4v3n5HTLk4AmRn2kdxCxV0yPcS9qK3NVOwH7put0cNtWW/GHbCHyG3ojNXWvYOLcGP8GLASOmOiKM8+hBCavuQ6DOIwZBy1sm/y7Q4stLkSN6T3IU3Md2MBPf12m25466088GhsHR+fwXKwa1xXR1vLzuBKiEHQ/5oaPVrXTn9ND79cNLnSo+K4zOTgDNozYIxsjcr2IGYrstU0lhk/S6iiN6yhd8a5RByK8xxzpq+sPZoXrONi5ZHnqIeykGxsiIy9JZ4jrrV2bUJx16/rwt+CI6n9FzEatT2SWJUThi1yXuialf1B5NaAmSGbkxcxaR1kY8TzoRGMP0bsVWtzisw0cd4axKa2wheJcTLrh93APZKxPkOFnUIuauS7vSVHaI2p0ZD1ZPGAJM1Fe2/Wa4sPOVtN8SH5c1M2LzNg3IMibmi/PjyUbDr6Syyb+7WlbHNrc0XcuhDSuwP5e+JJZWxEcvRMs+3RG8REscMazPNgMWluu+K+sOMCZ6wi8r3M9tkeTvORc2ZQjMUYWRsarj1qH+robc4wDqm/5MDG/SQZWFpf8N6z/Wbz/JDum2xN4ZzpjJs03WMy1DhWYg/uy/jcfUv+PP20/qXt49pDHxeHhu9C1jeuH3HOd+XYZ9xWzYUe42Frzky/0WcWJ5Yw1uTJeE3hCLuIp0O+k43bsuH7Zfk+LcbPzDmoWIyAJf4SOUyttZncvcjTA4N32ep7goSM1wROnopmjI1lcIzUFr6nmK3Ob5isij9kRsoufH2z7+cOvmHtGsnis7myPaZN8FX1ZeNml8imu4oZCd/QnOErWIVRXVUca8xps8t8xoJ+LW2/mB/MATHH7MLfN7Qv5d7L/0WSy+VyuVwul8vlcrlcLpfrQ/Ifklwul8vlcrlcLpfL5XK5XB+S/5DkcrlcLpfL5XK5XC6Xy+X6kPyHJJfL5XK5XC6Xy+VyuVwu14fUR+ApAJY1UGMN2hzBj0fAQw0GdbhLBNUvx/cQQgjbLt33aiDM58s+XjtdVprW5ZzAWMs/VqJTBrG7Ha0uEnwNfJZBFJuiH51B7kZAuiKUG5wywVKHO8BDDZjdnwCe6nV/Kk+gbEGFQwhhPKgytM8AffOOwD8rI3HJkwhqFIONzL73vE0hACILEmJnnwnm1fftO65dBCtP16aDXasAu6tgMfbX7JaNpX2mTQXSJaAvjiXaLF/s8GyEs9JP5eMA6kVga8ZaFOEadQgazmtzeW0xIBv9QGVzznQVsHaERRO0ei3rmGyqEGIsgHMNmEhQfA1UFyF7NYBbU/YjAKIoYOtwB0jcWJZ3vc/rCiH5J8HGsgd9LY0bmjL98X0ZzFrAWPRbnxkPNNYd4PbRt5vSodk3QfM6AvQFBIavySca0PMaOzyA83JpBUbFNRtXtnnzWwkivny2RwGulk153+Ef698Yj0Id3i31iAeTPUPA4VQD+AosizgUxwPMwwjrJSB8Vz4bbUSXrM1BmQ9rGX0iPmv9veI7wYQ5t+a7si2R/LiFAxqAcfkpGV+hZEO45GdbPxibrNHTO2D5gsN+w7WbtdHLPWz/WlLoZZfhM9qn9flECr75FdeUgf9h7TOgZwZFbvO/ISTY63CDixtSf+0ZA54SwB3jCxvTCGSaLile0F+GO7sPc1Ug09MA++mwDgRerdMZhNx8OwNXVyDGgnKHZ0A3p9J+mj/jawn63f1WHuRBVcH4rfYqFQB3BYx/+Hu6TwB9rnn7f7TFs9LmubzGtVFjM+1Tgee4oUTfBG3ecc4YxJ3gYMB3YxvsEIHhEy4OJRhaNshA02251tYOYNFej/D4uH95J3S9zcoIIUHXawdMtPRxnVfBPYjNR0GFQwhhPpZzZrKAQeCzyuPeJ/Wnsm86/hjgWztUZLkv99lxCYOvx4M8ML6Nmop5OZ1WWxI0rUN5MhC25vm+bDNBzhrCDmDeeFDGvrRjFl8EVK70rQFIVxBoQvBloxn9bUNbXBNwuTmn9rUnHV5QwvKzAzW0l+KQW5+WoZwntIvegZaBPm73jaW/8P1t0VyuxLJszuxK0LT8lActxTXgAgPq41TuwzJ4cmVOx8N+AHeO48YDgMzvsp2t1jzOMZke4yYYd/sGv1LRFbfK97YCNKOKiw66SbGkk10wlPFwFza6AsvX2LQ8yON23XvM8KGrxpBtVj8x36bb6fum4LCBknh/fUmLlfYFjBEam+0hBWgdwjHTh7TnqYDJOY9q62psEjZTja0lE+ZH28mx8JDmI8Ha8aAgxM43O1AIS5TeIefHZIPrrcor3w24b1LAyubgIMg3rH+wgyh4oIbZdDmiH6qD9eqADszBCPduGXOs3gsX9CUrI4QUq5tyiDIAt/+LJJfL5XK5XC6Xy+VyuVwu14fkPyS5XC6Xy+VyuVwul8vlcrk+JP8hyeVyuVwul8vlcrlcLpfL9SH1veWgM19wsjw8MmWUYzgzh9W+3t4nSEjfr/l9f7l/TdfaNV/vH2+38drTy5q0O54BMVG+HnLlxZrIct9f1lzTjM1kzIoJScXKmWWO5fBg+YfgN4iNk7GKmu/+hsQEOP9CNpMxJJgH/bQ+dPkUCpH5II4Kc2xr9SpnfLxJ19oK52ip/Cwofgs5M/HZhKdKzBSwU2psCHJtCrHNGhpiB1RvhQdBlk3iHZR2IZtJ7SLbSqwCslh0X+a7Sy1vtGQqdFZ2Zj+7RntfH5SoXdZB/oQYNhsysJSnXbEt+yG7ZbbSs+ybOCl3YJyJ6cLcbfO/LM9dfAWa/rA2bNmlDl+2ZdJsyvUvr4lDsba/4vexQ+mjcpM55uKOcTzOP3/XdhaHHOo4v5kbLfYC8pZn61vDODSXdYzGtqCfqr/jTbpP/ZzJ1bEcZtnijyTWA/kY4iHl7K317/UuXZP9GHPOP6lNqGNbXlM8IPsjMY3IetK1CquDPDObA8NDena6W/2qBSel7UsIQcR3II4r577GcuB9zaUSFBXXMOa9xW/ON9ljJivQuCHbm+SA//TfVpjMT/sElLrt14l+6JJRdxY4Jjjgy7AG4cdrCrxP1/Xa/C9gsUzrQDAffteVAWNjgIw9vmvtGa3DIYRwtfLexxRMLga8er8mI4zKpUdQfJ7WhYhcjrguMAxN5Xxr1YZs2Iz9cYP+GFODc783ftUAH4/lwi5iMZLJ+PVtdcbmlQ6teA/GgFgJRAeIFYiY02tdpQ3kL4jPV2O2cC+1eV0/k6GoOU0mmdaNEVwE2Xn3mK4Nt2Xc1bylrbQXyPiGYjKib2r/Nm3hYjyYuZ5rqcjGyOI95r7YQyP2XGJpdoiJ4nHNr8mA558EA+Kiov1ahXNZYedxPc/2ALFeY6f8kowQH7mAkSRuDX3XvmZs1xogblgIictCbpIYXdx36lnuaSK/g/0Qdw+2j/1FH+V3Lday2ey8YA1fIi+xAoHhnLaxaW9SXBtt/W033JzZoxP2xS82p7FezsYDmclTU/jB2t3avJ0/JcOolKUt/SBThYsV+wR/bo2JkjEejTWXMZLk+Nk+xz7swRuysezhB+Od8WjwvqBnZ4xHfLcBK2axMeSzst/4GQ5jPtZdSltkjEf7zPVXDLtwLtlv5Ai11ifyAzXPuddLmwY0Ir5XlMyljGdma3cHVlGcqxvYL35gHLe9GblrFRZP5Nagv5oXdBf5EPdhmtN6pwwhhFb7jRpjFEzDuDSOpU9me3nZvF2K+7JuiLU4pvZt79Z4NpxSvcubxdbb5C+94gGriHsoxCb5DtlMxoDsOuzvl9LvxPiZ3rA4WqzJGT/GJeJ+XLwflKu9B+3XHMp5OYrNlcXsigFVBllPo8UcsgfFSKKPm6MsfA9o8+9CADcJMaLfl3u48bQpn1UMw342xj3+DqI1AHE3Mo9oP5WH2JQ4tdgXG/uU66aGi+uv/4skl8vlcrlcLpfL5XK5XC7Xh+Q/JLlcLpfL5XK5XC6Xy+VyuT4k/yHJ5XK5XC6Xy+VyuVwul8v1IfkPSS6Xy+VyuVwul8vlcrlcrg+pF1yUkMcIjQRkqjc48NInENPVPrcAbT0cV7IrgVt/f1mJj8/fQIt+FxU5XUqgwQpkmUBlgzxlgDSDzoUpAaA6g1pOgKUugiKijvZk5YDB1RsYkCC/CNHENX3fZuA4azN5XGZLgm8TZA/XrGgCqZdjWZ5gm4LnZnUAnKk6CL/UZ8J1I1SXbRZ0joDNN4GSy2fpQxq36z3uE2Dz3BQ3Em66MUjgeASYN7aZILCyH/ppdAQ0XKCwbDz2gqoS1FjWESGKFYYjgc/bZ0HJAEhTn+jOEU6crmm86AfyNfYt+UYJCM/mkXy7rVH50kcBCQW4CyEBE4cD6IiCycEunYEpZwAYI8yQnEF9XfnJmrYXeJ6Q6lmcQXIkNc8IBrSyCbTVWM7bCkSb/mKxRODErF2IYRH+h34sBtte0JjmXUBR3CegN2HRgtftcWMFHK36MpC4URHppzE2kd1otsrg9vY9Ab41ML7mFoH8mufZwQdB5ZUwPjIXJ7NVAFB5f7s6/m4D8GNXAhhj/ShQ68tMIKFdG8bkz1eD5RLgG8cXgU0wVfqabJqxI83Hf7pPtPx/vVmpyb/sXuK1+34N9HtM4E1GOV417NaKzyA0XyyQDyCd1wCWAkyzXF3rMNHbii1V9og6BrPHCQ5zmtZ2/fvbQ7z28nV1HoJb7bbMx5f3tR/dXbKBANwZYFPQa4yl5rIA2yGkmEkAvKCbA8fSymO/x2+rI29fCDtWufAr29Nsn1FvBUava7UDKzg/BNauHUTBwzg033ighsrheh5jHfxUBzhkh23Y9x3thzlflIc6xCi/VkDd3L9ov8HxSAWzXpvThN0qrl3TwxHWTPj+o60znOebclGJe8dKDOXBFpdDue53AjlvOT9LSHUErRIyanuZpcPao6/ZXbuvwxo13JbrwvabrYPYv8TlCJxaVdI/p/YJDL3AzrV1QWtZJYxnh3EIuDx3sIEdvJHth6yBC+agwNCEDuvgnJb7v0iHxRy0PUULEOx8U8ZOvUPQ77Wnad8Bi64ctqKx5MEM0W48oEPX4H+dAZcZVsdPU9GPDPSsa1bfzHU/DjD6obABuG7/bHuLsWwzAc0Rk4z7BKzmPieWwXGLUGm8W2mIYJfjv9ta8U+o12JxPzJAl/ZTW7N4ZbdtntAWvZah3s1Tk3+JZzkvtZdaCMG3NhCCv1QOfIlgdR6OUpksKm8haFqQb/pVBc4uKDfXis4OKrh+hq+fdF855gPjaYw5uE/xrLKtXAD9nxQ7AQOPsHfu5S0eNA9psegq+7XxbHuusfR/zrfeoNNdn/qr4ZhfUrDrn3TwRrmXDwDKjxu7j++r8mO+M2nu88CgQxlf5E+E1kcf45ZKsQbvQo3FCMbixmJYw98PKnsfzZnmLY2H5gWB/NrDNy/4oUbl3pYA7u4bYqJiA9aj8dbGEnsL7Xl2v6f7Lp/1rov7iha4XC6Xy+VyuVwul8vlcrlcFfkPSS6Xy+VyuVwul8vlcrlcrg/Jf0hyuVwul8vlcrlcLpfL5XJ9SL1y/ZiTrbzNhal3yJuL91nO4gjGynk0vsM5QWDentbCm+dUoHJ2mde6eSnZOJFrgnxffV4OyEm0nM8WOcUZVyT2TXmtyFO0z1vkEContmHuduTWlDykeYM8WcvVFLuA/RyQsKoc4RkMp94YRNuE24h1kMcgPsHmNV27PuT3h5DGcoPyxC0if0IpxzNMoH4ytzzEfOnwQynPkkwF8bWICol5lpX8cLKUWrGPyE06WPvAgInsCPKu3u0+tHkStwa5qVvLvx7uUcd+vUbOgngSTNMWMyPLG7W2TPDxyNuAP6tscmsi7wo+FLk1h6a4L8ubF/eCLAK1NUvsL/lK8qfxDvwJMcQ25Xxa4PeRCQAOzmJ8lPkM46te5KDPlmtdy9efz/y9e/1M35DN2bXWfGxk3rxi3efUPrV5qfQttKl9o7hnZHDId5BfPZtfMRe8kY2YBq3+TuBPWK74PJAxYH9vwXCyZ8axbAv9IPKhaALxBsiV6Mv2xdRpMgTEGtuk/oqvtZDno7gGu/TmE/tDyq831FM4X9OkUa59Ja0/y8PX55n+ou/wTG9tncB7mU6rLzJHfrxfbdC/wu/FTEMe+WR5/7su+ZBYPG8IvGIQ1bhIZPfsLEjwPl3bYdGtMZJimyr/P2jI2EddUUZkKVXacugSDEiMpOchLT41f47GxzzS+JKD0+/Xshs8G+cKmR7n0nf1mYw4sbdGzKNhWusjNymIR8gwZHse8oE2irdEmJg5uIYun4omp/uwVgy3dn9X3pdx1Nr8L9vawoXYVklrBBlO6tsAv2e7Yh029WprKF139221+fkL4pp935M5ZxKvJ4TETlnAvxPDpAUPqTemx5DxRdQh7v+0v6ITqT9gH51LloPiY3/mPtFiMZkeMZ6WfRPLJITE3xRbcO2UMezwbP9S7n00RtyLXj/l/QkBaxP3NK/lnFffuAb0p3IPp1gXKtgh2lnc0QY8lfkqDgkaI5bHEQUqjoNjGssgszQixEp+UXPl2mM+BF6OeFMZ+xJ731iH1mTYYOpKPpU+k5vTDhXWSfQ1VmJ/K0wj7tEnjXnPyV+yeyLHBfFK+3HuqVuLdWRLKkaQwyQ7c9+pi9MVfRNzqS/HiP53/ovdx1emTcnoSn1LlzbGE814mNbP8a7ch22/lnu9jFsjviH2yo3NxxHxT8tktp5Xromb2b6VMYJ7zO5d75LlXOzwrPwu41NVlvPB5mXG7tE8A28r8q6avrwP7zOzGGJkPZnfkb0V5wD7Zu/q9CHZfH5Mi4VM3uI9QPurZsOJqTpge+0LYNTWfCdD3YkjxD2r/I6minzSCm8I8T5yXSvxb+EeRPGF97Vl3IjjUeFoLeQm6beHSxq30fobOc0hRNYS52BcpzHksWxOGbW/sm+fOJZmDzH5QghhMj4j69X+he+m8f2ScTK4XC6Xy+VyuVwul8vlcrlcH5D/kORyuVwul8vlcrlcLpfL5fqQ/Ickl8vlcrlcLpfL5XK5XC7Xh+Q/JLlcLpfL5XK5XC6Xy+VyuT6kXgDJ6+d0cRLAl1Bk42sRkLYYeGq+JFDUy7LS5CYA+pong2+R83tvID9AqwaDQBPwJbjV1BOgVXakNVAdoYIRGs6fywxGRSi34FIEWQlglQGzBe1DeREolsEHDb61A7jQTDQRNCioVca/MyAXr1l9PSGeN2X7alI5gmaxPl5LgD7cpuYRfmltIfB082rQPgDbt4/2LIfSgHsEIgqmzg6rn5m/CFJIaKTZrwfY7mr+SXieAN0EA0aYKuysOuhDGqMN63hQPzgXQqHG4HRss/rbfU2NuXyx7+B/TQXcpjlI2y+b8j5B0KZDrZCmuI9Ax/NfDMY3lpOMEMX5y+owLfz+5395XP/eJEf9snsPIeQA39Ym1wCjXa3z72MC+b0O6+eXS3LKq+CSgOvqc4e2bAxcfQ9g9rY3sDHotdtu/UwA8o9Ugx6PgPruDcKscv+obNlgC2hzb4PO9k1W3wgKvmx1ntLAvY+rI7xe0+Q6DZuifrXrsEnU3qPRco+g5u5tvPjsaOPFMfp2XifN2zVdm+y+y5Dat9+u5Q0j1go7hCEA3hhqwyBOI2Os2aUpL4UAyKN8tr9NfeuO6+cJ61Z4M1Aj1zxrfgZit3VjwHj8x+saEF6uFdJrRfSNvdm85i/btkbDTZLfaexDSLann052X80P6Ws35hO3mW+sC8wefvrwaZ3T3wDS3f1tbcP1DiB7+5oAy9Gg+x0gy8vb+izhumo+Y1NjzcpgmhafT5fkQ7u+tFtzv9p5Ibhfh0nA/aZKHO+sXh1SEUII/bv1Z1/enwGxdZ5Bti8p1/hWBwaQx/oDqG+2nkvk98p3KwdCEMqtNtAG8TvY4vW/RSpyat9ctm8wWO5CPzDAaw9I/2yGJnxfMXvEvBTglWNeA47H/VXlgJUMtm1N2D6la5PmNB7V2j5jrW2MHp+Nm7WPYG0disKDQUYbrwa2j7GmK69le5VKTJRPdu/p2vVzuZ9UswgnjvBzQHhroO5Zh9pg3W8tTmZ7YG3hGJ9tfDOgvM0B7u/j3hLgVrWBcGK1lZBvjc32sQQb64CV9UZbQwFy1kEQNG2EWQOcHv0pW2h0sA+fNbtw3OLcxyXrb/eSAltco3jQgw4LwftWPLQFDij78mCVCDMnSFywbfiB7JsdIKIDTrC35TOxDvs+8xd1ifND4H7OXx1igXIVTwnp1xJ7+bncZxMaXpsz8oOOUH0deHRHALLKSOVFGPiBc9/K5XuZDuyB79bg9vLTDGA+lvZT3zL/u7XOVeIu33Hmzj5z79MLGp4ME+cy33F0KAph1lNlzMdyfoy7ddCnBfuXXbn+qjbtvUIIYTGfmPFbgQ48oE3Hhylve8B48JrK4fp2Y89yXY2+iD5eysO6dPBVtibH2InYfmfvEDyU4F4nLaGOc2nTxmLhsilPdeC+afjJ5iqg643ZuQW4fx4rG5h3bQbgL9b+0z+Vi0t2kNGu/M1DW0b6iP+LJJfL5XK5XC6Xy+VyuVwu14fkPyS5XC6Xy+VyuVwul8vlcrk+JP8hyeVyuVwul8vlcrlcLpfL9SH1yo1vkKKnfNr+lK6JxTMgzziyI95Svu/0YjnjSJOM+XVjJaeO/B3lkDIn0XICl33JvahxXJjPKHYOc60by5ll7rsSOJnDqvzTDvn4Yh6RoxGfwE9yyhUmi0B9Yh3Ky+V9yh++fkKf7BrHI/J8yDZYvvsbku2zNjeVa8ztVr1zeZ+0f0q2FzuCaeTiCE3EhkTWSbqkvHTaYLwt8zYjWwpfaYwyDtO15APJD8YdE/atSfC/2Z7JeEf2yEQ72/cZ08jKy3LQLce6RZ72bJwI5mmrzRyD3e/KtU7XYhvoa2IH3CUDTmdBzuBrl5JZEHP4K3YJyD3WHOWz28Na3z99fo7X/u32WwghhJ93r/HaxpxnRqMvxvZpYeiNFX6DCfdpa3P1CPuZ887Ib9Y1MmDEG9oBXqHPO/BeWhtgPtsxAJmmH/zmXuMmfZS5VKurJtY/mqNcwEg6maOcpuQwZ/v8Z+3bml16DLBstIX9OnOOn7dpfP+6X9twwWR4HVZIyOM1AWR+fVshIc/fjqkNv68OzZxsDWt3TpfEMxnTozHuMTaJszDcwlYWJ0fkji+WU94gH747VZgAmwrHwNaS319u0n2Wcz/8FxpY4TppDatyEcAxmG5Huw8+Z/N8gVvF9eM9PRvXcU5fizXkDsQ1j1yE/WrM7pDG/O5+XXQeDmlAJvFPYL8Yn8FNWozXkDGNzD3HNwQ23TcgAIrFBwZR5GNgTY4MwHPyv6/TOg4Nuytbwi7yMa5RP2LU8Fr0xaa8j1O/ExcQjEfZSgyGrA0cX62/2JvJn8lklB+Qoah6G6xb+zU8h8sD6qi0WazDDvuNucZXEpcI9ouhpi3j33jBgqk506drGq8ZoKppV5Yzb6y/iBGjmC0ZCyNvJxuYtTnOwVRve9FetLI/ZXlyqwobh76hdboFTy/Grgq7gvsS7V84V7UvaDLfFd+mZBDx2c3T+h/cY4r/me2vLK5ETksIYbGys5hjX09b9G2uMOysWd1r+Wy2D7M42YIHoh6RjZP4XktxjWyh/lXzA/NtLJlGkcsGn4vzA23Z2paH+7/IQ6W7ClUE1o7mT8ZjNZGr0ym2X8q1Yrwt9wy8T/GCbL9oqwrGj2y62p66xv+s6fifYsOma/JT9k22It9VzDfulfUpYwtV3mfEaL1+ApdIfCDymqxvup/tyzm1dolx/KXN70cDySqKbXqBTW3dvfbleGR7n8o6s/ndGERg6+pzd8L8eBD8DQNXmfvbb12lPLvhBguN9gqIJZqX2Z5GtsJvANpHND3bYvYjhFB1jKXxaxw17pFq7+yL7ZsWcgvbMp5GZhRju35TwDW9b22wrsY1he9MYkyhv+rldMJEl80Zw8Sdwp5rtn3Q5tfkbOMns2n2rNmU+0TtyQ6YINEnsAduy7b0zxYTYdOuwp6Wz/K3Ef8XSS6Xy+VyuVwul8vlcrlcrg/Jf0hyuVwul8vlcrlcLpfL5XJ9SP5DksvlcrlcLpfL5XK5XC6X60PyH5JcLpfL5XK5XC6Xy+VyuVwfUi94GMFnEaIIaFWEPFICNg2AlgoeRuhcrzqa4r7rQwlSI3BtqUEADZaVwQe3FbCniYCqpsa2tWcyyJTB0kaCuwSsw30RsNkCSratwDQPFUB4BT6doNK4z66Nt6hWkEdAsCJcjUDvCOBmvUt5aSwhZxF8+17+3jje4D/asm/DfQV+qToI3vuuPyGEENT+HYBhJxtzAgQ3Ir0Brntfgt4GQfimEuqWsREFNyUw1uxx/hfA3wQ0I8x6EsSThD6z8wbPatwAvhUMdwE07bSVc6DNgqYB9CZY219+eonXDtuV6Hi6Jljb82l15Mtboq/KRuSiqn0zxrLbrjY97BNp9V8eVgLyv918i9c+bVbaMcHav15Xp328JhDx67C2YZgA3TRb7vsEndt3JQS6BrFuq5O61GQOTUi1nv0zOHYNWF2/b+37AIceKyT71jyP0PBh7j5Ul57hfVejd46AuZ6tn1fY+WrX+OxinxsCxy2eHfo05kf7fLtJi4Vg3DP6O1fs/Pa+Ejjbx+STAlISnBkhshUoPNcofZ4rsFTCmMU4Xl6wRl0FW0z3RQgqYJoaNrqG5vkVcOfZytsA1hsBsFiPGoPMzoS5itMIAOjmeW3EeAQ8dKsxQpsN8knY5+739W92WMP0x/VSy7D2aQFIV8zQGX51NVAt11rByhvcN9raXjtgIlsHN+VaobEkuFXjSlBoY7F1AcSz3Rt0k3sBxXusH4I283+nbR+t7Vjf5NqEWV9+KtuiPU0Gm92qLm5g7H74s/ZXhFnLHhlcXOsH4N16ZiHAV0sjxtlCcRVyWzuMgwd5LOWUKeoPIUGO267cRyw8WEV7AYK19ZnxT3tC7B01tyLgOCTbjwAbD3ZoB+eHnq1Bh+dt2eYMpq5LKK9/XRuYj5uBxO8rh1hASyVGxDCaUaqbsg4bL+7Lda0lVN+aQN8VlDibb135bDxsgDBh+cENHMbGkvD9eIgKn9VcIay3QjbODgVQeVY24cSae5lv7DTm6VmBrRccIKK5QpD99/0JATbCcGjOsLy5AoVXuziPVF9m53iwAMqYyzFXHM3eccxuPQ6L0N6bMad2sI/mIw+mUVzZ/yfsbFu3LK4ppqMp+p6uG9fBpbwvB96X/dD6R3/QaxbfF3QAVAvfWLR2IuaoXRnoXC4JPxBkmb4mP+AYxfHg/sUWaGyR0ns0gc/WJx4spPbzUKVY7q70tbFDxfauxDWve7VDbSoHAGUHS5m/T9yr6B2D1+w+Hnyl9Tcwnr7bPoLTWMYntP7XEiQ+frKDRlivxZDsvXtTtk9rRYO1Z7Z3ObwixkOV2BbFpAWnmXT2zskYoX3aeFvuLahGMY7tU7zAOtPYXmvusZFV1xhTIogdc1r7yWPyg1jviQeXqC1ooPZh8EnBswesoYoN2WEIMZ7Bn4PL5XK5XC6Xy+VyuVwul8v1AfkPSS6Xy+VyuVwul8vlcrlcrg/Jf0hyuVwul8vlcrlcLpfL5XJ9SL1yQ6dKzniWh2r53jGvO4TQKg+P6f/KZ0R+rq5lufnK4wXvRbma8xE5hMqPZdq35e1tvqU8QOXmZ3nQlZT7mEc5M1/V7kNa4XBT5uxGfhDzFI1nET4jKft2NeoIRsgS8zfJvSgZOt1xfXYHHs1uu14jx6XGUdH3ZJ1sLKm4A8NJ39e4MOTWvF221g8wq6zeHnmoXVfWIQZMUzYzIA01TEv5W+bOODm32+Qw4rP0qEN8FjJ0PsqP0ecrICv8PrXVcmKX0gZT5X5K9th2Kcl2a3nNtTZTfYXd01bGTXb+vH2P175sVyBCh6TYy7L6Kbk14vi8jWnyv9pncnVuN6tvP2xS8rZ4SBskiL9aEPn30+d47X8+fwohhPD7U4KOTN+UJF/moC8Pye+3N0PZ3+jPFSZB5uPr3007FdfopzXV5sWPuEVL5bsBviE/od/PFd8ZjD0z1zhv6K++rVGdyBxROTMYduL5NODQdaf1c/+e6r38ZHZjHL81RtLtOV7b9Ot9LVoj3zmdExzi+rx+3j+So7H+JRNAplwqHAMyPSYLu3OFoZMxW45lebOVs31K16L/sd7v2rQ+ZOsgx8jWQeb6qw1ZbrmYIzU+EertX+1ai/x18TbYD41NxqQoy04MO3TjWet0uiYmRWarV4sbm9Ro+ftCnxSSgpwPs1WL9W0xX2yOqTFLhIQgHlh1tL3aOn5Oz+5u10HnnNV6xHWrsfZ3b6nDYmuQ3Rg5W2RcGIeGthWvgXyCyLFC7JRPZuxBzcuOnAX7gz3I5nn9e03hNHIM6EKdTUfOD7FzeG0m19CkOUDW2MbKu3xB88yUWAKiXbT3CiHxMzhl4ly5lNyGiXzNTRnZtHck0yP2h5wP7RMRVvVMi7gWmVWHyhpwgFXF+2G9Yh7CWJorI3xjY/N32sOfrZ/zttIPsmwqzVJ8HDB+QgnSX8T/4lhqqcuZlvaHfh95YWSEmJ9mzK+ygd25XMsm28NPYMA0xiThHl3rS3sp1wUyaq6f5qItGt/xHvtijTnaFFljiC+j1VtjnFGR5cY4FBld6If2ZvDnuOcnf0dcpwlzpsnvZ9+4zsh3c55Zk5WRteVS2iDjsdocWPAOplB8/YwYJn5gZQ5m7KiHcp3R+pe9D8p30Ra9j/HZaD9icOz7AX4lf57JItXXfB+0OjLGnrhi4GKpv9wfXB/s/grjNivPNnnDPd41bkq7aQ6QP1vDdMoeGTdMtuTcF/Mm43aVg67+Zvwdc46sb/o8lf1tyBaST0zl3AlgzbZ368I1I76MN13WpkyIM3EO7DMY1fodNtXiDS0JxxoatQ/MoMjqRbyPDDHwITVG5BEq/rSwQWSN7WFn48pyPILah3oVkxbMVfGfpvs0GVpjYM0nbM6smIb8RfX3jYuA/cVeJfIK0Y+4F6ww2Bj/ZD+uVf4vklwul8vlcrlcLpfL5XK5XB+S/5DkcrlcLpfL5XK5XC6Xy+X6kPyHJJfL5XK5XC6Xy+VyuVwu14fkPyS5XC6Xy+VyuVwul8vlcrk+pF7wTgI2I/yqxlwCoE9wM4KnBGDKIKMG9jp/AizLwFltD0Cagam2uDaNa9kd4M7DeW0s4VYR1A0gnGBymyeAbwVGA58qATYBHxTI71BC8bo3lHcnelkJJSNMTkBPAv2GO8G707X9YYWS3R8S7XNrZMUdoM2CThNyW4Ux/wCsXXuWUOH5tgRX/0j/O/fV2ifQ9L5L1NzeoMm7NtlgE4HUgHxbOV2lv1OlfVl/K+DvqQLv1n2EZNfKVhtyO5ewykuEgSdAWg0aXmufvh/wna4d4S+37UpQnXv4rj0zbFO9g9E7a2M543fn07SSH/9jSGS7/3y7X699+xSvXV/X+5rnFGBamyv9G/zA3H16SzTNcWfPcijtM6GlAjVm81dQP5hMwEfCPiNkEfM3QvZ25VgRNBgBsAR/qzyw7uLwsx8CF46VOVOjaDc//l6wWYILO10DjK+3+gi4lkv2idceWoNyD7fp2mQA0+fHRJaNsZB2trEhIHL/un7ePpZtP3wFgPFg/gw4rICy2dSpmE2wwI5Mxq3KQBw3V8xguAKyAtQt0O90g4rlGxkFuvRnTccMPq0i4KcCJRN6ff2Uf7c20NpERqZAjYS0mq02LyzP5ge6ESGe6EZco9C+4c7KeE1jLvhlAxvoIw+xCC+roQk21lzOxsN8cvOCeu/LSRNh1ljjI+wdQWKKIM4KKBS+ofq497EzCXIQrKCWAMFGfyfosuaTCmcM3UsZmwTRJjxZMGtK8wJnCEQo7EjIaNyHldeyZURNmcpr9D8dxsI64u20lcWIqU1GjfGHQFvb1xGirb1emOjQasuP9xYC2mZQX/kxHtWBAlceLnNbob1q/8r4rLYy3Fts4Bp1NTir4kcIiF0EL2vOc1JrLUPslM2zOj7Z3gJnvNTg+5tnQb7RjVe1D8/a9+NdGSdZr9Yr7oFjnDyyH3kZ60OCMZf7bNpK/ZgJ6tacxvzQIRETDueJ7wHYH2jMs3Bg49BV3lOycZNJ6X5xvSwhvJtn7iPWv3Gfj/bxoIIIXMa1+F5W+V/99PHtt3J84/tMZU5TqneGDQRsn/je05bvLhyHeM3iGkHOcfwZnwUsho/LFzOA76Axp13MdzGP1Hf5Qwgp7rEfsVw8G9uwlN9r7Qshrc+MV7IHfUPf63CqEFIcanmftp20lebHRLuUfi+IegatHysDUgElx37WDqsBaHq6MVg0fCgepLUt5zmhzXHuw09nxXbC43eV3w8GHUyDub8XuBoA7vM6IA3h/9qvv/DkkrWc/gXvR/Z1W3HizNeWMk5edUgYD8/YVmDlAo3DBnqf4ME5An5nkG8b//5z+g1Av39cub9STES98f2EXVMbAByXXejPcS0jOL2yX4tTGbf5v0hyuVwul8vlcrlcLpfL5XJ9SP5DksvlcrlcLpfL5XK5XC6X60PyH5JcLpfL5XK5XC6Xy+VyuVwfUi8WQcbzOSnJtnyglrObfa+84J/Bt7ldP98fU87fzW5NPCT3Z65ABq7jmtB4GlLe4zgYx6VnjqgYIcgvtfzXEfmqfSVnXPl//Vu6Nh3K/FzlumZ5t6oP9XaW0zndp9vmp7X9VYzQLiWiTvPavse3BEhoDW6x3aT79sZN6gC+aCpcoOUH3KKmwiVieVuDjbSVBOsRjnCd1vGYKpwe9eePpPp6JEfr2ryUQIae7WtLPkZfKW9rPlbnSZUcnBqLKP/ecoXhr/Fa5VnWoe+v4CGdp9U3XgBukN1G8CJk3wl5slebF19uE+DmH7s1uft+myAX27bkQKhd5EnVxloMp9cxte/v7ys85+n9/9femy1JsiNperDF3SM8InI5p6q6apqcIUUoQ5F5/1fhBS/IETZ7prur6pzcYnN3W3hh+gMfEnoivavJEaGM/jfhAoNhVShglqmfFTt9etyuz88F+NJb3DpNU/6FscfZ1zBW/SwWS0nTmvfKc6etnd7CRUopaRrY71zOpRQ4Prb9yH6Acf3mzrjsPH5bZiUwHNl8zQBGQ2a0sbyL/jpcLrCPMuMC/RWLpeKfmC+cwQ1ZMzsPsdFTy6KSyLdR7PZ8U5LEpJi5pK3o80PLFuK47I33c3EYMOxv4SG1+RzXmGPlU6r5UJLGSmyelFJaLf5+vS3rSS6p4glM+lvu1fjS5eR7sB8VtoHDpHDseag4Kdtf7mWyl4qz4KTlMphP/JPXkkj7zE3O/J2WGdS/kl1hawF7XmesxfNPbedo47MYJnuMvY3VGYyIe+MLzkvJ99WYXxO5Kx4ax2yWPJBsu2AWZU7JwDZv/SSD42LsnnVHzpaNKdab6nDcdL2mtT4wR2JqrY6PoK2J+cE03Ts+oo5DW0deC2B5DXacIytL7J6uYmY4bBwxJmgusvuhXazVMUb4oruWL0J/pW7WjD0xVrAHGDui4kCYnXI+sv8G82s1XsnwpQzW9N7Of/B/Hj9LnIruhHPTcbt3xd4z3zvOS4yVncMBQ99OPxuHhHyqzONqbbzy7Us7VpPxfmhD4rx47MGKtag14DB5JnCqeuv7AkZh57CF2P6cZsNW8aTetxwrtb9inUzt+X4drC181tC8cf+1y6c/zE0aeTR5OLA+pvu2fXksh3Y+aOOa38T2WRPW8W3WiTdWOR/aLPZVNd6yP/By1K7hEWs/+yvYWmbwYq2az+Ga8exq7W0+OG86D7Mf1n7Pb/CRJI8B/Zr5fvqXpu2p8A/JANRet4Ddk9lhzvk087FSStPHuemGzh7kdWZGIHk58n/OmZDZ0q65nCukjWf2EM4lYmmtXEcn83s3ZWDE7CGbMzcCfi3ZGWrBWSo9becrPsd3t5tzIltobaem2NOuPUfIJ1fCwIj5Rh6mipsPrd1XymvV4U6Npd7FnuUqLrReH3gstImG2r5nyKxKMo1kJ6gj38tnpm+255FjdfvbfmgAd0r7fnXeaJsfCoVCoVAoFAqFQqFQKBQKtYoXSaFQKBQKhUKhUCgUCoVCoasUL5JCoVAoFAqFQqFQKBQKhUJXaVScYMX+sNjP8RlBcIrDqwKNtz+MEZ0thvr2Y4Fw/PywARtuRnCTeieO0YJXX6cSyPlqjKTTuaQpNpD8hBwzyxhMNRUxhIpXXXZtPOOCWEgxBtCUEotYQS7s76nEyK/GfxhvSn8v1taaHWAxp2jz6dGCUp9LTKLiw58ZI6rYZKR1itFkjKPFWVZxlMrGmFiLqaz4E0qrYlPbOFnFci7gVChOlnGoMh3GVoqPUQdqa1wYV90yq3KfOJeK6UQ/BotT3e1atsYwtHa4sM2Wj6wppS0O/2le2iBa5tO9ZEddXoy78lLmXGwh2q7EuFbFTn/C+H02btHrazHeRTaG4kYbo/2+QD12Nlac38kYWOdzaV9u87nMueLDdy+lEvmQCXyRHO5706axfeL4kF9z+snswOPMEGPw0nJI9Nq8B+NleRCrA/HSxiRZEf+vuGDGzYs1sfuK8vZ1GSmBrbK2a6GaXfFjyPjJPAF04yTODNpyET+B+XQNVdiYcz7Ii8vysBxaqrBxjQF5Q6qPHCb1l/nUpxk+VkySikVgc7iDHYiXxLaL38JVqTZ0iDdXHRwXAVXIwcn74BMYIcpObpLZCdka4+N2nfwijSntWW2o2DNmB9xmMl+JCA7z30tHP7n9FQ+H93JOpztLIiNJof4FZZjOsnf43cxhAgtDdrVWzAyLuR+5f9i9N8XnqPkXzpHF8JPZku0da+FkjLjO4bxNHvuD/ch7aMnW5XW0NmkD/JoYP7vb0o/ZfOza46xidXTkJwhZULE/7EwDv6E2007FX+K55Px+y7j/0vK4KruytTCBNaZ+Mm33KB5NSVN5bIvumR1OSsWL0N7Nfdr2LTIkZAcdzoZaU/tP4DB9bNkp+WyRWmkdp8S9AmtGa/Qd2mL2yfPQ7WFLO+7Loh7t/EBOo7hAXhrPETorDOTRWBr5i7qHNi52ovbmlFK6GDt0BnAjn82YZrwL7lu538458fwBjsjYKcv79gzMM9fOzhS7sWWTsB9e3ySPr8lzCcfNK7u9tz3DXXBm1VySt9Y75z/Npccn5Vmvd55xVE7vtJ3KDE+U8RbvlHrrfOqN/VtlMN+18+bJG3vv+o/soM/nZ5Z3VRPyvaxDv2lLg228XrnVc48ZPjmm6scZTN/1u2vU+MeyPnSUGfFMcjAW7v2hbMrv9ttv7xn6DH/weNlKfAJ79dXa9fxSDk6TPSd0R8D99Gh1KGmjreXbQ9kExNEl6/h2t10nd1Rjpef5lFJ6UftOpS2vd9YWcm+tXjKC9x83qN/Mc7vdM8FevnzbDnSr8xzF59XZhpLPBnru5jksc1s/g4knH8HlpjU44zne2j/jOW+wfaaD79RzGW0t2w45dHa+Wnket+dp1qFnez6L53c24FONh9ZXT8as4jlMzw4838f/SAqFQqFQKBQKhUKhUCgUCl2leJEUCoVCoVAoFAqFQqFQKBS6SvEiKRQKhUKhUCgUCoVCoVAodJXiRVIoFAqFQqFQKBQKhUKhUOgqjYKB9oCCXt5tf6djATvtvglCCejh/7hBv27vCwjseLMVdLcnZXTTL893pQ4DXRFUJiDg5RWgsosDizag4/oAOFSmuRIWuP0+ANT4+gcDVAGu1hsAm1BG9ZfAccG02JbO4FuHX0va887aDxBnf2MArdcC6RLEq8LLGdxqeCnjorIJDiZEszRQ7UO+gwPDW1uI2PdtSqlAfztMZYbbYvzGSwsyE+iX8FqBOgl4FUOsB+dN81BBgAUvuwHg0OZtZaOtLfMzQGqCRo6kl6ktgOwZhHLZow4H0iYQXcVcNzDbfNNCKKvXtYKbEeD21YBmGEcPeKo2E/SrYXv+WsjVAq4tvxaDERiX9nCxfk5YMxyP3A0bg/EboId3273DM9IEXnbgzYdP5XcGAaMqhxuYQauzA8HvHKj57gnlya8BHDwdBWxnPmd+BeUGYE72qXlOqYCUCbjOa5ppgjuzikvdzpRSOr/XDSVNdlDBu22qe9im1iphuIJTn9+19c6co2xXbT4CWXePdf6UUnr9g5UHu5LPrPyLjR/HPkOdOQX5QwC41XwdgcDKN5UtJXWaI9QrsDXXUe/kEwR8xfitmf6LfAd91IFUeOVHm491/ayXvk6/K3ChPvRw36axzQJIjoSaq2yyjgG1z/2wMSX8fHyp254S/PMTPqSQP+pAyLyMqNw72D3rT8XIF/soxTCWjJeT+b9vpY7dl75pX24zAP+TfZQif7QhpZRuMSBqsz5scSj5hncXa0vZMHX2WJ7KBpvXGe300H6oYB4MgIx1NN9v+fqxdXDLSEL9Nn7goqbO5vzml3adV30z25748YKxvpZSShcDJK/vYIAaFzavszEAHFt7AH3EfLSbjoBUCwCKc116lHNq2758KQUud1bOCXuKNVXntpRSSvdTVVdKAJMSwmvXlxM+YnHcBtWD+r5/KE72j3ffUkopfTiUtDtz+Hdj2VQO1sAdDl2Dc7CabSIucICCNi/OwPRYSLrnhMWwOODeyfI9wQA/n7cD2J+fijP5fNgW+GWEsek8x2Gx+ScI9t37zaG9xxp72G3jccTHdI7jNlYHOLu+a8HknvK4wHiX5OzTphFj/1bZSwXMbsf84qR5+UpdzqHlBxreaB/hxNeO1VvybORHUn3X3uu1b3CR99dpTpyj1g48vWUb3phSuzzO5drOO4w6uiztmj7bGj0Bsjw57R+dtoz2FZAdrmn9EGZ9sI3BG3vOm9r1gsPeV9skHqey9p/tgMV7b6y+G9R7M2z10v8dLY1rUL6QftDzf0/Whs+X8pCo8eN87G1cbvHlklurl+tJ8/HruRwK/+vtdvj987fy9ZFvnzf/x4856eMPCQDu/OENb8/l3qj9ih+TsLNjj+ej5cbeZdzhzGDnDe5lgosTuv70ZPPFdw/W5hVnlXlqP5pV6m/T+IEEfSyEZxV9JGS6xx6vD7Rhj4//kRQKhUKhUCgUCoVCoVAoFLpK8SIpFAqFQqFQKBQKhUKhUCh0leJFUigUCoVCoVAoFAqFQqFQ6CrlUE2yOgoYgTF/9aWUSixdj3yKWZyX8o7q8/MWA/n4V8AXhB2o2AEWk4jYRXFwKvbRZPWR57K078RW4zaQEZLbX3XE4oKBLNA9DENdxWbqmba1//QR8YLG51lmJwYTbc7loC3965Y4gM0kzgY5KaePdg04iIuFhpL1pPaPT+RZqN5yr/gTVTiv3ZxZIbwEVozuyZyMlNLad993LY8v2QsosU0ibkjzDw7EYmyGHjwk1dc59y5rG5dc4Vlsfnv0Lcekcs4H2QvGWVydc8mosGGO6aK1QpaDw5gSn6xi8thcs14xiibY+DJZLC55KtZmpu0/beNGvk1v91b8IiA1sp6sDroI62/H/KuTJo4QWVnij6G84cXmDTyw3YauqLgvYoeR+5PXDNZH5nWhDvHTyFJSu8iKUdkVV8faldlBaIs3BlTukzPOq5OfrDHdy3nJLCCM6eysafWJ/chcJZq9QugxpoulVWt63/picYs0f1sD2zarDvq1zHahu1fIO/F38jnw2er68A35ujo/6yVTS/Y0Yi4X87EVT0rMm12JGV8stny5FEPtFost7+nHHdadtZ92ennftjnzx7AW8lpZ23wX+IPOYTN5ypgDLMJBnLBqH9z+zrfgDRnTbx2wL8gXwzYO77eFNp3LxI02lmcwD0/m4/af6STs70vLGRzuALcy/S8//ZJ/3/z+n1NKNTNDbI3HS5mQv75sxvb1pTiYx2/b7xP4hnvjH368KxCs02Xr01/+VAxmd7PlO96WA9bT81bf+scy6Yvjd8WHfDpy87FBJe/P5mv68Ns8xJRS6q0tt3elLfvdlvbl18KVmH/X8i3dc5PVuz+Wsb/Zb7+/fSkOax379l6ZDs9wxiikbxKrcvljcdAP7zeH8dOxjP37wzaW4mmklNJ+aA1eHJAJsCmxPx52ZT4+mkMl42dnv8mAmZ1zi8d0OfStfb6V39PFgXXQntU+lvdszuuXuzK/nz5sv1//HhwXOz+T56KxJCdF7KMfcaL+LWwfT0Nqz27/vWr+b/zv/38La+n/b/I4ZZ7ILjsYS+mQ4GcM/Ljs3i5vvnJMNfZkLj2nFpArn0S2kNYg+Uo/9duh56d9Ofx486t7ySBS37m2sz+Fb5pcP7XdSx/xzqCM+vtbupZ7Nhqj8HeHcojTvV6bnz7jUG1niurMJbYpXPflXs/EJU38wIovqwxIUz6+8+iMUzu/lPnVuxO+Q9H18VjmUmzHC84+qxiP5/bc1O3aM4POrlsldo59beePrOB89uZzY3NHKBQKhUKhUCgUCoVCoVAo5CheJIVCoVAoFAqFQqFQKBQKha5SvEgKhUKhUCgUCoVCoVAoFApdpXiRFAqFQqFQKBQKhUKhUCgUukqZ8DQDLJv5gg4EeCXk0X6+vhb412IQ4QoUddngTQJL8d4OoG5BnirAtd3TAWK8GriaIGJBqgm5FWy7A9jYWGg1a9v6SXhobhMAVRkITOCuAaeWAaBBgz93GINF7Segefpt4BrH4OX3Vv/YQscI9M6wXgBPBV8l4HW+s/Hj/Go+COA2Zuh8Uzo8PmoQSj7ByFaAZQVw5lgJXL2CFZfbd1cyZk7ZKwDhgvU+FRDYonahzbtvBgwD+DvDxzl+Ap8Rju3wHAWbBSMug3nnW9iGQdV6tFl2xbb0Lw541AHZ7784YN5dW28C9Pd7rbDdzqDcC+BvmiOOc26LAyemcRByLA0GZe8d0PSK/CqGazWXxynK9bZpCwHIXZv2+jtrEyDG2cYxZIJUMy0Djfma3blX1zlHbj61naDkpc3npak89k1zM4EVuN5tGccXrkEVjCZrzGHrsudqTgXaB3dvcsrLczg7NjQ6vtPJpw8HVGI2B86e68WYqr8sT33yoPDVmKotvytpAt5TewMVCyqcUkpPT9sAzlhbg/mptfL31k6A4mWfYAQXQDjHQMx/cj0dRmUeI3LOX+v6Uyp93wFMLl985viZD+nP7ccBqnX0pPyAMurjBQOg3PZ7HAFFNh/Gj3a8dttkLk9lEcoXr6zDzgcZVp0KRPvfH3/Naf/+sP0m9Fjw4mcYwrMZ0QmLQb892PELFrUAzv/p53/JaWdLIwT6dtgGmlBkQVIJBX0LoEoJHsryBIEmjFTXv1yK43ietvZ/+P0/NeV68qCl1KM5if99/n2p42mroz+hLX37b5jah6qPU9jUEOj9Hz58Siml9D/dlfn9/X4z5ONQINA7xwlrDr25pDRWzyDtf7IvFXDOX+z6K9I05xyrvS3c0TtkOPLmmSBsQbYJ0v2wM3gtHMPRbI3Q8J/tKwOENnuAXE+zAyvXeHxeil3p+hnrSO2vbdLODIT62u+xsvt2fXxfxva7reP7cn9UXu98HeNaePi1YOrFhbS/3Y/pSij7W/rR+v3XgrW9ufT69sN2ZV9X2jf2vz1H/5p2Ne1zxnTis5qTz2uD2lcD/rffnu3SP3trQW04Y22dZ/NXTJu2NUVgt8ZvxF57M16qNqWU0v3Ozi9D8afyTQRre+tcbeaa1v7xOgEW7djpzgH3qy3HkT7beQZPLXBc/lb1p1Tm436HL+fkPjoHcny0oz+JIF1VnFLyP9zEB5X5qC+WlXzjV5tfvj94t435ANj2mj+egTSr4/KCw62ldX3JNxscewWoW+3rH9vn5LX6+lJ7yOx2ytd+UKPqm53JeLaN/5EUCoVCoVAoFAqFQqFQKBS6SvEiKRQKhUKhUCgUCoVCoVAodJXiRVIoFAqFQqFQKBQKhUKhUOgqjeKBIBQy7R7tIhgMCotcRsTEin20lti7s2GXpqcS39eJlQCey3IyhgTjPI1ztNyWfJ3FGHbP5PnY+y+8BsucF4SyTsbG8dhHFYPD7h1eSoGK/+vIhphblpJ4ET14Q/vPivUHr8S4GNM9xsBiF8kNUT8mcnAycwRJmUuENLFEELuosFKGwIvZ0+HencV0Tnfk4Bgn5VD6exHvByGnii8dn8jH2P6OmDfhBroSnlvsiiH6Fpc5gdulvnGOdhYHev5Q2qe+VSH/YpeQSWV2t5JrYmVXzCDVT4aOrYHDL6WSzO4BT2pWW2inxrBZGP6aWV4lbT6IkdTaQRXqqvXz2jIOhmcaR3uv4mlHcITEbDn9hPaJ/4S1IJwJkCO5DqZpHs7vSlq+7nBwfE4VypM9o2v67TLExnYu2b7ze6uXXCe7hfwYzW819kN7r+zE0BQppZQud229wljQxg+frU0Yqxyi7PCkqraYrwHSI49bxQKye6aHt9lvKc8v1m/f2oEaSB+2OvnkVyqumPVjgI/IPDFOm4NI6Hv52Pai1s5Wr3WK8dzi6WE++qnl/mShLe+P28Td7csEdzYGXz6XgZ7uzbejeWIP0b+8xfyi3U93bbPENKqYgiq68iX2w+Fs0U9qLTBtVXw9HPTuSztWi9VRcbEeJru3LNZXY0fd3pfOne0cUc2knQ8qNpPVp70qpZQuD/YD43O72yb22Jc5EhuJbByxkciuEGOHrJ23dPFgcY4Gh5nhMXz+LVp+wFARN+mEzUc8i6p93oIzMZ/u5Zj+Ys7ul4fi2P7xeRvneWzHqgPbSszIFXuehve4Kw7waOyPEdyLxenbpdvaxXHJjCTY88mgjV8vBV726by1/9dT4f58ft1+ny9gdZy2ey+fCyhPjEyeBZL4oGBh9PabnFDxMcgV0/phmnS8LXb68dZ8067YvcdEkf0NP2DPaIzIf3q8bHP5GePyctmunzAuk/E7pnNJE89zPcPBOP67s3723M+treSoLUu7t2dWmtO1Dme9zJzjOGvPq/Jdx+fROYz5V483tP72NfZHdrAy7Y2+Vf8lYHHS8k2/3abfLDtfa/f9letX9+Kcndc0j6IaA869urbDs5Xm4W+Yj9zkmQdF+3viw9D2J7NfUzmb89lA/aj2Witmfii+qT8Y74/r3Pq5zO0gzFwLWh8cU52/2I3ROSTrfM/pteeyFWzi4WZr6/6GB95WvbF4KtaxtWs6wY8bZ6ia3+G352jFOXG833zSbo/x652+maapjNXldWvD+g3vGR5s338oPnGw8siOOln7dQ5Mqcz1/guZjLrGDlg7YeOGsarmZb7VhOBe+z2BfdQ5Pl3jnJ5LxZpX+o351D7zJbO/5YB3KNau3tln1gvKsLNZjzla7qwc3JuPVXg2iP+RFAqFQqFQKBQKhUKhUCgUukrxIikUCoVCoVAoFAqFQqFQKHSV4kVSKBQKhUKhUCgUCoVCoVDoKsWLpFAoFAqFQqFQKBQKhUKh0FUaxW6qILzGVyJAK0NBdwA2XSwDQL/zzWxlgDJ13vLN+xZcTbhbBu5eAMEyGtp6LPCoXoAvkM8EcRUIlOoArFsEHkPfpgeDHgKgJfhW1Q9rLPPtDM5FNqfGb7pnIwwWiL4t90atAkBrORggja/4dJkgv7GF6y43otjhVuOYjQC8ngVGRdfmG4GhAdXSkAPa7PEDNW/TPeF5BpO7QdLJQNNdO6aEqg4ngb8BrLsIUt3OeQX/FZ8P/e0MGFdB02QGtDWDOxJ0rnoHsOkEoScwe3y2NIDyBBimnS4GEiXoTeY5PgISfC9bQ5P3sqGuuZf2oj5V8HMB4RxAJaX5Gh9Rno0v51IgakKA89ywDmsXIcuzgO4z/YF+oI7HFtSYf9PG5a8wvy4c0YFKC+bK5ZZ9Ili46u8Fa1rlDQ63kPnmQ3t9NRYtAfovf9eOX/ZDFRBTgH8kCfyNvk1HkQGRdiewewvHzqDrVPxelSZwpgM1HwBsV/su7wAylW3cwI8bEHBmcRp7gjitvPkM8OOLwRaH1ucQ9rham4fbMknLjX0k4msZfOPtpv0n+Pav1o/3pTxBtn9/+5S+1/PPZaIF1sR3KNJsaTP3FPkf7Cn6eAF9Xf6QAufSbEwA/5QKtHsBYJOwzVzeyfk3pNFZvzctvHGatkr22Gvl/2hs53ubtxeMs/UdTU7rs11HHRoP2pXquABGrw8KLL8rY/XtdZuHTyDZC6z9D8/lKwL/+fP2W3DulFL66WarREDnlArU2YNQ3wJivDgg29GcyATnpLTeAcdOgECrvJnngzeA2j0Wv0DKbLOus97Fyp5WB9zp1fEmjTeli7Xv46F8qeXzwwZm/vr0UDJqLWOtzscWUJ8/roAx+C9PmwH8+aVsPrrOORAo9um8R762zafzrkm7GCR6eiQY1W4mZNT28ZEfarF8h68D0rbf/HiGhnyhD7OiF34YxPzaVO2DW9rnm9K3z+s2vjyz9ga05fjl9cZ1rrXHtui7Bw6klcDi4Vvbt1w//dqluZz3oQrSrzFw9hlv/qpzhHPZk+qYuFd4H5347tqWod1DS8YfVKxbWo54LUHXPa4yGf2CfPPDB/p4Cz+A4QCQ62ebuuyqv5p/fhhJjy7kpjsfAPImJO9l3vCNWDPOWU/9+JG7ymO6tGnVBxy8j7yofUN7PgXfP5/r+tfiI9Zd+0EBFc39XG3onW819M7HfngO6/VxCqzLQX1ynqfnG5yb7OxzSu2hlPas/lZnED1bnd9eZXlND2xze2adjtaWg+Nz4DfKB1hQXv44CmH0my88/9/lQUXPtRkajXYNGD/veUHP9FP5rkBTRkop9TqDIN9ybD+k0dl7i6766JP9xfymB1tcRzxY6ONk9DnOB6PyHsUzg93Lj2vpfFXx8wW855FaAG7sefkchu08/kdSKBQKhUKhUCgUCoVCoVDoKsWLpFAoFAqFQqFQKBQKhUKh0FWKF0mhUCgUCoVCoVAoFAqFQqGrNCqGlSyC2WL9qlDcof6bEuITwb1Ixl5gzLPiDsk+yowYxqYOLT9mFRvntmU+VJyZw5Z2ed++G6viGRWb37XxkYwHHZ+MZ3FT0jKjBjGiipllbKXYFZlRklKOhVxuSj/2RwsYRZziycZ0/FyCZ1Vv3Q9r8w2DYi3285kxsVva5cHhZJAVs2vjvsXeYL1i/DB+XXwRjp8X63r5sFTXtjpsnDG/GqMqTtbKXhlLamM/or+X99u906Edq2qSupbBcfkgTlRJU2wox0r8G9qk4vQZq97Z9I6nlp9AKV/FlNFaAE9KbZlv2rkk60nx67Q/MaOq9uXg7ZImJsWCEOocZwwe13wU/4n3iouFuGUx08bWTl3B/uaHrU8d2DidmFUnMrXy1aYtjCnONoS4dI0LY7cvD+pHSVOfFsa0d3X+lMqYVmtBbaJrkh2QPyHXRG6DYvjJx5hbe86+ldwDlX1bJr0bl7r+lFLvMBByXejGkutAY2TbC3yO8bC6D+ecdrzbJunjXWGniEdzvyuAudHhuOT6GfftwBd0/YxJerxsRvt0Kcb7T7+8337clBj0+XW7Z3mEkVsVfelG5un8D8dPOe0/3P2aUkrpP33855ymNpzmsUmbYAivU5s2Lb/97zscF/1mmjd+Xr7FmWvVewan52Tt+/W58Ia+Pm1pr2AeHv+Lw/aT/94VByM7XffIaHs3WYur9vP7kk/r3GNwcJ0f99scfTqXNr/O2yb1f335mNO+fN2uf0Fx/5w22yCjZjVOTgdOwPp+s52798WexcCaALO5vdnast8VWxOv5uVU2BrTtPV9AntG9dI/Z+YMmTe2flf6HBu/blfW/sHOG4d9cXZqy+lS7HQyPlAHQIu2oQ42NAxL07efjtuavhlL2m7c2lCxHGQT8FfaTzuer+wv2/eXr9sGfHok58PxYbInnk9tL+l4xtS+QDs1exqeCIExv0bbcLg6+V5wM8VTYb58vhpbZkYPPIbYohU7SqyY19ZXsH3iylXcJJv+3Tfuly10JnOEwL4UL6nH/qs9e+QDg8M+Elula/Ehafy1lPdqvDOe63KxOP9p7yarUn3jPj2Y/yZPNPsQnK/y3FTjnH6zzZTmZnGYN1U+sWdwPiXjrlT8XZtSco9NKo8cxoNx/shpzHONqnS+4f6Wn/Mw9Jl5U531rO2wcV1nmniiF7A01Q8+S2rL2YHNqbHkmIof9BarlWV7vKsfza/syevbhDOh7Ir5plvnXGLt3z1zvW1/Z7IgPV+S20WYzfZnfGn9BrOpH1z72Q54rrM1Ra5s9mtk49izEsdAaXV5di98hMaPtiZAc4UM8tCNNm5r7z2bMmfrc5LDDFKfaEN7jUu119rfi5OGPer8wXvuVv1onppyaJ8bubgzX/PMly2plXwEOVE2gGRgysWtFXOz3VPyc8JLqXf3afvNZ7/8jEhul9O8UCgUCoVCoVAoFAqFQqFQqFG8SAqFQqFQKBQKhUKhUCgUCl2leJEUCoVCoVAoFAqFQqFQKBS6SvEiKRQKhUKhUCgUCoVCoVAodJUyxqyC0xk8bAIgbT4ulo+QZYNGgZbVCZRMiJMAm4AZCqK9AjqXwV4ekJhJBquaCYx93qBQBDqO3wx+eY96HVigYNEezHD/BbDoB5VR8hH0l9PEqgIgS8Cw6Y+FNvZwt5HKVlC/zt82qtV8X+hvHqA581h5yaBby89Tk59tyeUB0CeAbwWSHBz4boYEo9pDSyIUzGsC0DZDvwjFEwCsd/q4J3XO/sCGkkFNT3/nUAgJbfYgdh5I0vpOoPflw9a3+djCrAlrE3R9dWDMM4CnaWzbWsCPaIuNcwXFtesr4GqCWM9T6ZxqI6A5QzcBz9N4XN6jMUs755oHjougzbu7QqKTPd8fCn3wdjTYbF/GYOxbAqL6SdDw69wCi7VWPFgw11HnAIZnB2LslfOvFYHUg9nx4PSR0vUBRqlx8UDJP2rn4oyLyuPYH20+Rs6HQ6TM8wFnJ1j081Sc3rfz5kQIw72YA6Qd/P3d15RSSh/3TzntYORCD6w9vAVkTyn16e3xlRZzVF8vhRD5+9utDZ9PJe2fPm+L4PUDFrDZPcGFGssjqJH3Rpx8N5R7n41OeMLGOtm4XDCmy/7f/m85vUsU/dE9Zqfp7XF+sQ3un3bvcto/mG18/XOhub78SUBM7L+/Gkgce146mt1hTDXONRRZFNSSNN227VPX17kdx39+fsi/X81mBdhOKaX5m9nx3K4t+snd41Y24ZKzQZifVjRKvhMA5G83mx3c/fRc7rW2vnwu9jc8buV1WL8Z5vrq+Lqqu521s6ScPmzlzccCznx9Nkh6Km3O5WDesr3z+wgZClrS5Plf3pc94Ol58wf3d2XtZ//IvcX62eNDCotozQT92jycn4rPGWQvNF2Bybm/6kMF37CmM8QY8OknnX3KWE3vWkD4zs6TdMX5owo8C9hwECybwbfVB0SsycU0MjyWcNNcHqCv07GFpeZ8OP71dkaaCak+t3M5mlumK5mOugabNFs8v0d5k/rT2unuEecwAcfRPtXHZw3dwzHQPQRTrx6g2dIO30ramecbU+/As12gtnOU1gdaCLjWWGJ7y2trKi4nf7iEoGSNQQVnF7AYbeqdtqiOsTD/c30VRFtLgPZybuuQ+BGavIVhGekDMVwLOxtzzpsL0bbrEyHagpDjeUpzPsLudS/HItsTj8o2HqvzfMZxEZC8+giN1iBZxx78PB+0S5rWUeXDrH2Xsh3l8V0Be88fVeKHVeSKCa13Ppyjcak/FGRp/F6A2Rg/JDNqjXJPseqG6oNMKgRgaPtQAO0lfzAA85Y/QkP4tNwQads6P2PPE5iea1+2NgEor/W4tttMSnxGtcTuVAxQ81uD061+2JDG9/wzPg5lfSKAW/sl33nkxnBf1cfE7vChh++upZRS0nsVulgVR7vXhz74ISg9+/F52vs4ha4g3+W9jRX2y5ONc485iv+RFAqFQqFQKBQKhUKhUCgUukrxIikUCoVCoVAoFAqFQqFQKHSV4kVSKBQKhUKhUCgUCoVCoVDoKo2K2WX8oRdvqTjG/SOYGX+yWLqKMaD4dYfpgTi79WELHCXvpX/fpq0W8ycmS0op7W63fKdPCPTMN6C6fct/6JwY+TQbTwXx+hqXyx3BSdZOxC4qNrSKcxeTxxmDHkGnH262QN4LA0f/YOWBsSLGwAlBxReL5/fYKWSOjFZf/wNmi/gyF3ACzuetvvmE9lm+AeyjnTGAWEepF/G0Dn9H9c64pnt3Y4lr7R2Wx5La8ibjT7Afi7FxWP+s8SMTSrGz5DUtYs+w3lZL77ASjK/AuVTa4IzVANvYD3OTT7/JtOkclsxsBvjlpayPl9dtUZMjJLtaJnAqxCbBGOyPW7Dz8bYEl7+72Qz/46EE57/bbWm3QwmOFovnRywWcV6WtX23PTvz/CN59akcrhmvPs+uPM3/Sr6Sx/2hXWsMXGbQD/L5Zds6QjB9ZuPAhmZvDLQu8W8NSiP3R7+Z5o3pzuzgZS4AhV9OW4D741TSxMjiHPUO78rjOmmd3QzFNx3HLeid43McNzt+BXvrsN9s9vS+2Li4Oyv8xldjQv3LuTCD9PvTucAwxJE6z8UPidFF+xqcufT6+/21lHyumNK4zj17Vr3yMykV/lOdNjVpN7ttrL6iPHHUhpfSltxUdkOMQuSbLa1DP3rjDJGFcRGXhVuyGBLYk3993Obh8kqoh+X7pYBN+knx/yWb2Aw9WAmXh7XJt/tiDCJyDOzcwvPB+rw18HlPIKHV9aW0T3yFAfwOLVuyocQSqfgYo5NP4/YM25ic9g0tlyOfkYiVkBlXfEP7+wgOmP3+ij1F64d8w96YRx04GmI59NyTdZb6WkAV2ovJixisn2RcaFwqrom4SbArMl1yebJPDytBdor1bYfFoPLIRBGXpec4O1xFMVYudKGyXdQrOyHvxc33onLhT23MKy7quU3LbSmuLs1mYwMYo3nMHU4U2SlySVzTqm8EWyifs521wLkabczJKsp9A9dE5VRpDndK3BjavdpPV6w28MyvctgW2e6OffPOFjqHEeXl/BN/d27r9XisGme2WX3i+jg/1NdSSmn/ZfvLfqj9NRusLU/t55xrrtm3PPZM01w7NsR5U9mcN/GXTmRhWTnVWMkfcH7FiYJN6vjAdal1xLbsrV6OVf5Nntl9e+9s3J8Oz7o3v3RVO1Mq/opM32x/4GLpWEVmkMaq4vhaMYPDz6r4VDZG1fjZ9cVh5zKfGF3aN9n+kSwlxw+pgRz7w1/FG0Id1k/6OvHquL/ldUnjtev7zyVtOmofxHOo2T390GDrcj7SUO3ZBbzntGvPbmUvwf5mvOeOHGT9vIWh2jP4PLTgLvdeMijFayLL+nUrh+88dDarGF3Wj472Ij/OcU6hUCgUCoVCoVAoFAqFQqHQFYoXSaFQKBQKhUKhUCgUCoVCoasUL5JCoVAoFAqFQqFQKBQKhUJXKV4khUKhUCgUCoVCoVAoFAqFrtIoyCPBbAJYETIlYOfpj4UitrvbMhDsORgU+/SlEMju/u6xqVigxMOuUM4O4/b73aEQuQQAJWRUINN/7D/ktJd/udvaAqBjl+lqqNiKmW8B7/5mUFXm61uiYwYMErxnVYAhmwFpA2BogpHNuwLQ+t3NlvhxX2h8uwxfbWGyF5DFPMi2pwzX/QHsWCLYeDKSnwdrJST4LaCy1w8Pxuvpb7n3svZNPrV//gFk+f9tee0X9NeDh2scUypjybTvy/gtnQwi/PiuGOXrvK0ZFy7tgHm9+b0BRFt2yvZl+C/s9NtlI1ieKxizA+uzcghRznZFEPG1NvYGMPtvsY1r19tyJdBb8tpeX2/tReOyw70qx0s7pRaE/aN17oHE37LdoYJAb39lcyml9OfXjY746aUAqT89beTW0yNolQYJXAEQzC7YARtTAgOOD2Xjev+wOeHjvqRpTF/OpX0ZRv9M4qkBkPGBia+nzZ7/j68/57TH09b+T99K36bnrewV0OE8ROiHYJv8+EMGII9vARsBi+a4OMDdAlR2yqNpGvhxOJZ1/vsP2959M5Y0AcQJzBZ4cQFk0m+/gR8JHbZ8BGbnphIYa9fpElXf4tTV4wMdl2/b/I6v7dhTox1VOH7ji7MWDDK7jChPUOkK0Gz9nUmwtHIBUHXhv+a+CUbNYF6ARzUG/LiH+kFQsvox8yMkGWxMeOjapGUwNBmedvP+qQzW5cHAoyesI4HTAQCVbQyEgRusdMEZbnzcyh4e27Zc7uFz9i0odLD2E+6c14/nzslK/WbzhnyC24Kzn8uZ8d0XzRe+IVDahTomfcjF2w9xdsxAeQeITum8yWtqF++dMjC7pAnaTHBwHiMH2kw48e5bXRfL6zygN2w3w9RnJ80BXN/8in6ob1iref3gXtWrdqaU0mL9JFRfcGICi9WGCmAuiPHY5iNMeNazBm3DrnPsvTHIbHvMh2xicr4xRBv3jhTe8UX37PB4pnGu5lJtILTe+kbAv+6lbWSAudM+Qsjl69h2jXkFaP4uf0plPRLQvDr2rDGnj9UzLteHxoW2kdc87EqwchcQTiZy9p1cSNsfrvMM9KZ/kX+GbfT2LEnwvH6z3nzdebanreXf1Z6y/Z0dW6sA3Da+1YcFNAZda3TTsc3HOfeg9dnWkKb2cS6z2F/vDGL75elnGtv2hx8luJgfqNaqbPIb8r23fZ8fidDi9yD4aHMGiPNDVPIH2AfTt8241z3qUIE0K+/R0MrhB8uSrVuemzy/q3uXVAxL5z6ut/gfSaFQKBQKhUKhUCgUCoVCoasUL5JCoVAoFAqFQqFQKBQKhUJXKV4khUKhUCgUCoVCoVAoFAqFrlKOcptuwSGx2PKBccvGWdjdl4D9//WPf04ppfRuX4JYxcW4+fsSCPhxvwVVvkOw664T/6QN6CWDQ9yOC4I/f7lsPCRyk/7B/r58LUGdy81W9srYQIsr7BD/r7j+Kib7oKBJxBDuWiaFxoqxmoMTw3r+sP29BRPqOG7Blz8jWHjnMHE8eZySt/QWM+a3yvPm5r+lZpdl87fza36k/gfsoe/ljc//l+3zNCcxocDHMBt615X1dm+ggNmxg7+FbXUyQMCncwl6/vW0/f7yWgLnn41Dc76A07M4bRiMDYY48tEckBNq/a+eK4pjtYqB4MzRWnGOuqZepa2MUVbYMuO0cz5wPq5sv/JxDIa+HSvPb3jjJk1LmcvZ5mOah9/KnlIq8zEOb/sF9fMylfKeXzZnOL8gsPpp++2xWDg8uk5OhZgL559Lv3tjscyXEkz/i7FxPoPjshy3e8gs6M7bvePXkm8+2v6BJf31cbPtl1MBCpyMrzT/Why+eDk9ODyZE1ExR2yvPbdp7O98s1bXUkLMfTVWKqSkrUPLe6m4Mbm8rcLLh1LxX2T3mPPFeD8cF7V1vSn5VjED2BZxndrqU39bGrUYB9Hjn5DpcRafAHu81sfSgU8lPg9ZGK9121Mq+zTHR2NKl2hHkJoT4DBqLh9lnzhHGDeLrInMriAvwm4dwAgRY4LsB7GAyIARz4R16N4eLAf1bSJvSNwpnF+GZ7NT8iLExarmyPZp8kDuJ2tSGSyxkfI5KxXGGflnHvNG/IwVTA9xJ6oznMMDSQ6PRn2nP+hPrYXOtq3V3KTWxjNLhi7e4U/ksbopibnr3M9tDqc7NsbKgJ1qfqutW/sR7f6stqM4m2uPBTSCZZO5QA77g5Lt0F5UTsXfMQ5JxfKy9V1xdaxdL79DvfI5zj+Hc83oOtlMmY3jsmzQvl2bJvurGLJqS8Wms78cHzFVmda15R0+bX9fiQ/8uP2t+iZGF/xQ5urgmUQ2wbUqJo/HweHad+XUobYsLK9r86lvF7CovDnKbDD6l3NbntYU7cVj/Oieaj4c5tze/OjL71GejW/Fk8I937eZ66MwtcjTszZhzrV+Ob9qP5lBqoP+YNbzO32O8QArTpRj9xUXzZQ5URjny0N7BlE/dG27p3UI2Z7gAFXOQmZfvqGU8fzv2r7lcyLy5fULTmPeX8BzTHd2/rvDJmBnR3L3xESuxkd2yvUmH4s9We1a9nDGqg9nKbV+2LXn9wmcwe7jucq/9cmuH1CHvacZbnAutvqmExeSsafx3mfW9Ud07mDl3IKFK9sF/zP+R1IoFAqFQqFQKBQKhUKhUOgqxYukUCgUCoVCoVAoFAqFQqHQVYoXSaFQKBQKhUKhUCgUCoVCoas0KoaQ8aWKi6zi4Y2z0INF8IfbLZj0f779Jafd2M0/Yqy8WoDpBcGa+n1CAOKLMZeYJg7TiDr2xh56Yey2xQv2L6UOxWVW8bQaA8Z2Ks7SedU2PrUx/FNBxaROcbnkpFg5r+cSWPvX1y1I+PFSAnmfjQ3xdAFvw+JKb8bSaPXdY8UsDtuFjCSP2aNy9mCtjMaaGN25RHlWtlvvD/hAb7X/jIDus/FbPJaNJ3EyUir9YF1iQv2IteNdv5bPIw4Nx2AyQyCjZnEYOso3I19mzzhp0wweiOYSkDPxcry2j8gn1g7zqQ1P52KTjxa8P4GDc3nabLf7xgBiq59QAP1EHZOuD4RhdN9nKywRxG7nmGwn9p0sDPFMGPctNgQZNbmZ8BG61zU/ds3qm46Il1aINxFEHmZITAD6HN07OuWReXNpuTqKvyeHJC8pjHM3tQwdV1ax+CYppbQzX8j+Kh5+IcfFHPPgtJkcl8zqgAnl8SBfRDHyU2tXbJ90+AVr634rfLojUMXuJfdi38bwr/+8gVIuDzCO521Q978SuGF/YH/7r9tf9lfbGvcPj5lxube1QNyfx4Dp6msU15H2do/707/Cj/9lW+dwL/meEfk0l5cefu22ZQ92Fle/gKUknsB6QSUW9z8fSx37T+IYtH1bEP9/3m2DusJPqg6Olea6xzlH40f+hOyPfkN8mdVhJYzgaExH628H3oF1vVq/1haPV0I76K2YAQwftd/lXpEj5OAXPQZRZpJhOibjSM43qNfqG2gvNs6zw8Ej90J1uHwMsIpkx+KqpJTSJFZR3659jwvDtZBZoLRnh43jsYXEifJZHW29ZAt5bA1dH58xfjZfA/hFStt/LmnidlRzqj0Kdeg6x0Wcl8qXWPvI2ZKPZZuVRjvV8ZV2qvYzTfNQ5ZPtcg2a9lhHWt4j8olnxn5o7VVsHIdNl9k4YAHl9nGdi3eKdST7q/yp9elCjpWJXJ1sk1xbt07asU3LzC+u6an+m1JKk/nH+bbNx71Hczkd2ny0tXIRP2UHuFfj5tmVd+aq7ECsNrRZ87H/UtKmm/paSsXWVrZFtou2ZG4XGESLY5PTG8ygigvorBmNOde+bJF2kP2L4yars4Cy87yYbXdt0ur93LjG30olWm+0jXwN46L+VnutuD8jNwvdSx/WspTUVj47a9zIjvKks2P1HOCMn9rAMch+4BbsRnEpv2JP1jpCm2/+qrRS3vO/s3KP7QF+96UYx+XD0pS3Gocp3YE3aY5trQ5Y1tHXYuSrOEj0YZa24gys+vi4pTPA+lz6q+eJrm/PsdX6XX7bUKtnjeZqKBQKhUKhUCgUCoVCoVAo5CheJIVCoVAoFAqFQqFQKBQKha5SvEgKhUKhUCgUCoVCoVAoFApdpXiRFAqFQqFQKBQKhUKhUCgUukqjIGOEYGXgJIB1880GZzoeCjXtYKCmHYBNB6OqEaL9yQh0fzk/5LQvl4329QiotEDTr1OhyWWoL2BUh/1WH4HKGWJNsLZBqwR2TKkAEz1IJoFhyUCdhGV5EEUB3CoImzWBsPLZYGPzqVT8D18+pJRSOgHAfXrZVW1PqQCV19mBknlQSyapHC+bU0eVdrGOEGiryzekS/42fLojONNpv64TjKpKeG++wv4KAPYjSLDqZXkCvFYQOyef07UuA8iQbRC0nsBYUTxJVXUKVJIDi66yOfXmthyc+Xh1iLsOAJ7KMHqsGUFz2fb+uS27nwRPBmBOAGnAnQvMtV1bHKsMOERV8kMe9JDcOPk1wpPP79vy9t/qMlIq4M8KxClGK8B7gpB6sOPxpe0bwZTFXtr+1h8CsGuXdkw9udcIudUcImNuC32dYJUAOnZzW7hglYSRrlYH2zzYnGv+WHZHGKSgmw5sm3MpYGflerSmCQE8tf4+w2OrdfR9zwrQeN05fgjrvJPvdNzGCGiuQKL4hkAaDXBZAbi1pxAoajZZ9cOBkGcoPO7V+LEODwa+s31twNqfDzZvALbPBl6eCFN/2irpT7TT/vvmlT30fTlHdLaPT09YcNoX4BPznDtz1WHfv6xbxg7zprkZXhzfxDFFE6QMBIb9adwEQWd5FdjYbLv6uIK1qwKiO6Bs+QGurd75KED2EZhLnVEq+LT9JoA7Q5vphxzI8mxzzbWgj2z05ISKCUpfkn/Ahm5b+Opy8PY3y+9AyAcPkn5sFyH9kD4yUAFj93X+lFL+uAzlQrR1zQGZ05Y4h7kpgu8S2uzAnfMHHAByzuPCOvQxCbbFgfDmjyHQ/pw9NEPI0RbZGp8N8rjA12ktcN4Wa0s1fmubb3DA25rfy7u2Dtp49muej6Aj8j6iY2PvAZ/rD1vYX7RzcUDd2b8Q2O6tX8c2Zgdg7rVlUT76D40p4dPWhg7AZ4GUK5i6ANLIp/m4AALtAcc92H8eD7Z5/921VMag+sCJ1jTB0M5Zf84f90CbbV/tuQ/u2nbmMybbZ+Xsvpa0iz26en7oUh5rM0Ca+TQPbF/nrMt85nJg6hwDb48qUP32WY3r6fB5+/vswOir84Hu5bnOxnKmvS5qc/uxlW7iRxPkd0v7zu+Un2dMPRu0e3f1iKitAn5cZ4/x0QFD007t2YVt7pz1+/rzVs4O/kp2dXnXAscF2E7JPzN2ZzsP4YMV3c6A2fhYSLe3tL4dl/rLJfYHZ590lNMuSfm5ka94rN4Oz2Wr1dvjHUV+NsC7lkVtgb+P/5EUCoVCoVAoFAqFQqFQKBS6SvEiKRQKhUKhUCgUCoVCoVAodJXiRVIoFAqFQqFQKBQKhUKhUOgqjR7P5/XnlqujGNL9UAKwv1mg9H9+/n0p0AK0n6YSoPvn1y0Y9x8/fyh1nLZAy+lc4vvEnehGxBoqZhJMimc1z4tz/loSp7utHMZgipGkWNaUUjq/a2MqM+MEsYaK7a7YBuIrvRHXnRJi2r+VANMviotkPyx+k+wesWe8+ODV4RNUTVD7EQQsPsDqxFuSh6RfZKfk8Xgqg5DHd2jLqyJF1T4wW1bFiJJR86KAblTrhIgqhrRz2EvkYuV4VbJixIvgrar24gw0pLjRFXaVHH5Rb7ZILozLJcpzlJp81Zw6aTl+GH1T+8UtSQk8GvATxFfyYnGreq0ccS3Y1h34NrmfNIO5LjclnyHmMaEyb+ipTVSsckpgFTn2z9jyPOeYgxyP7nBmPHaBx+/wGEkVm8Tyecw5MhDElmIMfC7nB/XmvsE3qf0cZ805cHWFDef5+88lUUwFj21ANk7qujafwq45R+Je3LdpA+Ov1U/cOxvvimwX+XYyEDQe1VjlMce94uCgzZcHW+eIw9fa6k5v/xuMGBPeXlHxIhzb1di7TAX0Q7yNDm1W3ytGw03bFvEQWEdy7Cr/rvykw92TCWE+MnMELDTF8I/7Mkl56xmw7+tcgLFfjNNEzlGea48999hy3Ng32e501/px2tCcOWUl7fUPlh2sQNkGORCqg4wpTSbXucfWkL/32Dj7zyXtJNYJ2UfikDjcErIwtPY8zGHtNwR8wXWzP7J2Kvak7t3N39+alrUdq7z3kNMjewbvZbJ9qHP284q3oetcH+an+tf2nEi2kPb44YX5dG5qbZz9zow9Zz68dX55n66Sx9iruJ7yG0i6+Wx1wMfK/3kMttnhr5BLJH/B/TfbKTku1nees2e7Ph3bfBXnyHRGm7UuOH6ZN9S9nS+zisg5MruqOabWJozBxe7d83nB+lGx+GSzzj5Nu1cd1bnE2d80Ri5DB+3T9WqvELMKc1SYbm2bafcekyePC+1P3EKczXS+GRyW3Bk29Nb5jzyuiecCk84FHnuQduDu5zamrz8jn1hKaHPv7IPC/VT55P8w9ieV7bFVecZ0nmc05/TPSqsYP9Yn7rXyP+xv5iriqPL8x7Z9av/pY3tvNX4OT09jxGeDzEPlM4ndMx+LQU/Kx2dYPbvAr033MnKc1+j3THrmo3/Rs/Nybpmg1XN35raWJI/bNX1QA9Bmu3e5KwbT2bml+wLe0IM2M1SiseSzs+xv56Tx3ciqs0r3fba6POlQ2jfsbU9enP3jpzLpvdU37sq9Z3OK6670I/5HUigUCoVCoVAoFAqFQqFQ6CrFi6RQKBQKhUKhUCgUCoVCodBVihdJoVAoFAqFQqFQKBQKhUKhqxQvkkKhUCgUCoVCoVAoFAqFQldpXAzodLkjuFBgLIIuN+jS56dCYfvf5o3cNfQFAHW+bHCp07lApqbLRqaaX0ra8HX7vR4LxClDjOdCsuoM7DQQ5ipIMIBSAm0RRLf/vJUzAQSm62dA3QSbqyCP6hKrdYCJGWxH6BzgmNL4KLgkKF0GrN49AixmbSVAS/3sL4SXbX8JYBRwlPlc0KBguARxrnX+lAqIjvA8AcgqyLdBMitQqNjTZHlZHRV82mxD9pVSSqv9JhBT4MyugoeKbIwkAQ4JvzRgJkGcahftaroXJA5wdoO6VeUJ9Aagt+afoLcCRm1B01QeN/LRnLHK8FAQ+jT2K4xSQFHO2/7rllbBFgXtA3Bt/2X7+/J36IcDg8zjQuYdwW3f39u1aQR7Cp4oSDHbyrEXZJbjnKvHmlYdBDoKjsj1m9cPbMgDNB+cej2YYb5ejUvb1s4ZqwyhBCRTvoRtufnFisW4ZDg71ofAlB7Q8fZfStr5g9pU0g6fLP9tm8Z8BSaMtqhdLV+4rJ3UXqMI05SdVhBtq2Pt2/I80CXtIPvnquLWhxGy/V226tYMkiSo1q7f/deSJJhlDc3d/u6/tlXNhNfKX8E2hrx+23q9PcqDs3tw2AS/ofYJBL+lDU0d2n/nu5KYIcyEuNtYnZ5aqi8/qDE8b7+5B+SPAqDNgvm+/gk+cb98ny313zaD4fgJanrhxzb03QiOgTWh8i8aU+wBw7n9UEG23QpouxW4/1TSBLKt7PS2LmO72drEfUTbluP/uI4kbw/w7KAC+NraI8BX/pQ+8aL9qmv3+OFTS+ImWHY9teOnfvBMVfpe6tCaIhxbfed60zmMe8pg4HzB9VMqH+iYb9t9tYIxy2fDXuR3CebV+PHe00/f9wd7lDMfPGMuB52B23q53jQ33Fff2vO8DyksDkC9Og9d2rQMbnXg3fXZsa1Xft772EXngKEPX0ra6cP2tzqHad+o/ND2lx918Pxk/iiBM84ce52Dbv9a0jxg9uUNiHZ1VnbWoIaNAPNcP+G/DmBf8zBgnPNHGPihG/vN+dA+VH3gRB8qINjYbHfnALirj8zIRfCsIlg+6vWeo/IzBNZ0Hj+MweQA0b18agv92s2nbfCf/tT+Pwuu6Qyov2my1Xuy8wGRxQG7ex/ZyPsHP97irI/hsa03+07nmWR2ge3wf/YRhJ7nMGd+M5AaH9PJdoXnrfwBJT6b5o8+pTaNz6F2b/XRE61VnA/0fEfwt/Lx40uqkPYnP0+/u3vqqj6mVJ7FO+djTtUHWKziBftHl8n9eNbtv7uWUnmGRT6Vvd6iXu37yJdedW7iBtd+nGJ6t3W+2zkPJ9hX9bGzDh8L6TO0u9QR/yMpFAqFQqFQKBQKhUKhUCh0leJFUigUCoVCoVAoFAqFQqFQ6CrFi6RQKBQKhUKhUCgUCoVCodBVykFuFS8nxwgzrnB753T+VoIrZwsQXxFXOIxbzN35Swli7fZWIGL0MmNlwLusG4vXQxylXnUtiNHLFSIuM8dCvpS0Jcd9t/nIy8kMJZS3+9bG67uxsOIrMRZXxTEOVdwVJ3Z2ukPfckxnSVL7q1jXzPgpaYprZcypYuPJOslsF+JFxP5weBvkJ6xePqUhtlzx1IxH1vgNmCPdc3kAH0Msgl3LwGIdsoke/I7cFsYjm5XTxj1WgtJ6J8Y8ObH5jBlX3zhvuX6HXcG0zCpCHRpn2WFKKb3+futvzSuxtjyTJ2X9AX9C9dFelI92cH7Xtl+cJtarsrkmxInguOS6qnjk7S/HWYyYCbHvvbWV8eGT8T2qMbVyPC4MY9Bnh0MyOAyR5DBRxBWp4sNHp16HCbVaOeSkDF9b/6K5nNBm+bAB9+a1jHXp2WyOMyf76FcrA75EHJ/zQ1tGxSWy8jx2QcWSs3GhHXRmG4vDEeode/H6Njs8gcqeHSaA8nksB4+vVK1p45Ck13a9LUdOnNW/tH7IY0PQ56zy9xhncSUqf5rbjH7oHjZlbPPlPYV2r7WKtIvNK3kRJ4eTcvjFbBdzlHlmrFcZwL/rzlpc7dhXTDwxD2+W5jrXjMe76sRSIlNharIV/hjGPq9R1CHfVLGFsm9q+8H14bGUMtcO/kW+puLqOLaheVgqxo+lOfuvx6arGDXeXuawmWRXFQfM22fsDDKT+dDV+bc2tzaUHK6TfHbFiUoOL7Fv25L5OxhT+U7W63Gi8nkDaeNLO9eZLYQ6zu+3vxXjRzhH9mOtr31fX26LzS85TGedJ5Hv9i/bX7GXUipzXTFltO9jPjRu3KOE6ayYXzbmFddEU+0wfirbTW8I/daZgm2WfVaMmkublvcUMpcclo3K9pigtKG9nZ8vOD/vHB7m9+WmVNYK/X22yam9h2twZz5HtkT1DkeI/Ri11zrcwtnhUyXn3FStQY/J89LWoXZdyDNzng06xxB0zqnOxc5ZOo8vWTY2RzOZVeN3+dFm+g2xL3cv4OjKh5E/Kx4N5jJzpzBvmXnDs7xzTpTP5v5bOG+oV+sXtpv3FD6XqV2Oz66fmVKjzHQbWwYv9zz1k23RfJHfJr7vdGz9pRinW/u26+f3XPydldeepeZ9+xzP50vNTcVSMj/en9r9t2Ypmb8nw8nx7XkPwF5w/rA09cp55vNOSpn9272CAX3cBrqidcqGPBYuOUyqj2ta56YDjc2ukbNl7arqlcOf0L6HauNNvIncuPgfSaFQKBQKhUKhUCgUCoVCoasUL5JCoVAoFAqFQqFQKBQKhUJXKV4khUKhUCgUCoVCoVAoFAqFrlK8SAqFQqFQKBQKhUKhUCgUCl2lUQCoZQQUygF2CqS2vBTC0jRtGcb7AmRaBNHsCdAySCZg1pcHg0EdSWGzey4kV9vfW+RTOQBjzTdbHbuvgGrpGqBai/VpAEB1MqjzelsAVedRcGcAuL8KIlbKGxwoowBz61ASBXZlebq+OlxKwvg8OJ3u2X8paQJJEljnQQX1e3Ggvh5Em8p24AAiCY7LcGcHRFcXuP3ZPToAaQDNegcUKtAp20zomyR46DqV8tRWQrkFmJsBVvQAuRn+hnyrA8XzgMCHT9tfQhRzPoyV5v/04fve1POmNhMQKXkwSIIaZTsVxNgBTffWwAoE60A3kwP2zBBPwiXfALtXYEqx9wGBzu13QKYuoHls06rxM7viHAl2XAFtbW4qkKTcFOpVmwdCXx04nQdfzeB5Qn1VP6HI923aweaSUH2tmQk26QG1lUYQo6DmBHEKMlqBVgUkJLBYAF/YS4ZQojzNg5d2AfTd249knxXovG/zCRzNsc++83NJ8z6kIP9D3y6wYtqXilfbVCqQrnwEyvXWY/4ogQOq5ZpWP14/lrSLlUeY5vdlpARALsbgZP6H6212xr4UWH5mH4F7pzsDTmLfX+2DFt2AsRIAFB9S6Ho7g3SlwM4q4bjMtj8ffu2R1rZvednK6cZ246xA7ENzOfWCyKJvGg+uLQ+mrv2cZ4v80QTsb3lP9sbUgc0yn/dhhryXkfV507ZZ5XGP1HjMGBf1vdpTBCsnjNl84es9zlcGR1+xPjoDb7N9+oBDBbTNeyj2fevv+Ih7rU+X+xZGSlCt9zEJ7SWEjGY7wHlN0FLO5fdtSimlTns2z395LvGxEDt7ePtMBTVXdR64Gvk8mLrKq/yfQMQ8qzgQ3uxjHRui5Eerj044vnh17OVgbeEHPfK+wHq1PhyfTRh4/nAJ9nON0eB8FKNHmvZxrvNxauuQj63sVExajGm2NYy9fP/otKUGu1t+rlWBxOc2rTq3e5B+ffwBe/Lg7AH5Xj5rOOehDPjnOdEBSM+OPeu6zicpYS6RT3sP/Z8g2mzL6+/q/CkVH7Y656sfts/G6nzf+ufJOd9zPnY6P8N3sq2SnpU4vzofVh8fcfJ5cPvFWb95PLgWtAadjzVQ+Xz6A2C7xtnza9XeqKZwzvOHr1Ces861LviMrTr4TiE/X+IZMfsSfgDDBr/68IG1f8SHjHTerezFxpJra/fN8vODGnp2GXhQtPML3lv09tGxlQ/PWqv4OEX/bqtwmfhOpv0KQ6f6+E7hwzbAw57O3eboCecrA353hHdr70Z5asN5LgO4Pm2/BwDM438khUKhUCgUCoVCoVAoFAqFrlK8SAqFQqFQKBQKhUKhUCgUCl2leJEUCoVCoVAoFAqFQqFQKBS6SqPYQ9N9CVRUHGPFbZhbxo9i6sQ4SCml+Tw0+bpXixdEbGVSzN8r3mVZzN/4WNqimPuFMZhiLpxKzJ94DOefHZZS18ZbilmUUmHtMD5cseAr+A7TnXGYwDvI+cg5slsYj9qtbYxjxZf5ri01y8FYExx7xWkjVrO3+FxyOTJDB+yAHPPMeGnxLMgcmdsGKp614scoLthhxVSx+RorJ/7f4ysxNjXHxCKf4lUZK0z2kCTWA+NkMxuEXJPByeexo1QuY+4fnHwK7WWMssPlUFs4b+pSxZkZFe8Lez63McA5ft3h1nCONFZVfL0QMF/bez2ehcc5omTHmquUwDEAE0ox1lUdJo6ByiNTYWdt9caArCK1eWX4sMNoEBfIY1atDqPBYzkkJ6Z9B86Hxp7raP9ctz0l8NacNUO7l13Rvoa5zs92kcOkNPJFqphy06R6HR5cj3XpsdAyUwvlit/B8sQM8HhIno+tK7G2wO5lkxUHQtwkhydQ2bDDwVmM09PvyuCLvcb56HKsf0mTD2a+zDGg313bNLGRaBuZr4Q519qaHRYC15FnL5LH5JnAGVzv2n2hE8eAlxa75zQ0+VbCtwYBKMBAsHGu7F6+jowQ8U8OZVBH4wPMYAzMd4P1p7RFjKxqv9SawZzLN3E+tA+ROaa+eVxAj6fnMZqYpjron9VW2lVul7evYk3n9UGmlsdmEnPJ8ZM8b+Rr3rmO68jmtQe7QntYB27hdG9r69xyLyb4K6+/Or8se5w7p7bNnecTxXh8KpOu8iiPY5V9LFlAxkG8vGv7QVXzoPI05w7HhWtVjCIy+8RqqbliVq7j2/sWo5GZQFuG7Q9ZWTrnsN68r/H8JzOg79Re+4M9VPVVPB+dkXA+yIwk7vve/qv+OuweMmDOH7a/XL87a8sFdeT9iOd7Z//QmHKP91ifmvML8nnPFSpvxF6bx4M+W2y1it/WtiWzt3j+s/bRr8nnePsbbWP1/IvODNzfdJ4kg8s5O3r7b7Y1x/8t3hh4nC3093zf5ht0PsU4i+vFOe/Vhgq4ZtfIf/KYeLv6GsuuOKa/WD5ybx02Yt73MbNmnSYAAAk8SURBVKaZdecwfirbUJ/QPvW3c85DlM7eFa9J7eOZS74Y86a+k0OXWaQPeMYRGwwNkD/jWu1kAOQm2bxOd+QVr5ZW7s3PVJgkHUfOH3AuObT58k/ugzofkhtn7VundjPowFdaJge+aixp8ovEXOpuykAPxoXk2afT0YwMp7sWvqVXFNWcWznkC+scNr0v9cb/SAqFQqFQKBQKhUKhUCgUCl2leJEUCoVCoVAoFAqFQqFQKBS6SvEiKRQKhUKhUCgUCoVCoVAodJXiRVIoFAqFQqFQKBQKhUKhUOgqjfvbjWR1vgNt7LGlQGbo9ZGEvu1PR4jYKpg1iE37luLUnbd3WMNLC60i6HA+GtCb8O6dtWVfSFa6znoF1uwWQBStH/OxgKIEfOwAg8wA7gpkarBPAtcEjgMAdL5zQKGntrzlKNodxiVT9pDvINg26jXg1YyxGgbrBwBfgqSOhIhdUpvPJpGgN4H0COb1gHUCrl0A6MtwYgceyvETcK0C3wp25wAiCadTGw6f0Y/bOn9KBdDHOjQcAwFyDhxx/8UuYawESibYLsPuWh56NaYXB7KsftSgc2snXvUK7n25b2FyvFcW4QFFCR3WvNJOBeT15qi2q7r+lAoAlEA9iVBL1VcD5a0O2L3WVAUcdzh0GTJKgKDslL5Jc05Ypc3h688lrXMAyMpXATsdcKsgipNjzxXU14Eynj7W5X5//fs02rPgiBxnTbVsOKUC8aza7Iy9B2Hu9u29sl1C7vuW45dW2RDsT/XSd+r6QvC8XedYeKDpDG+E38iQUdbhQG4FpyYoVP04v29JoP2IPeqg/ahcF1ibNimI8R7Q9QLnJAzS9hn2zQOeOtDSbPeXNm2HjwPkMSfA3MomhFI+Yr7lHrVW5aaUMgwyjcU4VtvjCa7u77aGLTMSv22DP5wBx743kCTLs3E5vyv53v2fW9rjfywDc3fcBvp0Lk7sZdwWZgVftd/0L+pvZWsOJD1/bACmIXvhhy0EJa4+HCG/58BLK2Cx1UdQ9+KAUWUHrCN/bIBpzv6mOjiVshPutYsDb1dbV6wFwba7YWmyXzBvw/P2m2e9ArPGmcYApdNNSRufuuZeaT5gYPZt2+U3OFbq/PC5JD3/ye49lDr2X9oPW+R1SbCsQLD80IOJZ5UMrCZ4WbBZnLlmx++u1n7uZRmm7uyDFWjf5pVA/gzhdWDWHny/Oh/I//AcIf9Hu7F7vfVRnXNs3KqzgI15BdrX/kH/Z/VdeM7WPeyH9hn6UwHqCbfX3sMPW4x1/qqtDvCeH5g4W385b/mDGg4cm/7KO29o3ugjdK6iD9MYcOzzWRlzNGpPcT62wY/LyGa5d+ezI/392ubLkHTahnwJ+ivgNz9S4n2cR/XyqPQmXJyPsGObL5+H+LEaFe75bJ5ztKdgrLStVecma//IM6bNB8dZ8+DtAXsHdF4BwvWsgbE//Gr5nY+ZVPPhfHgof5QAcOz8MR2eaUze+lj5IZRXJ5/mCM/i2f8QZK8PVjh7GfuhDzhUe4XW2w3eH/CjXybtQ/rwB+/ll7nyewO+8xCM/ksZQLVh/6XUdf7obMB6l4EzUrdv99Nc7sk5rHviewYDb68X1GG/V0K59ZG1iY7N/nCdX9eCUCgUCoVCoVAoFAqFQqHQf++KF0mhUCgUCoVCoVAoFAqFQqGrFC+SQqFQKBQKhUKhUCgUCoVCV2kcxy1Gb7orEabdF2MLIVROsYaMlRvebffcHMq9g8XGX3YlUHGxe6pYPuNKzHiXNX7bfs+IkVdsYD+WwNaDcZ3m23Lv6QuCu9UWi8OfPiAo9taCNBEbmCxWck0MSLY2PYKvZPH/8wdwG4zXVMVGW7xlj7FaLMZ/ZazjTRuELkbS6jFKGCM/OpwKxY2Se7GIJ8B7rU0c57kN/mWMcO6H3TM4MZMeO4B1KCZ794T+2uXFYZ2cwK1ZHIaJ+vnyB9Zrca1gGwiUw9hetZXMoOnO+A5Tm49SvR5DgrG46tsMFpDHPloN1NR/Qz/EjvLYFIzJ7p18fRuwvzgsKvWtsjXHhnK8PuoVM4U2IsbPijnvbS2cwc9S+7w6KiaQVch7Nf+VbTpx+NkmmWaqmF8WD0xfl2PkL86awJwrLrxiNLwRm88Y78yaQHmac9qk1mrFW9OagW1q/VT32vhW/Ccn1NqzZ3EHpmNp9CWzitpxmW/JxhGrreRT3P/pJ7TZYb+JfyLOHNs3PBWDqbgsksPeGp+3xMs7xsibD3sGk+dWNlny7SyWvWK2HLeJG/dloNdF9ZZ8y6hAclRr/XyGvxKzYjhjrYr9QYaY4wcu4mLBDjS/TMvrzOGF8Z+SMqujYj4IjECAlmV4KIv19mGDM8wAZJxt8e2OJd/exm2BbZwMFLFgTx5sXyV/cbbr3Ku+/MetXQecD253W33AGKQXK492Ok02v+Qgyr84rCKyTjKfCvuM1s8K8J7G3uNyVfM2t/lkGzPvlY8gq01z7jAA5ZNT+s4/6l5nGclfVFwJJ9/q7I1JeyfgdMNh68B8X9bMbAZdsS/lx8FDyvvbAf5gMJYD91rzSRNYIplRA1+x7LZ8+6/oh83/BWww2Tj3Mo9V1OW1X9IyT8/Zo8gfy/tu1+areCC29nc4H+S5pj/3uDXGTJkchk61p1g51R5w+q6dyWf2KV81frdt/snhhXnn3OzHsa8mZ8+bxHgc2nzJSRvBlNHv5z+WNPGpqv1cbhzz4fGftN+TZaN7Kmaf9nOOy7u2H944a85PDm+oYvE5e4D65u0VbLNElpJYO+cPzr1klootObVplf/o23zJ2XvUVq6ZchE/NR7copz9Uvn46KdzDv1uPu+Obb5qXXpsK7vnxWM8or95LJ3zAdui8yH5s9Llt7E5271iefE5/tiWlxlJ9KfmxysGm1eH3fv6Ox5utz/zHlxeh5mrORxfS1Inu2dxYjeSQyxmI54lp3t79oO/z6xjwqjsjFfxFy1fj3NY3ofAU07GLVq5BxiQbcVzo86+PG9oT9FzZkrlHUHFrNI+cyiGsDpnn1V7FM5Sy+s26eMdIYCWfxrx2+ogGyqzwZyHDa4te1+yvy91xP9ICoVCoVAoFAqFQqFQKBQKXaV4kRQKhUKhUCgUCoVCoVAoFLpK8SIpFAqFQqFQKBQKhUKhUCh0lf4fP7kxOwY9VFQAAAAASUVORK5CYII=;" vertex="1" parent="1">
          <mxGeometry x="303" y="322" width="220" height="107.18" as="geometry" />
        </mxCell>
        <mxCell id="4vTzcYyNLAwcBRb3Amjt-72" value="&lt;font face=&quot;Times New Roman&quot; style=&quot;font-size: 16px;&quot;&gt;Mel-spectrogram&lt;br&gt;&lt;/font&gt;" style="text;html=1;strokeColor=none;fillColor=none;align=center;verticalAlign=middle;whiteSpace=wrap;rounded=0;" vertex="1" parent="1">
          <mxGeometry x="346" y="292" width="134" height="30" as="geometry" />
        </mxCell>
        <mxCell id="4vTzcYyNLAwcBRb3Amjt-73" value="&lt;font face=&quot;Times New Roman&quot; style=&quot;font-size: 12px;&quot;&gt;Speaker&lt;br&gt;Embedding&lt;br&gt;&lt;/font&gt;" style="rounded=1;whiteSpace=wrap;html=1;strokeWidth=1.5;fillColor=#f8cecc;strokeColor=#b85450;" vertex="1" parent="1">
          <mxGeometry x="313" y="667" width="70" height="35" as="geometry" />
        </mxCell>
        <mxCell id="4vTzcYyNLAwcBRb3Amjt-75" style="edgeStyle=orthogonalEdgeStyle;rounded=0;orthogonalLoop=1;jettySize=auto;html=1;exitX=1;exitY=0.5;exitDx=0;exitDy=0;entryX=0;entryY=0.5;entryDx=0;entryDy=0;" edge="1" parent="1" source="4vTzcYyNLAwcBRb3Amjt-74" target="4vTzcYyNLAwcBRb3Amjt-73">
          <mxGeometry relative="1" as="geometry" />
        </mxCell>
        <mxCell id="4vTzcYyNLAwcBRb3Amjt-74" value="&lt;font face=&quot;Times New Roman&quot; style=&quot;font-size: 14px;&quot;&gt;Speaker ID&lt;/font&gt;" style="text;html=1;strokeColor=none;fillColor=none;align=center;verticalAlign=middle;whiteSpace=wrap;rounded=0;" vertex="1" parent="1">
          <mxGeometry x="215" y="664.5" width="74" height="40" as="geometry" />
        </mxCell>
        <mxCell id="4vTzcYyNLAwcBRb3Amjt-96" style="edgeStyle=orthogonalEdgeStyle;rounded=0;orthogonalLoop=1;jettySize=auto;html=1;exitX=1;exitY=0.5;exitDx=0;exitDy=0;entryX=0;entryY=0.5;entryDx=0;entryDy=0;" edge="1" parent="1" source="4vTzcYyNLAwcBRb3Amjt-95" target="4vTzcYyNLAwcBRb3Amjt-25">
          <mxGeometry relative="1" as="geometry" />
        </mxCell>
        <mxCell id="4vTzcYyNLAwcBRb3Amjt-95" value="&lt;font face=&quot;Times New Roman&quot; style=&quot;font-size: 12px;&quot;&gt;Variance&lt;br&gt;Embeddings&lt;br&gt;&lt;/font&gt;" style="rounded=1;whiteSpace=wrap;html=1;strokeWidth=1.5;fillColor=#f8cecc;strokeColor=#b85450;" vertex="1" parent="1">
          <mxGeometry x="313" y="554.5" width="70" height="35" as="geometry" />
        </mxCell>
        <mxCell id="4vTzcYyNLAwcBRb3Amjt-101" style="edgeStyle=orthogonalEdgeStyle;rounded=0;orthogonalLoop=1;jettySize=auto;html=1;exitX=0;exitY=0.5;exitDx=0;exitDy=0;entryX=1;entryY=0.5;entryDx=0;entryDy=0;" edge="1" parent="1" source="4vTzcYyNLAwcBRb3Amjt-100" target="4vTzcYyNLAwcBRb3Amjt-25">
          <mxGeometry relative="1" as="geometry" />
        </mxCell>
        <mxCell id="4vTzcYyNLAwcBRb3Amjt-100" value="&lt;font face=&quot;Times New Roman&quot; style=&quot;font-size: 12px;&quot;&gt;Transformation&lt;br&gt;Embeddings&lt;br&gt;&lt;/font&gt;" style="rounded=1;whiteSpace=wrap;html=1;strokeWidth=1.5;fillColor=#f8cecc;strokeColor=#b85450;" vertex="1" parent="1">
          <mxGeometry x="443" y="554.5" width="85" height="35" as="geometry" />
        </mxCell>
        <mxCell id="4vTzcYyNLAwcBRb3Amjt-105" style="edgeStyle=orthogonalEdgeStyle;rounded=0;orthogonalLoop=1;jettySize=auto;html=1;exitX=0;exitY=0.5;exitDx=0;exitDy=0;entryX=1;entryY=0.5;entryDx=0;entryDy=0;" edge="1" parent="1" source="4vTzcYyNLAwcBRb3Amjt-104" target="4vTzcYyNLAwcBRb3Amjt-22">
          <mxGeometry relative="1" as="geometry" />
        </mxCell>
        <mxCell id="4vTzcYyNLAwcBRb3Amjt-104" value="&lt;font face=&quot;Times New Roman&quot; style=&quot;font-size: 12px;&quot;&gt;F0&lt;br&gt;Embedding&lt;br&gt;&lt;/font&gt;" style="rounded=1;whiteSpace=wrap;html=1;strokeWidth=1.5;fillColor=#f8cecc;strokeColor=#b85450;" vertex="1" parent="1">
          <mxGeometry x="443" y="612" width="70" height="35" as="geometry" />
        </mxCell>
        <mxCell id="4vTzcYyNLAwcBRb3Amjt-109" style="edgeStyle=orthogonalEdgeStyle;rounded=0;orthogonalLoop=1;jettySize=auto;html=1;exitX=0.5;exitY=0;exitDx=0;exitDy=0;entryX=0.25;entryY=1;entryDx=0;entryDy=0;" edge="1" parent="1" source="4vTzcYyNLAwcBRb3Amjt-107" target="4vTzcYyNLAwcBRb3Amjt-3">
          <mxGeometry relative="1" as="geometry" />
        </mxCell>
        <mxCell id="4vTzcYyNLAwcBRb3Amjt-107" value="&lt;font face=&quot;Times New Roman&quot; style=&quot;font-size: 12px;&quot;&gt;Phoneme&lt;br&gt;Embedding&lt;br&gt;&lt;/font&gt;" style="rounded=1;whiteSpace=wrap;html=1;strokeWidth=1.5;fillColor=#f8cecc;strokeColor=#b85450;" vertex="1" parent="1">
          <mxGeometry x="328" y="792" width="70" height="35" as="geometry" />
        </mxCell>
        <mxCell id="4vTzcYyNLAwcBRb3Amjt-110" style="edgeStyle=orthogonalEdgeStyle;rounded=0;orthogonalLoop=1;jettySize=auto;html=1;exitX=0.5;exitY=0;exitDx=0;exitDy=0;entryX=0.75;entryY=1;entryDx=0;entryDy=0;" edge="1" parent="1" source="4vTzcYyNLAwcBRb3Amjt-108" target="4vTzcYyNLAwcBRb3Amjt-3">
          <mxGeometry relative="1" as="geometry" />
        </mxCell>
        <mxCell id="4vTzcYyNLAwcBRb3Amjt-108" value="&lt;font face=&quot;Times New Roman&quot; style=&quot;font-size: 12px;&quot;&gt;Duration&lt;br&gt;Embedding&lt;br&gt;&lt;/font&gt;" style="rounded=1;whiteSpace=wrap;html=1;strokeWidth=1.5;fillColor=#f8cecc;strokeColor=#b85450;" vertex="1" parent="1">
          <mxGeometry x="428" y="792" width="70" height="35" as="geometry" />
        </mxCell>
        <mxCell id="4vTzcYyNLAwcBRb3Amjt-117" style="edgeStyle=orthogonalEdgeStyle;rounded=0;orthogonalLoop=1;jettySize=auto;html=1;exitX=1;exitY=0.5;exitDx=0;exitDy=0;entryX=0;entryY=0.5;entryDx=0;entryDy=0;" edge="1" parent="1" source="4vTzcYyNLAwcBRb3Amjt-114" target="4vTzcYyNLAwcBRb3Amjt-22">
          <mxGeometry relative="1" as="geometry" />
        </mxCell>
        <mxCell id="4vTzcYyNLAwcBRb3Amjt-114" value="" style="shape=sumEllipse;perimeter=ellipsePerimeter;whiteSpace=wrap;html=1;backgroundOutline=1;" vertex="1" parent="1">
          <mxGeometry x="335.5" y="617" width="25" height="25" as="geometry" />
        </mxCell>
        <mxCell id="4vTzcYyNLAwcBRb3Amjt-119" value="" style="endArrow=none;html=1;rounded=0;exitX=0.5;exitY=0;exitDx=0;exitDy=0;entryX=0.5;entryY=1;entryDx=0;entryDy=0;edgeStyle=orthogonalEdgeStyle;" edge="1" parent="1" source="4vTzcYyNLAwcBRb3Amjt-73" target="4vTzcYyNLAwcBRb3Amjt-114">
          <mxGeometry width="50" height="50" relative="1" as="geometry">
            <mxPoint x="400" y="615" as="sourcePoint" />
            <mxPoint x="450" y="565" as="targetPoint" />
          </mxGeometry>
        </mxCell>
      </root>
    </mxGraphModel>
  </diagram>
</mxfile>
